G04 MADE WITH FRITZING*
G04 WWW.FRITZING.ORG*
G04 DOUBLE SIDED*
G04 HOLES PLATED*
G04 CONTOUR ON CENTER OF CONTOUR VECTOR*
%ASAXBY*%
%FSLAX23Y23*%
%MOIN*%
%OFA0B0*%
%SFA1.0B1.0*%
%ADD10C,0.065000*%
%ADD11C,0.074106*%
%ADD12C,0.039370*%
%ADD13C,0.024000*%
%ADD14R,0.001000X0.001000*%
%LNCOPPER1*%
G90*
G70*
G54D10*
X488Y775D03*
X409Y775D03*
X331Y775D03*
X252Y775D03*
X488Y775D03*
X409Y775D03*
X331Y775D03*
X252Y775D03*
G54D11*
X2409Y173D03*
X2309Y173D03*
X2209Y173D03*
X2109Y173D03*
X2009Y173D03*
X1909Y173D03*
X1809Y173D03*
X1708Y173D03*
X1608Y173D03*
X1508Y173D03*
X1408Y173D03*
X1308Y173D03*
X1208Y173D03*
X1108Y173D03*
X1007Y173D03*
X2409Y1175D03*
X2309Y1175D03*
X2209Y1175D03*
X2109Y1175D03*
X2009Y1175D03*
X1909Y1175D03*
X1809Y1175D03*
X1708Y1175D03*
X1608Y1175D03*
X1508Y1175D03*
X1408Y1175D03*
X1308Y1175D03*
X1208Y1175D03*
X1108Y1175D03*
X1007Y1175D03*
X2409Y173D03*
X2309Y173D03*
X2209Y173D03*
X2109Y173D03*
X2009Y173D03*
X1909Y173D03*
X1809Y173D03*
X1708Y173D03*
X1608Y173D03*
X1508Y173D03*
X1408Y173D03*
X1308Y173D03*
X1208Y173D03*
X1108Y173D03*
X1007Y173D03*
X2409Y1175D03*
X2309Y1175D03*
X2209Y1175D03*
X2109Y1175D03*
X2009Y1175D03*
X1909Y1175D03*
X1809Y1175D03*
X1708Y1175D03*
X1608Y1175D03*
X1508Y1175D03*
X1408Y1175D03*
X1308Y1175D03*
X1208Y1175D03*
X1108Y1175D03*
X1007Y1175D03*
G54D12*
X708Y283D03*
G54D13*
X1396Y199D02*
X1380Y235D01*
X1380Y235D02*
X727Y281D01*
G54D14*
X1001Y1212D02*
X1012Y1212D01*
X1101Y1212D02*
X1112Y1212D01*
X1201Y1212D02*
X1213Y1212D01*
X1302Y1212D02*
X1313Y1212D01*
X1402Y1212D02*
X1413Y1212D01*
X1502Y1212D02*
X1513Y1212D01*
X1602Y1212D02*
X1613Y1212D01*
X1702Y1212D02*
X1713Y1212D01*
X1802Y1212D02*
X1813Y1212D01*
X1902Y1212D02*
X1914Y1212D01*
X2002Y1212D02*
X2014Y1212D01*
X2103Y1212D02*
X2114Y1212D01*
X2203Y1212D02*
X2214Y1212D01*
X2303Y1212D02*
X2314Y1212D01*
X2403Y1212D02*
X2414Y1212D01*
X997Y1211D02*
X1017Y1211D01*
X1097Y1211D02*
X1117Y1211D01*
X1197Y1211D02*
X1217Y1211D01*
X1297Y1211D02*
X1317Y1211D01*
X1398Y1211D02*
X1417Y1211D01*
X1498Y1211D02*
X1517Y1211D01*
X1598Y1211D02*
X1617Y1211D01*
X1698Y1211D02*
X1717Y1211D01*
X1798Y1211D02*
X1818Y1211D01*
X1898Y1211D02*
X1918Y1211D01*
X1998Y1211D02*
X2018Y1211D01*
X2098Y1211D02*
X2118Y1211D01*
X2199Y1211D02*
X2218Y1211D01*
X2299Y1211D02*
X2318Y1211D01*
X2399Y1211D02*
X2418Y1211D01*
X994Y1210D02*
X1019Y1210D01*
X1094Y1210D02*
X1120Y1210D01*
X1194Y1210D02*
X1220Y1210D01*
X1295Y1210D02*
X1320Y1210D01*
X1395Y1210D02*
X1420Y1210D01*
X1495Y1210D02*
X1520Y1210D01*
X1595Y1210D02*
X1620Y1210D01*
X1695Y1210D02*
X1720Y1210D01*
X1795Y1210D02*
X1820Y1210D01*
X1895Y1210D02*
X1921Y1210D01*
X1995Y1210D02*
X2021Y1210D01*
X2096Y1210D02*
X2121Y1210D01*
X2196Y1210D02*
X2221Y1210D01*
X2296Y1210D02*
X2321Y1210D01*
X2396Y1210D02*
X2421Y1210D01*
X992Y1209D02*
X1022Y1209D01*
X1092Y1209D02*
X1122Y1209D01*
X1192Y1209D02*
X1222Y1209D01*
X1292Y1209D02*
X1322Y1209D01*
X1392Y1209D02*
X1422Y1209D01*
X1492Y1209D02*
X1522Y1209D01*
X1593Y1209D02*
X1623Y1209D01*
X1693Y1209D02*
X1723Y1209D01*
X1793Y1209D02*
X1823Y1209D01*
X1893Y1209D02*
X1923Y1209D01*
X1993Y1209D02*
X2023Y1209D01*
X2093Y1209D02*
X2123Y1209D01*
X2193Y1209D02*
X2223Y1209D01*
X2293Y1209D02*
X2323Y1209D01*
X2394Y1209D02*
X2424Y1209D01*
X990Y1208D02*
X1024Y1208D01*
X1090Y1208D02*
X1124Y1208D01*
X1190Y1208D02*
X1224Y1208D01*
X1290Y1208D02*
X1324Y1208D01*
X1390Y1208D02*
X1424Y1208D01*
X1490Y1208D02*
X1524Y1208D01*
X1590Y1208D02*
X1625Y1208D01*
X1691Y1208D02*
X1725Y1208D01*
X1791Y1208D02*
X1825Y1208D01*
X1891Y1208D02*
X1925Y1208D01*
X1991Y1208D02*
X2025Y1208D01*
X2091Y1208D02*
X2125Y1208D01*
X2191Y1208D02*
X2225Y1208D01*
X2291Y1208D02*
X2326Y1208D01*
X2392Y1208D02*
X2426Y1208D01*
X988Y1207D02*
X1026Y1207D01*
X1088Y1207D02*
X1126Y1207D01*
X1188Y1207D02*
X1226Y1207D01*
X1288Y1207D02*
X1326Y1207D01*
X1388Y1207D02*
X1426Y1207D01*
X1489Y1207D02*
X1526Y1207D01*
X1589Y1207D02*
X1626Y1207D01*
X1689Y1207D02*
X1726Y1207D01*
X1789Y1207D02*
X1827Y1207D01*
X1889Y1207D02*
X1927Y1207D01*
X1989Y1207D02*
X2027Y1207D01*
X2089Y1207D02*
X2127Y1207D01*
X2190Y1207D02*
X2227Y1207D01*
X2290Y1207D02*
X2327Y1207D01*
X2390Y1207D02*
X2427Y1207D01*
X986Y1206D02*
X1027Y1206D01*
X1086Y1206D02*
X1127Y1206D01*
X1187Y1206D02*
X1227Y1206D01*
X1287Y1206D02*
X1328Y1206D01*
X1387Y1206D02*
X1428Y1206D01*
X1487Y1206D02*
X1528Y1206D01*
X1587Y1206D02*
X1628Y1206D01*
X1687Y1206D02*
X1728Y1206D01*
X1787Y1206D02*
X1828Y1206D01*
X1887Y1206D02*
X1928Y1206D01*
X1988Y1206D02*
X2029Y1206D01*
X2088Y1206D02*
X2129Y1206D01*
X2188Y1206D02*
X2229Y1206D01*
X2288Y1206D02*
X2329Y1206D01*
X2388Y1206D02*
X2429Y1206D01*
X985Y1205D02*
X1029Y1205D01*
X1085Y1205D02*
X1129Y1205D01*
X1185Y1205D02*
X1229Y1205D01*
X1285Y1205D02*
X1329Y1205D01*
X1385Y1205D02*
X1429Y1205D01*
X1486Y1205D02*
X1529Y1205D01*
X1586Y1205D02*
X1629Y1205D01*
X1686Y1205D02*
X1730Y1205D01*
X1786Y1205D02*
X1830Y1205D01*
X1886Y1205D02*
X1930Y1205D01*
X1986Y1205D02*
X2030Y1205D01*
X2086Y1205D02*
X2130Y1205D01*
X2186Y1205D02*
X2230Y1205D01*
X2287Y1205D02*
X2330Y1205D01*
X2387Y1205D02*
X2430Y1205D01*
X984Y1204D02*
X1030Y1204D01*
X1084Y1204D02*
X1130Y1204D01*
X1184Y1204D02*
X1230Y1204D01*
X1284Y1204D02*
X1330Y1204D01*
X1384Y1204D02*
X1430Y1204D01*
X1484Y1204D02*
X1531Y1204D01*
X1584Y1204D02*
X1631Y1204D01*
X1685Y1204D02*
X1731Y1204D01*
X1785Y1204D02*
X1831Y1204D01*
X1885Y1204D02*
X1931Y1204D01*
X1985Y1204D02*
X2031Y1204D01*
X2085Y1204D02*
X2131Y1204D01*
X2185Y1204D02*
X2232Y1204D01*
X2285Y1204D02*
X2332Y1204D01*
X2385Y1204D02*
X2432Y1204D01*
X982Y1203D02*
X1031Y1203D01*
X1083Y1203D02*
X1131Y1203D01*
X1183Y1203D02*
X1231Y1203D01*
X1283Y1203D02*
X1331Y1203D01*
X1383Y1203D02*
X1432Y1203D01*
X1483Y1203D02*
X1532Y1203D01*
X1583Y1203D02*
X1632Y1203D01*
X1683Y1203D02*
X1732Y1203D01*
X1783Y1203D02*
X1832Y1203D01*
X1884Y1203D02*
X1932Y1203D01*
X1984Y1203D02*
X2032Y1203D01*
X2084Y1203D02*
X2133Y1203D01*
X2184Y1203D02*
X2233Y1203D01*
X2284Y1203D02*
X2333Y1203D01*
X2384Y1203D02*
X2433Y1203D01*
X981Y1202D02*
X1032Y1202D01*
X1081Y1202D02*
X1132Y1202D01*
X1182Y1202D02*
X1232Y1202D01*
X1282Y1202D02*
X1333Y1202D01*
X1382Y1202D02*
X1433Y1202D01*
X1482Y1202D02*
X1533Y1202D01*
X1582Y1202D02*
X1633Y1202D01*
X1682Y1202D02*
X1733Y1202D01*
X1782Y1202D02*
X1833Y1202D01*
X1883Y1202D02*
X1933Y1202D01*
X1983Y1202D02*
X2033Y1202D01*
X2083Y1202D02*
X2134Y1202D01*
X2183Y1202D02*
X2234Y1202D01*
X2283Y1202D02*
X2334Y1202D01*
X2383Y1202D02*
X2434Y1202D01*
X980Y1201D02*
X1033Y1201D01*
X1080Y1201D02*
X1133Y1201D01*
X1181Y1201D02*
X1233Y1201D01*
X1281Y1201D02*
X1334Y1201D01*
X1381Y1201D02*
X1434Y1201D01*
X1481Y1201D02*
X1534Y1201D01*
X1581Y1201D02*
X1634Y1201D01*
X1681Y1201D02*
X1734Y1201D01*
X1781Y1201D02*
X1834Y1201D01*
X1882Y1201D02*
X1934Y1201D01*
X1982Y1201D02*
X2034Y1201D01*
X2082Y1201D02*
X2135Y1201D01*
X2182Y1201D02*
X2235Y1201D01*
X2282Y1201D02*
X2335Y1201D01*
X2382Y1201D02*
X2435Y1201D01*
X979Y1200D02*
X1034Y1200D01*
X1080Y1200D02*
X1134Y1200D01*
X1180Y1200D02*
X1234Y1200D01*
X1280Y1200D02*
X1334Y1200D01*
X1380Y1200D02*
X1435Y1200D01*
X1480Y1200D02*
X1535Y1200D01*
X1580Y1200D02*
X1635Y1200D01*
X1680Y1200D02*
X1735Y1200D01*
X1781Y1200D02*
X1835Y1200D01*
X1881Y1200D02*
X1935Y1200D01*
X1981Y1200D02*
X2035Y1200D01*
X2081Y1200D02*
X2135Y1200D01*
X2181Y1200D02*
X2236Y1200D01*
X2281Y1200D02*
X2336Y1200D01*
X2381Y1200D02*
X2436Y1200D01*
X979Y1199D02*
X1035Y1199D01*
X1079Y1199D02*
X1135Y1199D01*
X1179Y1199D02*
X1235Y1199D01*
X1279Y1199D02*
X1335Y1199D01*
X1379Y1199D02*
X1435Y1199D01*
X1479Y1199D02*
X1536Y1199D01*
X1579Y1199D02*
X1636Y1199D01*
X1680Y1199D02*
X1736Y1199D01*
X1780Y1199D02*
X1836Y1199D01*
X1880Y1199D02*
X1936Y1199D01*
X1980Y1199D02*
X2036Y1199D01*
X2080Y1199D02*
X2136Y1199D01*
X2180Y1199D02*
X2236Y1199D01*
X2280Y1199D02*
X2337Y1199D01*
X2380Y1199D02*
X2437Y1199D01*
X978Y1198D02*
X1036Y1198D01*
X1078Y1198D02*
X1136Y1198D01*
X1178Y1198D02*
X1236Y1198D01*
X1278Y1198D02*
X1336Y1198D01*
X1378Y1198D02*
X1436Y1198D01*
X1479Y1198D02*
X1536Y1198D01*
X1579Y1198D02*
X1636Y1198D01*
X1679Y1198D02*
X1737Y1198D01*
X1779Y1198D02*
X1837Y1198D01*
X1879Y1198D02*
X1937Y1198D01*
X1979Y1198D02*
X2037Y1198D01*
X2079Y1198D02*
X2137Y1198D01*
X2179Y1198D02*
X2237Y1198D01*
X2280Y1198D02*
X2337Y1198D01*
X2380Y1198D02*
X2437Y1198D01*
X977Y1197D02*
X1036Y1197D01*
X1077Y1197D02*
X1136Y1197D01*
X1177Y1197D02*
X1237Y1197D01*
X1278Y1197D02*
X1337Y1197D01*
X1378Y1197D02*
X1437Y1197D01*
X1478Y1197D02*
X1537Y1197D01*
X1578Y1197D02*
X1637Y1197D01*
X1678Y1197D02*
X1737Y1197D01*
X1778Y1197D02*
X1837Y1197D01*
X1878Y1197D02*
X1938Y1197D01*
X1978Y1197D02*
X2038Y1197D01*
X2079Y1197D02*
X2138Y1197D01*
X2179Y1197D02*
X2238Y1197D01*
X2279Y1197D02*
X2338Y1197D01*
X2379Y1197D02*
X2438Y1197D01*
X977Y1196D02*
X1037Y1196D01*
X1077Y1196D02*
X1137Y1196D01*
X1177Y1196D02*
X1237Y1196D01*
X1277Y1196D02*
X1337Y1196D01*
X1377Y1196D02*
X1438Y1196D01*
X1477Y1196D02*
X1538Y1196D01*
X1577Y1196D02*
X1638Y1196D01*
X1677Y1196D02*
X1738Y1196D01*
X1778Y1196D02*
X1838Y1196D01*
X1878Y1196D02*
X1938Y1196D01*
X1978Y1196D02*
X2038Y1196D01*
X2078Y1196D02*
X2138Y1196D01*
X2178Y1196D02*
X2239Y1196D01*
X2278Y1196D02*
X2339Y1196D01*
X2378Y1196D02*
X2439Y1196D01*
X976Y1195D02*
X1038Y1195D01*
X1076Y1195D02*
X1138Y1195D01*
X1176Y1195D02*
X1238Y1195D01*
X1276Y1195D02*
X1338Y1195D01*
X1376Y1195D02*
X1438Y1195D01*
X1477Y1195D02*
X1538Y1195D01*
X1577Y1195D02*
X1638Y1195D01*
X1677Y1195D02*
X1739Y1195D01*
X1777Y1195D02*
X1839Y1195D01*
X1877Y1195D02*
X1939Y1195D01*
X1977Y1195D02*
X2039Y1195D01*
X2077Y1195D02*
X2139Y1195D01*
X2177Y1195D02*
X2239Y1195D01*
X2278Y1195D02*
X2339Y1195D01*
X2378Y1195D02*
X2439Y1195D01*
X975Y1194D02*
X1038Y1194D01*
X1075Y1194D02*
X1138Y1194D01*
X1176Y1194D02*
X1238Y1194D01*
X1276Y1194D02*
X1339Y1194D01*
X1376Y1194D02*
X1439Y1194D01*
X1476Y1194D02*
X1539Y1194D01*
X1576Y1194D02*
X1639Y1194D01*
X1676Y1194D02*
X1739Y1194D01*
X1776Y1194D02*
X1839Y1194D01*
X1876Y1194D02*
X1939Y1194D01*
X1977Y1194D02*
X2040Y1194D01*
X2077Y1194D02*
X2140Y1194D01*
X2177Y1194D02*
X2240Y1194D01*
X2277Y1194D02*
X2340Y1194D01*
X2377Y1194D02*
X2440Y1194D01*
X975Y1193D02*
X1005Y1193D01*
X1009Y1193D02*
X1039Y1193D01*
X1075Y1193D02*
X1105Y1193D01*
X1109Y1193D02*
X1139Y1193D01*
X1175Y1193D02*
X1205Y1193D01*
X1209Y1193D02*
X1239Y1193D01*
X1275Y1193D02*
X1305Y1193D01*
X1309Y1193D02*
X1339Y1193D01*
X1375Y1193D02*
X1406Y1193D01*
X1409Y1193D02*
X1439Y1193D01*
X1475Y1193D02*
X1506Y1193D01*
X1509Y1193D02*
X1539Y1193D01*
X1576Y1193D02*
X1606Y1193D01*
X1609Y1193D02*
X1640Y1193D01*
X1676Y1193D02*
X1706Y1193D01*
X1709Y1193D02*
X1740Y1193D01*
X1776Y1193D02*
X1806Y1193D01*
X1810Y1193D02*
X1840Y1193D01*
X1876Y1193D02*
X1906Y1193D01*
X1910Y1193D02*
X1940Y1193D01*
X1976Y1193D02*
X2006Y1193D01*
X2010Y1193D02*
X2040Y1193D01*
X2076Y1193D02*
X2106Y1193D01*
X2110Y1193D02*
X2140Y1193D01*
X2176Y1193D02*
X2207Y1193D01*
X2210Y1193D02*
X2240Y1193D01*
X2276Y1193D02*
X2307Y1193D01*
X2310Y1193D02*
X2340Y1193D01*
X2377Y1193D02*
X2407Y1193D01*
X2410Y1193D02*
X2441Y1193D01*
X974Y1192D02*
X1000Y1192D01*
X1014Y1192D02*
X1039Y1192D01*
X1074Y1192D02*
X1100Y1192D01*
X1114Y1192D02*
X1139Y1192D01*
X1175Y1192D02*
X1200Y1192D01*
X1214Y1192D02*
X1240Y1192D01*
X1275Y1192D02*
X1300Y1192D01*
X1314Y1192D02*
X1340Y1192D01*
X1375Y1192D02*
X1400Y1192D01*
X1414Y1192D02*
X1440Y1192D01*
X1475Y1192D02*
X1500Y1192D01*
X1514Y1192D02*
X1540Y1192D01*
X1575Y1192D02*
X1601Y1192D01*
X1615Y1192D02*
X1640Y1192D01*
X1675Y1192D02*
X1701Y1192D01*
X1715Y1192D02*
X1740Y1192D01*
X1775Y1192D02*
X1801Y1192D01*
X1815Y1192D02*
X1840Y1192D01*
X1875Y1192D02*
X1901Y1192D01*
X1915Y1192D02*
X1940Y1192D01*
X1976Y1192D02*
X2001Y1192D01*
X2015Y1192D02*
X2041Y1192D01*
X2076Y1192D02*
X2101Y1192D01*
X2115Y1192D02*
X2141Y1192D01*
X2176Y1192D02*
X2201Y1192D01*
X2215Y1192D02*
X2241Y1192D01*
X2276Y1192D02*
X2301Y1192D01*
X2315Y1192D02*
X2341Y1192D01*
X2376Y1192D02*
X2402Y1192D01*
X2416Y1192D02*
X2441Y1192D01*
X974Y1191D02*
X998Y1191D01*
X1016Y1191D02*
X1040Y1191D01*
X1074Y1191D02*
X1098Y1191D01*
X1116Y1191D02*
X1140Y1191D01*
X1174Y1191D02*
X1198Y1191D01*
X1216Y1191D02*
X1240Y1191D01*
X1274Y1191D02*
X1298Y1191D01*
X1316Y1191D02*
X1340Y1191D01*
X1374Y1191D02*
X1398Y1191D01*
X1416Y1191D02*
X1440Y1191D01*
X1474Y1191D02*
X1498Y1191D01*
X1516Y1191D02*
X1540Y1191D01*
X1575Y1191D02*
X1599Y1191D01*
X1617Y1191D02*
X1641Y1191D01*
X1675Y1191D02*
X1699Y1191D01*
X1717Y1191D02*
X1741Y1191D01*
X1775Y1191D02*
X1799Y1191D01*
X1817Y1191D02*
X1841Y1191D01*
X1875Y1191D02*
X1899Y1191D01*
X1917Y1191D02*
X1941Y1191D01*
X1975Y1191D02*
X1999Y1191D01*
X2017Y1191D02*
X2041Y1191D01*
X2075Y1191D02*
X2099Y1191D01*
X2117Y1191D02*
X2141Y1191D01*
X2175Y1191D02*
X2199Y1191D01*
X2217Y1191D02*
X2241Y1191D01*
X2276Y1191D02*
X2299Y1191D01*
X2317Y1191D02*
X2341Y1191D01*
X2376Y1191D02*
X2400Y1191D01*
X2418Y1191D02*
X2442Y1191D01*
X973Y1190D02*
X996Y1190D01*
X1017Y1190D02*
X1040Y1190D01*
X1073Y1190D02*
X1096Y1190D01*
X1117Y1190D02*
X1140Y1190D01*
X1174Y1190D02*
X1196Y1190D01*
X1218Y1190D02*
X1240Y1190D01*
X1274Y1190D02*
X1297Y1190D01*
X1318Y1190D02*
X1341Y1190D01*
X1374Y1190D02*
X1397Y1190D01*
X1418Y1190D02*
X1441Y1190D01*
X1474Y1190D02*
X1497Y1190D01*
X1518Y1190D02*
X1541Y1190D01*
X1574Y1190D02*
X1597Y1190D01*
X1618Y1190D02*
X1641Y1190D01*
X1674Y1190D02*
X1697Y1190D01*
X1718Y1190D02*
X1741Y1190D01*
X1774Y1190D02*
X1797Y1190D01*
X1818Y1190D02*
X1841Y1190D01*
X1875Y1190D02*
X1897Y1190D01*
X1918Y1190D02*
X1941Y1190D01*
X1975Y1190D02*
X1998Y1190D01*
X2019Y1190D02*
X2041Y1190D01*
X2075Y1190D02*
X2098Y1190D01*
X2119Y1190D02*
X2142Y1190D01*
X2175Y1190D02*
X2198Y1190D01*
X2219Y1190D02*
X2242Y1190D01*
X2275Y1190D02*
X2298Y1190D01*
X2319Y1190D02*
X2342Y1190D01*
X2375Y1190D02*
X2398Y1190D01*
X2419Y1190D02*
X2442Y1190D01*
X973Y1189D02*
X995Y1189D01*
X1018Y1189D02*
X1041Y1189D01*
X1073Y1189D02*
X1095Y1189D01*
X1119Y1189D02*
X1141Y1189D01*
X1173Y1189D02*
X1195Y1189D01*
X1219Y1189D02*
X1241Y1189D01*
X1273Y1189D02*
X1295Y1189D01*
X1319Y1189D02*
X1341Y1189D01*
X1373Y1189D02*
X1396Y1189D01*
X1419Y1189D02*
X1441Y1189D01*
X1474Y1189D02*
X1496Y1189D01*
X1519Y1189D02*
X1541Y1189D01*
X1574Y1189D02*
X1596Y1189D01*
X1619Y1189D02*
X1641Y1189D01*
X1674Y1189D02*
X1696Y1189D01*
X1719Y1189D02*
X1741Y1189D01*
X1774Y1189D02*
X1796Y1189D01*
X1820Y1189D02*
X1842Y1189D01*
X1874Y1189D02*
X1896Y1189D01*
X1920Y1189D02*
X1942Y1189D01*
X1974Y1189D02*
X1996Y1189D01*
X2020Y1189D02*
X2042Y1189D01*
X2074Y1189D02*
X2097Y1189D01*
X2120Y1189D02*
X2142Y1189D01*
X2175Y1189D02*
X2197Y1189D01*
X2220Y1189D02*
X2242Y1189D01*
X2275Y1189D02*
X2297Y1189D01*
X2320Y1189D02*
X2342Y1189D01*
X2375Y1189D02*
X2397Y1189D01*
X2420Y1189D02*
X2442Y1189D01*
X973Y1188D02*
X994Y1188D01*
X1020Y1188D02*
X1041Y1188D01*
X1073Y1188D02*
X1094Y1188D01*
X1120Y1188D02*
X1141Y1188D01*
X1173Y1188D02*
X1194Y1188D01*
X1220Y1188D02*
X1241Y1188D01*
X1273Y1188D02*
X1294Y1188D01*
X1320Y1188D02*
X1341Y1188D01*
X1373Y1188D02*
X1394Y1188D01*
X1420Y1188D02*
X1441Y1188D01*
X1473Y1188D02*
X1495Y1188D01*
X1520Y1188D02*
X1542Y1188D01*
X1573Y1188D02*
X1595Y1188D01*
X1620Y1188D02*
X1642Y1188D01*
X1673Y1188D02*
X1695Y1188D01*
X1721Y1188D02*
X1742Y1188D01*
X1774Y1188D02*
X1795Y1188D01*
X1821Y1188D02*
X1842Y1188D01*
X1874Y1188D02*
X1895Y1188D01*
X1921Y1188D02*
X1942Y1188D01*
X1974Y1188D02*
X1995Y1188D01*
X2021Y1188D02*
X2042Y1188D01*
X2074Y1188D02*
X2095Y1188D01*
X2121Y1188D02*
X2142Y1188D01*
X2174Y1188D02*
X2196Y1188D01*
X2221Y1188D02*
X2243Y1188D01*
X2274Y1188D02*
X2296Y1188D01*
X2321Y1188D02*
X2343Y1188D01*
X2374Y1188D02*
X2396Y1188D01*
X2421Y1188D02*
X2443Y1188D01*
X972Y1187D02*
X993Y1187D01*
X1020Y1187D02*
X1041Y1187D01*
X1072Y1187D02*
X1093Y1187D01*
X1121Y1187D02*
X1141Y1187D01*
X1172Y1187D02*
X1193Y1187D01*
X1221Y1187D02*
X1242Y1187D01*
X1273Y1187D02*
X1293Y1187D01*
X1321Y1187D02*
X1342Y1187D01*
X1373Y1187D02*
X1394Y1187D01*
X1421Y1187D02*
X1442Y1187D01*
X1473Y1187D02*
X1494Y1187D01*
X1521Y1187D02*
X1542Y1187D01*
X1573Y1187D02*
X1594Y1187D01*
X1621Y1187D02*
X1642Y1187D01*
X1673Y1187D02*
X1694Y1187D01*
X1721Y1187D02*
X1742Y1187D01*
X1773Y1187D02*
X1794Y1187D01*
X1822Y1187D02*
X1842Y1187D01*
X1873Y1187D02*
X1894Y1187D01*
X1922Y1187D02*
X1942Y1187D01*
X1974Y1187D02*
X1994Y1187D01*
X2022Y1187D02*
X2043Y1187D01*
X2074Y1187D02*
X2094Y1187D01*
X2122Y1187D02*
X2143Y1187D01*
X2174Y1187D02*
X2195Y1187D01*
X2222Y1187D02*
X2243Y1187D01*
X2274Y1187D02*
X2295Y1187D01*
X2322Y1187D02*
X2343Y1187D01*
X2374Y1187D02*
X2395Y1187D01*
X2422Y1187D02*
X2443Y1187D01*
X972Y1186D02*
X992Y1186D01*
X1021Y1186D02*
X1042Y1186D01*
X1072Y1186D02*
X1092Y1186D01*
X1121Y1186D02*
X1142Y1186D01*
X1172Y1186D02*
X1192Y1186D01*
X1222Y1186D02*
X1242Y1186D01*
X1272Y1186D02*
X1293Y1186D01*
X1322Y1186D02*
X1342Y1186D01*
X1372Y1186D02*
X1393Y1186D01*
X1422Y1186D02*
X1442Y1186D01*
X1473Y1186D02*
X1493Y1186D01*
X1522Y1186D02*
X1542Y1186D01*
X1573Y1186D02*
X1593Y1186D01*
X1622Y1186D02*
X1642Y1186D01*
X1673Y1186D02*
X1693Y1186D01*
X1722Y1186D02*
X1743Y1186D01*
X1773Y1186D02*
X1793Y1186D01*
X1822Y1186D02*
X1843Y1186D01*
X1873Y1186D02*
X1893Y1186D01*
X1923Y1186D02*
X1943Y1186D01*
X1973Y1186D02*
X1993Y1186D01*
X2023Y1186D02*
X2043Y1186D01*
X2073Y1186D02*
X2094Y1186D01*
X2123Y1186D02*
X2143Y1186D01*
X2173Y1186D02*
X2194Y1186D01*
X2223Y1186D02*
X2243Y1186D01*
X2274Y1186D02*
X2294Y1186D01*
X2323Y1186D02*
X2343Y1186D01*
X2374Y1186D02*
X2394Y1186D01*
X2423Y1186D02*
X2443Y1186D01*
X972Y1185D02*
X991Y1185D01*
X1022Y1185D02*
X1042Y1185D01*
X1072Y1185D02*
X1092Y1185D01*
X1122Y1185D02*
X1142Y1185D01*
X1172Y1185D02*
X1192Y1185D01*
X1222Y1185D02*
X1242Y1185D01*
X1272Y1185D02*
X1292Y1185D01*
X1323Y1185D02*
X1342Y1185D01*
X1372Y1185D02*
X1392Y1185D01*
X1423Y1185D02*
X1442Y1185D01*
X1472Y1185D02*
X1492Y1185D01*
X1523Y1185D02*
X1543Y1185D01*
X1572Y1185D02*
X1592Y1185D01*
X1623Y1185D02*
X1643Y1185D01*
X1673Y1185D02*
X1692Y1185D01*
X1723Y1185D02*
X1743Y1185D01*
X1773Y1185D02*
X1792Y1185D01*
X1823Y1185D02*
X1843Y1185D01*
X1873Y1185D02*
X1893Y1185D01*
X1923Y1185D02*
X1943Y1185D01*
X1973Y1185D02*
X1993Y1185D01*
X2023Y1185D02*
X2043Y1185D01*
X2073Y1185D02*
X2093Y1185D01*
X2124Y1185D02*
X2143Y1185D01*
X2173Y1185D02*
X2193Y1185D01*
X2224Y1185D02*
X2243Y1185D01*
X2273Y1185D02*
X2293Y1185D01*
X2324Y1185D02*
X2344Y1185D01*
X2373Y1185D02*
X2393Y1185D01*
X2424Y1185D02*
X2444Y1185D01*
X971Y1184D02*
X991Y1184D01*
X1023Y1184D02*
X1042Y1184D01*
X1071Y1184D02*
X1091Y1184D01*
X1123Y1184D02*
X1142Y1184D01*
X1172Y1184D02*
X1191Y1184D01*
X1223Y1184D02*
X1242Y1184D01*
X1272Y1184D02*
X1291Y1184D01*
X1323Y1184D02*
X1343Y1184D01*
X1372Y1184D02*
X1391Y1184D01*
X1423Y1184D02*
X1443Y1184D01*
X1472Y1184D02*
X1491Y1184D01*
X1523Y1184D02*
X1543Y1184D01*
X1572Y1184D02*
X1592Y1184D01*
X1623Y1184D02*
X1643Y1184D01*
X1672Y1184D02*
X1692Y1184D01*
X1724Y1184D02*
X1743Y1184D01*
X1772Y1184D02*
X1792Y1184D01*
X1824Y1184D02*
X1843Y1184D01*
X1873Y1184D02*
X1892Y1184D01*
X1924Y1184D02*
X1943Y1184D01*
X1973Y1184D02*
X1992Y1184D01*
X2024Y1184D02*
X2043Y1184D01*
X2073Y1184D02*
X2092Y1184D01*
X2124Y1184D02*
X2144Y1184D01*
X2173Y1184D02*
X2192Y1184D01*
X2224Y1184D02*
X2244Y1184D01*
X2273Y1184D02*
X2293Y1184D01*
X2324Y1184D02*
X2344Y1184D01*
X2373Y1184D02*
X2393Y1184D01*
X2425Y1184D02*
X2444Y1184D01*
X971Y1183D02*
X990Y1183D01*
X1023Y1183D02*
X1042Y1183D01*
X1071Y1183D02*
X1090Y1183D01*
X1123Y1183D02*
X1143Y1183D01*
X1171Y1183D02*
X1191Y1183D01*
X1224Y1183D02*
X1243Y1183D01*
X1271Y1183D02*
X1291Y1183D01*
X1324Y1183D02*
X1343Y1183D01*
X1372Y1183D02*
X1391Y1183D01*
X1424Y1183D02*
X1443Y1183D01*
X1472Y1183D02*
X1491Y1183D01*
X1524Y1183D02*
X1543Y1183D01*
X1572Y1183D02*
X1591Y1183D01*
X1624Y1183D02*
X1643Y1183D01*
X1672Y1183D02*
X1691Y1183D01*
X1724Y1183D02*
X1743Y1183D01*
X1772Y1183D02*
X1791Y1183D01*
X1824Y1183D02*
X1843Y1183D01*
X1872Y1183D02*
X1891Y1183D01*
X1924Y1183D02*
X1944Y1183D01*
X1972Y1183D02*
X1992Y1183D01*
X2025Y1183D02*
X2044Y1183D01*
X2073Y1183D02*
X2092Y1183D01*
X2125Y1183D02*
X2144Y1183D01*
X2173Y1183D02*
X2192Y1183D01*
X2225Y1183D02*
X2244Y1183D01*
X2273Y1183D02*
X2292Y1183D01*
X2325Y1183D02*
X2344Y1183D01*
X2373Y1183D02*
X2392Y1183D01*
X2425Y1183D02*
X2444Y1183D01*
X971Y1182D02*
X990Y1182D01*
X1024Y1182D02*
X1043Y1182D01*
X1071Y1182D02*
X1090Y1182D01*
X1124Y1182D02*
X1143Y1182D01*
X1171Y1182D02*
X1190Y1182D01*
X1224Y1182D02*
X1243Y1182D01*
X1271Y1182D02*
X1290Y1182D01*
X1324Y1182D02*
X1343Y1182D01*
X1371Y1182D02*
X1390Y1182D01*
X1424Y1182D02*
X1443Y1182D01*
X1472Y1182D02*
X1490Y1182D01*
X1524Y1182D02*
X1543Y1182D01*
X1572Y1182D02*
X1591Y1182D01*
X1625Y1182D02*
X1643Y1182D01*
X1672Y1182D02*
X1691Y1182D01*
X1725Y1182D02*
X1744Y1182D01*
X1772Y1182D02*
X1791Y1182D01*
X1825Y1182D02*
X1844Y1182D01*
X1872Y1182D02*
X1891Y1182D01*
X1925Y1182D02*
X1944Y1182D01*
X1972Y1182D02*
X1991Y1182D01*
X2025Y1182D02*
X2044Y1182D01*
X2072Y1182D02*
X2091Y1182D01*
X2125Y1182D02*
X2144Y1182D01*
X2172Y1182D02*
X2191Y1182D01*
X2225Y1182D02*
X2244Y1182D01*
X2273Y1182D02*
X2291Y1182D01*
X2325Y1182D02*
X2344Y1182D01*
X2373Y1182D02*
X2392Y1182D01*
X2426Y1182D02*
X2444Y1182D01*
X971Y1181D02*
X990Y1181D01*
X1024Y1181D02*
X1043Y1181D01*
X1071Y1181D02*
X1090Y1181D01*
X1124Y1181D02*
X1143Y1181D01*
X1171Y1181D02*
X1190Y1181D01*
X1224Y1181D02*
X1243Y1181D01*
X1271Y1181D02*
X1290Y1181D01*
X1324Y1181D02*
X1343Y1181D01*
X1371Y1181D02*
X1390Y1181D01*
X1425Y1181D02*
X1443Y1181D01*
X1471Y1181D02*
X1490Y1181D01*
X1525Y1181D02*
X1543Y1181D01*
X1571Y1181D02*
X1590Y1181D01*
X1625Y1181D02*
X1644Y1181D01*
X1672Y1181D02*
X1690Y1181D01*
X1725Y1181D02*
X1744Y1181D01*
X1772Y1181D02*
X1791Y1181D01*
X1825Y1181D02*
X1844Y1181D01*
X1872Y1181D02*
X1891Y1181D01*
X1925Y1181D02*
X1944Y1181D01*
X1972Y1181D02*
X1991Y1181D01*
X2025Y1181D02*
X2044Y1181D01*
X2072Y1181D02*
X2091Y1181D01*
X2125Y1181D02*
X2144Y1181D01*
X2172Y1181D02*
X2191Y1181D01*
X2226Y1181D02*
X2244Y1181D01*
X2272Y1181D02*
X2291Y1181D01*
X2326Y1181D02*
X2344Y1181D01*
X2373Y1181D02*
X2391Y1181D01*
X2426Y1181D02*
X2445Y1181D01*
X971Y1180D02*
X989Y1180D01*
X1024Y1180D02*
X1043Y1180D01*
X1071Y1180D02*
X1089Y1180D01*
X1124Y1180D02*
X1143Y1180D01*
X1171Y1180D02*
X1189Y1180D01*
X1225Y1180D02*
X1243Y1180D01*
X1271Y1180D02*
X1290Y1180D01*
X1325Y1180D02*
X1343Y1180D01*
X1371Y1180D02*
X1390Y1180D01*
X1425Y1180D02*
X1443Y1180D01*
X1471Y1180D02*
X1490Y1180D01*
X1525Y1180D02*
X1544Y1180D01*
X1571Y1180D02*
X1590Y1180D01*
X1625Y1180D02*
X1644Y1180D01*
X1671Y1180D02*
X1690Y1180D01*
X1725Y1180D02*
X1744Y1180D01*
X1772Y1180D02*
X1790Y1180D01*
X1825Y1180D02*
X1844Y1180D01*
X1872Y1180D02*
X1890Y1180D01*
X1925Y1180D02*
X1944Y1180D01*
X1972Y1180D02*
X1991Y1180D01*
X2026Y1180D02*
X2044Y1180D01*
X2072Y1180D02*
X2091Y1180D01*
X2126Y1180D02*
X2144Y1180D01*
X2172Y1180D02*
X2191Y1180D01*
X2226Y1180D02*
X2245Y1180D01*
X2272Y1180D02*
X2291Y1180D01*
X2326Y1180D02*
X2345Y1180D01*
X2372Y1180D02*
X2391Y1180D01*
X2426Y1180D02*
X2445Y1180D01*
X970Y1179D02*
X989Y1179D01*
X1025Y1179D02*
X1043Y1179D01*
X1071Y1179D02*
X1089Y1179D01*
X1125Y1179D02*
X1143Y1179D01*
X1171Y1179D02*
X1189Y1179D01*
X1225Y1179D02*
X1243Y1179D01*
X1271Y1179D02*
X1289Y1179D01*
X1325Y1179D02*
X1343Y1179D01*
X1371Y1179D02*
X1390Y1179D01*
X1425Y1179D02*
X1444Y1179D01*
X1471Y1179D02*
X1490Y1179D01*
X1525Y1179D02*
X1544Y1179D01*
X1571Y1179D02*
X1590Y1179D01*
X1625Y1179D02*
X1644Y1179D01*
X1671Y1179D02*
X1690Y1179D01*
X1725Y1179D02*
X1744Y1179D01*
X1771Y1179D02*
X1790Y1179D01*
X1826Y1179D02*
X1844Y1179D01*
X1872Y1179D02*
X1890Y1179D01*
X1926Y1179D02*
X1944Y1179D01*
X1972Y1179D02*
X1990Y1179D01*
X2026Y1179D02*
X2044Y1179D01*
X2072Y1179D02*
X2090Y1179D01*
X2126Y1179D02*
X2145Y1179D01*
X2172Y1179D02*
X2191Y1179D01*
X2226Y1179D02*
X2245Y1179D01*
X2272Y1179D02*
X2291Y1179D01*
X2326Y1179D02*
X2345Y1179D01*
X2372Y1179D02*
X2391Y1179D01*
X2426Y1179D02*
X2445Y1179D01*
X970Y1178D02*
X989Y1178D01*
X1025Y1178D02*
X1043Y1178D01*
X1070Y1178D02*
X1089Y1178D01*
X1125Y1178D02*
X1143Y1178D01*
X1171Y1178D02*
X1189Y1178D01*
X1225Y1178D02*
X1243Y1178D01*
X1271Y1178D02*
X1289Y1178D01*
X1325Y1178D02*
X1344Y1178D01*
X1371Y1178D02*
X1389Y1178D01*
X1425Y1178D02*
X1444Y1178D01*
X1471Y1178D02*
X1490Y1178D01*
X1525Y1178D02*
X1544Y1178D01*
X1571Y1178D02*
X1590Y1178D01*
X1625Y1178D02*
X1644Y1178D01*
X1671Y1178D02*
X1690Y1178D01*
X1726Y1178D02*
X1744Y1178D01*
X1771Y1178D02*
X1790Y1178D01*
X1826Y1178D02*
X1844Y1178D01*
X1872Y1178D02*
X1890Y1178D01*
X1926Y1178D02*
X1944Y1178D01*
X1972Y1178D02*
X1990Y1178D01*
X2026Y1178D02*
X2044Y1178D01*
X2072Y1178D02*
X2090Y1178D01*
X2126Y1178D02*
X2145Y1178D01*
X2172Y1178D02*
X2190Y1178D01*
X2226Y1178D02*
X2245Y1178D01*
X2272Y1178D02*
X2291Y1178D01*
X2326Y1178D02*
X2345Y1178D01*
X2372Y1178D02*
X2391Y1178D01*
X2426Y1178D02*
X2445Y1178D01*
X970Y1177D02*
X989Y1177D01*
X1025Y1177D02*
X1043Y1177D01*
X1070Y1177D02*
X1089Y1177D01*
X1125Y1177D02*
X1143Y1177D01*
X1171Y1177D02*
X1189Y1177D01*
X1225Y1177D02*
X1243Y1177D01*
X1271Y1177D02*
X1289Y1177D01*
X1325Y1177D02*
X1344Y1177D01*
X1371Y1177D02*
X1389Y1177D01*
X1425Y1177D02*
X1444Y1177D01*
X1471Y1177D02*
X1490Y1177D01*
X1525Y1177D02*
X1544Y1177D01*
X1571Y1177D02*
X1590Y1177D01*
X1625Y1177D02*
X1644Y1177D01*
X1671Y1177D02*
X1690Y1177D01*
X1726Y1177D02*
X1744Y1177D01*
X1771Y1177D02*
X1790Y1177D01*
X1826Y1177D02*
X1844Y1177D01*
X1871Y1177D02*
X1890Y1177D01*
X1926Y1177D02*
X1944Y1177D01*
X1972Y1177D02*
X1990Y1177D01*
X2026Y1177D02*
X2045Y1177D01*
X2072Y1177D02*
X2090Y1177D01*
X2126Y1177D02*
X2145Y1177D01*
X2172Y1177D02*
X2190Y1177D01*
X2226Y1177D02*
X2245Y1177D01*
X2272Y1177D02*
X2291Y1177D01*
X2326Y1177D02*
X2345Y1177D01*
X2372Y1177D02*
X2391Y1177D01*
X2426Y1177D02*
X2445Y1177D01*
X970Y1176D02*
X989Y1176D01*
X1025Y1176D02*
X1043Y1176D01*
X1070Y1176D02*
X1089Y1176D01*
X1125Y1176D02*
X1143Y1176D01*
X1171Y1176D02*
X1189Y1176D01*
X1225Y1176D02*
X1244Y1176D01*
X1271Y1176D02*
X1289Y1176D01*
X1325Y1176D02*
X1344Y1176D01*
X1371Y1176D02*
X1389Y1176D01*
X1425Y1176D02*
X1444Y1176D01*
X1471Y1176D02*
X1489Y1176D01*
X1525Y1176D02*
X1544Y1176D01*
X1571Y1176D02*
X1590Y1176D01*
X1626Y1176D02*
X1644Y1176D01*
X1671Y1176D02*
X1690Y1176D01*
X1726Y1176D02*
X1744Y1176D01*
X1771Y1176D02*
X1790Y1176D01*
X1826Y1176D02*
X1844Y1176D01*
X1871Y1176D02*
X1890Y1176D01*
X1926Y1176D02*
X1944Y1176D01*
X1972Y1176D02*
X1990Y1176D01*
X2026Y1176D02*
X2045Y1176D01*
X2072Y1176D02*
X2090Y1176D01*
X2126Y1176D02*
X2145Y1176D01*
X2172Y1176D02*
X2190Y1176D01*
X2226Y1176D02*
X2245Y1176D01*
X2272Y1176D02*
X2290Y1176D01*
X2326Y1176D02*
X2345Y1176D01*
X2372Y1176D02*
X2391Y1176D01*
X2427Y1176D02*
X2445Y1176D01*
X970Y1175D02*
X989Y1175D01*
X1025Y1175D02*
X1043Y1175D01*
X1070Y1175D02*
X1089Y1175D01*
X1125Y1175D02*
X1143Y1175D01*
X1171Y1175D02*
X1189Y1175D01*
X1225Y1175D02*
X1244Y1175D01*
X1271Y1175D02*
X1289Y1175D01*
X1325Y1175D02*
X1344Y1175D01*
X1371Y1175D02*
X1389Y1175D01*
X1425Y1175D02*
X1444Y1175D01*
X1471Y1175D02*
X1489Y1175D01*
X1525Y1175D02*
X1544Y1175D01*
X1571Y1175D02*
X1590Y1175D01*
X1626Y1175D02*
X1644Y1175D01*
X1671Y1175D02*
X1690Y1175D01*
X1726Y1175D02*
X1744Y1175D01*
X1771Y1175D02*
X1790Y1175D01*
X1826Y1175D02*
X1844Y1175D01*
X1871Y1175D02*
X1890Y1175D01*
X1926Y1175D02*
X1944Y1175D01*
X1972Y1175D02*
X1990Y1175D01*
X2026Y1175D02*
X2045Y1175D01*
X2072Y1175D02*
X2090Y1175D01*
X2126Y1175D02*
X2145Y1175D01*
X2172Y1175D02*
X2190Y1175D01*
X2226Y1175D02*
X2245Y1175D01*
X2272Y1175D02*
X2290Y1175D01*
X2326Y1175D02*
X2345Y1175D01*
X2372Y1175D02*
X2391Y1175D01*
X2427Y1175D02*
X2445Y1175D01*
X970Y1174D02*
X989Y1174D01*
X1025Y1174D02*
X1043Y1174D01*
X1070Y1174D02*
X1089Y1174D01*
X1125Y1174D02*
X1143Y1174D01*
X1171Y1174D02*
X1189Y1174D01*
X1225Y1174D02*
X1243Y1174D01*
X1271Y1174D02*
X1289Y1174D01*
X1325Y1174D02*
X1344Y1174D01*
X1371Y1174D02*
X1389Y1174D01*
X1425Y1174D02*
X1444Y1174D01*
X1471Y1174D02*
X1490Y1174D01*
X1525Y1174D02*
X1544Y1174D01*
X1571Y1174D02*
X1590Y1174D01*
X1625Y1174D02*
X1644Y1174D01*
X1671Y1174D02*
X1690Y1174D01*
X1726Y1174D02*
X1744Y1174D01*
X1771Y1174D02*
X1790Y1174D01*
X1826Y1174D02*
X1844Y1174D01*
X1871Y1174D02*
X1890Y1174D01*
X1926Y1174D02*
X1944Y1174D01*
X1972Y1174D02*
X1990Y1174D01*
X2026Y1174D02*
X2045Y1174D01*
X2072Y1174D02*
X2090Y1174D01*
X2126Y1174D02*
X2145Y1174D01*
X2172Y1174D02*
X2190Y1174D01*
X2226Y1174D02*
X2245Y1174D01*
X2272Y1174D02*
X2291Y1174D01*
X2326Y1174D02*
X2345Y1174D01*
X2372Y1174D02*
X2391Y1174D01*
X2426Y1174D02*
X2445Y1174D01*
X970Y1173D02*
X989Y1173D01*
X1025Y1173D02*
X1043Y1173D01*
X1070Y1173D02*
X1089Y1173D01*
X1125Y1173D02*
X1143Y1173D01*
X1171Y1173D02*
X1189Y1173D01*
X1225Y1173D02*
X1243Y1173D01*
X1271Y1173D02*
X1289Y1173D01*
X1325Y1173D02*
X1344Y1173D01*
X1371Y1173D02*
X1389Y1173D01*
X1425Y1173D02*
X1444Y1173D01*
X1471Y1173D02*
X1490Y1173D01*
X1525Y1173D02*
X1544Y1173D01*
X1571Y1173D02*
X1590Y1173D01*
X1625Y1173D02*
X1644Y1173D01*
X1671Y1173D02*
X1690Y1173D01*
X1726Y1173D02*
X1744Y1173D01*
X1771Y1173D02*
X1790Y1173D01*
X1826Y1173D02*
X1844Y1173D01*
X1872Y1173D02*
X1890Y1173D01*
X1926Y1173D02*
X1944Y1173D01*
X1972Y1173D02*
X1990Y1173D01*
X2026Y1173D02*
X2044Y1173D01*
X2072Y1173D02*
X2090Y1173D01*
X2126Y1173D02*
X2145Y1173D01*
X2172Y1173D02*
X2191Y1173D01*
X2226Y1173D02*
X2245Y1173D01*
X2272Y1173D02*
X2291Y1173D01*
X2326Y1173D02*
X2345Y1173D01*
X2372Y1173D02*
X2391Y1173D01*
X2426Y1173D02*
X2445Y1173D01*
X970Y1172D02*
X989Y1172D01*
X1024Y1172D02*
X1043Y1172D01*
X1071Y1172D02*
X1089Y1172D01*
X1125Y1172D02*
X1143Y1172D01*
X1171Y1172D02*
X1189Y1172D01*
X1225Y1172D02*
X1243Y1172D01*
X1271Y1172D02*
X1289Y1172D01*
X1325Y1172D02*
X1343Y1172D01*
X1371Y1172D02*
X1390Y1172D01*
X1425Y1172D02*
X1444Y1172D01*
X1471Y1172D02*
X1490Y1172D01*
X1525Y1172D02*
X1544Y1172D01*
X1571Y1172D02*
X1590Y1172D01*
X1625Y1172D02*
X1644Y1172D01*
X1671Y1172D02*
X1690Y1172D01*
X1725Y1172D02*
X1744Y1172D01*
X1771Y1172D02*
X1790Y1172D01*
X1826Y1172D02*
X1844Y1172D01*
X1872Y1172D02*
X1890Y1172D01*
X1926Y1172D02*
X1944Y1172D01*
X1972Y1172D02*
X1990Y1172D01*
X2026Y1172D02*
X2044Y1172D01*
X2072Y1172D02*
X2090Y1172D01*
X2126Y1172D02*
X2145Y1172D01*
X2172Y1172D02*
X2191Y1172D01*
X2226Y1172D02*
X2245Y1172D01*
X2272Y1172D02*
X2291Y1172D01*
X2326Y1172D02*
X2345Y1172D01*
X2372Y1172D02*
X2391Y1172D01*
X2426Y1172D02*
X2445Y1172D01*
X971Y1171D02*
X989Y1171D01*
X1024Y1171D02*
X1043Y1171D01*
X1071Y1171D02*
X1089Y1171D01*
X1124Y1171D02*
X1143Y1171D01*
X1171Y1171D02*
X1190Y1171D01*
X1225Y1171D02*
X1243Y1171D01*
X1271Y1171D02*
X1290Y1171D01*
X1325Y1171D02*
X1343Y1171D01*
X1371Y1171D02*
X1390Y1171D01*
X1425Y1171D02*
X1443Y1171D01*
X1471Y1171D02*
X1490Y1171D01*
X1525Y1171D02*
X1544Y1171D01*
X1571Y1171D02*
X1590Y1171D01*
X1625Y1171D02*
X1644Y1171D01*
X1672Y1171D02*
X1690Y1171D01*
X1725Y1171D02*
X1744Y1171D01*
X1772Y1171D02*
X1790Y1171D01*
X1825Y1171D02*
X1844Y1171D01*
X1872Y1171D02*
X1890Y1171D01*
X1925Y1171D02*
X1944Y1171D01*
X1972Y1171D02*
X1991Y1171D01*
X2026Y1171D02*
X2044Y1171D01*
X2072Y1171D02*
X2091Y1171D01*
X2126Y1171D02*
X2144Y1171D01*
X2172Y1171D02*
X2191Y1171D01*
X2226Y1171D02*
X2245Y1171D01*
X2272Y1171D02*
X2291Y1171D01*
X2326Y1171D02*
X2345Y1171D01*
X2372Y1171D02*
X2391Y1171D01*
X2426Y1171D02*
X2445Y1171D01*
X971Y1170D02*
X990Y1170D01*
X1024Y1170D02*
X1043Y1170D01*
X1071Y1170D02*
X1090Y1170D01*
X1124Y1170D02*
X1143Y1170D01*
X1171Y1170D02*
X1190Y1170D01*
X1224Y1170D02*
X1243Y1170D01*
X1271Y1170D02*
X1290Y1170D01*
X1324Y1170D02*
X1343Y1170D01*
X1371Y1170D02*
X1390Y1170D01*
X1424Y1170D02*
X1443Y1170D01*
X1471Y1170D02*
X1490Y1170D01*
X1525Y1170D02*
X1543Y1170D01*
X1572Y1170D02*
X1590Y1170D01*
X1625Y1170D02*
X1644Y1170D01*
X1672Y1170D02*
X1690Y1170D01*
X1725Y1170D02*
X1744Y1170D01*
X1772Y1170D02*
X1791Y1170D01*
X1825Y1170D02*
X1844Y1170D01*
X1872Y1170D02*
X1891Y1170D01*
X1925Y1170D02*
X1944Y1170D01*
X1972Y1170D02*
X1991Y1170D01*
X2025Y1170D02*
X2044Y1170D01*
X2072Y1170D02*
X2091Y1170D01*
X2125Y1170D02*
X2144Y1170D01*
X2172Y1170D02*
X2191Y1170D01*
X2226Y1170D02*
X2244Y1170D01*
X2272Y1170D02*
X2291Y1170D01*
X2326Y1170D02*
X2344Y1170D01*
X2373Y1170D02*
X2391Y1170D01*
X2426Y1170D02*
X2445Y1170D01*
X971Y1169D02*
X990Y1169D01*
X1024Y1169D02*
X1043Y1169D01*
X1071Y1169D02*
X1090Y1169D01*
X1124Y1169D02*
X1143Y1169D01*
X1171Y1169D02*
X1190Y1169D01*
X1224Y1169D02*
X1243Y1169D01*
X1271Y1169D02*
X1290Y1169D01*
X1324Y1169D02*
X1343Y1169D01*
X1371Y1169D02*
X1390Y1169D01*
X1424Y1169D02*
X1443Y1169D01*
X1472Y1169D02*
X1491Y1169D01*
X1524Y1169D02*
X1543Y1169D01*
X1572Y1169D02*
X1591Y1169D01*
X1624Y1169D02*
X1643Y1169D01*
X1672Y1169D02*
X1691Y1169D01*
X1725Y1169D02*
X1744Y1169D01*
X1772Y1169D02*
X1791Y1169D01*
X1825Y1169D02*
X1844Y1169D01*
X1872Y1169D02*
X1891Y1169D01*
X1925Y1169D02*
X1944Y1169D01*
X1972Y1169D02*
X1991Y1169D01*
X2025Y1169D02*
X2044Y1169D01*
X2072Y1169D02*
X2091Y1169D01*
X2125Y1169D02*
X2144Y1169D01*
X2172Y1169D02*
X2191Y1169D01*
X2225Y1169D02*
X2244Y1169D01*
X2273Y1169D02*
X2292Y1169D01*
X2325Y1169D02*
X2344Y1169D01*
X2373Y1169D02*
X2392Y1169D01*
X2425Y1169D02*
X2444Y1169D01*
X971Y1168D02*
X990Y1168D01*
X1023Y1168D02*
X1042Y1168D01*
X1071Y1168D02*
X1090Y1168D01*
X1123Y1168D02*
X1143Y1168D01*
X1171Y1168D02*
X1191Y1168D01*
X1223Y1168D02*
X1243Y1168D01*
X1272Y1168D02*
X1291Y1168D01*
X1324Y1168D02*
X1343Y1168D01*
X1372Y1168D02*
X1391Y1168D01*
X1424Y1168D02*
X1443Y1168D01*
X1472Y1168D02*
X1491Y1168D01*
X1524Y1168D02*
X1543Y1168D01*
X1572Y1168D02*
X1591Y1168D01*
X1624Y1168D02*
X1643Y1168D01*
X1672Y1168D02*
X1691Y1168D01*
X1724Y1168D02*
X1743Y1168D01*
X1772Y1168D02*
X1791Y1168D01*
X1824Y1168D02*
X1843Y1168D01*
X1872Y1168D02*
X1892Y1168D01*
X1924Y1168D02*
X1944Y1168D01*
X1972Y1168D02*
X1992Y1168D01*
X2024Y1168D02*
X2044Y1168D01*
X2073Y1168D02*
X2092Y1168D01*
X2125Y1168D02*
X2144Y1168D01*
X2173Y1168D02*
X2192Y1168D01*
X2225Y1168D02*
X2244Y1168D01*
X2273Y1168D02*
X2292Y1168D01*
X2325Y1168D02*
X2344Y1168D01*
X2373Y1168D02*
X2392Y1168D01*
X2425Y1168D02*
X2444Y1168D01*
X971Y1167D02*
X991Y1167D01*
X1023Y1167D02*
X1042Y1167D01*
X1072Y1167D02*
X1091Y1167D01*
X1123Y1167D02*
X1142Y1167D01*
X1172Y1167D02*
X1191Y1167D01*
X1223Y1167D02*
X1242Y1167D01*
X1272Y1167D02*
X1291Y1167D01*
X1323Y1167D02*
X1343Y1167D01*
X1372Y1167D02*
X1391Y1167D01*
X1423Y1167D02*
X1443Y1167D01*
X1472Y1167D02*
X1492Y1167D01*
X1523Y1167D02*
X1543Y1167D01*
X1572Y1167D02*
X1592Y1167D01*
X1623Y1167D02*
X1643Y1167D01*
X1672Y1167D02*
X1692Y1167D01*
X1724Y1167D02*
X1743Y1167D01*
X1772Y1167D02*
X1792Y1167D01*
X1824Y1167D02*
X1843Y1167D01*
X1873Y1167D02*
X1892Y1167D01*
X1924Y1167D02*
X1943Y1167D01*
X1973Y1167D02*
X1992Y1167D01*
X2024Y1167D02*
X2043Y1167D01*
X2073Y1167D02*
X2092Y1167D01*
X2124Y1167D02*
X2144Y1167D01*
X2173Y1167D02*
X2192Y1167D01*
X2224Y1167D02*
X2244Y1167D01*
X2273Y1167D02*
X2293Y1167D01*
X2324Y1167D02*
X2344Y1167D01*
X2373Y1167D02*
X2393Y1167D01*
X2424Y1167D02*
X2444Y1167D01*
X972Y1166D02*
X991Y1166D01*
X1022Y1166D02*
X1042Y1166D01*
X1072Y1166D02*
X1092Y1166D01*
X1122Y1166D02*
X1142Y1166D01*
X1172Y1166D02*
X1192Y1166D01*
X1222Y1166D02*
X1242Y1166D01*
X1272Y1166D02*
X1292Y1166D01*
X1322Y1166D02*
X1342Y1166D01*
X1372Y1166D02*
X1392Y1166D01*
X1423Y1166D02*
X1442Y1166D01*
X1472Y1166D02*
X1492Y1166D01*
X1523Y1166D02*
X1543Y1166D01*
X1572Y1166D02*
X1592Y1166D01*
X1623Y1166D02*
X1643Y1166D01*
X1673Y1166D02*
X1692Y1166D01*
X1723Y1166D02*
X1743Y1166D01*
X1773Y1166D02*
X1793Y1166D01*
X1823Y1166D02*
X1843Y1166D01*
X1873Y1166D02*
X1893Y1166D01*
X1923Y1166D02*
X1943Y1166D01*
X1973Y1166D02*
X1993Y1166D01*
X2023Y1166D02*
X2043Y1166D01*
X2073Y1166D02*
X2093Y1166D01*
X2123Y1166D02*
X2143Y1166D01*
X2173Y1166D02*
X2193Y1166D01*
X2224Y1166D02*
X2243Y1166D01*
X2273Y1166D02*
X2293Y1166D01*
X2324Y1166D02*
X2344Y1166D01*
X2373Y1166D02*
X2393Y1166D01*
X2424Y1166D02*
X2444Y1166D01*
X972Y1165D02*
X992Y1165D01*
X1021Y1165D02*
X1042Y1165D01*
X1072Y1165D02*
X1092Y1165D01*
X1121Y1165D02*
X1142Y1165D01*
X1172Y1165D02*
X1193Y1165D01*
X1221Y1165D02*
X1242Y1165D01*
X1272Y1165D02*
X1293Y1165D01*
X1322Y1165D02*
X1342Y1165D01*
X1372Y1165D02*
X1393Y1165D01*
X1422Y1165D02*
X1442Y1165D01*
X1473Y1165D02*
X1493Y1165D01*
X1522Y1165D02*
X1542Y1165D01*
X1573Y1165D02*
X1593Y1165D01*
X1622Y1165D02*
X1642Y1165D01*
X1673Y1165D02*
X1693Y1165D01*
X1722Y1165D02*
X1743Y1165D01*
X1773Y1165D02*
X1793Y1165D01*
X1822Y1165D02*
X1843Y1165D01*
X1873Y1165D02*
X1893Y1165D01*
X1922Y1165D02*
X1943Y1165D01*
X1973Y1165D02*
X1994Y1165D01*
X2023Y1165D02*
X2043Y1165D01*
X2073Y1165D02*
X2094Y1165D01*
X2123Y1165D02*
X2143Y1165D01*
X2174Y1165D02*
X2194Y1165D01*
X2223Y1165D02*
X2243Y1165D01*
X2274Y1165D02*
X2294Y1165D01*
X2323Y1165D02*
X2343Y1165D01*
X2374Y1165D02*
X2394Y1165D01*
X2423Y1165D02*
X2443Y1165D01*
X972Y1164D02*
X993Y1164D01*
X1020Y1164D02*
X1041Y1164D01*
X1072Y1164D02*
X1093Y1164D01*
X1120Y1164D02*
X1141Y1164D01*
X1173Y1164D02*
X1193Y1164D01*
X1221Y1164D02*
X1242Y1164D01*
X1273Y1164D02*
X1294Y1164D01*
X1321Y1164D02*
X1342Y1164D01*
X1373Y1164D02*
X1394Y1164D01*
X1421Y1164D02*
X1442Y1164D01*
X1473Y1164D02*
X1494Y1164D01*
X1521Y1164D02*
X1542Y1164D01*
X1573Y1164D02*
X1594Y1164D01*
X1621Y1164D02*
X1642Y1164D01*
X1673Y1164D02*
X1694Y1164D01*
X1721Y1164D02*
X1742Y1164D01*
X1773Y1164D02*
X1794Y1164D01*
X1821Y1164D02*
X1842Y1164D01*
X1873Y1164D02*
X1894Y1164D01*
X1922Y1164D02*
X1942Y1164D01*
X1974Y1164D02*
X1994Y1164D01*
X2022Y1164D02*
X2043Y1164D01*
X2074Y1164D02*
X2095Y1164D01*
X2122Y1164D02*
X2143Y1164D01*
X2174Y1164D02*
X2195Y1164D01*
X2222Y1164D02*
X2243Y1164D01*
X2274Y1164D02*
X2295Y1164D01*
X2322Y1164D02*
X2343Y1164D01*
X2374Y1164D02*
X2395Y1164D01*
X2422Y1164D02*
X2443Y1164D01*
X973Y1163D02*
X994Y1163D01*
X1019Y1163D02*
X1041Y1163D01*
X1073Y1163D02*
X1094Y1163D01*
X1120Y1163D02*
X1141Y1163D01*
X1173Y1163D02*
X1194Y1163D01*
X1220Y1163D02*
X1241Y1163D01*
X1273Y1163D02*
X1295Y1163D01*
X1320Y1163D02*
X1341Y1163D01*
X1373Y1163D02*
X1395Y1163D01*
X1420Y1163D02*
X1441Y1163D01*
X1473Y1163D02*
X1495Y1163D01*
X1520Y1163D02*
X1542Y1163D01*
X1573Y1163D02*
X1595Y1163D01*
X1620Y1163D02*
X1642Y1163D01*
X1674Y1163D02*
X1695Y1163D01*
X1720Y1163D02*
X1742Y1163D01*
X1774Y1163D02*
X1795Y1163D01*
X1820Y1163D02*
X1842Y1163D01*
X1874Y1163D02*
X1895Y1163D01*
X1921Y1163D02*
X1942Y1163D01*
X1974Y1163D02*
X1995Y1163D01*
X2021Y1163D02*
X2042Y1163D01*
X2074Y1163D02*
X2096Y1163D01*
X2121Y1163D02*
X2142Y1163D01*
X2174Y1163D02*
X2196Y1163D01*
X2221Y1163D02*
X2242Y1163D01*
X2274Y1163D02*
X2296Y1163D01*
X2321Y1163D02*
X2343Y1163D01*
X2374Y1163D02*
X2396Y1163D01*
X2421Y1163D02*
X2443Y1163D01*
X973Y1162D02*
X995Y1162D01*
X1018Y1162D02*
X1041Y1162D01*
X1073Y1162D02*
X1095Y1162D01*
X1118Y1162D02*
X1141Y1162D01*
X1173Y1162D02*
X1196Y1162D01*
X1219Y1162D02*
X1241Y1162D01*
X1273Y1162D02*
X1296Y1162D01*
X1319Y1162D02*
X1341Y1162D01*
X1374Y1162D02*
X1396Y1162D01*
X1419Y1162D02*
X1441Y1162D01*
X1474Y1162D02*
X1496Y1162D01*
X1519Y1162D02*
X1541Y1162D01*
X1574Y1162D02*
X1596Y1162D01*
X1619Y1162D02*
X1641Y1162D01*
X1674Y1162D02*
X1696Y1162D01*
X1719Y1162D02*
X1741Y1162D01*
X1774Y1162D02*
X1796Y1162D01*
X1819Y1162D02*
X1842Y1162D01*
X1874Y1162D02*
X1896Y1162D01*
X1919Y1162D02*
X1942Y1162D01*
X1974Y1162D02*
X1997Y1162D01*
X2020Y1162D02*
X2042Y1162D01*
X2074Y1162D02*
X2097Y1162D01*
X2120Y1162D02*
X2142Y1162D01*
X2175Y1162D02*
X2197Y1162D01*
X2220Y1162D02*
X2242Y1162D01*
X2275Y1162D02*
X2297Y1162D01*
X2320Y1162D02*
X2342Y1162D01*
X2375Y1162D02*
X2397Y1162D01*
X2420Y1162D02*
X2442Y1162D01*
X973Y1161D02*
X996Y1161D01*
X1017Y1161D02*
X1040Y1161D01*
X1074Y1161D02*
X1097Y1161D01*
X1117Y1161D02*
X1140Y1161D01*
X1174Y1161D02*
X1197Y1161D01*
X1217Y1161D02*
X1240Y1161D01*
X1274Y1161D02*
X1297Y1161D01*
X1317Y1161D02*
X1341Y1161D01*
X1374Y1161D02*
X1397Y1161D01*
X1418Y1161D02*
X1441Y1161D01*
X1474Y1161D02*
X1497Y1161D01*
X1518Y1161D02*
X1541Y1161D01*
X1574Y1161D02*
X1597Y1161D01*
X1618Y1161D02*
X1641Y1161D01*
X1674Y1161D02*
X1697Y1161D01*
X1718Y1161D02*
X1741Y1161D01*
X1774Y1161D02*
X1797Y1161D01*
X1818Y1161D02*
X1841Y1161D01*
X1875Y1161D02*
X1898Y1161D01*
X1918Y1161D02*
X1941Y1161D01*
X1975Y1161D02*
X1998Y1161D01*
X2018Y1161D02*
X2041Y1161D01*
X2075Y1161D02*
X2098Y1161D01*
X2119Y1161D02*
X2142Y1161D01*
X2175Y1161D02*
X2198Y1161D01*
X2219Y1161D02*
X2242Y1161D01*
X2275Y1161D02*
X2298Y1161D01*
X2319Y1161D02*
X2342Y1161D01*
X2375Y1161D02*
X2398Y1161D01*
X2419Y1161D02*
X2442Y1161D01*
X974Y1160D02*
X998Y1160D01*
X1015Y1160D02*
X1040Y1160D01*
X1074Y1160D02*
X1098Y1160D01*
X1116Y1160D02*
X1140Y1160D01*
X1174Y1160D02*
X1198Y1160D01*
X1216Y1160D02*
X1240Y1160D01*
X1274Y1160D02*
X1298Y1160D01*
X1316Y1160D02*
X1340Y1160D01*
X1374Y1160D02*
X1399Y1160D01*
X1416Y1160D02*
X1440Y1160D01*
X1475Y1160D02*
X1499Y1160D01*
X1516Y1160D02*
X1540Y1160D01*
X1575Y1160D02*
X1599Y1160D01*
X1616Y1160D02*
X1640Y1160D01*
X1675Y1160D02*
X1699Y1160D01*
X1716Y1160D02*
X1741Y1160D01*
X1775Y1160D02*
X1799Y1160D01*
X1816Y1160D02*
X1841Y1160D01*
X1875Y1160D02*
X1899Y1160D01*
X1917Y1160D02*
X1941Y1160D01*
X1975Y1160D02*
X1999Y1160D01*
X2017Y1160D02*
X2041Y1160D01*
X2075Y1160D02*
X2100Y1160D01*
X2117Y1160D02*
X2141Y1160D01*
X2175Y1160D02*
X2200Y1160D01*
X2217Y1160D02*
X2241Y1160D01*
X2276Y1160D02*
X2300Y1160D01*
X2317Y1160D02*
X2341Y1160D01*
X2376Y1160D02*
X2400Y1160D01*
X2417Y1160D02*
X2441Y1160D01*
X974Y1159D02*
X1000Y1159D01*
X1013Y1159D02*
X1039Y1159D01*
X1074Y1159D02*
X1100Y1159D01*
X1113Y1159D02*
X1139Y1159D01*
X1175Y1159D02*
X1201Y1159D01*
X1214Y1159D02*
X1239Y1159D01*
X1275Y1159D02*
X1301Y1159D01*
X1314Y1159D02*
X1340Y1159D01*
X1375Y1159D02*
X1401Y1159D01*
X1414Y1159D02*
X1440Y1159D01*
X1475Y1159D02*
X1501Y1159D01*
X1514Y1159D02*
X1540Y1159D01*
X1575Y1159D02*
X1601Y1159D01*
X1614Y1159D02*
X1640Y1159D01*
X1675Y1159D02*
X1701Y1159D01*
X1714Y1159D02*
X1740Y1159D01*
X1775Y1159D02*
X1801Y1159D01*
X1814Y1159D02*
X1840Y1159D01*
X1876Y1159D02*
X1901Y1159D01*
X1914Y1159D02*
X1940Y1159D01*
X1976Y1159D02*
X2002Y1159D01*
X2015Y1159D02*
X2040Y1159D01*
X2076Y1159D02*
X2102Y1159D01*
X2115Y1159D02*
X2141Y1159D01*
X2176Y1159D02*
X2202Y1159D01*
X2215Y1159D02*
X2241Y1159D01*
X2276Y1159D02*
X2302Y1159D01*
X2315Y1159D02*
X2341Y1159D01*
X2376Y1159D02*
X2402Y1159D01*
X2415Y1159D02*
X2441Y1159D01*
X975Y1158D02*
X1039Y1158D01*
X1075Y1158D02*
X1139Y1158D01*
X1175Y1158D02*
X1239Y1158D01*
X1275Y1158D02*
X1339Y1158D01*
X1375Y1158D02*
X1439Y1158D01*
X1476Y1158D02*
X1539Y1158D01*
X1576Y1158D02*
X1639Y1158D01*
X1676Y1158D02*
X1740Y1158D01*
X1776Y1158D02*
X1840Y1158D01*
X1876Y1158D02*
X1940Y1158D01*
X1976Y1158D02*
X2040Y1158D01*
X2076Y1158D02*
X2140Y1158D01*
X2176Y1158D02*
X2240Y1158D01*
X2277Y1158D02*
X2340Y1158D01*
X2377Y1158D02*
X2441Y1158D01*
X975Y1157D02*
X1038Y1157D01*
X1076Y1157D02*
X1138Y1157D01*
X1176Y1157D02*
X1238Y1157D01*
X1276Y1157D02*
X1338Y1157D01*
X1376Y1157D02*
X1439Y1157D01*
X1476Y1157D02*
X1539Y1157D01*
X1576Y1157D02*
X1639Y1157D01*
X1676Y1157D02*
X1739Y1157D01*
X1776Y1157D02*
X1839Y1157D01*
X1877Y1157D02*
X1939Y1157D01*
X1977Y1157D02*
X2039Y1157D01*
X2077Y1157D02*
X2140Y1157D01*
X2177Y1157D02*
X2240Y1157D01*
X2277Y1157D02*
X2340Y1157D01*
X2377Y1157D02*
X2440Y1157D01*
X976Y1156D02*
X1038Y1156D01*
X1076Y1156D02*
X1138Y1156D01*
X1176Y1156D02*
X1238Y1156D01*
X1276Y1156D02*
X1338Y1156D01*
X1377Y1156D02*
X1438Y1156D01*
X1477Y1156D02*
X1538Y1156D01*
X1577Y1156D02*
X1638Y1156D01*
X1677Y1156D02*
X1738Y1156D01*
X1777Y1156D02*
X1839Y1156D01*
X1877Y1156D02*
X1939Y1156D01*
X1977Y1156D02*
X2039Y1156D01*
X2077Y1156D02*
X2139Y1156D01*
X2178Y1156D02*
X2239Y1156D01*
X2278Y1156D02*
X2339Y1156D01*
X2378Y1156D02*
X2439Y1156D01*
X977Y1155D02*
X1037Y1155D01*
X1077Y1155D02*
X1137Y1155D01*
X1177Y1155D02*
X1237Y1155D01*
X1277Y1155D02*
X1337Y1155D01*
X1377Y1155D02*
X1437Y1155D01*
X1477Y1155D02*
X1538Y1155D01*
X1577Y1155D02*
X1638Y1155D01*
X1678Y1155D02*
X1738Y1155D01*
X1778Y1155D02*
X1838Y1155D01*
X1878Y1155D02*
X1938Y1155D01*
X1978Y1155D02*
X2038Y1155D01*
X2078Y1155D02*
X2138Y1155D01*
X2178Y1155D02*
X2238Y1155D01*
X2278Y1155D02*
X2339Y1155D01*
X2378Y1155D02*
X2439Y1155D01*
X977Y1154D02*
X1036Y1154D01*
X1077Y1154D02*
X1136Y1154D01*
X1178Y1154D02*
X1236Y1154D01*
X1278Y1154D02*
X1337Y1154D01*
X1378Y1154D02*
X1437Y1154D01*
X1478Y1154D02*
X1537Y1154D01*
X1578Y1154D02*
X1637Y1154D01*
X1678Y1154D02*
X1737Y1154D01*
X1778Y1154D02*
X1837Y1154D01*
X1878Y1154D02*
X1937Y1154D01*
X1979Y1154D02*
X2038Y1154D01*
X2079Y1154D02*
X2138Y1154D01*
X2179Y1154D02*
X2238Y1154D01*
X2279Y1154D02*
X2338Y1154D01*
X2379Y1154D02*
X2438Y1154D01*
X978Y1153D02*
X1036Y1153D01*
X1078Y1153D02*
X1136Y1153D01*
X1178Y1153D02*
X1236Y1153D01*
X1278Y1153D02*
X1336Y1153D01*
X1379Y1153D02*
X1436Y1153D01*
X1479Y1153D02*
X1536Y1153D01*
X1579Y1153D02*
X1636Y1153D01*
X1679Y1153D02*
X1736Y1153D01*
X1779Y1153D02*
X1837Y1153D01*
X1879Y1153D02*
X1937Y1153D01*
X1979Y1153D02*
X2037Y1153D01*
X2079Y1153D02*
X2137Y1153D01*
X2180Y1153D02*
X2237Y1153D01*
X2280Y1153D02*
X2337Y1153D01*
X2380Y1153D02*
X2437Y1153D01*
X979Y1152D02*
X1035Y1152D01*
X1079Y1152D02*
X1135Y1152D01*
X1179Y1152D02*
X1235Y1152D01*
X1279Y1152D02*
X1335Y1152D01*
X1379Y1152D02*
X1435Y1152D01*
X1479Y1152D02*
X1535Y1152D01*
X1580Y1152D02*
X1636Y1152D01*
X1680Y1152D02*
X1736Y1152D01*
X1780Y1152D02*
X1836Y1152D01*
X1880Y1152D02*
X1936Y1152D01*
X1980Y1152D02*
X2036Y1152D01*
X2080Y1152D02*
X2136Y1152D01*
X2180Y1152D02*
X2236Y1152D01*
X2280Y1152D02*
X2336Y1152D01*
X2381Y1152D02*
X2437Y1152D01*
X980Y1151D02*
X1034Y1151D01*
X1080Y1151D02*
X1134Y1151D01*
X1180Y1151D02*
X1234Y1151D01*
X1280Y1151D02*
X1334Y1151D01*
X1380Y1151D02*
X1434Y1151D01*
X1480Y1151D02*
X1535Y1151D01*
X1580Y1151D02*
X1635Y1151D01*
X1681Y1151D02*
X1735Y1151D01*
X1781Y1151D02*
X1835Y1151D01*
X1881Y1151D02*
X1935Y1151D01*
X1981Y1151D02*
X2035Y1151D01*
X2081Y1151D02*
X2135Y1151D01*
X2181Y1151D02*
X2235Y1151D01*
X2281Y1151D02*
X2336Y1151D01*
X2381Y1151D02*
X2436Y1151D01*
X981Y1150D02*
X1033Y1150D01*
X1081Y1150D02*
X1133Y1150D01*
X1181Y1150D02*
X1233Y1150D01*
X1281Y1150D02*
X1333Y1150D01*
X1381Y1150D02*
X1434Y1150D01*
X1481Y1150D02*
X1534Y1150D01*
X1581Y1150D02*
X1634Y1150D01*
X1681Y1150D02*
X1734Y1150D01*
X1782Y1150D02*
X1834Y1150D01*
X1882Y1150D02*
X1934Y1150D01*
X1982Y1150D02*
X2034Y1150D01*
X2082Y1150D02*
X2134Y1150D01*
X2182Y1150D02*
X2235Y1150D01*
X2282Y1150D02*
X2335Y1150D01*
X2382Y1150D02*
X2435Y1150D01*
X981Y1149D02*
X1032Y1149D01*
X1082Y1149D02*
X1132Y1149D01*
X1182Y1149D02*
X1232Y1149D01*
X1282Y1149D02*
X1332Y1149D01*
X1382Y1149D02*
X1433Y1149D01*
X1482Y1149D02*
X1533Y1149D01*
X1582Y1149D02*
X1633Y1149D01*
X1682Y1149D02*
X1733Y1149D01*
X1783Y1149D02*
X1833Y1149D01*
X1883Y1149D02*
X1933Y1149D01*
X1983Y1149D02*
X2033Y1149D01*
X2083Y1149D02*
X2133Y1149D01*
X2183Y1149D02*
X2234Y1149D01*
X2283Y1149D02*
X2334Y1149D01*
X2383Y1149D02*
X2434Y1149D01*
X983Y1148D02*
X1031Y1148D01*
X1083Y1148D02*
X1131Y1148D01*
X1183Y1148D02*
X1231Y1148D01*
X1283Y1148D02*
X1331Y1148D01*
X1383Y1148D02*
X1431Y1148D01*
X1483Y1148D02*
X1532Y1148D01*
X1583Y1148D02*
X1632Y1148D01*
X1684Y1148D02*
X1732Y1148D01*
X1784Y1148D02*
X1832Y1148D01*
X1884Y1148D02*
X1932Y1148D01*
X1984Y1148D02*
X2032Y1148D01*
X2084Y1148D02*
X2132Y1148D01*
X2184Y1148D02*
X2232Y1148D01*
X2284Y1148D02*
X2333Y1148D01*
X2384Y1148D02*
X2433Y1148D01*
X984Y1147D02*
X1030Y1147D01*
X1084Y1147D02*
X1130Y1147D01*
X1184Y1147D02*
X1230Y1147D01*
X1284Y1147D02*
X1330Y1147D01*
X1384Y1147D02*
X1430Y1147D01*
X1484Y1147D02*
X1530Y1147D01*
X1585Y1147D02*
X1631Y1147D01*
X1685Y1147D02*
X1731Y1147D01*
X1785Y1147D02*
X1831Y1147D01*
X1885Y1147D02*
X1931Y1147D01*
X1985Y1147D02*
X2031Y1147D01*
X2085Y1147D02*
X2131Y1147D01*
X2185Y1147D02*
X2231Y1147D01*
X2285Y1147D02*
X2331Y1147D01*
X2386Y1147D02*
X2432Y1147D01*
X985Y1146D02*
X1028Y1146D01*
X1085Y1146D02*
X1128Y1146D01*
X1185Y1146D02*
X1229Y1146D01*
X1286Y1146D02*
X1329Y1146D01*
X1386Y1146D02*
X1429Y1146D01*
X1486Y1146D02*
X1529Y1146D01*
X1586Y1146D02*
X1629Y1146D01*
X1686Y1146D02*
X1729Y1146D01*
X1786Y1146D02*
X1829Y1146D01*
X1886Y1146D02*
X1930Y1146D01*
X1986Y1146D02*
X2030Y1146D01*
X2087Y1146D02*
X2130Y1146D01*
X2187Y1146D02*
X2230Y1146D01*
X2287Y1146D02*
X2330Y1146D01*
X2387Y1146D02*
X2430Y1146D01*
X987Y1145D02*
X1027Y1145D01*
X1087Y1145D02*
X1127Y1145D01*
X1187Y1145D02*
X1227Y1145D01*
X1287Y1145D02*
X1327Y1145D01*
X1387Y1145D02*
X1427Y1145D01*
X1487Y1145D02*
X1528Y1145D01*
X1587Y1145D02*
X1628Y1145D01*
X1687Y1145D02*
X1728Y1145D01*
X1788Y1145D02*
X1828Y1145D01*
X1888Y1145D02*
X1928Y1145D01*
X1988Y1145D02*
X2028Y1145D01*
X2088Y1145D02*
X2128Y1145D01*
X2188Y1145D02*
X2229Y1145D01*
X2288Y1145D02*
X2329Y1145D01*
X2388Y1145D02*
X2429Y1145D01*
X988Y1144D02*
X1025Y1144D01*
X1088Y1144D02*
X1125Y1144D01*
X1189Y1144D02*
X1226Y1144D01*
X1289Y1144D02*
X1326Y1144D01*
X1389Y1144D02*
X1426Y1144D01*
X1489Y1144D02*
X1526Y1144D01*
X1589Y1144D02*
X1626Y1144D01*
X1689Y1144D02*
X1726Y1144D01*
X1789Y1144D02*
X1826Y1144D01*
X1889Y1144D02*
X1926Y1144D01*
X1990Y1144D02*
X2027Y1144D01*
X2090Y1144D02*
X2127Y1144D01*
X2190Y1144D02*
X2227Y1144D01*
X2290Y1144D02*
X2327Y1144D01*
X2390Y1144D02*
X2427Y1144D01*
X990Y1143D02*
X1023Y1143D01*
X1090Y1143D02*
X1124Y1143D01*
X1190Y1143D02*
X1224Y1143D01*
X1290Y1143D02*
X1324Y1143D01*
X1391Y1143D02*
X1424Y1143D01*
X1491Y1143D02*
X1524Y1143D01*
X1591Y1143D02*
X1624Y1143D01*
X1691Y1143D02*
X1724Y1143D01*
X1791Y1143D02*
X1825Y1143D01*
X1891Y1143D02*
X1925Y1143D01*
X1991Y1143D02*
X2025Y1143D01*
X2091Y1143D02*
X2125Y1143D01*
X2192Y1143D02*
X2225Y1143D01*
X2292Y1143D02*
X2325Y1143D01*
X2392Y1143D02*
X2425Y1143D01*
X992Y1142D02*
X1021Y1142D01*
X1092Y1142D02*
X1122Y1142D01*
X1192Y1142D02*
X1222Y1142D01*
X1293Y1142D02*
X1322Y1142D01*
X1393Y1142D02*
X1422Y1142D01*
X1493Y1142D02*
X1522Y1142D01*
X1593Y1142D02*
X1622Y1142D01*
X1693Y1142D02*
X1722Y1142D01*
X1793Y1142D02*
X1822Y1142D01*
X1893Y1142D02*
X1923Y1142D01*
X1993Y1142D02*
X2023Y1142D01*
X2094Y1142D02*
X2123Y1142D01*
X2194Y1142D02*
X2223Y1142D01*
X2294Y1142D02*
X2323Y1142D01*
X2394Y1142D02*
X2423Y1142D01*
X995Y1141D02*
X1019Y1141D01*
X1095Y1141D02*
X1119Y1141D01*
X1195Y1141D02*
X1219Y1141D01*
X1295Y1141D02*
X1319Y1141D01*
X1395Y1141D02*
X1419Y1141D01*
X1495Y1141D02*
X1520Y1141D01*
X1595Y1141D02*
X1620Y1141D01*
X1696Y1141D02*
X1720Y1141D01*
X1796Y1141D02*
X1820Y1141D01*
X1896Y1141D02*
X1920Y1141D01*
X1996Y1141D02*
X2020Y1141D01*
X2096Y1141D02*
X2120Y1141D01*
X2196Y1141D02*
X2220Y1141D01*
X2296Y1141D02*
X2321Y1141D01*
X2396Y1141D02*
X2421Y1141D01*
X998Y1140D02*
X1016Y1140D01*
X1098Y1140D02*
X1116Y1140D01*
X1198Y1140D02*
X1216Y1140D01*
X1298Y1140D02*
X1316Y1140D01*
X1398Y1140D02*
X1416Y1140D01*
X1498Y1140D02*
X1517Y1140D01*
X1598Y1140D02*
X1617Y1140D01*
X1699Y1140D02*
X1717Y1140D01*
X1799Y1140D02*
X1817Y1140D01*
X1899Y1140D02*
X1917Y1140D01*
X1999Y1140D02*
X2017Y1140D01*
X2099Y1140D02*
X2117Y1140D01*
X2199Y1140D02*
X2217Y1140D01*
X2299Y1140D02*
X2318Y1140D01*
X2399Y1140D02*
X2418Y1140D01*
X1002Y1139D02*
X1011Y1139D01*
X1102Y1139D02*
X1112Y1139D01*
X1202Y1139D02*
X1212Y1139D01*
X1303Y1139D02*
X1312Y1139D01*
X1403Y1139D02*
X1412Y1139D01*
X1503Y1139D02*
X1512Y1139D01*
X1603Y1139D02*
X1612Y1139D01*
X1703Y1139D02*
X1712Y1139D01*
X1803Y1139D02*
X1812Y1139D01*
X1903Y1139D02*
X1913Y1139D01*
X2003Y1139D02*
X2013Y1139D01*
X2104Y1139D02*
X2113Y1139D01*
X2204Y1139D02*
X2213Y1139D01*
X2304Y1139D02*
X2313Y1139D01*
X2404Y1139D02*
X2413Y1139D01*
X1001Y211D02*
X1012Y211D01*
X1101Y211D02*
X1112Y211D01*
X1202Y211D02*
X1212Y211D01*
X1302Y211D02*
X1313Y211D01*
X1402Y211D02*
X1413Y211D01*
X1502Y211D02*
X1513Y211D01*
X1602Y211D02*
X1613Y211D01*
X1702Y211D02*
X1713Y211D01*
X1802Y211D02*
X1813Y211D01*
X1903Y211D02*
X1913Y211D01*
X2003Y211D02*
X2013Y211D01*
X2103Y211D02*
X2114Y211D01*
X2203Y211D02*
X2214Y211D01*
X2303Y211D02*
X2314Y211D01*
X2403Y211D02*
X2414Y211D01*
X997Y210D02*
X1016Y210D01*
X1097Y210D02*
X1117Y210D01*
X1197Y210D02*
X1217Y210D01*
X1298Y210D02*
X1317Y210D01*
X1398Y210D02*
X1417Y210D01*
X1498Y210D02*
X1517Y210D01*
X1598Y210D02*
X1617Y210D01*
X1698Y210D02*
X1717Y210D01*
X1798Y210D02*
X1817Y210D01*
X1898Y210D02*
X1918Y210D01*
X1998Y210D02*
X2018Y210D01*
X2099Y210D02*
X2118Y210D01*
X2199Y210D02*
X2218Y210D01*
X2299Y210D02*
X2318Y210D01*
X2399Y210D02*
X2418Y210D01*
X994Y209D02*
X1019Y209D01*
X1094Y209D02*
X1119Y209D01*
X1194Y209D02*
X1220Y209D01*
X1295Y209D02*
X1320Y209D01*
X1395Y209D02*
X1420Y209D01*
X1495Y209D02*
X1520Y209D01*
X1595Y209D02*
X1620Y209D01*
X1695Y209D02*
X1720Y209D01*
X1795Y209D02*
X1820Y209D01*
X1895Y209D02*
X1920Y209D01*
X1996Y209D02*
X2021Y209D01*
X2096Y209D02*
X2121Y209D01*
X2196Y209D02*
X2221Y209D01*
X2296Y209D02*
X2321Y209D01*
X2396Y209D02*
X2421Y209D01*
X992Y208D02*
X1022Y208D01*
X1092Y208D02*
X1122Y208D01*
X1192Y208D02*
X1222Y208D01*
X1292Y208D02*
X1322Y208D01*
X1392Y208D02*
X1422Y208D01*
X1492Y208D02*
X1522Y208D01*
X1593Y208D02*
X1622Y208D01*
X1693Y208D02*
X1723Y208D01*
X1793Y208D02*
X1823Y208D01*
X1893Y208D02*
X1923Y208D01*
X1993Y208D02*
X2023Y208D01*
X2093Y208D02*
X2123Y208D01*
X2193Y208D02*
X2223Y208D01*
X2294Y208D02*
X2323Y208D01*
X2394Y208D02*
X2424Y208D01*
X990Y207D02*
X1024Y207D01*
X1090Y207D02*
X1124Y207D01*
X1190Y207D02*
X1224Y207D01*
X1290Y207D02*
X1324Y207D01*
X1390Y207D02*
X1424Y207D01*
X1490Y207D02*
X1524Y207D01*
X1591Y207D02*
X1625Y207D01*
X1691Y207D02*
X1725Y207D01*
X1791Y207D02*
X1825Y207D01*
X1891Y207D02*
X1925Y207D01*
X1991Y207D02*
X2025Y207D01*
X2091Y207D02*
X2125Y207D01*
X2191Y207D02*
X2225Y207D01*
X2291Y207D02*
X2325Y207D01*
X2392Y207D02*
X2426Y207D01*
X988Y206D02*
X1026Y206D01*
X1088Y206D02*
X1126Y206D01*
X1188Y206D02*
X1226Y206D01*
X1288Y206D02*
X1326Y206D01*
X1389Y206D02*
X1426Y206D01*
X1489Y206D02*
X1526Y206D01*
X1589Y206D02*
X1626Y206D01*
X1689Y206D02*
X1726Y206D01*
X1789Y206D02*
X1827Y206D01*
X1889Y206D02*
X1927Y206D01*
X1989Y206D02*
X2027Y206D01*
X2089Y206D02*
X2127Y206D01*
X2190Y206D02*
X2227Y206D01*
X2290Y206D02*
X2327Y206D01*
X2390Y206D02*
X2427Y206D01*
X986Y205D02*
X1027Y205D01*
X1086Y205D02*
X1127Y205D01*
X1187Y205D02*
X1227Y205D01*
X1287Y205D02*
X1328Y205D01*
X1387Y205D02*
X1428Y205D01*
X1487Y205D02*
X1528Y205D01*
X1587Y205D02*
X1628Y205D01*
X1687Y205D02*
X1728Y205D01*
X1787Y205D02*
X1828Y205D01*
X1888Y205D02*
X1928Y205D01*
X1988Y205D02*
X2028Y205D01*
X2088Y205D02*
X2129Y205D01*
X2188Y205D02*
X2229Y205D01*
X2288Y205D02*
X2329Y205D01*
X2388Y205D02*
X2429Y205D01*
X985Y204D02*
X1029Y204D01*
X1085Y204D02*
X1129Y204D01*
X1185Y204D02*
X1229Y204D01*
X1285Y204D02*
X1329Y204D01*
X1385Y204D02*
X1429Y204D01*
X1486Y204D02*
X1529Y204D01*
X1586Y204D02*
X1629Y204D01*
X1686Y204D02*
X1729Y204D01*
X1786Y204D02*
X1830Y204D01*
X1886Y204D02*
X1930Y204D01*
X1986Y204D02*
X2030Y204D01*
X2086Y204D02*
X2130Y204D01*
X2187Y204D02*
X2230Y204D01*
X2287Y204D02*
X2330Y204D01*
X2387Y204D02*
X2430Y204D01*
X984Y203D02*
X1030Y203D01*
X1084Y203D02*
X1130Y203D01*
X1184Y203D02*
X1230Y203D01*
X1284Y203D02*
X1330Y203D01*
X1384Y203D02*
X1430Y203D01*
X1484Y203D02*
X1531Y203D01*
X1584Y203D02*
X1631Y203D01*
X1685Y203D02*
X1731Y203D01*
X1785Y203D02*
X1831Y203D01*
X1885Y203D02*
X1931Y203D01*
X1985Y203D02*
X2031Y203D01*
X2085Y203D02*
X2131Y203D01*
X2185Y203D02*
X2231Y203D01*
X2285Y203D02*
X2332Y203D01*
X2385Y203D02*
X2432Y203D01*
X982Y202D02*
X1031Y202D01*
X1083Y202D02*
X1131Y202D01*
X1183Y202D02*
X1231Y202D01*
X1283Y202D02*
X1331Y202D01*
X1383Y202D02*
X1432Y202D01*
X1483Y202D02*
X1532Y202D01*
X1583Y202D02*
X1632Y202D01*
X1683Y202D02*
X1732Y202D01*
X1784Y202D02*
X1832Y202D01*
X1884Y202D02*
X1932Y202D01*
X1984Y202D02*
X2032Y202D01*
X2084Y202D02*
X2133Y202D01*
X2184Y202D02*
X2233Y202D01*
X2284Y202D02*
X2333Y202D01*
X2384Y202D02*
X2433Y202D01*
X981Y201D02*
X1032Y201D01*
X1081Y201D02*
X1132Y201D01*
X1182Y201D02*
X1232Y201D01*
X1282Y201D02*
X1333Y201D01*
X1382Y201D02*
X1433Y201D01*
X1482Y201D02*
X1533Y201D01*
X1582Y201D02*
X1633Y201D01*
X1682Y201D02*
X1733Y201D01*
X1782Y201D02*
X1833Y201D01*
X1883Y201D02*
X1933Y201D01*
X1983Y201D02*
X2033Y201D01*
X2083Y201D02*
X2134Y201D01*
X2183Y201D02*
X2234Y201D01*
X2283Y201D02*
X2334Y201D01*
X2383Y201D02*
X2434Y201D01*
X980Y200D02*
X1033Y200D01*
X1081Y200D02*
X1133Y200D01*
X1181Y200D02*
X1233Y200D01*
X1281Y200D02*
X1334Y200D01*
X1381Y200D02*
X1434Y200D01*
X1481Y200D02*
X1534Y200D01*
X1581Y200D02*
X1634Y200D01*
X1681Y200D02*
X1734Y200D01*
X1781Y200D02*
X1834Y200D01*
X1882Y200D02*
X1934Y200D01*
X1982Y200D02*
X2034Y200D01*
X2082Y200D02*
X2135Y200D01*
X2182Y200D02*
X2235Y200D01*
X2282Y200D02*
X2335Y200D01*
X2382Y200D02*
X2435Y200D01*
X979Y199D02*
X1034Y199D01*
X1080Y199D02*
X1134Y199D01*
X1180Y199D02*
X1234Y199D01*
X1280Y199D02*
X1334Y199D01*
X1380Y199D02*
X1435Y199D01*
X1480Y199D02*
X1535Y199D01*
X1580Y199D02*
X1635Y199D01*
X1680Y199D02*
X1735Y199D01*
X1781Y199D02*
X1835Y199D01*
X1881Y199D02*
X1935Y199D01*
X1981Y199D02*
X2035Y199D01*
X2081Y199D02*
X2135Y199D01*
X2181Y199D02*
X2236Y199D01*
X2281Y199D02*
X2336Y199D01*
X2381Y199D02*
X2436Y199D01*
X979Y198D02*
X1035Y198D01*
X1079Y198D02*
X1135Y198D01*
X1179Y198D02*
X1235Y198D01*
X1279Y198D02*
X1335Y198D01*
X1379Y198D02*
X1435Y198D01*
X1479Y198D02*
X1536Y198D01*
X1579Y198D02*
X1636Y198D01*
X1680Y198D02*
X1736Y198D01*
X1780Y198D02*
X1836Y198D01*
X1880Y198D02*
X1936Y198D01*
X1980Y198D02*
X2036Y198D01*
X2080Y198D02*
X2136Y198D01*
X2180Y198D02*
X2236Y198D01*
X2280Y198D02*
X2337Y198D01*
X2380Y198D02*
X2437Y198D01*
X978Y197D02*
X1036Y197D01*
X1078Y197D02*
X1136Y197D01*
X1178Y197D02*
X1236Y197D01*
X1278Y197D02*
X1336Y197D01*
X1378Y197D02*
X1436Y197D01*
X1479Y197D02*
X1536Y197D01*
X1579Y197D02*
X1636Y197D01*
X1679Y197D02*
X1737Y197D01*
X1779Y197D02*
X1837Y197D01*
X1879Y197D02*
X1937Y197D01*
X1979Y197D02*
X2037Y197D01*
X2079Y197D02*
X2137Y197D01*
X2179Y197D02*
X2237Y197D01*
X2280Y197D02*
X2337Y197D01*
X2380Y197D02*
X2437Y197D01*
X977Y196D02*
X1036Y196D01*
X1077Y196D02*
X1136Y196D01*
X1177Y196D02*
X1237Y196D01*
X1278Y196D02*
X1337Y196D01*
X1378Y196D02*
X1437Y196D01*
X1478Y196D02*
X1537Y196D01*
X1578Y196D02*
X1637Y196D01*
X1678Y196D02*
X1737Y196D01*
X1778Y196D02*
X1837Y196D01*
X1878Y196D02*
X1938Y196D01*
X1979Y196D02*
X2038Y196D01*
X2079Y196D02*
X2138Y196D01*
X2179Y196D02*
X2238Y196D01*
X2279Y196D02*
X2338Y196D01*
X2379Y196D02*
X2438Y196D01*
X977Y195D02*
X1037Y195D01*
X1077Y195D02*
X1137Y195D01*
X1177Y195D02*
X1237Y195D01*
X1277Y195D02*
X1337Y195D01*
X1377Y195D02*
X1438Y195D01*
X1477Y195D02*
X1538Y195D01*
X1577Y195D02*
X1638Y195D01*
X1677Y195D02*
X1738Y195D01*
X1778Y195D02*
X1838Y195D01*
X1878Y195D02*
X1938Y195D01*
X1978Y195D02*
X2038Y195D01*
X2078Y195D02*
X2138Y195D01*
X2178Y195D02*
X2239Y195D01*
X2278Y195D02*
X2339Y195D01*
X2378Y195D02*
X2439Y195D01*
X976Y194D02*
X1038Y194D01*
X1076Y194D02*
X1138Y194D01*
X1176Y194D02*
X1238Y194D01*
X1276Y194D02*
X1338Y194D01*
X1376Y194D02*
X1438Y194D01*
X1477Y194D02*
X1538Y194D01*
X1577Y194D02*
X1638Y194D01*
X1677Y194D02*
X1739Y194D01*
X1777Y194D02*
X1839Y194D01*
X1877Y194D02*
X1939Y194D01*
X1977Y194D02*
X2039Y194D01*
X2077Y194D02*
X2139Y194D01*
X2177Y194D02*
X2239Y194D01*
X2278Y194D02*
X2339Y194D01*
X2378Y194D02*
X2439Y194D01*
X975Y193D02*
X1038Y193D01*
X1075Y193D02*
X1138Y193D01*
X1176Y193D02*
X1238Y193D01*
X1276Y193D02*
X1339Y193D01*
X1376Y193D02*
X1439Y193D01*
X1476Y193D02*
X1539Y193D01*
X1576Y193D02*
X1639Y193D01*
X1676Y193D02*
X1739Y193D01*
X1776Y193D02*
X1839Y193D01*
X1877Y193D02*
X1939Y193D01*
X1977Y193D02*
X2039Y193D01*
X2077Y193D02*
X2140Y193D01*
X2177Y193D02*
X2240Y193D01*
X2277Y193D02*
X2340Y193D01*
X2377Y193D02*
X2440Y193D01*
X975Y192D02*
X1005Y192D01*
X1008Y192D02*
X1039Y192D01*
X1075Y192D02*
X1105Y192D01*
X1108Y192D02*
X1139Y192D01*
X1175Y192D02*
X1206Y192D01*
X1209Y192D02*
X1239Y192D01*
X1275Y192D02*
X1306Y192D01*
X1309Y192D02*
X1339Y192D01*
X1375Y192D02*
X1406Y192D01*
X1409Y192D02*
X1439Y192D01*
X1475Y192D02*
X1506Y192D01*
X1509Y192D02*
X1539Y192D01*
X1576Y192D02*
X1606Y192D01*
X1609Y192D02*
X1640Y192D01*
X1676Y192D02*
X1706Y192D01*
X1709Y192D02*
X1740Y192D01*
X1776Y192D02*
X1806Y192D01*
X1809Y192D02*
X1840Y192D01*
X1876Y192D02*
X1906Y192D01*
X1909Y192D02*
X1940Y192D01*
X1976Y192D02*
X2007Y192D01*
X2010Y192D02*
X2040Y192D01*
X2076Y192D02*
X2107Y192D01*
X2110Y192D02*
X2140Y192D01*
X2176Y192D02*
X2207Y192D01*
X2210Y192D02*
X2240Y192D01*
X2276Y192D02*
X2307Y192D01*
X2310Y192D02*
X2340Y192D01*
X2377Y192D02*
X2407Y192D01*
X2410Y192D02*
X2441Y192D01*
X974Y191D02*
X1000Y191D01*
X1014Y191D02*
X1039Y191D01*
X1074Y191D02*
X1100Y191D01*
X1114Y191D02*
X1139Y191D01*
X1175Y191D02*
X1200Y191D01*
X1214Y191D02*
X1239Y191D01*
X1275Y191D02*
X1300Y191D01*
X1314Y191D02*
X1340Y191D01*
X1375Y191D02*
X1400Y191D01*
X1414Y191D02*
X1440Y191D01*
X1475Y191D02*
X1500Y191D01*
X1514Y191D02*
X1540Y191D01*
X1575Y191D02*
X1601Y191D01*
X1614Y191D02*
X1640Y191D01*
X1675Y191D02*
X1701Y191D01*
X1715Y191D02*
X1740Y191D01*
X1775Y191D02*
X1801Y191D01*
X1815Y191D02*
X1840Y191D01*
X1875Y191D02*
X1901Y191D01*
X1915Y191D02*
X1940Y191D01*
X1976Y191D02*
X2001Y191D01*
X2015Y191D02*
X2041Y191D01*
X2076Y191D02*
X2101Y191D01*
X2115Y191D02*
X2141Y191D01*
X2176Y191D02*
X2201Y191D01*
X2215Y191D02*
X2241Y191D01*
X2276Y191D02*
X2302Y191D01*
X2315Y191D02*
X2341Y191D01*
X2376Y191D02*
X2402Y191D01*
X2416Y191D02*
X2441Y191D01*
X974Y190D02*
X998Y190D01*
X1016Y190D02*
X1040Y190D01*
X1074Y190D02*
X1098Y190D01*
X1116Y190D02*
X1140Y190D01*
X1174Y190D02*
X1198Y190D01*
X1216Y190D02*
X1240Y190D01*
X1274Y190D02*
X1298Y190D01*
X1316Y190D02*
X1340Y190D01*
X1374Y190D02*
X1398Y190D01*
X1416Y190D02*
X1440Y190D01*
X1474Y190D02*
X1498Y190D01*
X1516Y190D02*
X1540Y190D01*
X1575Y190D02*
X1599Y190D01*
X1616Y190D02*
X1640Y190D01*
X1675Y190D02*
X1699Y190D01*
X1717Y190D02*
X1741Y190D01*
X1775Y190D02*
X1799Y190D01*
X1817Y190D02*
X1841Y190D01*
X1875Y190D02*
X1899Y190D01*
X1917Y190D02*
X1941Y190D01*
X1975Y190D02*
X1999Y190D01*
X2017Y190D02*
X2041Y190D01*
X2075Y190D02*
X2099Y190D01*
X2117Y190D02*
X2141Y190D01*
X2175Y190D02*
X2199Y190D01*
X2217Y190D02*
X2241Y190D01*
X2276Y190D02*
X2300Y190D01*
X2317Y190D02*
X2341Y190D01*
X2376Y190D02*
X2400Y190D01*
X2418Y190D02*
X2442Y190D01*
X973Y189D02*
X996Y189D01*
X1017Y189D02*
X1040Y189D01*
X1073Y189D02*
X1096Y189D01*
X1117Y189D02*
X1140Y189D01*
X1174Y189D02*
X1197Y189D01*
X1218Y189D02*
X1240Y189D01*
X1274Y189D02*
X1297Y189D01*
X1318Y189D02*
X1341Y189D01*
X1374Y189D02*
X1397Y189D01*
X1418Y189D02*
X1441Y189D01*
X1474Y189D02*
X1497Y189D01*
X1518Y189D02*
X1541Y189D01*
X1574Y189D02*
X1597Y189D01*
X1618Y189D02*
X1641Y189D01*
X1674Y189D02*
X1697Y189D01*
X1718Y189D02*
X1741Y189D01*
X1774Y189D02*
X1797Y189D01*
X1818Y189D02*
X1841Y189D01*
X1875Y189D02*
X1897Y189D01*
X1918Y189D02*
X1941Y189D01*
X1975Y189D02*
X1998Y189D01*
X2019Y189D02*
X2041Y189D01*
X2075Y189D02*
X2098Y189D01*
X2119Y189D02*
X2142Y189D01*
X2175Y189D02*
X2198Y189D01*
X2219Y189D02*
X2242Y189D01*
X2275Y189D02*
X2298Y189D01*
X2319Y189D02*
X2342Y189D01*
X2375Y189D02*
X2398Y189D01*
X2419Y189D02*
X2442Y189D01*
X973Y188D02*
X995Y188D01*
X1018Y188D02*
X1041Y188D01*
X1073Y188D02*
X1095Y188D01*
X1119Y188D02*
X1141Y188D01*
X1173Y188D02*
X1195Y188D01*
X1219Y188D02*
X1241Y188D01*
X1273Y188D02*
X1295Y188D01*
X1319Y188D02*
X1341Y188D01*
X1373Y188D02*
X1396Y188D01*
X1419Y188D02*
X1441Y188D01*
X1474Y188D02*
X1496Y188D01*
X1519Y188D02*
X1541Y188D01*
X1574Y188D02*
X1596Y188D01*
X1619Y188D02*
X1641Y188D01*
X1674Y188D02*
X1696Y188D01*
X1719Y188D02*
X1741Y188D01*
X1774Y188D02*
X1796Y188D01*
X1819Y188D02*
X1842Y188D01*
X1874Y188D02*
X1896Y188D01*
X1920Y188D02*
X1942Y188D01*
X1974Y188D02*
X1996Y188D01*
X2020Y188D02*
X2042Y188D01*
X2074Y188D02*
X2097Y188D01*
X2120Y188D02*
X2142Y188D01*
X2175Y188D02*
X2197Y188D01*
X2220Y188D02*
X2242Y188D01*
X2275Y188D02*
X2297Y188D01*
X2320Y188D02*
X2342Y188D01*
X2375Y188D02*
X2397Y188D01*
X2420Y188D02*
X2442Y188D01*
X973Y187D02*
X994Y187D01*
X1020Y187D02*
X1041Y187D01*
X1073Y187D02*
X1094Y187D01*
X1120Y187D02*
X1141Y187D01*
X1173Y187D02*
X1194Y187D01*
X1220Y187D02*
X1241Y187D01*
X1273Y187D02*
X1294Y187D01*
X1320Y187D02*
X1341Y187D01*
X1373Y187D02*
X1394Y187D01*
X1420Y187D02*
X1441Y187D01*
X1473Y187D02*
X1495Y187D01*
X1520Y187D02*
X1542Y187D01*
X1573Y187D02*
X1595Y187D01*
X1620Y187D02*
X1642Y187D01*
X1674Y187D02*
X1695Y187D01*
X1720Y187D02*
X1742Y187D01*
X1774Y187D02*
X1795Y187D01*
X1821Y187D02*
X1842Y187D01*
X1874Y187D02*
X1895Y187D01*
X1921Y187D02*
X1942Y187D01*
X1974Y187D02*
X1995Y187D01*
X2021Y187D02*
X2042Y187D01*
X2074Y187D02*
X2095Y187D01*
X2121Y187D02*
X2142Y187D01*
X2174Y187D02*
X2196Y187D01*
X2221Y187D02*
X2242Y187D01*
X2274Y187D02*
X2296Y187D01*
X2321Y187D02*
X2343Y187D01*
X2374Y187D02*
X2396Y187D01*
X2421Y187D02*
X2443Y187D01*
X972Y186D02*
X993Y186D01*
X1020Y186D02*
X1041Y186D01*
X1072Y186D02*
X1093Y186D01*
X1121Y186D02*
X1141Y186D01*
X1172Y186D02*
X1193Y186D01*
X1221Y186D02*
X1242Y186D01*
X1273Y186D02*
X1293Y186D01*
X1321Y186D02*
X1342Y186D01*
X1373Y186D02*
X1394Y186D01*
X1421Y186D02*
X1442Y186D01*
X1473Y186D02*
X1494Y186D01*
X1521Y186D02*
X1542Y186D01*
X1573Y186D02*
X1594Y186D01*
X1621Y186D02*
X1642Y186D01*
X1673Y186D02*
X1694Y186D01*
X1721Y186D02*
X1742Y186D01*
X1773Y186D02*
X1794Y186D01*
X1822Y186D02*
X1842Y186D01*
X1873Y186D02*
X1894Y186D01*
X1922Y186D02*
X1942Y186D01*
X1974Y186D02*
X1994Y186D01*
X2022Y186D02*
X2043Y186D01*
X2074Y186D02*
X2095Y186D01*
X2122Y186D02*
X2143Y186D01*
X2174Y186D02*
X2195Y186D01*
X2222Y186D02*
X2243Y186D01*
X2274Y186D02*
X2295Y186D01*
X2322Y186D02*
X2343Y186D01*
X2374Y186D02*
X2395Y186D01*
X2422Y186D02*
X2443Y186D01*
X972Y185D02*
X992Y185D01*
X1021Y185D02*
X1042Y185D01*
X1072Y185D02*
X1092Y185D01*
X1121Y185D02*
X1142Y185D01*
X1172Y185D02*
X1192Y185D01*
X1222Y185D02*
X1242Y185D01*
X1272Y185D02*
X1293Y185D01*
X1322Y185D02*
X1342Y185D01*
X1372Y185D02*
X1393Y185D01*
X1422Y185D02*
X1442Y185D01*
X1473Y185D02*
X1493Y185D01*
X1522Y185D02*
X1542Y185D01*
X1573Y185D02*
X1593Y185D01*
X1622Y185D02*
X1642Y185D01*
X1673Y185D02*
X1693Y185D01*
X1722Y185D02*
X1743Y185D01*
X1773Y185D02*
X1793Y185D01*
X1822Y185D02*
X1843Y185D01*
X1873Y185D02*
X1893Y185D01*
X1922Y185D02*
X1943Y185D01*
X1973Y185D02*
X1994Y185D01*
X2023Y185D02*
X2043Y185D01*
X2073Y185D02*
X2094Y185D01*
X2123Y185D02*
X2143Y185D01*
X2173Y185D02*
X2194Y185D01*
X2223Y185D02*
X2243Y185D01*
X2274Y185D02*
X2294Y185D01*
X2323Y185D02*
X2343Y185D01*
X2374Y185D02*
X2394Y185D01*
X2423Y185D02*
X2443Y185D01*
X972Y184D02*
X991Y184D01*
X1022Y184D02*
X1042Y184D01*
X1072Y184D02*
X1092Y184D01*
X1122Y184D02*
X1142Y184D01*
X1172Y184D02*
X1192Y184D01*
X1222Y184D02*
X1242Y184D01*
X1272Y184D02*
X1292Y184D01*
X1323Y184D02*
X1342Y184D01*
X1372Y184D02*
X1392Y184D01*
X1423Y184D02*
X1442Y184D01*
X1472Y184D02*
X1492Y184D01*
X1523Y184D02*
X1543Y184D01*
X1572Y184D02*
X1592Y184D01*
X1623Y184D02*
X1643Y184D01*
X1673Y184D02*
X1692Y184D01*
X1723Y184D02*
X1743Y184D01*
X1773Y184D02*
X1792Y184D01*
X1823Y184D02*
X1843Y184D01*
X1873Y184D02*
X1893Y184D01*
X1923Y184D02*
X1943Y184D01*
X1973Y184D02*
X1993Y184D01*
X2023Y184D02*
X2043Y184D01*
X2073Y184D02*
X2093Y184D01*
X2124Y184D02*
X2143Y184D01*
X2173Y184D02*
X2193Y184D01*
X2224Y184D02*
X2243Y184D01*
X2273Y184D02*
X2293Y184D01*
X2324Y184D02*
X2344Y184D01*
X2373Y184D02*
X2393Y184D01*
X2424Y184D02*
X2444Y184D01*
X971Y183D02*
X991Y183D01*
X1023Y183D02*
X1042Y183D01*
X1071Y183D02*
X1091Y183D01*
X1123Y183D02*
X1142Y183D01*
X1172Y183D02*
X1191Y183D01*
X1223Y183D02*
X1242Y183D01*
X1272Y183D02*
X1291Y183D01*
X1323Y183D02*
X1343Y183D01*
X1372Y183D02*
X1391Y183D01*
X1423Y183D02*
X1443Y183D01*
X1472Y183D02*
X1491Y183D01*
X1523Y183D02*
X1543Y183D01*
X1572Y183D02*
X1592Y183D01*
X1623Y183D02*
X1643Y183D01*
X1672Y183D02*
X1692Y183D01*
X1724Y183D02*
X1743Y183D01*
X1772Y183D02*
X1792Y183D01*
X1824Y183D02*
X1843Y183D01*
X1873Y183D02*
X1892Y183D01*
X1924Y183D02*
X1943Y183D01*
X1973Y183D02*
X1992Y183D01*
X2024Y183D02*
X2043Y183D01*
X2073Y183D02*
X2092Y183D01*
X2124Y183D02*
X2144Y183D01*
X2173Y183D02*
X2192Y183D01*
X2224Y183D02*
X2244Y183D01*
X2273Y183D02*
X2293Y183D01*
X2324Y183D02*
X2344Y183D01*
X2373Y183D02*
X2393Y183D01*
X2425Y183D02*
X2444Y183D01*
X971Y182D02*
X990Y182D01*
X1023Y182D02*
X1042Y182D01*
X1071Y182D02*
X1090Y182D01*
X1123Y182D02*
X1143Y182D01*
X1171Y182D02*
X1191Y182D01*
X1224Y182D02*
X1243Y182D01*
X1271Y182D02*
X1291Y182D01*
X1324Y182D02*
X1343Y182D01*
X1372Y182D02*
X1391Y182D01*
X1424Y182D02*
X1443Y182D01*
X1472Y182D02*
X1491Y182D01*
X1524Y182D02*
X1543Y182D01*
X1572Y182D02*
X1591Y182D01*
X1624Y182D02*
X1643Y182D01*
X1672Y182D02*
X1691Y182D01*
X1724Y182D02*
X1743Y182D01*
X1772Y182D02*
X1791Y182D01*
X1824Y182D02*
X1843Y182D01*
X1872Y182D02*
X1891Y182D01*
X1924Y182D02*
X1944Y182D01*
X1972Y182D02*
X1992Y182D01*
X2025Y182D02*
X2044Y182D01*
X2073Y182D02*
X2092Y182D01*
X2125Y182D02*
X2144Y182D01*
X2173Y182D02*
X2192Y182D01*
X2225Y182D02*
X2244Y182D01*
X2273Y182D02*
X2292Y182D01*
X2325Y182D02*
X2344Y182D01*
X2373Y182D02*
X2392Y182D01*
X2425Y182D02*
X2444Y182D01*
X971Y181D02*
X990Y181D01*
X1024Y181D02*
X1043Y181D01*
X1071Y181D02*
X1090Y181D01*
X1124Y181D02*
X1143Y181D01*
X1171Y181D02*
X1190Y181D01*
X1224Y181D02*
X1243Y181D01*
X1271Y181D02*
X1290Y181D01*
X1324Y181D02*
X1343Y181D01*
X1371Y181D02*
X1390Y181D01*
X1424Y181D02*
X1443Y181D01*
X1472Y181D02*
X1490Y181D01*
X1524Y181D02*
X1543Y181D01*
X1572Y181D02*
X1591Y181D01*
X1624Y181D02*
X1643Y181D01*
X1672Y181D02*
X1691Y181D01*
X1725Y181D02*
X1744Y181D01*
X1772Y181D02*
X1791Y181D01*
X1825Y181D02*
X1844Y181D01*
X1872Y181D02*
X1891Y181D01*
X1925Y181D02*
X1944Y181D01*
X1972Y181D02*
X1991Y181D01*
X2025Y181D02*
X2044Y181D01*
X2072Y181D02*
X2091Y181D01*
X2125Y181D02*
X2144Y181D01*
X2172Y181D02*
X2191Y181D01*
X2225Y181D02*
X2244Y181D01*
X2273Y181D02*
X2292Y181D01*
X2325Y181D02*
X2344Y181D01*
X2373Y181D02*
X2392Y181D01*
X2426Y181D02*
X2444Y181D01*
X971Y180D02*
X990Y180D01*
X1024Y180D02*
X1043Y180D01*
X1071Y180D02*
X1090Y180D01*
X1124Y180D02*
X1143Y180D01*
X1171Y180D02*
X1190Y180D01*
X1224Y180D02*
X1243Y180D01*
X1271Y180D02*
X1290Y180D01*
X1324Y180D02*
X1343Y180D01*
X1371Y180D02*
X1390Y180D01*
X1425Y180D02*
X1443Y180D01*
X1471Y180D02*
X1490Y180D01*
X1525Y180D02*
X1543Y180D01*
X1572Y180D02*
X1590Y180D01*
X1625Y180D02*
X1644Y180D01*
X1672Y180D02*
X1690Y180D01*
X1725Y180D02*
X1744Y180D01*
X1772Y180D02*
X1791Y180D01*
X1825Y180D02*
X1844Y180D01*
X1872Y180D02*
X1891Y180D01*
X1925Y180D02*
X1944Y180D01*
X1972Y180D02*
X1991Y180D01*
X2025Y180D02*
X2044Y180D01*
X2072Y180D02*
X2091Y180D01*
X2125Y180D02*
X2144Y180D01*
X2172Y180D02*
X2191Y180D01*
X2226Y180D02*
X2244Y180D01*
X2272Y180D02*
X2291Y180D01*
X2326Y180D02*
X2344Y180D01*
X2373Y180D02*
X2391Y180D01*
X2426Y180D02*
X2445Y180D01*
X971Y179D02*
X989Y179D01*
X1024Y179D02*
X1043Y179D01*
X1071Y179D02*
X1089Y179D01*
X1124Y179D02*
X1143Y179D01*
X1171Y179D02*
X1190Y179D01*
X1225Y179D02*
X1243Y179D01*
X1271Y179D02*
X1290Y179D01*
X1325Y179D02*
X1343Y179D01*
X1371Y179D02*
X1390Y179D01*
X1425Y179D02*
X1443Y179D01*
X1471Y179D02*
X1490Y179D01*
X1525Y179D02*
X1544Y179D01*
X1571Y179D02*
X1590Y179D01*
X1625Y179D02*
X1644Y179D01*
X1671Y179D02*
X1690Y179D01*
X1725Y179D02*
X1744Y179D01*
X1772Y179D02*
X1790Y179D01*
X1825Y179D02*
X1844Y179D01*
X1872Y179D02*
X1890Y179D01*
X1925Y179D02*
X1944Y179D01*
X1972Y179D02*
X1991Y179D01*
X2026Y179D02*
X2044Y179D01*
X2072Y179D02*
X2091Y179D01*
X2126Y179D02*
X2144Y179D01*
X2172Y179D02*
X2191Y179D01*
X2226Y179D02*
X2245Y179D01*
X2272Y179D02*
X2291Y179D01*
X2326Y179D02*
X2345Y179D01*
X2372Y179D02*
X2391Y179D01*
X2426Y179D02*
X2445Y179D01*
X970Y178D02*
X989Y178D01*
X1025Y178D02*
X1043Y178D01*
X1071Y178D02*
X1089Y178D01*
X1125Y178D02*
X1143Y178D01*
X1171Y178D02*
X1189Y178D01*
X1225Y178D02*
X1243Y178D01*
X1271Y178D02*
X1289Y178D01*
X1325Y178D02*
X1343Y178D01*
X1371Y178D02*
X1390Y178D01*
X1425Y178D02*
X1444Y178D01*
X1471Y178D02*
X1490Y178D01*
X1525Y178D02*
X1544Y178D01*
X1571Y178D02*
X1590Y178D01*
X1625Y178D02*
X1644Y178D01*
X1671Y178D02*
X1690Y178D01*
X1725Y178D02*
X1744Y178D01*
X1771Y178D02*
X1790Y178D01*
X1826Y178D02*
X1844Y178D01*
X1872Y178D02*
X1890Y178D01*
X1926Y178D02*
X1944Y178D01*
X1972Y178D02*
X1990Y178D01*
X2026Y178D02*
X2044Y178D01*
X2072Y178D02*
X2090Y178D01*
X2126Y178D02*
X2145Y178D01*
X2172Y178D02*
X2191Y178D01*
X2226Y178D02*
X2245Y178D01*
X2272Y178D02*
X2291Y178D01*
X2326Y178D02*
X2345Y178D01*
X2372Y178D02*
X2391Y178D01*
X2426Y178D02*
X2445Y178D01*
X970Y177D02*
X989Y177D01*
X1025Y177D02*
X1043Y177D01*
X1070Y177D02*
X1089Y177D01*
X1125Y177D02*
X1143Y177D01*
X1171Y177D02*
X1189Y177D01*
X1225Y177D02*
X1243Y177D01*
X1271Y177D02*
X1289Y177D01*
X1325Y177D02*
X1344Y177D01*
X1371Y177D02*
X1389Y177D01*
X1425Y177D02*
X1444Y177D01*
X1471Y177D02*
X1490Y177D01*
X1525Y177D02*
X1544Y177D01*
X1571Y177D02*
X1590Y177D01*
X1625Y177D02*
X1644Y177D01*
X1671Y177D02*
X1690Y177D01*
X1726Y177D02*
X1744Y177D01*
X1771Y177D02*
X1790Y177D01*
X1826Y177D02*
X1844Y177D01*
X1872Y177D02*
X1890Y177D01*
X1926Y177D02*
X1944Y177D01*
X1972Y177D02*
X1990Y177D01*
X2026Y177D02*
X2044Y177D01*
X2072Y177D02*
X2090Y177D01*
X2126Y177D02*
X2145Y177D01*
X2172Y177D02*
X2190Y177D01*
X2226Y177D02*
X2245Y177D01*
X2272Y177D02*
X2291Y177D01*
X2326Y177D02*
X2345Y177D01*
X2372Y177D02*
X2391Y177D01*
X2426Y177D02*
X2445Y177D01*
X970Y176D02*
X989Y176D01*
X1025Y176D02*
X1043Y176D01*
X1070Y176D02*
X1089Y176D01*
X1125Y176D02*
X1143Y176D01*
X1171Y176D02*
X1189Y176D01*
X1225Y176D02*
X1243Y176D01*
X1271Y176D02*
X1289Y176D01*
X1325Y176D02*
X1344Y176D01*
X1371Y176D02*
X1389Y176D01*
X1425Y176D02*
X1444Y176D01*
X1471Y176D02*
X1490Y176D01*
X1525Y176D02*
X1544Y176D01*
X1571Y176D02*
X1590Y176D01*
X1625Y176D02*
X1644Y176D01*
X1671Y176D02*
X1690Y176D01*
X1726Y176D02*
X1744Y176D01*
X1771Y176D02*
X1790Y176D01*
X1826Y176D02*
X1844Y176D01*
X1871Y176D02*
X1890Y176D01*
X1926Y176D02*
X1944Y176D01*
X1972Y176D02*
X1990Y176D01*
X2026Y176D02*
X2045Y176D01*
X2072Y176D02*
X2090Y176D01*
X2126Y176D02*
X2145Y176D01*
X2172Y176D02*
X2190Y176D01*
X2226Y176D02*
X2245Y176D01*
X2272Y176D02*
X2291Y176D01*
X2326Y176D02*
X2345Y176D01*
X2372Y176D02*
X2391Y176D01*
X2426Y176D02*
X2445Y176D01*
X970Y175D02*
X989Y175D01*
X1025Y175D02*
X1043Y175D01*
X1070Y175D02*
X1089Y175D01*
X1125Y175D02*
X1143Y175D01*
X1171Y175D02*
X1189Y175D01*
X1225Y175D02*
X1244Y175D01*
X1271Y175D02*
X1289Y175D01*
X1325Y175D02*
X1344Y175D01*
X1371Y175D02*
X1389Y175D01*
X1425Y175D02*
X1444Y175D01*
X1471Y175D02*
X1489Y175D01*
X1525Y175D02*
X1544Y175D01*
X1571Y175D02*
X1590Y175D01*
X1626Y175D02*
X1644Y175D01*
X1671Y175D02*
X1690Y175D01*
X1726Y175D02*
X1744Y175D01*
X1771Y175D02*
X1790Y175D01*
X1826Y175D02*
X1844Y175D01*
X1871Y175D02*
X1890Y175D01*
X1926Y175D02*
X1944Y175D01*
X1972Y175D02*
X1990Y175D01*
X2026Y175D02*
X2045Y175D01*
X2072Y175D02*
X2090Y175D01*
X2126Y175D02*
X2145Y175D01*
X2172Y175D02*
X2190Y175D01*
X2226Y175D02*
X2245Y175D01*
X2272Y175D02*
X2290Y175D01*
X2326Y175D02*
X2345Y175D01*
X2372Y175D02*
X2391Y175D01*
X2427Y175D02*
X2445Y175D01*
X970Y174D02*
X989Y174D01*
X1025Y174D02*
X1043Y174D01*
X1070Y174D02*
X1089Y174D01*
X1125Y174D02*
X1143Y174D01*
X1171Y174D02*
X1189Y174D01*
X1225Y174D02*
X1244Y174D01*
X1271Y174D02*
X1289Y174D01*
X1325Y174D02*
X1344Y174D01*
X1371Y174D02*
X1389Y174D01*
X1425Y174D02*
X1444Y174D01*
X1471Y174D02*
X1489Y174D01*
X1525Y174D02*
X1544Y174D01*
X1571Y174D02*
X1590Y174D01*
X1626Y174D02*
X1644Y174D01*
X1671Y174D02*
X1690Y174D01*
X1726Y174D02*
X1744Y174D01*
X1771Y174D02*
X1790Y174D01*
X1826Y174D02*
X1844Y174D01*
X1871Y174D02*
X1890Y174D01*
X1926Y174D02*
X1944Y174D01*
X1972Y174D02*
X1990Y174D01*
X2026Y174D02*
X2045Y174D01*
X2072Y174D02*
X2090Y174D01*
X2126Y174D02*
X2145Y174D01*
X2172Y174D02*
X2190Y174D01*
X2226Y174D02*
X2245Y174D01*
X2272Y174D02*
X2290Y174D01*
X2326Y174D02*
X2345Y174D01*
X2372Y174D02*
X2391Y174D01*
X2427Y174D02*
X2445Y174D01*
X970Y173D02*
X989Y173D01*
X1025Y173D02*
X1043Y173D01*
X1070Y173D02*
X1089Y173D01*
X1125Y173D02*
X1143Y173D01*
X1171Y173D02*
X1189Y173D01*
X1225Y173D02*
X1243Y173D01*
X1271Y173D02*
X1289Y173D01*
X1325Y173D02*
X1344Y173D01*
X1371Y173D02*
X1389Y173D01*
X1425Y173D02*
X1444Y173D01*
X1471Y173D02*
X1490Y173D01*
X1525Y173D02*
X1544Y173D01*
X1571Y173D02*
X1590Y173D01*
X1625Y173D02*
X1644Y173D01*
X1671Y173D02*
X1690Y173D01*
X1726Y173D02*
X1744Y173D01*
X1771Y173D02*
X1790Y173D01*
X1826Y173D02*
X1844Y173D01*
X1871Y173D02*
X1890Y173D01*
X1926Y173D02*
X1944Y173D01*
X1972Y173D02*
X1990Y173D01*
X2026Y173D02*
X2045Y173D01*
X2072Y173D02*
X2090Y173D01*
X2126Y173D02*
X2145Y173D01*
X2172Y173D02*
X2190Y173D01*
X2226Y173D02*
X2245Y173D01*
X2272Y173D02*
X2291Y173D01*
X2326Y173D02*
X2345Y173D01*
X2372Y173D02*
X2391Y173D01*
X2426Y173D02*
X2445Y173D01*
X970Y172D02*
X989Y172D01*
X1025Y172D02*
X1043Y172D01*
X1070Y172D02*
X1089Y172D01*
X1125Y172D02*
X1143Y172D01*
X1171Y172D02*
X1189Y172D01*
X1225Y172D02*
X1243Y172D01*
X1271Y172D02*
X1289Y172D01*
X1325Y172D02*
X1344Y172D01*
X1371Y172D02*
X1389Y172D01*
X1425Y172D02*
X1444Y172D01*
X1471Y172D02*
X1490Y172D01*
X1525Y172D02*
X1544Y172D01*
X1571Y172D02*
X1590Y172D01*
X1625Y172D02*
X1644Y172D01*
X1671Y172D02*
X1690Y172D01*
X1726Y172D02*
X1744Y172D01*
X1771Y172D02*
X1790Y172D01*
X1826Y172D02*
X1844Y172D01*
X1872Y172D02*
X1890Y172D01*
X1926Y172D02*
X1944Y172D01*
X1972Y172D02*
X1990Y172D01*
X2026Y172D02*
X2044Y172D01*
X2072Y172D02*
X2090Y172D01*
X2126Y172D02*
X2145Y172D01*
X2172Y172D02*
X2191Y172D01*
X2226Y172D02*
X2245Y172D01*
X2272Y172D02*
X2291Y172D01*
X2326Y172D02*
X2345Y172D01*
X2372Y172D02*
X2391Y172D01*
X2426Y172D02*
X2445Y172D01*
X970Y171D02*
X989Y171D01*
X1024Y171D02*
X1043Y171D01*
X1071Y171D02*
X1089Y171D01*
X1125Y171D02*
X1143Y171D01*
X1171Y171D02*
X1189Y171D01*
X1225Y171D02*
X1243Y171D01*
X1271Y171D02*
X1289Y171D01*
X1325Y171D02*
X1343Y171D01*
X1371Y171D02*
X1390Y171D01*
X1425Y171D02*
X1444Y171D01*
X1471Y171D02*
X1490Y171D01*
X1525Y171D02*
X1544Y171D01*
X1571Y171D02*
X1590Y171D01*
X1625Y171D02*
X1644Y171D01*
X1671Y171D02*
X1690Y171D01*
X1725Y171D02*
X1744Y171D01*
X1771Y171D02*
X1790Y171D01*
X1826Y171D02*
X1844Y171D01*
X1872Y171D02*
X1890Y171D01*
X1926Y171D02*
X1944Y171D01*
X1972Y171D02*
X1990Y171D01*
X2026Y171D02*
X2044Y171D01*
X2072Y171D02*
X2090Y171D01*
X2126Y171D02*
X2145Y171D01*
X2172Y171D02*
X2191Y171D01*
X2226Y171D02*
X2245Y171D01*
X2272Y171D02*
X2291Y171D01*
X2326Y171D02*
X2345Y171D01*
X2372Y171D02*
X2391Y171D01*
X2426Y171D02*
X2445Y171D01*
X971Y170D02*
X989Y170D01*
X1024Y170D02*
X1043Y170D01*
X1071Y170D02*
X1089Y170D01*
X1124Y170D02*
X1143Y170D01*
X1171Y170D02*
X1190Y170D01*
X1225Y170D02*
X1243Y170D01*
X1271Y170D02*
X1290Y170D01*
X1325Y170D02*
X1343Y170D01*
X1371Y170D02*
X1390Y170D01*
X1425Y170D02*
X1443Y170D01*
X1471Y170D02*
X1490Y170D01*
X1525Y170D02*
X1544Y170D01*
X1571Y170D02*
X1590Y170D01*
X1625Y170D02*
X1644Y170D01*
X1671Y170D02*
X1690Y170D01*
X1725Y170D02*
X1744Y170D01*
X1772Y170D02*
X1790Y170D01*
X1825Y170D02*
X1844Y170D01*
X1872Y170D02*
X1890Y170D01*
X1925Y170D02*
X1944Y170D01*
X1972Y170D02*
X1991Y170D01*
X2026Y170D02*
X2044Y170D01*
X2072Y170D02*
X2091Y170D01*
X2126Y170D02*
X2144Y170D01*
X2172Y170D02*
X2191Y170D01*
X2226Y170D02*
X2245Y170D01*
X2272Y170D02*
X2291Y170D01*
X2326Y170D02*
X2345Y170D01*
X2372Y170D02*
X2391Y170D01*
X2426Y170D02*
X2445Y170D01*
X971Y169D02*
X990Y169D01*
X1024Y169D02*
X1043Y169D01*
X1071Y169D02*
X1090Y169D01*
X1124Y169D02*
X1143Y169D01*
X1171Y169D02*
X1190Y169D01*
X1224Y169D02*
X1243Y169D01*
X1271Y169D02*
X1290Y169D01*
X1324Y169D02*
X1343Y169D01*
X1371Y169D02*
X1390Y169D01*
X1424Y169D02*
X1443Y169D01*
X1471Y169D02*
X1490Y169D01*
X1525Y169D02*
X1543Y169D01*
X1572Y169D02*
X1590Y169D01*
X1625Y169D02*
X1644Y169D01*
X1672Y169D02*
X1690Y169D01*
X1725Y169D02*
X1744Y169D01*
X1772Y169D02*
X1791Y169D01*
X1825Y169D02*
X1844Y169D01*
X1872Y169D02*
X1891Y169D01*
X1925Y169D02*
X1944Y169D01*
X1972Y169D02*
X1991Y169D01*
X2025Y169D02*
X2044Y169D01*
X2072Y169D02*
X2091Y169D01*
X2125Y169D02*
X2144Y169D01*
X2172Y169D02*
X2191Y169D01*
X2226Y169D02*
X2244Y169D01*
X2272Y169D02*
X2291Y169D01*
X2326Y169D02*
X2344Y169D01*
X2373Y169D02*
X2391Y169D01*
X2426Y169D02*
X2445Y169D01*
X971Y168D02*
X990Y168D01*
X1024Y168D02*
X1043Y168D01*
X1071Y168D02*
X1090Y168D01*
X1124Y168D02*
X1143Y168D01*
X1171Y168D02*
X1190Y168D01*
X1224Y168D02*
X1243Y168D01*
X1271Y168D02*
X1290Y168D01*
X1324Y168D02*
X1343Y168D01*
X1371Y168D02*
X1390Y168D01*
X1424Y168D02*
X1443Y168D01*
X1472Y168D02*
X1490Y168D01*
X1524Y168D02*
X1543Y168D01*
X1572Y168D02*
X1591Y168D01*
X1624Y168D02*
X1643Y168D01*
X1672Y168D02*
X1691Y168D01*
X1725Y168D02*
X1744Y168D01*
X1772Y168D02*
X1791Y168D01*
X1825Y168D02*
X1844Y168D01*
X1872Y168D02*
X1891Y168D01*
X1925Y168D02*
X1944Y168D01*
X1972Y168D02*
X1991Y168D01*
X2025Y168D02*
X2044Y168D01*
X2072Y168D02*
X2091Y168D01*
X2125Y168D02*
X2144Y168D01*
X2172Y168D02*
X2191Y168D01*
X2225Y168D02*
X2244Y168D01*
X2273Y168D02*
X2292Y168D01*
X2325Y168D02*
X2344Y168D01*
X2373Y168D02*
X2392Y168D01*
X2426Y168D02*
X2444Y168D01*
X971Y167D02*
X990Y167D01*
X1023Y167D02*
X1042Y167D01*
X1071Y167D02*
X1090Y167D01*
X1123Y167D02*
X1143Y167D01*
X1171Y167D02*
X1191Y167D01*
X1223Y167D02*
X1243Y167D01*
X1271Y167D02*
X1291Y167D01*
X1324Y167D02*
X1343Y167D01*
X1372Y167D02*
X1391Y167D01*
X1424Y167D02*
X1443Y167D01*
X1472Y167D02*
X1491Y167D01*
X1524Y167D02*
X1543Y167D01*
X1572Y167D02*
X1591Y167D01*
X1624Y167D02*
X1643Y167D01*
X1672Y167D02*
X1691Y167D01*
X1724Y167D02*
X1743Y167D01*
X1772Y167D02*
X1791Y167D01*
X1824Y167D02*
X1843Y167D01*
X1872Y167D02*
X1892Y167D01*
X1924Y167D02*
X1944Y167D01*
X1972Y167D02*
X1992Y167D01*
X2025Y167D02*
X2044Y167D01*
X2073Y167D02*
X2092Y167D01*
X2125Y167D02*
X2144Y167D01*
X2173Y167D02*
X2192Y167D01*
X2225Y167D02*
X2244Y167D01*
X2273Y167D02*
X2292Y167D01*
X2325Y167D02*
X2344Y167D01*
X2373Y167D02*
X2392Y167D01*
X2425Y167D02*
X2444Y167D01*
X971Y166D02*
X991Y166D01*
X1023Y166D02*
X1042Y166D01*
X1072Y166D02*
X1091Y166D01*
X1123Y166D02*
X1142Y166D01*
X1172Y166D02*
X1191Y166D01*
X1223Y166D02*
X1242Y166D01*
X1272Y166D02*
X1291Y166D01*
X1323Y166D02*
X1343Y166D01*
X1372Y166D02*
X1391Y166D01*
X1423Y166D02*
X1443Y166D01*
X1472Y166D02*
X1492Y166D01*
X1523Y166D02*
X1543Y166D01*
X1572Y166D02*
X1592Y166D01*
X1623Y166D02*
X1643Y166D01*
X1672Y166D02*
X1692Y166D01*
X1724Y166D02*
X1743Y166D01*
X1772Y166D02*
X1792Y166D01*
X1824Y166D02*
X1843Y166D01*
X1873Y166D02*
X1892Y166D01*
X1924Y166D02*
X1943Y166D01*
X1973Y166D02*
X1992Y166D01*
X2024Y166D02*
X2043Y166D01*
X2073Y166D02*
X2092Y166D01*
X2124Y166D02*
X2144Y166D01*
X2173Y166D02*
X2192Y166D01*
X2224Y166D02*
X2244Y166D01*
X2273Y166D02*
X2293Y166D01*
X2324Y166D02*
X2344Y166D01*
X2373Y166D02*
X2393Y166D01*
X2424Y166D02*
X2444Y166D01*
X972Y165D02*
X991Y165D01*
X1022Y165D02*
X1042Y165D01*
X1072Y165D02*
X1092Y165D01*
X1122Y165D02*
X1142Y165D01*
X1172Y165D02*
X1192Y165D01*
X1222Y165D02*
X1242Y165D01*
X1272Y165D02*
X1292Y165D01*
X1322Y165D02*
X1342Y165D01*
X1372Y165D02*
X1392Y165D01*
X1423Y165D02*
X1442Y165D01*
X1472Y165D02*
X1492Y165D01*
X1523Y165D02*
X1543Y165D01*
X1572Y165D02*
X1592Y165D01*
X1623Y165D02*
X1643Y165D01*
X1673Y165D02*
X1692Y165D01*
X1723Y165D02*
X1743Y165D01*
X1773Y165D02*
X1793Y165D01*
X1823Y165D02*
X1843Y165D01*
X1873Y165D02*
X1893Y165D01*
X1923Y165D02*
X1943Y165D01*
X1973Y165D02*
X1993Y165D01*
X2023Y165D02*
X2043Y165D01*
X2073Y165D02*
X2093Y165D01*
X2123Y165D02*
X2143Y165D01*
X2173Y165D02*
X2193Y165D01*
X2224Y165D02*
X2243Y165D01*
X2273Y165D02*
X2293Y165D01*
X2324Y165D02*
X2344Y165D01*
X2373Y165D02*
X2393Y165D01*
X2424Y165D02*
X2444Y165D01*
X972Y164D02*
X992Y164D01*
X1021Y164D02*
X1042Y164D01*
X1072Y164D02*
X1092Y164D01*
X1121Y164D02*
X1142Y164D01*
X1172Y164D02*
X1193Y164D01*
X1221Y164D02*
X1242Y164D01*
X1272Y164D02*
X1293Y164D01*
X1322Y164D02*
X1342Y164D01*
X1372Y164D02*
X1393Y164D01*
X1422Y164D02*
X1442Y164D01*
X1473Y164D02*
X1493Y164D01*
X1522Y164D02*
X1542Y164D01*
X1573Y164D02*
X1593Y164D01*
X1622Y164D02*
X1642Y164D01*
X1673Y164D02*
X1693Y164D01*
X1722Y164D02*
X1743Y164D01*
X1773Y164D02*
X1793Y164D01*
X1822Y164D02*
X1843Y164D01*
X1873Y164D02*
X1893Y164D01*
X1922Y164D02*
X1943Y164D01*
X1973Y164D02*
X1994Y164D01*
X2023Y164D02*
X2043Y164D01*
X2073Y164D02*
X2094Y164D01*
X2123Y164D02*
X2143Y164D01*
X2173Y164D02*
X2194Y164D01*
X2223Y164D02*
X2243Y164D01*
X2274Y164D02*
X2294Y164D01*
X2323Y164D02*
X2343Y164D01*
X2374Y164D02*
X2394Y164D01*
X2423Y164D02*
X2443Y164D01*
X972Y163D02*
X993Y163D01*
X1020Y163D02*
X1041Y163D01*
X1072Y163D02*
X1093Y163D01*
X1120Y163D02*
X1141Y163D01*
X1173Y163D02*
X1193Y163D01*
X1221Y163D02*
X1242Y163D01*
X1273Y163D02*
X1294Y163D01*
X1321Y163D02*
X1342Y163D01*
X1373Y163D02*
X1394Y163D01*
X1421Y163D02*
X1442Y163D01*
X1473Y163D02*
X1494Y163D01*
X1521Y163D02*
X1542Y163D01*
X1573Y163D02*
X1594Y163D01*
X1621Y163D02*
X1642Y163D01*
X1673Y163D02*
X1694Y163D01*
X1721Y163D02*
X1742Y163D01*
X1773Y163D02*
X1794Y163D01*
X1821Y163D02*
X1842Y163D01*
X1873Y163D02*
X1894Y163D01*
X1922Y163D02*
X1942Y163D01*
X1974Y163D02*
X1994Y163D01*
X2022Y163D02*
X2043Y163D01*
X2074Y163D02*
X2095Y163D01*
X2122Y163D02*
X2143Y163D01*
X2174Y163D02*
X2195Y163D01*
X2222Y163D02*
X2243Y163D01*
X2274Y163D02*
X2295Y163D01*
X2322Y163D02*
X2343Y163D01*
X2374Y163D02*
X2395Y163D01*
X2422Y163D02*
X2443Y163D01*
X973Y162D02*
X994Y162D01*
X1019Y162D02*
X1041Y162D01*
X1073Y162D02*
X1094Y162D01*
X1120Y162D02*
X1141Y162D01*
X1173Y162D02*
X1194Y162D01*
X1220Y162D02*
X1241Y162D01*
X1273Y162D02*
X1294Y162D01*
X1320Y162D02*
X1341Y162D01*
X1373Y162D02*
X1395Y162D01*
X1420Y162D02*
X1441Y162D01*
X1473Y162D02*
X1495Y162D01*
X1520Y162D02*
X1542Y162D01*
X1573Y162D02*
X1595Y162D01*
X1620Y162D02*
X1642Y162D01*
X1674Y162D02*
X1695Y162D01*
X1720Y162D02*
X1742Y162D01*
X1774Y162D02*
X1795Y162D01*
X1820Y162D02*
X1842Y162D01*
X1874Y162D02*
X1895Y162D01*
X1921Y162D02*
X1942Y162D01*
X1974Y162D02*
X1995Y162D01*
X2021Y162D02*
X2042Y162D01*
X2074Y162D02*
X2096Y162D01*
X2121Y162D02*
X2142Y162D01*
X2174Y162D02*
X2196Y162D01*
X2221Y162D02*
X2242Y162D01*
X2274Y162D02*
X2296Y162D01*
X2321Y162D02*
X2343Y162D01*
X2374Y162D02*
X2396Y162D01*
X2421Y162D02*
X2443Y162D01*
X973Y161D02*
X995Y161D01*
X1018Y161D02*
X1041Y161D01*
X1073Y161D02*
X1095Y161D01*
X1118Y161D02*
X1141Y161D01*
X1173Y161D02*
X1195Y161D01*
X1219Y161D02*
X1241Y161D01*
X1273Y161D02*
X1296Y161D01*
X1319Y161D02*
X1341Y161D01*
X1374Y161D02*
X1396Y161D01*
X1419Y161D02*
X1441Y161D01*
X1474Y161D02*
X1496Y161D01*
X1519Y161D02*
X1541Y161D01*
X1574Y161D02*
X1596Y161D01*
X1619Y161D02*
X1641Y161D01*
X1674Y161D02*
X1696Y161D01*
X1719Y161D02*
X1741Y161D01*
X1774Y161D02*
X1796Y161D01*
X1819Y161D02*
X1842Y161D01*
X1874Y161D02*
X1896Y161D01*
X1919Y161D02*
X1942Y161D01*
X1974Y161D02*
X1997Y161D01*
X2020Y161D02*
X2042Y161D01*
X2074Y161D02*
X2097Y161D01*
X2120Y161D02*
X2142Y161D01*
X2175Y161D02*
X2197Y161D01*
X2220Y161D02*
X2242Y161D01*
X2275Y161D02*
X2297Y161D01*
X2320Y161D02*
X2342Y161D01*
X2375Y161D02*
X2397Y161D01*
X2420Y161D02*
X2442Y161D01*
X973Y160D02*
X996Y160D01*
X1017Y160D02*
X1040Y160D01*
X1074Y160D02*
X1097Y160D01*
X1117Y160D02*
X1140Y160D01*
X1174Y160D02*
X1197Y160D01*
X1217Y160D02*
X1240Y160D01*
X1274Y160D02*
X1297Y160D01*
X1318Y160D02*
X1341Y160D01*
X1374Y160D02*
X1397Y160D01*
X1418Y160D02*
X1441Y160D01*
X1474Y160D02*
X1497Y160D01*
X1518Y160D02*
X1541Y160D01*
X1574Y160D02*
X1597Y160D01*
X1618Y160D02*
X1641Y160D01*
X1674Y160D02*
X1697Y160D01*
X1718Y160D02*
X1741Y160D01*
X1774Y160D02*
X1797Y160D01*
X1818Y160D02*
X1841Y160D01*
X1875Y160D02*
X1898Y160D01*
X1918Y160D02*
X1941Y160D01*
X1975Y160D02*
X1998Y160D01*
X2018Y160D02*
X2041Y160D01*
X2075Y160D02*
X2098Y160D01*
X2119Y160D02*
X2142Y160D01*
X2175Y160D02*
X2198Y160D01*
X2219Y160D02*
X2242Y160D01*
X2275Y160D02*
X2298Y160D01*
X2319Y160D02*
X2342Y160D01*
X2375Y160D02*
X2398Y160D01*
X2419Y160D02*
X2442Y160D01*
X974Y159D02*
X998Y159D01*
X1015Y159D02*
X1040Y159D01*
X1074Y159D02*
X1098Y159D01*
X1116Y159D02*
X1140Y159D01*
X1174Y159D02*
X1198Y159D01*
X1216Y159D02*
X1240Y159D01*
X1274Y159D02*
X1298Y159D01*
X1316Y159D02*
X1340Y159D01*
X1374Y159D02*
X1399Y159D01*
X1416Y159D02*
X1440Y159D01*
X1475Y159D02*
X1499Y159D01*
X1516Y159D02*
X1540Y159D01*
X1575Y159D02*
X1599Y159D01*
X1616Y159D02*
X1640Y159D01*
X1675Y159D02*
X1699Y159D01*
X1716Y159D02*
X1741Y159D01*
X1775Y159D02*
X1799Y159D01*
X1817Y159D02*
X1841Y159D01*
X1875Y159D02*
X1899Y159D01*
X1917Y159D02*
X1941Y159D01*
X1975Y159D02*
X1999Y159D01*
X2017Y159D02*
X2041Y159D01*
X2075Y159D02*
X2099Y159D01*
X2117Y159D02*
X2141Y159D01*
X2175Y159D02*
X2200Y159D01*
X2217Y159D02*
X2241Y159D01*
X2276Y159D02*
X2300Y159D01*
X2317Y159D02*
X2341Y159D01*
X2376Y159D02*
X2400Y159D01*
X2417Y159D02*
X2441Y159D01*
X974Y158D02*
X1000Y158D01*
X1013Y158D02*
X1039Y158D01*
X1074Y158D02*
X1100Y158D01*
X1113Y158D02*
X1139Y158D01*
X1175Y158D02*
X1200Y158D01*
X1214Y158D02*
X1239Y158D01*
X1275Y158D02*
X1301Y158D01*
X1314Y158D02*
X1340Y158D01*
X1375Y158D02*
X1401Y158D01*
X1414Y158D02*
X1440Y158D01*
X1475Y158D02*
X1501Y158D01*
X1514Y158D02*
X1540Y158D01*
X1575Y158D02*
X1601Y158D01*
X1614Y158D02*
X1640Y158D01*
X1675Y158D02*
X1701Y158D01*
X1714Y158D02*
X1740Y158D01*
X1775Y158D02*
X1801Y158D01*
X1814Y158D02*
X1840Y158D01*
X1876Y158D02*
X1901Y158D01*
X1914Y158D02*
X1940Y158D01*
X1976Y158D02*
X2002Y158D01*
X2015Y158D02*
X2040Y158D01*
X2076Y158D02*
X2102Y158D01*
X2115Y158D02*
X2141Y158D01*
X2176Y158D02*
X2202Y158D01*
X2215Y158D02*
X2241Y158D01*
X2276Y158D02*
X2302Y158D01*
X2315Y158D02*
X2341Y158D01*
X2376Y158D02*
X2402Y158D01*
X2415Y158D02*
X2441Y158D01*
X975Y157D02*
X1039Y157D01*
X1075Y157D02*
X1139Y157D01*
X1175Y157D02*
X1239Y157D01*
X1275Y157D02*
X1339Y157D01*
X1375Y157D02*
X1439Y157D01*
X1475Y157D02*
X1539Y157D01*
X1576Y157D02*
X1639Y157D01*
X1676Y157D02*
X1740Y157D01*
X1776Y157D02*
X1840Y157D01*
X1876Y157D02*
X1940Y157D01*
X1976Y157D02*
X2040Y157D01*
X2076Y157D02*
X2140Y157D01*
X2176Y157D02*
X2240Y157D01*
X2277Y157D02*
X2340Y157D01*
X2377Y157D02*
X2441Y157D01*
X975Y156D02*
X1038Y156D01*
X1076Y156D02*
X1138Y156D01*
X1176Y156D02*
X1238Y156D01*
X1276Y156D02*
X1339Y156D01*
X1376Y156D02*
X1439Y156D01*
X1476Y156D02*
X1539Y156D01*
X1576Y156D02*
X1639Y156D01*
X1676Y156D02*
X1739Y156D01*
X1776Y156D02*
X1839Y156D01*
X1877Y156D02*
X1939Y156D01*
X1977Y156D02*
X2039Y156D01*
X2077Y156D02*
X2140Y156D01*
X2177Y156D02*
X2240Y156D01*
X2277Y156D02*
X2340Y156D01*
X2377Y156D02*
X2440Y156D01*
X976Y155D02*
X1038Y155D01*
X1076Y155D02*
X1138Y155D01*
X1176Y155D02*
X1238Y155D01*
X1276Y155D02*
X1338Y155D01*
X1377Y155D02*
X1438Y155D01*
X1477Y155D02*
X1538Y155D01*
X1577Y155D02*
X1638Y155D01*
X1677Y155D02*
X1738Y155D01*
X1777Y155D02*
X1839Y155D01*
X1877Y155D02*
X1939Y155D01*
X1977Y155D02*
X2039Y155D01*
X2077Y155D02*
X2139Y155D01*
X2178Y155D02*
X2239Y155D01*
X2278Y155D02*
X2339Y155D01*
X2378Y155D02*
X2439Y155D01*
X977Y154D02*
X1037Y154D01*
X1077Y154D02*
X1137Y154D01*
X1177Y154D02*
X1237Y154D01*
X1277Y154D02*
X1337Y154D01*
X1377Y154D02*
X1437Y154D01*
X1477Y154D02*
X1538Y154D01*
X1577Y154D02*
X1638Y154D01*
X1678Y154D02*
X1738Y154D01*
X1778Y154D02*
X1838Y154D01*
X1878Y154D02*
X1938Y154D01*
X1978Y154D02*
X2038Y154D01*
X2078Y154D02*
X2138Y154D01*
X2178Y154D02*
X2239Y154D01*
X2278Y154D02*
X2339Y154D01*
X2378Y154D02*
X2439Y154D01*
X977Y153D02*
X1036Y153D01*
X1077Y153D02*
X1136Y153D01*
X1178Y153D02*
X1237Y153D01*
X1278Y153D02*
X1337Y153D01*
X1378Y153D02*
X1437Y153D01*
X1478Y153D02*
X1537Y153D01*
X1578Y153D02*
X1637Y153D01*
X1678Y153D02*
X1737Y153D01*
X1778Y153D02*
X1837Y153D01*
X1878Y153D02*
X1937Y153D01*
X1979Y153D02*
X2038Y153D01*
X2079Y153D02*
X2138Y153D01*
X2179Y153D02*
X2238Y153D01*
X2279Y153D02*
X2338Y153D01*
X2379Y153D02*
X2438Y153D01*
X978Y152D02*
X1036Y152D01*
X1078Y152D02*
X1136Y152D01*
X1178Y152D02*
X1236Y152D01*
X1278Y152D02*
X1336Y152D01*
X1379Y152D02*
X1436Y152D01*
X1479Y152D02*
X1536Y152D01*
X1579Y152D02*
X1636Y152D01*
X1679Y152D02*
X1736Y152D01*
X1779Y152D02*
X1837Y152D01*
X1879Y152D02*
X1937Y152D01*
X1979Y152D02*
X2037Y152D01*
X2079Y152D02*
X2137Y152D01*
X2180Y152D02*
X2237Y152D01*
X2280Y152D02*
X2337Y152D01*
X2380Y152D02*
X2437Y152D01*
X979Y151D02*
X1035Y151D01*
X1079Y151D02*
X1135Y151D01*
X1179Y151D02*
X1235Y151D01*
X1279Y151D02*
X1335Y151D01*
X1379Y151D02*
X1435Y151D01*
X1479Y151D02*
X1535Y151D01*
X1580Y151D02*
X1636Y151D01*
X1680Y151D02*
X1736Y151D01*
X1780Y151D02*
X1836Y151D01*
X1880Y151D02*
X1936Y151D01*
X1980Y151D02*
X2036Y151D01*
X2080Y151D02*
X2136Y151D01*
X2180Y151D02*
X2236Y151D01*
X2280Y151D02*
X2336Y151D01*
X2381Y151D02*
X2437Y151D01*
X980Y150D02*
X1034Y150D01*
X1080Y150D02*
X1134Y150D01*
X1180Y150D02*
X1234Y150D01*
X1280Y150D02*
X1334Y150D01*
X1380Y150D02*
X1434Y150D01*
X1480Y150D02*
X1535Y150D01*
X1580Y150D02*
X1635Y150D01*
X1681Y150D02*
X1735Y150D01*
X1781Y150D02*
X1835Y150D01*
X1881Y150D02*
X1935Y150D01*
X1981Y150D02*
X2035Y150D01*
X2081Y150D02*
X2135Y150D01*
X2181Y150D02*
X2235Y150D01*
X2281Y150D02*
X2336Y150D01*
X2381Y150D02*
X2436Y150D01*
X980Y149D02*
X1033Y149D01*
X1081Y149D02*
X1133Y149D01*
X1181Y149D02*
X1233Y149D01*
X1281Y149D02*
X1333Y149D01*
X1381Y149D02*
X1434Y149D01*
X1481Y149D02*
X1534Y149D01*
X1581Y149D02*
X1634Y149D01*
X1681Y149D02*
X1734Y149D01*
X1782Y149D02*
X1834Y149D01*
X1882Y149D02*
X1934Y149D01*
X1982Y149D02*
X2034Y149D01*
X2082Y149D02*
X2134Y149D01*
X2182Y149D02*
X2235Y149D01*
X2282Y149D02*
X2335Y149D01*
X2382Y149D02*
X2435Y149D01*
X981Y148D02*
X1032Y148D01*
X1082Y148D02*
X1132Y148D01*
X1182Y148D02*
X1232Y148D01*
X1282Y148D02*
X1332Y148D01*
X1382Y148D02*
X1433Y148D01*
X1482Y148D02*
X1533Y148D01*
X1582Y148D02*
X1633Y148D01*
X1682Y148D02*
X1733Y148D01*
X1783Y148D02*
X1833Y148D01*
X1883Y148D02*
X1933Y148D01*
X1983Y148D02*
X2033Y148D01*
X2083Y148D02*
X2133Y148D01*
X2183Y148D02*
X2234Y148D01*
X2283Y148D02*
X2334Y148D01*
X2383Y148D02*
X2434Y148D01*
X983Y147D02*
X1031Y147D01*
X1083Y147D02*
X1131Y147D01*
X1183Y147D02*
X1231Y147D01*
X1283Y147D02*
X1331Y147D01*
X1383Y147D02*
X1431Y147D01*
X1483Y147D02*
X1532Y147D01*
X1583Y147D02*
X1632Y147D01*
X1684Y147D02*
X1732Y147D01*
X1784Y147D02*
X1832Y147D01*
X1884Y147D02*
X1932Y147D01*
X1984Y147D02*
X2032Y147D01*
X2084Y147D02*
X2132Y147D01*
X2184Y147D02*
X2233Y147D01*
X2284Y147D02*
X2333Y147D01*
X2384Y147D02*
X2433Y147D01*
X984Y146D02*
X1030Y146D01*
X1084Y146D02*
X1130Y146D01*
X1184Y146D02*
X1230Y146D01*
X1284Y146D02*
X1330Y146D01*
X1384Y146D02*
X1430Y146D01*
X1484Y146D02*
X1530Y146D01*
X1585Y146D02*
X1631Y146D01*
X1685Y146D02*
X1731Y146D01*
X1785Y146D02*
X1831Y146D01*
X1885Y146D02*
X1931Y146D01*
X1985Y146D02*
X2031Y146D01*
X2085Y146D02*
X2131Y146D01*
X2185Y146D02*
X2231Y146D01*
X2285Y146D02*
X2331Y146D01*
X2386Y146D02*
X2432Y146D01*
X985Y145D02*
X1028Y145D01*
X1085Y145D02*
X1129Y145D01*
X1185Y145D02*
X1229Y145D01*
X1285Y145D02*
X1329Y145D01*
X1386Y145D02*
X1429Y145D01*
X1486Y145D02*
X1529Y145D01*
X1586Y145D02*
X1629Y145D01*
X1686Y145D02*
X1729Y145D01*
X1786Y145D02*
X1829Y145D01*
X1886Y145D02*
X1930Y145D01*
X1986Y145D02*
X2030Y145D01*
X2087Y145D02*
X2130Y145D01*
X2187Y145D02*
X2230Y145D01*
X2287Y145D02*
X2330Y145D01*
X2387Y145D02*
X2430Y145D01*
X987Y144D02*
X1027Y144D01*
X1087Y144D02*
X1127Y144D01*
X1187Y144D02*
X1227Y144D01*
X1287Y144D02*
X1327Y144D01*
X1387Y144D02*
X1428Y144D01*
X1487Y144D02*
X1528Y144D01*
X1587Y144D02*
X1628Y144D01*
X1687Y144D02*
X1728Y144D01*
X1788Y144D02*
X1828Y144D01*
X1888Y144D02*
X1928Y144D01*
X1988Y144D02*
X2028Y144D01*
X2088Y144D02*
X2128Y144D01*
X2188Y144D02*
X2229Y144D01*
X2288Y144D02*
X2329Y144D01*
X2388Y144D02*
X2429Y144D01*
X988Y143D02*
X1025Y143D01*
X1088Y143D02*
X1125Y143D01*
X1188Y143D02*
X1226Y143D01*
X1289Y143D02*
X1326Y143D01*
X1389Y143D02*
X1426Y143D01*
X1489Y143D02*
X1526Y143D01*
X1589Y143D02*
X1626Y143D01*
X1689Y143D02*
X1726Y143D01*
X1789Y143D02*
X1826Y143D01*
X1889Y143D02*
X1927Y143D01*
X1990Y143D02*
X2027Y143D01*
X2090Y143D02*
X2127Y143D01*
X2190Y143D02*
X2227Y143D01*
X2290Y143D02*
X2327Y143D01*
X2390Y143D02*
X2427Y143D01*
X990Y142D02*
X1024Y142D01*
X1090Y142D02*
X1124Y142D01*
X1190Y142D02*
X1224Y142D01*
X1290Y142D02*
X1324Y142D01*
X1390Y142D02*
X1424Y142D01*
X1491Y142D02*
X1524Y142D01*
X1591Y142D02*
X1624Y142D01*
X1691Y142D02*
X1724Y142D01*
X1791Y142D02*
X1825Y142D01*
X1891Y142D02*
X1925Y142D01*
X1991Y142D02*
X2025Y142D01*
X2091Y142D02*
X2125Y142D01*
X2192Y142D02*
X2225Y142D01*
X2292Y142D02*
X2325Y142D01*
X2392Y142D02*
X2425Y142D01*
X992Y141D02*
X1021Y141D01*
X1092Y141D02*
X1122Y141D01*
X1192Y141D02*
X1222Y141D01*
X1292Y141D02*
X1322Y141D01*
X1393Y141D02*
X1422Y141D01*
X1493Y141D02*
X1522Y141D01*
X1593Y141D02*
X1622Y141D01*
X1693Y141D02*
X1722Y141D01*
X1793Y141D02*
X1823Y141D01*
X1893Y141D02*
X1923Y141D01*
X1993Y141D02*
X2023Y141D01*
X2094Y141D02*
X2123Y141D01*
X2194Y141D02*
X2223Y141D01*
X2294Y141D02*
X2323Y141D01*
X2394Y141D02*
X2423Y141D01*
X995Y140D02*
X1019Y140D01*
X1095Y140D02*
X1119Y140D01*
X1195Y140D02*
X1219Y140D01*
X1295Y140D02*
X1319Y140D01*
X1395Y140D02*
X1420Y140D01*
X1495Y140D02*
X1520Y140D01*
X1595Y140D02*
X1620Y140D01*
X1695Y140D02*
X1720Y140D01*
X1796Y140D02*
X1820Y140D01*
X1896Y140D02*
X1920Y140D01*
X1996Y140D02*
X2020Y140D01*
X2096Y140D02*
X2120Y140D01*
X2196Y140D02*
X2221Y140D01*
X2296Y140D02*
X2321Y140D01*
X2396Y140D02*
X2421Y140D01*
X998Y139D02*
X1016Y139D01*
X1098Y139D02*
X1116Y139D01*
X1198Y139D02*
X1216Y139D01*
X1298Y139D02*
X1316Y139D01*
X1398Y139D02*
X1416Y139D01*
X1498Y139D02*
X1517Y139D01*
X1598Y139D02*
X1617Y139D01*
X1698Y139D02*
X1717Y139D01*
X1799Y139D02*
X1817Y139D01*
X1899Y139D02*
X1917Y139D01*
X1999Y139D02*
X2017Y139D01*
X2099Y139D02*
X2117Y139D01*
X2199Y139D02*
X2218Y139D01*
X2299Y139D02*
X2318Y139D01*
X2399Y139D02*
X2418Y139D01*
X1002Y138D02*
X1011Y138D01*
X1102Y138D02*
X1112Y138D01*
X1202Y138D02*
X1212Y138D01*
X1302Y138D02*
X1312Y138D01*
X1403Y138D02*
X1412Y138D01*
X1503Y138D02*
X1512Y138D01*
X1603Y138D02*
X1612Y138D01*
X1703Y138D02*
X1712Y138D01*
X1803Y138D02*
X1813Y138D01*
X1903Y138D02*
X1913Y138D01*
X2003Y138D02*
X2013Y138D01*
X2103Y138D02*
X2113Y138D01*
X2204Y138D02*
X2213Y138D01*
X2304Y138D02*
X2313Y138D01*
X2404Y138D02*
X2413Y138D01*
D02*
G04 End of Copper1*
M02*