; NON-PLATED HOLES START AT T1
; THROUGH (PLATED) HOLES START AT T100
M48
INCH
T100C0.035050
T101C0.025000
T102C0.015748
%
T100
X020088Y011745
X024094Y011745
X014079Y001731
X023092Y011745
X015081Y011745
X010073Y001731
X011075Y011745
X012076Y001731
X019086Y001731
X017084Y001731
X013078Y001731
X021089Y001731
X017084Y011745
X011075Y001731
X022091Y001731
X022091Y011745
X019086Y011745
X016082Y011745
X010073Y011745
X015081Y001731
X018085Y011745
X016082Y001731
X012076Y011745
X023092Y001731
X013078Y011745
X014079Y011745
X018085Y001731
X021089Y011745
X024094Y001731
X020088Y001731
T101
X002518Y007745
X004880Y007745
X003306Y007745
X004092Y007745
T102
X007080Y002825
T00
M30
