G04 MADE WITH FRITZING*
G04 WWW.FRITZING.ORG*
G04 DOUBLE SIDED*
G04 HOLES PLATED*
G04 CONTOUR ON CENTER OF CONTOUR VECTOR*
%ASAXBY*%
%FSLAX23Y23*%
%MOIN*%
%OFA0B0*%
%SFA1.0B1.0*%
%ADD10C,0.075000*%
%ADD11C,0.049370*%
%ADD12R,0.001000X0.001000*%
%LNMASK1*%
G90*
G70*
G54D10*
X488Y775D03*
X409Y775D03*
X331Y775D03*
X252Y775D03*
X488Y775D03*
X409Y775D03*
X331Y775D03*
X252Y775D03*
G54D11*
X708Y283D03*
G54D12*
X1001Y1217D02*
X1013Y1217D01*
X1101Y1217D02*
X1113Y1217D01*
X1201Y1217D02*
X1213Y1217D01*
X1301Y1217D02*
X1313Y1217D01*
X1401Y1217D02*
X1413Y1217D01*
X1501Y1217D02*
X1513Y1217D01*
X1602Y1217D02*
X1614Y1217D01*
X1702Y1217D02*
X1714Y1217D01*
X1802Y1217D02*
X1814Y1217D01*
X1902Y1217D02*
X1914Y1217D01*
X2002Y1217D02*
X2014Y1217D01*
X2102Y1217D02*
X2114Y1217D01*
X2202Y1217D02*
X2214Y1217D01*
X2302Y1217D02*
X2314Y1217D01*
X2403Y1217D02*
X2415Y1217D01*
X996Y1216D02*
X1017Y1216D01*
X1096Y1216D02*
X1118Y1216D01*
X1196Y1216D02*
X1218Y1216D01*
X1296Y1216D02*
X1318Y1216D01*
X1397Y1216D02*
X1418Y1216D01*
X1497Y1216D02*
X1518Y1216D01*
X1597Y1216D02*
X1618Y1216D01*
X1697Y1216D02*
X1718Y1216D01*
X1797Y1216D02*
X1819Y1216D01*
X1897Y1216D02*
X1919Y1216D01*
X1997Y1216D02*
X2019Y1216D01*
X2097Y1216D02*
X2119Y1216D01*
X2198Y1216D02*
X2219Y1216D01*
X2298Y1216D02*
X2319Y1216D01*
X2398Y1216D02*
X2419Y1216D01*
X993Y1215D02*
X1021Y1215D01*
X1093Y1215D02*
X1121Y1215D01*
X1193Y1215D02*
X1221Y1215D01*
X1293Y1215D02*
X1321Y1215D01*
X1393Y1215D02*
X1421Y1215D01*
X1493Y1215D02*
X1521Y1215D01*
X1594Y1215D02*
X1621Y1215D01*
X1694Y1215D02*
X1722Y1215D01*
X1794Y1215D02*
X1822Y1215D01*
X1894Y1215D02*
X1922Y1215D01*
X1994Y1215D02*
X2022Y1215D01*
X2094Y1215D02*
X2122Y1215D01*
X2194Y1215D02*
X2222Y1215D01*
X2295Y1215D02*
X2322Y1215D01*
X2395Y1215D02*
X2423Y1215D01*
X990Y1214D02*
X1023Y1214D01*
X1090Y1214D02*
X1123Y1214D01*
X1191Y1214D02*
X1224Y1214D01*
X1291Y1214D02*
X1324Y1214D01*
X1391Y1214D02*
X1424Y1214D01*
X1491Y1214D02*
X1524Y1214D01*
X1591Y1214D02*
X1624Y1214D01*
X1691Y1214D02*
X1724Y1214D01*
X1791Y1214D02*
X1824Y1214D01*
X1891Y1214D02*
X1924Y1214D01*
X1992Y1214D02*
X2025Y1214D01*
X2092Y1214D02*
X2125Y1214D01*
X2192Y1214D02*
X2225Y1214D01*
X2292Y1214D02*
X2325Y1214D01*
X2392Y1214D02*
X2425Y1214D01*
X988Y1213D02*
X1025Y1213D01*
X1088Y1213D02*
X1125Y1213D01*
X1188Y1213D02*
X1226Y1213D01*
X1289Y1213D02*
X1326Y1213D01*
X1389Y1213D02*
X1426Y1213D01*
X1489Y1213D02*
X1526Y1213D01*
X1589Y1213D02*
X1626Y1213D01*
X1689Y1213D02*
X1726Y1213D01*
X1789Y1213D02*
X1826Y1213D01*
X1889Y1213D02*
X1926Y1213D01*
X1990Y1213D02*
X2027Y1213D01*
X2090Y1213D02*
X2127Y1213D01*
X2190Y1213D02*
X2227Y1213D01*
X2290Y1213D02*
X2327Y1213D01*
X2390Y1213D02*
X2427Y1213D01*
X986Y1212D02*
X1027Y1212D01*
X1087Y1212D02*
X1127Y1212D01*
X1187Y1212D02*
X1227Y1212D01*
X1287Y1212D02*
X1327Y1212D01*
X1387Y1212D02*
X1428Y1212D01*
X1487Y1212D02*
X1528Y1212D01*
X1587Y1212D02*
X1628Y1212D01*
X1687Y1212D02*
X1728Y1212D01*
X1787Y1212D02*
X1828Y1212D01*
X1888Y1212D02*
X1928Y1212D01*
X1988Y1212D02*
X2028Y1212D01*
X2088Y1212D02*
X2129Y1212D01*
X2188Y1212D02*
X2229Y1212D01*
X2288Y1212D02*
X2329Y1212D01*
X2388Y1212D02*
X2429Y1212D01*
X985Y1211D02*
X1029Y1211D01*
X1085Y1211D02*
X1129Y1211D01*
X1185Y1211D02*
X1229Y1211D01*
X1285Y1211D02*
X1329Y1211D01*
X1385Y1211D02*
X1429Y1211D01*
X1485Y1211D02*
X1529Y1211D01*
X1586Y1211D02*
X1630Y1211D01*
X1686Y1211D02*
X1730Y1211D01*
X1786Y1211D02*
X1830Y1211D01*
X1886Y1211D02*
X1930Y1211D01*
X1986Y1211D02*
X2030Y1211D01*
X2086Y1211D02*
X2130Y1211D01*
X2186Y1211D02*
X2230Y1211D01*
X2286Y1211D02*
X2330Y1211D01*
X2387Y1211D02*
X2431Y1211D01*
X983Y1210D02*
X1030Y1210D01*
X1083Y1210D02*
X1130Y1210D01*
X1184Y1210D02*
X1231Y1210D01*
X1284Y1210D02*
X1331Y1210D01*
X1384Y1210D02*
X1431Y1210D01*
X1484Y1210D02*
X1531Y1210D01*
X1584Y1210D02*
X1631Y1210D01*
X1684Y1210D02*
X1731Y1210D01*
X1784Y1210D02*
X1831Y1210D01*
X1884Y1210D02*
X1931Y1210D01*
X1985Y1210D02*
X2032Y1210D01*
X2085Y1210D02*
X2132Y1210D01*
X2185Y1210D02*
X2232Y1210D01*
X2285Y1210D02*
X2332Y1210D01*
X2385Y1210D02*
X2432Y1210D01*
X982Y1209D02*
X1032Y1209D01*
X1082Y1209D02*
X1132Y1209D01*
X1182Y1209D02*
X1232Y1209D01*
X1282Y1209D02*
X1332Y1209D01*
X1382Y1209D02*
X1432Y1209D01*
X1483Y1209D02*
X1532Y1209D01*
X1583Y1209D02*
X1632Y1209D01*
X1683Y1209D02*
X1733Y1209D01*
X1783Y1209D02*
X1833Y1209D01*
X1883Y1209D02*
X1933Y1209D01*
X1983Y1209D02*
X2033Y1209D01*
X2083Y1209D02*
X2133Y1209D01*
X2183Y1209D02*
X2233Y1209D01*
X2284Y1209D02*
X2333Y1209D01*
X2384Y1209D02*
X2433Y1209D01*
X981Y1208D02*
X1033Y1208D01*
X1081Y1208D02*
X1133Y1208D01*
X1181Y1208D02*
X1233Y1208D01*
X1281Y1208D02*
X1333Y1208D01*
X1381Y1208D02*
X1433Y1208D01*
X1481Y1208D02*
X1534Y1208D01*
X1581Y1208D02*
X1634Y1208D01*
X1682Y1208D02*
X1734Y1208D01*
X1782Y1208D02*
X1834Y1208D01*
X1882Y1208D02*
X1934Y1208D01*
X1982Y1208D02*
X2034Y1208D01*
X2082Y1208D02*
X2134Y1208D01*
X2182Y1208D02*
X2235Y1208D01*
X2282Y1208D02*
X2335Y1208D01*
X2382Y1208D02*
X2435Y1208D01*
X979Y1207D02*
X1034Y1207D01*
X1080Y1207D02*
X1134Y1207D01*
X1180Y1207D02*
X1234Y1207D01*
X1280Y1207D02*
X1334Y1207D01*
X1380Y1207D02*
X1435Y1207D01*
X1480Y1207D02*
X1535Y1207D01*
X1580Y1207D02*
X1635Y1207D01*
X1680Y1207D02*
X1735Y1207D01*
X1780Y1207D02*
X1835Y1207D01*
X1881Y1207D02*
X1935Y1207D01*
X1981Y1207D02*
X2035Y1207D01*
X2081Y1207D02*
X2136Y1207D01*
X2181Y1207D02*
X2236Y1207D01*
X2281Y1207D02*
X2336Y1207D01*
X2381Y1207D02*
X2436Y1207D01*
X978Y1206D02*
X1035Y1206D01*
X1078Y1206D02*
X1135Y1206D01*
X1179Y1206D02*
X1235Y1206D01*
X1279Y1206D02*
X1336Y1206D01*
X1379Y1206D02*
X1436Y1206D01*
X1479Y1206D02*
X1536Y1206D01*
X1579Y1206D02*
X1636Y1206D01*
X1679Y1206D02*
X1736Y1206D01*
X1779Y1206D02*
X1836Y1206D01*
X1879Y1206D02*
X1936Y1206D01*
X1980Y1206D02*
X2037Y1206D01*
X2080Y1206D02*
X2137Y1206D01*
X2180Y1206D02*
X2237Y1206D01*
X2280Y1206D02*
X2337Y1206D01*
X2380Y1206D02*
X2437Y1206D01*
X977Y1205D02*
X1036Y1205D01*
X1077Y1205D02*
X1136Y1205D01*
X1178Y1205D02*
X1237Y1205D01*
X1278Y1205D02*
X1337Y1205D01*
X1378Y1205D02*
X1437Y1205D01*
X1478Y1205D02*
X1537Y1205D01*
X1578Y1205D02*
X1637Y1205D01*
X1678Y1205D02*
X1737Y1205D01*
X1778Y1205D02*
X1837Y1205D01*
X1878Y1205D02*
X1937Y1205D01*
X1979Y1205D02*
X2038Y1205D01*
X2079Y1205D02*
X2138Y1205D01*
X2179Y1205D02*
X2238Y1205D01*
X2279Y1205D02*
X2338Y1205D01*
X2379Y1205D02*
X2438Y1205D01*
X976Y1204D02*
X1037Y1204D01*
X1076Y1204D02*
X1137Y1204D01*
X1177Y1204D02*
X1237Y1204D01*
X1277Y1204D02*
X1338Y1204D01*
X1377Y1204D02*
X1438Y1204D01*
X1477Y1204D02*
X1538Y1204D01*
X1577Y1204D02*
X1638Y1204D01*
X1677Y1204D02*
X1738Y1204D01*
X1777Y1204D02*
X1838Y1204D01*
X1878Y1204D02*
X1938Y1204D01*
X1978Y1204D02*
X2038Y1204D01*
X2078Y1204D02*
X2139Y1204D01*
X2178Y1204D02*
X2239Y1204D01*
X2278Y1204D02*
X2339Y1204D01*
X2378Y1204D02*
X2439Y1204D01*
X975Y1203D02*
X1038Y1203D01*
X1076Y1203D02*
X1138Y1203D01*
X1176Y1203D02*
X1238Y1203D01*
X1276Y1203D02*
X1338Y1203D01*
X1376Y1203D02*
X1439Y1203D01*
X1476Y1203D02*
X1539Y1203D01*
X1576Y1203D02*
X1639Y1203D01*
X1676Y1203D02*
X1739Y1203D01*
X1777Y1203D02*
X1839Y1203D01*
X1877Y1203D02*
X1939Y1203D01*
X1977Y1203D02*
X2039Y1203D01*
X2077Y1203D02*
X2140Y1203D01*
X2177Y1203D02*
X2240Y1203D01*
X2277Y1203D02*
X2340Y1203D01*
X2377Y1203D02*
X2440Y1203D01*
X975Y1202D02*
X1039Y1202D01*
X1075Y1202D02*
X1139Y1202D01*
X1175Y1202D02*
X1239Y1202D01*
X1275Y1202D02*
X1339Y1202D01*
X1375Y1202D02*
X1439Y1202D01*
X1475Y1202D02*
X1540Y1202D01*
X1575Y1202D02*
X1640Y1202D01*
X1676Y1202D02*
X1740Y1202D01*
X1776Y1202D02*
X1840Y1202D01*
X1876Y1202D02*
X1940Y1202D01*
X1976Y1202D02*
X2040Y1202D01*
X2076Y1202D02*
X2140Y1202D01*
X2176Y1202D02*
X2240Y1202D01*
X2276Y1202D02*
X2341Y1202D01*
X2376Y1202D02*
X2441Y1202D01*
X974Y1201D02*
X1040Y1201D01*
X1074Y1201D02*
X1140Y1201D01*
X1174Y1201D02*
X1240Y1201D01*
X1274Y1201D02*
X1340Y1201D01*
X1374Y1201D02*
X1440Y1201D01*
X1475Y1201D02*
X1540Y1201D01*
X1575Y1201D02*
X1640Y1201D01*
X1675Y1201D02*
X1741Y1201D01*
X1775Y1201D02*
X1841Y1201D01*
X1875Y1201D02*
X1941Y1201D01*
X1975Y1201D02*
X2041Y1201D01*
X2075Y1201D02*
X2141Y1201D01*
X2175Y1201D02*
X2241Y1201D01*
X2276Y1201D02*
X2341Y1201D01*
X2376Y1201D02*
X2441Y1201D01*
X973Y1200D02*
X1040Y1200D01*
X1073Y1200D02*
X1140Y1200D01*
X1173Y1200D02*
X1241Y1200D01*
X1274Y1200D02*
X1341Y1200D01*
X1374Y1200D02*
X1441Y1200D01*
X1474Y1200D02*
X1541Y1200D01*
X1574Y1200D02*
X1641Y1200D01*
X1674Y1200D02*
X1741Y1200D01*
X1774Y1200D02*
X1841Y1200D01*
X1874Y1200D02*
X1942Y1200D01*
X1974Y1200D02*
X2042Y1200D01*
X2075Y1200D02*
X2142Y1200D01*
X2175Y1200D02*
X2242Y1200D01*
X2275Y1200D02*
X2342Y1200D01*
X2375Y1200D02*
X2442Y1200D01*
X972Y1199D02*
X1041Y1199D01*
X1073Y1199D02*
X1141Y1199D01*
X1173Y1199D02*
X1241Y1199D01*
X1273Y1199D02*
X1341Y1199D01*
X1373Y1199D02*
X1442Y1199D01*
X1473Y1199D02*
X1542Y1199D01*
X1573Y1199D02*
X1642Y1199D01*
X1673Y1199D02*
X1742Y1199D01*
X1773Y1199D02*
X1842Y1199D01*
X1874Y1199D02*
X1942Y1199D01*
X1974Y1199D02*
X2042Y1199D01*
X2074Y1199D02*
X2143Y1199D01*
X2174Y1199D02*
X2243Y1199D01*
X2274Y1199D02*
X2343Y1199D01*
X2374Y1199D02*
X2443Y1199D01*
X972Y1198D02*
X1042Y1198D01*
X1072Y1198D02*
X1142Y1198D01*
X1172Y1198D02*
X1242Y1198D01*
X1272Y1198D02*
X1342Y1198D01*
X1372Y1198D02*
X1442Y1198D01*
X1472Y1198D02*
X1542Y1198D01*
X1573Y1198D02*
X1642Y1198D01*
X1673Y1198D02*
X1743Y1198D01*
X1773Y1198D02*
X1843Y1198D01*
X1873Y1198D02*
X1943Y1198D01*
X1973Y1198D02*
X2043Y1198D01*
X2073Y1198D02*
X2143Y1198D01*
X2173Y1198D02*
X2243Y1198D01*
X2274Y1198D02*
X2343Y1198D01*
X2374Y1198D02*
X2444Y1198D01*
X971Y1197D02*
X1042Y1197D01*
X1071Y1197D02*
X1142Y1197D01*
X1171Y1197D02*
X1243Y1197D01*
X1272Y1197D02*
X1343Y1197D01*
X1372Y1197D02*
X1443Y1197D01*
X1472Y1197D02*
X1543Y1197D01*
X1572Y1197D02*
X1643Y1197D01*
X1672Y1197D02*
X1743Y1197D01*
X1772Y1197D02*
X1843Y1197D01*
X1872Y1197D02*
X1944Y1197D01*
X1972Y1197D02*
X2044Y1197D01*
X2073Y1197D02*
X2144Y1197D01*
X2173Y1197D02*
X2244Y1197D01*
X2273Y1197D02*
X2344Y1197D01*
X2373Y1197D02*
X2444Y1197D01*
X971Y1196D02*
X1043Y1196D01*
X1071Y1196D02*
X1143Y1196D01*
X1171Y1196D02*
X1243Y1196D01*
X1271Y1196D02*
X1343Y1196D01*
X1371Y1196D02*
X1443Y1196D01*
X1471Y1196D02*
X1544Y1196D01*
X1571Y1196D02*
X1644Y1196D01*
X1671Y1196D02*
X1744Y1196D01*
X1772Y1196D02*
X1844Y1196D01*
X1872Y1196D02*
X1944Y1196D01*
X1972Y1196D02*
X2044Y1196D01*
X2072Y1196D02*
X2144Y1196D01*
X2172Y1196D02*
X2245Y1196D01*
X2272Y1196D02*
X2345Y1196D01*
X2372Y1196D02*
X2445Y1196D01*
X970Y1195D02*
X1043Y1195D01*
X1070Y1195D02*
X1144Y1195D01*
X1170Y1195D02*
X1244Y1195D01*
X1270Y1195D02*
X1344Y1195D01*
X1371Y1195D02*
X1444Y1195D01*
X1471Y1195D02*
X1544Y1195D01*
X1571Y1195D02*
X1644Y1195D01*
X1671Y1195D02*
X1744Y1195D01*
X1771Y1195D02*
X1845Y1195D01*
X1871Y1195D02*
X1945Y1195D01*
X1971Y1195D02*
X2045Y1195D01*
X2071Y1195D02*
X2145Y1195D01*
X2172Y1195D02*
X2245Y1195D01*
X2272Y1195D02*
X2345Y1195D01*
X2372Y1195D02*
X2445Y1195D01*
X970Y1194D02*
X1044Y1194D01*
X1070Y1194D02*
X1144Y1194D01*
X1170Y1194D02*
X1244Y1194D01*
X1270Y1194D02*
X1344Y1194D01*
X1370Y1194D02*
X1445Y1194D01*
X1470Y1194D02*
X1545Y1194D01*
X1570Y1194D02*
X1645Y1194D01*
X1670Y1194D02*
X1745Y1194D01*
X1771Y1194D02*
X1845Y1194D01*
X1871Y1194D02*
X1945Y1194D01*
X1971Y1194D02*
X2045Y1194D01*
X2071Y1194D02*
X2145Y1194D01*
X2171Y1194D02*
X2246Y1194D01*
X2271Y1194D02*
X2346Y1194D01*
X2371Y1194D02*
X2446Y1194D01*
X969Y1193D02*
X1044Y1193D01*
X1069Y1193D02*
X1145Y1193D01*
X1169Y1193D02*
X1245Y1193D01*
X1269Y1193D02*
X1345Y1193D01*
X1370Y1193D02*
X1445Y1193D01*
X1470Y1193D02*
X1545Y1193D01*
X1570Y1193D02*
X1645Y1193D01*
X1670Y1193D02*
X1745Y1193D01*
X1770Y1193D02*
X1846Y1193D01*
X1870Y1193D02*
X1946Y1193D01*
X1970Y1193D02*
X2046Y1193D01*
X2070Y1193D02*
X2146Y1193D01*
X2171Y1193D02*
X2246Y1193D01*
X2271Y1193D02*
X2346Y1193D01*
X2371Y1193D02*
X2446Y1193D01*
X969Y1192D02*
X1045Y1192D01*
X1069Y1192D02*
X1145Y1192D01*
X1169Y1192D02*
X1245Y1192D01*
X1269Y1192D02*
X1345Y1192D01*
X1369Y1192D02*
X1445Y1192D01*
X1469Y1192D02*
X1546Y1192D01*
X1569Y1192D02*
X1646Y1192D01*
X1669Y1192D02*
X1746Y1192D01*
X1770Y1192D02*
X1846Y1192D01*
X1870Y1192D02*
X1946Y1192D01*
X1970Y1192D02*
X2046Y1192D01*
X2070Y1192D02*
X2146Y1192D01*
X2170Y1192D02*
X2247Y1192D01*
X2270Y1192D02*
X2347Y1192D01*
X2370Y1192D02*
X2447Y1192D01*
X968Y1191D02*
X1045Y1191D01*
X1068Y1191D02*
X1145Y1191D01*
X1168Y1191D02*
X1246Y1191D01*
X1269Y1191D02*
X1346Y1191D01*
X1369Y1191D02*
X1446Y1191D01*
X1469Y1191D02*
X1546Y1191D01*
X1569Y1191D02*
X1646Y1191D01*
X1669Y1191D02*
X1746Y1191D01*
X1769Y1191D02*
X1846Y1191D01*
X1869Y1191D02*
X1947Y1191D01*
X1969Y1191D02*
X2047Y1191D01*
X2070Y1191D02*
X2147Y1191D01*
X2170Y1191D02*
X2247Y1191D01*
X2270Y1191D02*
X2347Y1191D01*
X2370Y1191D02*
X2447Y1191D01*
X968Y1190D02*
X1046Y1190D01*
X1068Y1190D02*
X1146Y1190D01*
X1168Y1190D02*
X1246Y1190D01*
X1268Y1190D02*
X1346Y1190D01*
X1368Y1190D02*
X1446Y1190D01*
X1468Y1190D02*
X1546Y1190D01*
X1569Y1190D02*
X1646Y1190D01*
X1669Y1190D02*
X1747Y1190D01*
X1769Y1190D02*
X1847Y1190D01*
X1869Y1190D02*
X1947Y1190D01*
X1969Y1190D02*
X2047Y1190D01*
X2069Y1190D02*
X2147Y1190D01*
X2169Y1190D02*
X2247Y1190D01*
X2270Y1190D02*
X2347Y1190D01*
X2370Y1190D02*
X2448Y1190D01*
X967Y1189D02*
X1046Y1189D01*
X1068Y1189D02*
X1146Y1189D01*
X1168Y1189D02*
X1246Y1189D01*
X1268Y1189D02*
X1346Y1189D01*
X1368Y1189D02*
X1447Y1189D01*
X1468Y1189D02*
X1547Y1189D01*
X1568Y1189D02*
X1647Y1189D01*
X1668Y1189D02*
X1747Y1189D01*
X1769Y1189D02*
X1847Y1189D01*
X1869Y1189D02*
X1947Y1189D01*
X1969Y1189D02*
X2047Y1189D01*
X2069Y1189D02*
X2147Y1189D01*
X2169Y1189D02*
X2248Y1189D01*
X2269Y1189D02*
X2348Y1189D01*
X2369Y1189D02*
X2448Y1189D01*
X967Y1188D02*
X1046Y1188D01*
X1067Y1188D02*
X1147Y1188D01*
X1167Y1188D02*
X1247Y1188D01*
X1268Y1188D02*
X1347Y1188D01*
X1368Y1188D02*
X1447Y1188D01*
X1468Y1188D02*
X1547Y1188D01*
X1568Y1188D02*
X1647Y1188D01*
X1668Y1188D02*
X1747Y1188D01*
X1768Y1188D02*
X1847Y1188D01*
X1868Y1188D02*
X1948Y1188D01*
X1968Y1188D02*
X2048Y1188D01*
X2069Y1188D02*
X2148Y1188D01*
X2169Y1188D02*
X2248Y1188D01*
X2269Y1188D02*
X2348Y1188D01*
X2369Y1188D02*
X2448Y1188D01*
X967Y1187D02*
X1047Y1187D01*
X1067Y1187D02*
X1147Y1187D01*
X1167Y1187D02*
X1247Y1187D01*
X1267Y1187D02*
X1347Y1187D01*
X1367Y1187D02*
X1447Y1187D01*
X1468Y1187D02*
X1547Y1187D01*
X1568Y1187D02*
X1647Y1187D01*
X1668Y1187D02*
X1748Y1187D01*
X1768Y1187D02*
X1848Y1187D01*
X1868Y1187D02*
X1948Y1187D01*
X1968Y1187D02*
X2048Y1187D01*
X2068Y1187D02*
X2148Y1187D01*
X2168Y1187D02*
X2248Y1187D01*
X2269Y1187D02*
X2348Y1187D01*
X2369Y1187D02*
X2448Y1187D01*
X967Y1186D02*
X1047Y1186D01*
X1067Y1186D02*
X1147Y1186D01*
X1167Y1186D02*
X1247Y1186D01*
X1267Y1186D02*
X1347Y1186D01*
X1367Y1186D02*
X1447Y1186D01*
X1467Y1186D02*
X1548Y1186D01*
X1567Y1186D02*
X1648Y1186D01*
X1668Y1186D02*
X1748Y1186D01*
X1768Y1186D02*
X1848Y1186D01*
X1868Y1186D02*
X1948Y1186D01*
X1968Y1186D02*
X2048Y1186D01*
X2068Y1186D02*
X2148Y1186D01*
X2168Y1186D02*
X2248Y1186D01*
X2268Y1186D02*
X2349Y1186D01*
X2368Y1186D02*
X2449Y1186D01*
X966Y1185D02*
X1047Y1185D01*
X1067Y1185D02*
X1147Y1185D01*
X1167Y1185D02*
X1247Y1185D01*
X1267Y1185D02*
X1348Y1185D01*
X1367Y1185D02*
X1448Y1185D01*
X1467Y1185D02*
X1548Y1185D01*
X1567Y1185D02*
X1648Y1185D01*
X1667Y1185D02*
X1748Y1185D01*
X1767Y1185D02*
X1848Y1185D01*
X1868Y1185D02*
X1948Y1185D01*
X1968Y1185D02*
X2048Y1185D01*
X2068Y1185D02*
X2149Y1185D01*
X2168Y1185D02*
X2249Y1185D01*
X2268Y1185D02*
X2349Y1185D01*
X2368Y1185D02*
X2449Y1185D01*
X966Y1184D02*
X1047Y1184D01*
X1066Y1184D02*
X1147Y1184D01*
X1166Y1184D02*
X1248Y1184D01*
X1267Y1184D02*
X1348Y1184D01*
X1367Y1184D02*
X1448Y1184D01*
X1467Y1184D02*
X1548Y1184D01*
X1567Y1184D02*
X1648Y1184D01*
X1667Y1184D02*
X1748Y1184D01*
X1767Y1184D02*
X1848Y1184D01*
X1867Y1184D02*
X1949Y1184D01*
X1967Y1184D02*
X2049Y1184D01*
X2068Y1184D02*
X2149Y1184D01*
X2168Y1184D02*
X2249Y1184D01*
X2268Y1184D02*
X2349Y1184D01*
X2368Y1184D02*
X2449Y1184D01*
X966Y1183D02*
X1048Y1183D01*
X1066Y1183D02*
X1148Y1183D01*
X1166Y1183D02*
X1248Y1183D01*
X1266Y1183D02*
X1348Y1183D01*
X1366Y1183D02*
X1448Y1183D01*
X1467Y1183D02*
X1548Y1183D01*
X1567Y1183D02*
X1648Y1183D01*
X1667Y1183D02*
X1748Y1183D01*
X1767Y1183D02*
X1849Y1183D01*
X1867Y1183D02*
X1949Y1183D01*
X1967Y1183D02*
X2049Y1183D01*
X2067Y1183D02*
X2149Y1183D01*
X2168Y1183D02*
X2249Y1183D01*
X2268Y1183D02*
X2349Y1183D01*
X2368Y1183D02*
X2449Y1183D01*
X966Y1182D02*
X1048Y1182D01*
X1066Y1182D02*
X1148Y1182D01*
X1166Y1182D02*
X1248Y1182D01*
X1266Y1182D02*
X1348Y1182D01*
X1366Y1182D02*
X1448Y1182D01*
X1466Y1182D02*
X1548Y1182D01*
X1567Y1182D02*
X1648Y1182D01*
X1667Y1182D02*
X1749Y1182D01*
X1767Y1182D02*
X1849Y1182D01*
X1867Y1182D02*
X1949Y1182D01*
X1967Y1182D02*
X2049Y1182D01*
X2067Y1182D02*
X2149Y1182D01*
X2167Y1182D02*
X2249Y1182D01*
X2268Y1182D02*
X2349Y1182D01*
X2368Y1182D02*
X2450Y1182D01*
X966Y1181D02*
X1048Y1181D01*
X1066Y1181D02*
X1148Y1181D01*
X1166Y1181D02*
X1248Y1181D01*
X1266Y1181D02*
X1348Y1181D01*
X1366Y1181D02*
X1448Y1181D01*
X1466Y1181D02*
X1549Y1181D01*
X1566Y1181D02*
X1649Y1181D01*
X1667Y1181D02*
X1749Y1181D01*
X1767Y1181D02*
X1849Y1181D01*
X1867Y1181D02*
X1949Y1181D01*
X1967Y1181D02*
X2049Y1181D01*
X2067Y1181D02*
X2149Y1181D01*
X2167Y1181D02*
X2249Y1181D01*
X2267Y1181D02*
X2350Y1181D01*
X2367Y1181D02*
X2450Y1181D01*
X965Y1180D02*
X1048Y1180D01*
X1066Y1180D02*
X1148Y1180D01*
X1166Y1180D02*
X1248Y1180D01*
X1266Y1180D02*
X1348Y1180D01*
X1366Y1180D02*
X1449Y1180D01*
X1466Y1180D02*
X1549Y1180D01*
X1566Y1180D02*
X1649Y1180D01*
X1666Y1180D02*
X1749Y1180D01*
X1767Y1180D02*
X1849Y1180D01*
X1867Y1180D02*
X1949Y1180D01*
X1967Y1180D02*
X2049Y1180D01*
X2067Y1180D02*
X2149Y1180D01*
X2167Y1180D02*
X2250Y1180D01*
X2267Y1180D02*
X2350Y1180D01*
X2367Y1180D02*
X2450Y1180D01*
X965Y1179D02*
X1048Y1179D01*
X1066Y1179D02*
X1148Y1179D01*
X1166Y1179D02*
X1248Y1179D01*
X1266Y1179D02*
X1348Y1179D01*
X1366Y1179D02*
X1449Y1179D01*
X1466Y1179D02*
X1549Y1179D01*
X1566Y1179D02*
X1649Y1179D01*
X1666Y1179D02*
X1749Y1179D01*
X1766Y1179D02*
X1849Y1179D01*
X1867Y1179D02*
X1949Y1179D01*
X1967Y1179D02*
X2049Y1179D01*
X2067Y1179D02*
X2150Y1179D01*
X2167Y1179D02*
X2250Y1179D01*
X2267Y1179D02*
X2350Y1179D01*
X2367Y1179D02*
X2450Y1179D01*
X965Y1178D02*
X1048Y1178D01*
X1065Y1178D02*
X1148Y1178D01*
X1166Y1178D02*
X1248Y1178D01*
X1266Y1178D02*
X1349Y1178D01*
X1366Y1178D02*
X1449Y1178D01*
X1466Y1178D02*
X1549Y1178D01*
X1566Y1178D02*
X1649Y1178D01*
X1666Y1178D02*
X1749Y1178D01*
X1766Y1178D02*
X1849Y1178D01*
X1867Y1178D02*
X1949Y1178D01*
X1967Y1178D02*
X2049Y1178D01*
X2067Y1178D02*
X2150Y1178D01*
X2167Y1178D02*
X2250Y1178D01*
X2267Y1178D02*
X2350Y1178D01*
X2367Y1178D02*
X2450Y1178D01*
X965Y1177D02*
X1048Y1177D01*
X1065Y1177D02*
X1148Y1177D01*
X1166Y1177D02*
X1248Y1177D01*
X1266Y1177D02*
X1349Y1177D01*
X1366Y1177D02*
X1449Y1177D01*
X1466Y1177D02*
X1549Y1177D01*
X1566Y1177D02*
X1649Y1177D01*
X1666Y1177D02*
X1749Y1177D01*
X1766Y1177D02*
X1849Y1177D01*
X1866Y1177D02*
X1949Y1177D01*
X1967Y1177D02*
X2050Y1177D01*
X2067Y1177D02*
X2150Y1177D01*
X2167Y1177D02*
X2250Y1177D01*
X2267Y1177D02*
X2350Y1177D01*
X2367Y1177D02*
X2450Y1177D01*
X965Y1176D02*
X1048Y1176D01*
X1065Y1176D02*
X1148Y1176D01*
X1166Y1176D02*
X1249Y1176D01*
X1266Y1176D02*
X1349Y1176D01*
X1366Y1176D02*
X1449Y1176D01*
X1466Y1176D02*
X1549Y1176D01*
X1566Y1176D02*
X1649Y1176D01*
X1666Y1176D02*
X1749Y1176D01*
X1766Y1176D02*
X1849Y1176D01*
X1866Y1176D02*
X1949Y1176D01*
X1967Y1176D02*
X2050Y1176D01*
X2067Y1176D02*
X2150Y1176D01*
X2167Y1176D02*
X2250Y1176D01*
X2267Y1176D02*
X2350Y1176D01*
X2367Y1176D02*
X2450Y1176D01*
X965Y1175D02*
X1048Y1175D01*
X1065Y1175D02*
X1148Y1175D01*
X1166Y1175D02*
X1249Y1175D01*
X1266Y1175D02*
X1349Y1175D01*
X1366Y1175D02*
X1449Y1175D01*
X1466Y1175D02*
X1549Y1175D01*
X1566Y1175D02*
X1649Y1175D01*
X1666Y1175D02*
X1749Y1175D01*
X1766Y1175D02*
X1849Y1175D01*
X1866Y1175D02*
X1949Y1175D01*
X1967Y1175D02*
X2050Y1175D01*
X2067Y1175D02*
X2150Y1175D01*
X2167Y1175D02*
X2250Y1175D01*
X2267Y1175D02*
X2350Y1175D01*
X2367Y1175D02*
X2450Y1175D01*
X965Y1174D02*
X1048Y1174D01*
X1065Y1174D02*
X1148Y1174D01*
X1166Y1174D02*
X1248Y1174D01*
X1266Y1174D02*
X1349Y1174D01*
X1366Y1174D02*
X1449Y1174D01*
X1466Y1174D02*
X1549Y1174D01*
X1566Y1174D02*
X1649Y1174D01*
X1666Y1174D02*
X1749Y1174D01*
X1766Y1174D02*
X1849Y1174D01*
X1866Y1174D02*
X1949Y1174D01*
X1967Y1174D02*
X2050Y1174D01*
X2067Y1174D02*
X2150Y1174D01*
X2167Y1174D02*
X2250Y1174D01*
X2267Y1174D02*
X2350Y1174D01*
X2367Y1174D02*
X2450Y1174D01*
X965Y1173D02*
X1048Y1173D01*
X1065Y1173D02*
X1148Y1173D01*
X1166Y1173D02*
X1248Y1173D01*
X1266Y1173D02*
X1349Y1173D01*
X1366Y1173D02*
X1449Y1173D01*
X1466Y1173D02*
X1549Y1173D01*
X1566Y1173D02*
X1649Y1173D01*
X1666Y1173D02*
X1749Y1173D01*
X1766Y1173D02*
X1849Y1173D01*
X1867Y1173D02*
X1949Y1173D01*
X1967Y1173D02*
X2049Y1173D01*
X2067Y1173D02*
X2150Y1173D01*
X2167Y1173D02*
X2250Y1173D01*
X2267Y1173D02*
X2350Y1173D01*
X2367Y1173D02*
X2450Y1173D01*
X965Y1172D02*
X1048Y1172D01*
X1066Y1172D02*
X1148Y1172D01*
X1166Y1172D02*
X1248Y1172D01*
X1266Y1172D02*
X1348Y1172D01*
X1366Y1172D02*
X1449Y1172D01*
X1466Y1172D02*
X1549Y1172D01*
X1566Y1172D02*
X1649Y1172D01*
X1666Y1172D02*
X1749Y1172D01*
X1766Y1172D02*
X1849Y1172D01*
X1867Y1172D02*
X1949Y1172D01*
X1967Y1172D02*
X2049Y1172D01*
X2067Y1172D02*
X2150Y1172D01*
X2167Y1172D02*
X2250Y1172D01*
X2267Y1172D02*
X2350Y1172D01*
X2367Y1172D02*
X2450Y1172D01*
X966Y1171D02*
X1048Y1171D01*
X1066Y1171D02*
X1148Y1171D01*
X1166Y1171D02*
X1248Y1171D01*
X1266Y1171D02*
X1348Y1171D01*
X1366Y1171D02*
X1449Y1171D01*
X1466Y1171D02*
X1549Y1171D01*
X1566Y1171D02*
X1649Y1171D01*
X1666Y1171D02*
X1749Y1171D01*
X1767Y1171D02*
X1849Y1171D01*
X1867Y1171D02*
X1949Y1171D01*
X1967Y1171D02*
X2049Y1171D01*
X2067Y1171D02*
X2149Y1171D01*
X2167Y1171D02*
X2250Y1171D01*
X2267Y1171D02*
X2350Y1171D01*
X2367Y1171D02*
X2450Y1171D01*
X966Y1170D02*
X1048Y1170D01*
X1066Y1170D02*
X1148Y1170D01*
X1166Y1170D02*
X1248Y1170D01*
X1266Y1170D02*
X1348Y1170D01*
X1366Y1170D02*
X1448Y1170D01*
X1466Y1170D02*
X1548Y1170D01*
X1566Y1170D02*
X1649Y1170D01*
X1667Y1170D02*
X1749Y1170D01*
X1767Y1170D02*
X1849Y1170D01*
X1867Y1170D02*
X1949Y1170D01*
X1967Y1170D02*
X2049Y1170D01*
X2067Y1170D02*
X2149Y1170D01*
X2167Y1170D02*
X2249Y1170D01*
X2267Y1170D02*
X2350Y1170D01*
X2368Y1170D02*
X2450Y1170D01*
X966Y1169D02*
X1048Y1169D01*
X1066Y1169D02*
X1148Y1169D01*
X1166Y1169D02*
X1248Y1169D01*
X1266Y1169D02*
X1348Y1169D01*
X1366Y1169D02*
X1448Y1169D01*
X1466Y1169D02*
X1548Y1169D01*
X1567Y1169D02*
X1648Y1169D01*
X1667Y1169D02*
X1749Y1169D01*
X1767Y1169D02*
X1849Y1169D01*
X1867Y1169D02*
X1949Y1169D01*
X1967Y1169D02*
X2049Y1169D01*
X2067Y1169D02*
X2149Y1169D01*
X2167Y1169D02*
X2249Y1169D01*
X2268Y1169D02*
X2349Y1169D01*
X2368Y1169D02*
X2450Y1169D01*
X966Y1168D02*
X1048Y1168D01*
X1066Y1168D02*
X1148Y1168D01*
X1166Y1168D02*
X1248Y1168D01*
X1266Y1168D02*
X1348Y1168D01*
X1367Y1168D02*
X1448Y1168D01*
X1467Y1168D02*
X1548Y1168D01*
X1567Y1168D02*
X1648Y1168D01*
X1667Y1168D02*
X1748Y1168D01*
X1767Y1168D02*
X1849Y1168D01*
X1867Y1168D02*
X1949Y1168D01*
X1967Y1168D02*
X2049Y1168D01*
X2067Y1168D02*
X2149Y1168D01*
X2168Y1168D02*
X2249Y1168D01*
X2268Y1168D02*
X2349Y1168D01*
X2368Y1168D02*
X2449Y1168D01*
X966Y1167D02*
X1047Y1167D01*
X1066Y1167D02*
X1147Y1167D01*
X1166Y1167D02*
X1248Y1167D01*
X1267Y1167D02*
X1348Y1167D01*
X1367Y1167D02*
X1448Y1167D01*
X1467Y1167D02*
X1548Y1167D01*
X1567Y1167D02*
X1648Y1167D01*
X1667Y1167D02*
X1748Y1167D01*
X1767Y1167D02*
X1848Y1167D01*
X1867Y1167D02*
X1949Y1167D01*
X1967Y1167D02*
X2049Y1167D01*
X2068Y1167D02*
X2149Y1167D01*
X2168Y1167D02*
X2249Y1167D01*
X2268Y1167D02*
X2349Y1167D01*
X2368Y1167D02*
X2449Y1167D01*
X966Y1166D02*
X1047Y1166D01*
X1067Y1166D02*
X1147Y1166D01*
X1167Y1166D02*
X1247Y1166D01*
X1267Y1166D02*
X1347Y1166D01*
X1367Y1166D02*
X1448Y1166D01*
X1467Y1166D02*
X1548Y1166D01*
X1567Y1166D02*
X1648Y1166D01*
X1667Y1166D02*
X1748Y1166D01*
X1767Y1166D02*
X1848Y1166D01*
X1868Y1166D02*
X1948Y1166D01*
X1968Y1166D02*
X2048Y1166D01*
X2068Y1166D02*
X2149Y1166D01*
X2168Y1166D02*
X2249Y1166D01*
X2268Y1166D02*
X2349Y1166D01*
X2368Y1166D02*
X2449Y1166D01*
X967Y1165D02*
X1047Y1165D01*
X1067Y1165D02*
X1147Y1165D01*
X1167Y1165D02*
X1247Y1165D01*
X1267Y1165D02*
X1347Y1165D01*
X1367Y1165D02*
X1447Y1165D01*
X1467Y1165D02*
X1547Y1165D01*
X1567Y1165D02*
X1648Y1165D01*
X1668Y1165D02*
X1748Y1165D01*
X1768Y1165D02*
X1848Y1165D01*
X1868Y1165D02*
X1948Y1165D01*
X1968Y1165D02*
X2048Y1165D01*
X2068Y1165D02*
X2148Y1165D01*
X2168Y1165D02*
X2248Y1165D01*
X2268Y1165D02*
X2349Y1165D01*
X2369Y1165D02*
X2449Y1165D01*
X967Y1164D02*
X1047Y1164D01*
X1067Y1164D02*
X1147Y1164D01*
X1167Y1164D02*
X1247Y1164D01*
X1267Y1164D02*
X1347Y1164D01*
X1367Y1164D02*
X1447Y1164D01*
X1468Y1164D02*
X1547Y1164D01*
X1568Y1164D02*
X1647Y1164D01*
X1668Y1164D02*
X1748Y1164D01*
X1768Y1164D02*
X1848Y1164D01*
X1868Y1164D02*
X1948Y1164D01*
X1968Y1164D02*
X2048Y1164D01*
X2068Y1164D02*
X2148Y1164D01*
X2168Y1164D02*
X2248Y1164D01*
X2269Y1164D02*
X2348Y1164D01*
X2369Y1164D02*
X2448Y1164D01*
X967Y1163D02*
X1046Y1163D01*
X1067Y1163D02*
X1146Y1163D01*
X1167Y1163D02*
X1247Y1163D01*
X1268Y1163D02*
X1347Y1163D01*
X1368Y1163D02*
X1447Y1163D01*
X1468Y1163D02*
X1547Y1163D01*
X1568Y1163D02*
X1647Y1163D01*
X1668Y1163D02*
X1747Y1163D01*
X1768Y1163D02*
X1847Y1163D01*
X1868Y1163D02*
X1948Y1163D01*
X1968Y1163D02*
X2048Y1163D01*
X2069Y1163D02*
X2148Y1163D01*
X2169Y1163D02*
X2248Y1163D01*
X2269Y1163D02*
X2348Y1163D01*
X2369Y1163D02*
X2448Y1163D01*
X968Y1162D02*
X1046Y1162D01*
X1068Y1162D02*
X1146Y1162D01*
X1168Y1162D02*
X1246Y1162D01*
X1268Y1162D02*
X1346Y1162D01*
X1368Y1162D02*
X1447Y1162D01*
X1468Y1162D02*
X1547Y1162D01*
X1568Y1162D02*
X1647Y1162D01*
X1668Y1162D02*
X1747Y1162D01*
X1769Y1162D02*
X1847Y1162D01*
X1869Y1162D02*
X1947Y1162D01*
X1969Y1162D02*
X2047Y1162D01*
X2069Y1162D02*
X2147Y1162D01*
X2169Y1162D02*
X2248Y1162D01*
X2269Y1162D02*
X2348Y1162D01*
X2369Y1162D02*
X2448Y1162D01*
X968Y1161D02*
X1046Y1161D01*
X1068Y1161D02*
X1146Y1161D01*
X1168Y1161D02*
X1246Y1161D01*
X1268Y1161D02*
X1346Y1161D01*
X1368Y1161D02*
X1446Y1161D01*
X1469Y1161D02*
X1546Y1161D01*
X1569Y1161D02*
X1646Y1161D01*
X1669Y1161D02*
X1747Y1161D01*
X1769Y1161D02*
X1847Y1161D01*
X1869Y1161D02*
X1947Y1161D01*
X1969Y1161D02*
X2047Y1161D01*
X2069Y1161D02*
X2147Y1161D01*
X2169Y1161D02*
X2247Y1161D01*
X2270Y1161D02*
X2347Y1161D01*
X2370Y1161D02*
X2447Y1161D01*
X968Y1160D02*
X1045Y1160D01*
X1068Y1160D02*
X1145Y1160D01*
X1169Y1160D02*
X1246Y1160D01*
X1269Y1160D02*
X1346Y1160D01*
X1369Y1160D02*
X1446Y1160D01*
X1469Y1160D02*
X1546Y1160D01*
X1569Y1160D02*
X1646Y1160D01*
X1669Y1160D02*
X1746Y1160D01*
X1769Y1160D02*
X1846Y1160D01*
X1869Y1160D02*
X1946Y1160D01*
X1970Y1160D02*
X2047Y1160D01*
X2070Y1160D02*
X2147Y1160D01*
X2170Y1160D02*
X2247Y1160D01*
X2270Y1160D02*
X2347Y1160D01*
X2370Y1160D02*
X2447Y1160D01*
X969Y1159D02*
X1045Y1159D01*
X1069Y1159D02*
X1145Y1159D01*
X1169Y1159D02*
X1245Y1159D01*
X1269Y1159D02*
X1345Y1159D01*
X1369Y1159D02*
X1445Y1159D01*
X1469Y1159D02*
X1546Y1159D01*
X1569Y1159D02*
X1646Y1159D01*
X1670Y1159D02*
X1746Y1159D01*
X1770Y1159D02*
X1846Y1159D01*
X1870Y1159D02*
X1946Y1159D01*
X1970Y1159D02*
X2046Y1159D01*
X2070Y1159D02*
X2146Y1159D01*
X2170Y1159D02*
X2246Y1159D01*
X2270Y1159D02*
X2347Y1159D01*
X2370Y1159D02*
X2447Y1159D01*
X969Y1158D02*
X1044Y1158D01*
X1069Y1158D02*
X1145Y1158D01*
X1169Y1158D02*
X1245Y1158D01*
X1270Y1158D02*
X1345Y1158D01*
X1370Y1158D02*
X1445Y1158D01*
X1470Y1158D02*
X1545Y1158D01*
X1570Y1158D02*
X1645Y1158D01*
X1670Y1158D02*
X1745Y1158D01*
X1770Y1158D02*
X1845Y1158D01*
X1870Y1158D02*
X1946Y1158D01*
X1970Y1158D02*
X2046Y1158D01*
X2071Y1158D02*
X2146Y1158D01*
X2171Y1158D02*
X2246Y1158D01*
X2271Y1158D02*
X2346Y1158D01*
X2371Y1158D02*
X2446Y1158D01*
X970Y1157D02*
X1044Y1157D01*
X1070Y1157D02*
X1144Y1157D01*
X1170Y1157D02*
X1244Y1157D01*
X1270Y1157D02*
X1344Y1157D01*
X1370Y1157D02*
X1444Y1157D01*
X1470Y1157D02*
X1545Y1157D01*
X1570Y1157D02*
X1645Y1157D01*
X1671Y1157D02*
X1745Y1157D01*
X1771Y1157D02*
X1845Y1157D01*
X1871Y1157D02*
X1945Y1157D01*
X1971Y1157D02*
X2045Y1157D01*
X2071Y1157D02*
X2145Y1157D01*
X2171Y1157D02*
X2245Y1157D01*
X2271Y1157D02*
X2346Y1157D01*
X2371Y1157D02*
X2446Y1157D01*
X970Y1156D02*
X1043Y1156D01*
X1070Y1156D02*
X1144Y1156D01*
X1170Y1156D02*
X1244Y1156D01*
X1270Y1156D02*
X1344Y1156D01*
X1371Y1156D02*
X1444Y1156D01*
X1471Y1156D02*
X1544Y1156D01*
X1571Y1156D02*
X1644Y1156D01*
X1671Y1156D02*
X1744Y1156D01*
X1771Y1156D02*
X1844Y1156D01*
X1871Y1156D02*
X1945Y1156D01*
X1971Y1156D02*
X2045Y1156D01*
X2072Y1156D02*
X2145Y1156D01*
X2172Y1156D02*
X2245Y1156D01*
X2272Y1156D02*
X2345Y1156D01*
X2372Y1156D02*
X2445Y1156D01*
X971Y1155D02*
X1043Y1155D01*
X1071Y1155D02*
X1143Y1155D01*
X1171Y1155D02*
X1243Y1155D01*
X1271Y1155D02*
X1343Y1155D01*
X1371Y1155D02*
X1443Y1155D01*
X1471Y1155D02*
X1543Y1155D01*
X1571Y1155D02*
X1644Y1155D01*
X1672Y1155D02*
X1744Y1155D01*
X1772Y1155D02*
X1844Y1155D01*
X1872Y1155D02*
X1944Y1155D01*
X1972Y1155D02*
X2044Y1155D01*
X2072Y1155D02*
X2144Y1155D01*
X2172Y1155D02*
X2244Y1155D01*
X2272Y1155D02*
X2345Y1155D01*
X2373Y1155D02*
X2445Y1155D01*
X971Y1154D02*
X1042Y1154D01*
X1071Y1154D02*
X1142Y1154D01*
X1172Y1154D02*
X1242Y1154D01*
X1272Y1154D02*
X1343Y1154D01*
X1372Y1154D02*
X1443Y1154D01*
X1472Y1154D02*
X1543Y1154D01*
X1572Y1154D02*
X1643Y1154D01*
X1672Y1154D02*
X1743Y1154D01*
X1772Y1154D02*
X1843Y1154D01*
X1872Y1154D02*
X1943Y1154D01*
X1973Y1154D02*
X2044Y1154D01*
X2073Y1154D02*
X2144Y1154D01*
X2173Y1154D02*
X2244Y1154D01*
X2273Y1154D02*
X2344Y1154D01*
X2373Y1154D02*
X2444Y1154D01*
X972Y1153D02*
X1042Y1153D01*
X1072Y1153D02*
X1142Y1153D01*
X1172Y1153D02*
X1242Y1153D01*
X1272Y1153D02*
X1342Y1153D01*
X1372Y1153D02*
X1442Y1153D01*
X1473Y1153D02*
X1542Y1153D01*
X1573Y1153D02*
X1642Y1153D01*
X1673Y1153D02*
X1743Y1153D01*
X1773Y1153D02*
X1843Y1153D01*
X1873Y1153D02*
X1943Y1153D01*
X1973Y1153D02*
X2043Y1153D01*
X2073Y1153D02*
X2143Y1153D01*
X2173Y1153D02*
X2243Y1153D01*
X2274Y1153D02*
X2343Y1153D01*
X2374Y1153D02*
X2443Y1153D01*
X973Y1152D02*
X1041Y1152D01*
X1073Y1152D02*
X1141Y1152D01*
X1173Y1152D02*
X1241Y1152D01*
X1273Y1152D02*
X1341Y1152D01*
X1373Y1152D02*
X1441Y1152D01*
X1473Y1152D02*
X1542Y1152D01*
X1573Y1152D02*
X1642Y1152D01*
X1673Y1152D02*
X1742Y1152D01*
X1774Y1152D02*
X1842Y1152D01*
X1874Y1152D02*
X1942Y1152D01*
X1974Y1152D02*
X2042Y1152D01*
X2074Y1152D02*
X2142Y1152D01*
X2174Y1152D02*
X2243Y1152D01*
X2274Y1152D02*
X2343Y1152D01*
X2374Y1152D02*
X2443Y1152D01*
X973Y1151D02*
X1040Y1151D01*
X1073Y1151D02*
X1140Y1151D01*
X1174Y1151D02*
X1241Y1151D01*
X1274Y1151D02*
X1341Y1151D01*
X1374Y1151D02*
X1441Y1151D01*
X1474Y1151D02*
X1541Y1151D01*
X1574Y1151D02*
X1641Y1151D01*
X1674Y1151D02*
X1741Y1151D01*
X1774Y1151D02*
X1841Y1151D01*
X1874Y1151D02*
X1941Y1151D01*
X1975Y1151D02*
X2042Y1151D01*
X2075Y1151D02*
X2142Y1151D01*
X2175Y1151D02*
X2242Y1151D01*
X2275Y1151D02*
X2342Y1151D01*
X2375Y1151D02*
X2442Y1151D01*
X974Y1150D02*
X1040Y1150D01*
X1074Y1150D02*
X1140Y1150D01*
X1174Y1150D02*
X1240Y1150D01*
X1274Y1150D02*
X1340Y1150D01*
X1375Y1150D02*
X1440Y1150D01*
X1475Y1150D02*
X1540Y1150D01*
X1575Y1150D02*
X1640Y1150D01*
X1675Y1150D02*
X1740Y1150D01*
X1775Y1150D02*
X1841Y1150D01*
X1875Y1150D02*
X1941Y1150D01*
X1975Y1150D02*
X2041Y1150D01*
X2075Y1150D02*
X2141Y1150D01*
X2176Y1150D02*
X2241Y1150D01*
X2276Y1150D02*
X2341Y1150D01*
X2376Y1150D02*
X2441Y1150D01*
X975Y1149D02*
X1039Y1149D01*
X1075Y1149D02*
X1139Y1149D01*
X1175Y1149D02*
X1239Y1149D01*
X1275Y1149D02*
X1339Y1149D01*
X1375Y1149D02*
X1439Y1149D01*
X1475Y1149D02*
X1539Y1149D01*
X1576Y1149D02*
X1640Y1149D01*
X1676Y1149D02*
X1740Y1149D01*
X1776Y1149D02*
X1840Y1149D01*
X1876Y1149D02*
X1940Y1149D01*
X1976Y1149D02*
X2040Y1149D01*
X2076Y1149D02*
X2140Y1149D01*
X2176Y1149D02*
X2240Y1149D01*
X2276Y1149D02*
X2340Y1149D01*
X2377Y1149D02*
X2441Y1149D01*
X976Y1148D02*
X1038Y1148D01*
X1076Y1148D02*
X1138Y1148D01*
X1176Y1148D02*
X1238Y1148D01*
X1276Y1148D02*
X1338Y1148D01*
X1376Y1148D02*
X1438Y1148D01*
X1476Y1148D02*
X1539Y1148D01*
X1576Y1148D02*
X1639Y1148D01*
X1677Y1148D02*
X1739Y1148D01*
X1777Y1148D02*
X1839Y1148D01*
X1877Y1148D02*
X1939Y1148D01*
X1977Y1148D02*
X2039Y1148D01*
X2077Y1148D02*
X2139Y1148D01*
X2177Y1148D02*
X2239Y1148D01*
X2277Y1148D02*
X2340Y1148D01*
X2377Y1148D02*
X2440Y1148D01*
X977Y1147D02*
X1037Y1147D01*
X1077Y1147D02*
X1137Y1147D01*
X1177Y1147D02*
X1237Y1147D01*
X1277Y1147D02*
X1337Y1147D01*
X1377Y1147D02*
X1438Y1147D01*
X1477Y1147D02*
X1538Y1147D01*
X1577Y1147D02*
X1638Y1147D01*
X1677Y1147D02*
X1738Y1147D01*
X1778Y1147D02*
X1838Y1147D01*
X1878Y1147D02*
X1938Y1147D01*
X1978Y1147D02*
X2038Y1147D01*
X2078Y1147D02*
X2138Y1147D01*
X2178Y1147D02*
X2239Y1147D01*
X2278Y1147D02*
X2339Y1147D01*
X2378Y1147D02*
X2439Y1147D01*
X977Y1146D02*
X1036Y1146D01*
X1078Y1146D02*
X1136Y1146D01*
X1178Y1146D02*
X1236Y1146D01*
X1278Y1146D02*
X1337Y1146D01*
X1378Y1146D02*
X1437Y1146D01*
X1478Y1146D02*
X1537Y1146D01*
X1578Y1146D02*
X1637Y1146D01*
X1678Y1146D02*
X1737Y1146D01*
X1778Y1146D02*
X1837Y1146D01*
X1879Y1146D02*
X1937Y1146D01*
X1979Y1146D02*
X2037Y1146D01*
X2079Y1146D02*
X2138Y1146D01*
X2179Y1146D02*
X2238Y1146D01*
X2279Y1146D02*
X2338Y1146D01*
X2379Y1146D02*
X2438Y1146D01*
X978Y1145D02*
X1035Y1145D01*
X1079Y1145D02*
X1135Y1145D01*
X1179Y1145D02*
X1235Y1145D01*
X1279Y1145D02*
X1335Y1145D01*
X1379Y1145D02*
X1436Y1145D01*
X1479Y1145D02*
X1536Y1145D01*
X1579Y1145D02*
X1636Y1145D01*
X1679Y1145D02*
X1736Y1145D01*
X1780Y1145D02*
X1836Y1145D01*
X1880Y1145D02*
X1936Y1145D01*
X1980Y1145D02*
X2036Y1145D01*
X2080Y1145D02*
X2136Y1145D01*
X2180Y1145D02*
X2237Y1145D01*
X2280Y1145D02*
X2337Y1145D01*
X2380Y1145D02*
X2437Y1145D01*
X980Y1144D02*
X1034Y1144D01*
X1080Y1144D02*
X1134Y1144D01*
X1180Y1144D02*
X1234Y1144D01*
X1280Y1144D02*
X1334Y1144D01*
X1380Y1144D02*
X1434Y1144D01*
X1480Y1144D02*
X1535Y1144D01*
X1580Y1144D02*
X1635Y1144D01*
X1681Y1144D02*
X1735Y1144D01*
X1781Y1144D02*
X1835Y1144D01*
X1881Y1144D02*
X1935Y1144D01*
X1981Y1144D02*
X2035Y1144D01*
X2081Y1144D02*
X2135Y1144D01*
X2181Y1144D02*
X2235Y1144D01*
X2281Y1144D02*
X2336Y1144D01*
X2381Y1144D02*
X2436Y1144D01*
X981Y1143D02*
X1033Y1143D01*
X1081Y1143D02*
X1133Y1143D01*
X1181Y1143D02*
X1233Y1143D01*
X1281Y1143D02*
X1333Y1143D01*
X1381Y1143D02*
X1433Y1143D01*
X1481Y1143D02*
X1533Y1143D01*
X1582Y1143D02*
X1634Y1143D01*
X1682Y1143D02*
X1734Y1143D01*
X1782Y1143D02*
X1834Y1143D01*
X1882Y1143D02*
X1934Y1143D01*
X1982Y1143D02*
X2034Y1143D01*
X2082Y1143D02*
X2134Y1143D01*
X2182Y1143D02*
X2234Y1143D01*
X2282Y1143D02*
X2334Y1143D01*
X2383Y1143D02*
X2435Y1143D01*
X982Y1142D02*
X1031Y1142D01*
X1082Y1142D02*
X1131Y1142D01*
X1182Y1142D02*
X1232Y1142D01*
X1283Y1142D02*
X1332Y1142D01*
X1383Y1142D02*
X1432Y1142D01*
X1483Y1142D02*
X1532Y1142D01*
X1583Y1142D02*
X1632Y1142D01*
X1683Y1142D02*
X1732Y1142D01*
X1783Y1142D02*
X1832Y1142D01*
X1883Y1142D02*
X1933Y1142D01*
X1983Y1142D02*
X2033Y1142D01*
X2084Y1142D02*
X2133Y1142D01*
X2184Y1142D02*
X2233Y1142D01*
X2284Y1142D02*
X2333Y1142D01*
X2384Y1142D02*
X2433Y1142D01*
X984Y1141D02*
X1030Y1141D01*
X1084Y1141D02*
X1130Y1141D01*
X1184Y1141D02*
X1230Y1141D01*
X1284Y1141D02*
X1330Y1141D01*
X1384Y1141D02*
X1431Y1141D01*
X1484Y1141D02*
X1531Y1141D01*
X1584Y1141D02*
X1631Y1141D01*
X1684Y1141D02*
X1731Y1141D01*
X1785Y1141D02*
X1831Y1141D01*
X1885Y1141D02*
X1931Y1141D01*
X1985Y1141D02*
X2031Y1141D01*
X2085Y1141D02*
X2131Y1141D01*
X2185Y1141D02*
X2232Y1141D01*
X2285Y1141D02*
X2332Y1141D01*
X2385Y1141D02*
X2432Y1141D01*
X985Y1140D02*
X1028Y1140D01*
X1085Y1140D02*
X1129Y1140D01*
X1185Y1140D02*
X1229Y1140D01*
X1285Y1140D02*
X1329Y1140D01*
X1386Y1140D02*
X1429Y1140D01*
X1486Y1140D02*
X1529Y1140D01*
X1586Y1140D02*
X1629Y1140D01*
X1686Y1140D02*
X1729Y1140D01*
X1786Y1140D02*
X1829Y1140D01*
X1886Y1140D02*
X1930Y1140D01*
X1986Y1140D02*
X2030Y1140D01*
X2087Y1140D02*
X2130Y1140D01*
X2187Y1140D02*
X2230Y1140D01*
X2287Y1140D02*
X2330Y1140D01*
X2387Y1140D02*
X2430Y1140D01*
X987Y1139D02*
X1027Y1139D01*
X1087Y1139D02*
X1127Y1139D01*
X1187Y1139D02*
X1227Y1139D01*
X1287Y1139D02*
X1327Y1139D01*
X1387Y1139D02*
X1427Y1139D01*
X1487Y1139D02*
X1527Y1139D01*
X1587Y1139D02*
X1628Y1139D01*
X1688Y1139D02*
X1728Y1139D01*
X1788Y1139D02*
X1828Y1139D01*
X1888Y1139D02*
X1928Y1139D01*
X1988Y1139D02*
X2028Y1139D01*
X2088Y1139D02*
X2128Y1139D01*
X2188Y1139D02*
X2228Y1139D01*
X2288Y1139D02*
X2329Y1139D01*
X2389Y1139D02*
X2429Y1139D01*
X989Y1138D02*
X1025Y1138D01*
X1089Y1138D02*
X1125Y1138D01*
X1189Y1138D02*
X1225Y1138D01*
X1289Y1138D02*
X1325Y1138D01*
X1389Y1138D02*
X1425Y1138D01*
X1489Y1138D02*
X1526Y1138D01*
X1589Y1138D02*
X1626Y1138D01*
X1689Y1138D02*
X1726Y1138D01*
X1790Y1138D02*
X1826Y1138D01*
X1890Y1138D02*
X1926Y1138D01*
X1990Y1138D02*
X2026Y1138D01*
X2090Y1138D02*
X2126Y1138D01*
X2190Y1138D02*
X2227Y1138D01*
X2290Y1138D02*
X2327Y1138D01*
X2390Y1138D02*
X2427Y1138D01*
X991Y1137D02*
X1023Y1137D01*
X1091Y1137D02*
X1123Y1137D01*
X1191Y1137D02*
X1223Y1137D01*
X1291Y1137D02*
X1323Y1137D01*
X1391Y1137D02*
X1423Y1137D01*
X1491Y1137D02*
X1524Y1137D01*
X1591Y1137D02*
X1624Y1137D01*
X1692Y1137D02*
X1724Y1137D01*
X1792Y1137D02*
X1824Y1137D01*
X1892Y1137D02*
X1924Y1137D01*
X1992Y1137D02*
X2024Y1137D01*
X2092Y1137D02*
X2124Y1137D01*
X2192Y1137D02*
X2224Y1137D01*
X2292Y1137D02*
X2325Y1137D01*
X2392Y1137D02*
X2425Y1137D01*
X993Y1136D02*
X1020Y1136D01*
X1093Y1136D02*
X1120Y1136D01*
X1194Y1136D02*
X1220Y1136D01*
X1294Y1136D02*
X1321Y1136D01*
X1394Y1136D02*
X1421Y1136D01*
X1494Y1136D02*
X1521Y1136D01*
X1594Y1136D02*
X1621Y1136D01*
X1694Y1136D02*
X1721Y1136D01*
X1794Y1136D02*
X1821Y1136D01*
X1894Y1136D02*
X1921Y1136D01*
X1995Y1136D02*
X2022Y1136D01*
X2095Y1136D02*
X2122Y1136D01*
X2195Y1136D02*
X2222Y1136D01*
X2295Y1136D02*
X2322Y1136D01*
X2395Y1136D02*
X2422Y1136D01*
X997Y1135D02*
X1017Y1135D01*
X1097Y1135D02*
X1117Y1135D01*
X1197Y1135D02*
X1217Y1135D01*
X1297Y1135D02*
X1317Y1135D01*
X1397Y1135D02*
X1417Y1135D01*
X1497Y1135D02*
X1517Y1135D01*
X1598Y1135D02*
X1618Y1135D01*
X1698Y1135D02*
X1718Y1135D01*
X1798Y1135D02*
X1818Y1135D01*
X1898Y1135D02*
X1918Y1135D01*
X1998Y1135D02*
X2018Y1135D01*
X2098Y1135D02*
X2118Y1135D01*
X2198Y1135D02*
X2218Y1135D01*
X2298Y1135D02*
X2318Y1135D01*
X2399Y1135D02*
X2419Y1135D01*
X1002Y1134D02*
X1012Y1134D01*
X1102Y1134D02*
X1112Y1134D01*
X1202Y1134D02*
X1212Y1134D01*
X1302Y1134D02*
X1312Y1134D01*
X1402Y1134D02*
X1412Y1134D01*
X1502Y1134D02*
X1512Y1134D01*
X1603Y1134D02*
X1612Y1134D01*
X1703Y1134D02*
X1713Y1134D01*
X1803Y1134D02*
X1813Y1134D01*
X1903Y1134D02*
X1913Y1134D01*
X2003Y1134D02*
X2013Y1134D01*
X2103Y1134D02*
X2113Y1134D01*
X2203Y1134D02*
X2213Y1134D01*
X2304Y1134D02*
X2313Y1134D01*
X2404Y1134D02*
X2414Y1134D01*
X1001Y216D02*
X1013Y216D01*
X1101Y216D02*
X1113Y216D01*
X1201Y216D02*
X1213Y216D01*
X1301Y216D02*
X1313Y216D01*
X1401Y216D02*
X1413Y216D01*
X1502Y216D02*
X1513Y216D01*
X1602Y216D02*
X1613Y216D01*
X1702Y216D02*
X1714Y216D01*
X1802Y216D02*
X1814Y216D01*
X1902Y216D02*
X1914Y216D01*
X2002Y216D02*
X2014Y216D01*
X2102Y216D02*
X2114Y216D01*
X2203Y216D02*
X2214Y216D01*
X2303Y216D02*
X2314Y216D01*
X2403Y216D02*
X2414Y216D01*
X996Y215D02*
X1017Y215D01*
X1096Y215D02*
X1117Y215D01*
X1196Y215D02*
X1218Y215D01*
X1297Y215D02*
X1318Y215D01*
X1397Y215D02*
X1418Y215D01*
X1497Y215D02*
X1518Y215D01*
X1597Y215D02*
X1618Y215D01*
X1697Y215D02*
X1718Y215D01*
X1797Y215D02*
X1818Y215D01*
X1897Y215D02*
X1919Y215D01*
X1997Y215D02*
X2019Y215D01*
X2098Y215D02*
X2119Y215D01*
X2198Y215D02*
X2219Y215D01*
X2298Y215D02*
X2319Y215D01*
X2398Y215D02*
X2419Y215D01*
X993Y214D02*
X1021Y214D01*
X1093Y214D02*
X1121Y214D01*
X1193Y214D02*
X1221Y214D01*
X1293Y214D02*
X1321Y214D01*
X1393Y214D02*
X1421Y214D01*
X1494Y214D02*
X1521Y214D01*
X1594Y214D02*
X1621Y214D01*
X1694Y214D02*
X1722Y214D01*
X1794Y214D02*
X1822Y214D01*
X1894Y214D02*
X1922Y214D01*
X1994Y214D02*
X2022Y214D01*
X2094Y214D02*
X2122Y214D01*
X2194Y214D02*
X2222Y214D01*
X2295Y214D02*
X2322Y214D01*
X2395Y214D02*
X2422Y214D01*
X990Y213D02*
X1023Y213D01*
X1090Y213D02*
X1123Y213D01*
X1191Y213D02*
X1223Y213D01*
X1291Y213D02*
X1324Y213D01*
X1391Y213D02*
X1424Y213D01*
X1491Y213D02*
X1524Y213D01*
X1591Y213D02*
X1624Y213D01*
X1691Y213D02*
X1724Y213D01*
X1791Y213D02*
X1824Y213D01*
X1891Y213D02*
X1924Y213D01*
X1992Y213D02*
X2025Y213D01*
X2092Y213D02*
X2125Y213D01*
X2192Y213D02*
X2225Y213D01*
X2292Y213D02*
X2325Y213D01*
X2392Y213D02*
X2425Y213D01*
X988Y212D02*
X1025Y212D01*
X1088Y212D02*
X1125Y212D01*
X1189Y212D02*
X1225Y212D01*
X1289Y212D02*
X1326Y212D01*
X1389Y212D02*
X1426Y212D01*
X1489Y212D02*
X1526Y212D01*
X1589Y212D02*
X1626Y212D01*
X1689Y212D02*
X1726Y212D01*
X1789Y212D02*
X1826Y212D01*
X1889Y212D02*
X1926Y212D01*
X1990Y212D02*
X2027Y212D01*
X2090Y212D02*
X2127Y212D01*
X2190Y212D02*
X2227Y212D01*
X2290Y212D02*
X2327Y212D01*
X2390Y212D02*
X2427Y212D01*
X986Y211D02*
X1027Y211D01*
X1087Y211D02*
X1127Y211D01*
X1187Y211D02*
X1227Y211D01*
X1287Y211D02*
X1327Y211D01*
X1387Y211D02*
X1428Y211D01*
X1487Y211D02*
X1528Y211D01*
X1587Y211D02*
X1628Y211D01*
X1687Y211D02*
X1728Y211D01*
X1788Y211D02*
X1828Y211D01*
X1888Y211D02*
X1928Y211D01*
X1988Y211D02*
X2028Y211D01*
X2088Y211D02*
X2128Y211D01*
X2188Y211D02*
X2229Y211D01*
X2288Y211D02*
X2329Y211D01*
X2388Y211D02*
X2429Y211D01*
X985Y210D02*
X1029Y210D01*
X1085Y210D02*
X1129Y210D01*
X1185Y210D02*
X1229Y210D01*
X1285Y210D02*
X1329Y210D01*
X1385Y210D02*
X1429Y210D01*
X1486Y210D02*
X1529Y210D01*
X1586Y210D02*
X1629Y210D01*
X1686Y210D02*
X1730Y210D01*
X1786Y210D02*
X1830Y210D01*
X1886Y210D02*
X1930Y210D01*
X1986Y210D02*
X2030Y210D01*
X2086Y210D02*
X2130Y210D01*
X2186Y210D02*
X2230Y210D01*
X2287Y210D02*
X2330Y210D01*
X2387Y210D02*
X2431Y210D01*
X983Y209D02*
X1030Y209D01*
X1083Y209D02*
X1130Y209D01*
X1184Y209D02*
X1230Y209D01*
X1284Y209D02*
X1331Y209D01*
X1384Y209D02*
X1431Y209D01*
X1484Y209D02*
X1531Y209D01*
X1584Y209D02*
X1631Y209D01*
X1684Y209D02*
X1731Y209D01*
X1784Y209D02*
X1831Y209D01*
X1884Y209D02*
X1931Y209D01*
X1985Y209D02*
X2032Y209D01*
X2085Y209D02*
X2132Y209D01*
X2185Y209D02*
X2232Y209D01*
X2285Y209D02*
X2332Y209D01*
X2385Y209D02*
X2432Y209D01*
X982Y208D02*
X1032Y208D01*
X1082Y208D02*
X1132Y208D01*
X1182Y208D02*
X1232Y208D01*
X1282Y208D02*
X1332Y208D01*
X1382Y208D02*
X1432Y208D01*
X1483Y208D02*
X1532Y208D01*
X1583Y208D02*
X1632Y208D01*
X1683Y208D02*
X1732Y208D01*
X1783Y208D02*
X1833Y208D01*
X1883Y208D02*
X1933Y208D01*
X1983Y208D02*
X2033Y208D01*
X2083Y208D02*
X2133Y208D01*
X2184Y208D02*
X2233Y208D01*
X2284Y208D02*
X2333Y208D01*
X2384Y208D02*
X2433Y208D01*
X981Y207D02*
X1033Y207D01*
X1081Y207D02*
X1133Y207D01*
X1181Y207D02*
X1233Y207D01*
X1281Y207D02*
X1333Y207D01*
X1381Y207D02*
X1433Y207D01*
X1481Y207D02*
X1534Y207D01*
X1581Y207D02*
X1634Y207D01*
X1682Y207D02*
X1734Y207D01*
X1782Y207D02*
X1834Y207D01*
X1882Y207D02*
X1934Y207D01*
X1982Y207D02*
X2034Y207D01*
X2082Y207D02*
X2134Y207D01*
X2182Y207D02*
X2234Y207D01*
X2282Y207D02*
X2335Y207D01*
X2382Y207D02*
X2435Y207D01*
X979Y206D02*
X1034Y206D01*
X1080Y206D02*
X1134Y206D01*
X1180Y206D02*
X1234Y206D01*
X1280Y206D02*
X1334Y206D01*
X1380Y206D02*
X1435Y206D01*
X1480Y206D02*
X1535Y206D01*
X1580Y206D02*
X1635Y206D01*
X1680Y206D02*
X1735Y206D01*
X1780Y206D02*
X1835Y206D01*
X1881Y206D02*
X1935Y206D01*
X1981Y206D02*
X2035Y206D01*
X2081Y206D02*
X2136Y206D01*
X2181Y206D02*
X2236Y206D01*
X2281Y206D02*
X2336Y206D01*
X2381Y206D02*
X2436Y206D01*
X978Y205D02*
X1035Y205D01*
X1078Y205D02*
X1135Y205D01*
X1179Y205D02*
X1235Y205D01*
X1279Y205D02*
X1336Y205D01*
X1379Y205D02*
X1436Y205D01*
X1479Y205D02*
X1536Y205D01*
X1579Y205D02*
X1636Y205D01*
X1679Y205D02*
X1736Y205D01*
X1779Y205D02*
X1836Y205D01*
X1880Y205D02*
X1936Y205D01*
X1980Y205D02*
X2036Y205D01*
X2080Y205D02*
X2137Y205D01*
X2180Y205D02*
X2237Y205D01*
X2280Y205D02*
X2337Y205D01*
X2380Y205D02*
X2437Y205D01*
X977Y204D02*
X1036Y204D01*
X1077Y204D02*
X1136Y204D01*
X1178Y204D02*
X1237Y204D01*
X1278Y204D02*
X1337Y204D01*
X1378Y204D02*
X1437Y204D01*
X1478Y204D02*
X1537Y204D01*
X1578Y204D02*
X1637Y204D01*
X1678Y204D02*
X1737Y204D01*
X1778Y204D02*
X1837Y204D01*
X1878Y204D02*
X1937Y204D01*
X1979Y204D02*
X2038Y204D01*
X2079Y204D02*
X2138Y204D01*
X2179Y204D02*
X2238Y204D01*
X2279Y204D02*
X2338Y204D01*
X2379Y204D02*
X2438Y204D01*
X976Y203D02*
X1037Y203D01*
X1077Y203D02*
X1137Y203D01*
X1177Y203D02*
X1237Y203D01*
X1277Y203D02*
X1338Y203D01*
X1377Y203D02*
X1438Y203D01*
X1477Y203D02*
X1538Y203D01*
X1577Y203D02*
X1638Y203D01*
X1677Y203D02*
X1738Y203D01*
X1777Y203D02*
X1838Y203D01*
X1878Y203D02*
X1938Y203D01*
X1978Y203D02*
X2038Y203D01*
X2078Y203D02*
X2139Y203D01*
X2178Y203D02*
X2239Y203D01*
X2278Y203D02*
X2339Y203D01*
X2378Y203D02*
X2439Y203D01*
X975Y202D02*
X1038Y202D01*
X1076Y202D02*
X1138Y202D01*
X1176Y202D02*
X1238Y202D01*
X1276Y202D02*
X1338Y202D01*
X1376Y202D02*
X1439Y202D01*
X1476Y202D02*
X1539Y202D01*
X1576Y202D02*
X1639Y202D01*
X1676Y202D02*
X1739Y202D01*
X1777Y202D02*
X1839Y202D01*
X1877Y202D02*
X1939Y202D01*
X1977Y202D02*
X2039Y202D01*
X2077Y202D02*
X2139Y202D01*
X2177Y202D02*
X2240Y202D01*
X2277Y202D02*
X2340Y202D01*
X2377Y202D02*
X2440Y202D01*
X975Y201D02*
X1039Y201D01*
X1075Y201D02*
X1139Y201D01*
X1175Y201D02*
X1239Y201D01*
X1275Y201D02*
X1339Y201D01*
X1375Y201D02*
X1439Y201D01*
X1475Y201D02*
X1540Y201D01*
X1575Y201D02*
X1640Y201D01*
X1676Y201D02*
X1740Y201D01*
X1776Y201D02*
X1840Y201D01*
X1876Y201D02*
X1940Y201D01*
X1976Y201D02*
X2040Y201D01*
X2076Y201D02*
X2140Y201D01*
X2176Y201D02*
X2240Y201D01*
X2276Y201D02*
X2341Y201D01*
X2376Y201D02*
X2441Y201D01*
X974Y200D02*
X1040Y200D01*
X1074Y200D02*
X1140Y200D01*
X1174Y200D02*
X1240Y200D01*
X1274Y200D02*
X1340Y200D01*
X1374Y200D02*
X1440Y200D01*
X1475Y200D02*
X1540Y200D01*
X1575Y200D02*
X1640Y200D01*
X1675Y200D02*
X1741Y200D01*
X1775Y200D02*
X1841Y200D01*
X1875Y200D02*
X1941Y200D01*
X1975Y200D02*
X2041Y200D01*
X2075Y200D02*
X2141Y200D01*
X2175Y200D02*
X2241Y200D01*
X2276Y200D02*
X2341Y200D01*
X2376Y200D02*
X2441Y200D01*
X973Y199D02*
X1040Y199D01*
X1073Y199D02*
X1140Y199D01*
X1173Y199D02*
X1241Y199D01*
X1274Y199D02*
X1341Y199D01*
X1374Y199D02*
X1441Y199D01*
X1474Y199D02*
X1541Y199D01*
X1574Y199D02*
X1641Y199D01*
X1674Y199D02*
X1741Y199D01*
X1774Y199D02*
X1841Y199D01*
X1874Y199D02*
X1942Y199D01*
X1974Y199D02*
X2042Y199D01*
X2075Y199D02*
X2142Y199D01*
X2175Y199D02*
X2242Y199D01*
X2275Y199D02*
X2342Y199D01*
X2375Y199D02*
X2442Y199D01*
X972Y198D02*
X1041Y198D01*
X1073Y198D02*
X1141Y198D01*
X1173Y198D02*
X1241Y198D01*
X1273Y198D02*
X1341Y198D01*
X1373Y198D02*
X1442Y198D01*
X1473Y198D02*
X1542Y198D01*
X1573Y198D02*
X1642Y198D01*
X1673Y198D02*
X1742Y198D01*
X1773Y198D02*
X1842Y198D01*
X1874Y198D02*
X1942Y198D01*
X1974Y198D02*
X2042Y198D01*
X2074Y198D02*
X2143Y198D01*
X2174Y198D02*
X2243Y198D01*
X2274Y198D02*
X2343Y198D01*
X2374Y198D02*
X2443Y198D01*
X972Y197D02*
X1042Y197D01*
X1072Y197D02*
X1142Y197D01*
X1172Y197D02*
X1242Y197D01*
X1272Y197D02*
X1342Y197D01*
X1372Y197D02*
X1442Y197D01*
X1472Y197D02*
X1542Y197D01*
X1573Y197D02*
X1642Y197D01*
X1673Y197D02*
X1743Y197D01*
X1773Y197D02*
X1843Y197D01*
X1873Y197D02*
X1943Y197D01*
X1973Y197D02*
X2043Y197D01*
X2073Y197D02*
X2143Y197D01*
X2173Y197D02*
X2243Y197D01*
X2274Y197D02*
X2343Y197D01*
X2374Y197D02*
X2444Y197D01*
X971Y196D02*
X1042Y196D01*
X1071Y196D02*
X1142Y196D01*
X1171Y196D02*
X1243Y196D01*
X1272Y196D02*
X1343Y196D01*
X1372Y196D02*
X1443Y196D01*
X1472Y196D02*
X1543Y196D01*
X1572Y196D02*
X1643Y196D01*
X1672Y196D02*
X1743Y196D01*
X1772Y196D02*
X1843Y196D01*
X1872Y196D02*
X1943Y196D01*
X1973Y196D02*
X2044Y196D01*
X2073Y196D02*
X2144Y196D01*
X2173Y196D02*
X2244Y196D01*
X2273Y196D02*
X2344Y196D01*
X2373Y196D02*
X2444Y196D01*
X971Y195D02*
X1043Y195D01*
X1071Y195D02*
X1143Y195D01*
X1171Y195D02*
X1243Y195D01*
X1271Y195D02*
X1343Y195D01*
X1371Y195D02*
X1443Y195D01*
X1471Y195D02*
X1544Y195D01*
X1571Y195D02*
X1644Y195D01*
X1672Y195D02*
X1744Y195D01*
X1772Y195D02*
X1844Y195D01*
X1872Y195D02*
X1944Y195D01*
X1972Y195D02*
X2044Y195D01*
X2072Y195D02*
X2144Y195D01*
X2172Y195D02*
X2244Y195D01*
X2272Y195D02*
X2345Y195D01*
X2372Y195D02*
X2445Y195D01*
X970Y194D02*
X1043Y194D01*
X1070Y194D02*
X1144Y194D01*
X1170Y194D02*
X1244Y194D01*
X1270Y194D02*
X1344Y194D01*
X1371Y194D02*
X1444Y194D01*
X1471Y194D02*
X1544Y194D01*
X1571Y194D02*
X1644Y194D01*
X1671Y194D02*
X1744Y194D01*
X1771Y194D02*
X1845Y194D01*
X1871Y194D02*
X1945Y194D01*
X1971Y194D02*
X2045Y194D01*
X2071Y194D02*
X2145Y194D01*
X2172Y194D02*
X2245Y194D01*
X2272Y194D02*
X2345Y194D01*
X2372Y194D02*
X2445Y194D01*
X970Y193D02*
X1044Y193D01*
X1070Y193D02*
X1144Y193D01*
X1170Y193D02*
X1244Y193D01*
X1270Y193D02*
X1344Y193D01*
X1370Y193D02*
X1444Y193D01*
X1470Y193D02*
X1545Y193D01*
X1570Y193D02*
X1645Y193D01*
X1670Y193D02*
X1745Y193D01*
X1771Y193D02*
X1845Y193D01*
X1871Y193D02*
X1945Y193D01*
X1971Y193D02*
X2045Y193D01*
X2071Y193D02*
X2145Y193D01*
X2171Y193D02*
X2246Y193D01*
X2271Y193D02*
X2346Y193D01*
X2371Y193D02*
X2446Y193D01*
X969Y192D02*
X1044Y192D01*
X1069Y192D02*
X1145Y192D01*
X1169Y192D02*
X1245Y192D01*
X1269Y192D02*
X1345Y192D01*
X1370Y192D02*
X1445Y192D01*
X1470Y192D02*
X1545Y192D01*
X1570Y192D02*
X1645Y192D01*
X1670Y192D02*
X1745Y192D01*
X1770Y192D02*
X1846Y192D01*
X1870Y192D02*
X1946Y192D01*
X1970Y192D02*
X2046Y192D01*
X2070Y192D02*
X2146Y192D01*
X2171Y192D02*
X2246Y192D01*
X2271Y192D02*
X2346Y192D01*
X2371Y192D02*
X2446Y192D01*
X969Y191D02*
X1045Y191D01*
X1069Y191D02*
X1145Y191D01*
X1169Y191D02*
X1245Y191D01*
X1269Y191D02*
X1345Y191D01*
X1369Y191D02*
X1445Y191D01*
X1469Y191D02*
X1546Y191D01*
X1569Y191D02*
X1646Y191D01*
X1669Y191D02*
X1746Y191D01*
X1770Y191D02*
X1846Y191D01*
X1870Y191D02*
X1946Y191D01*
X1970Y191D02*
X2046Y191D01*
X2070Y191D02*
X2146Y191D01*
X2170Y191D02*
X2247Y191D01*
X2270Y191D02*
X2347Y191D01*
X2370Y191D02*
X2447Y191D01*
X968Y190D02*
X1045Y190D01*
X1068Y190D02*
X1145Y190D01*
X1168Y190D02*
X1246Y190D01*
X1269Y190D02*
X1346Y190D01*
X1369Y190D02*
X1446Y190D01*
X1469Y190D02*
X1546Y190D01*
X1569Y190D02*
X1646Y190D01*
X1669Y190D02*
X1746Y190D01*
X1769Y190D02*
X1846Y190D01*
X1869Y190D02*
X1946Y190D01*
X1969Y190D02*
X2047Y190D01*
X2070Y190D02*
X2147Y190D01*
X2170Y190D02*
X2247Y190D01*
X2270Y190D02*
X2347Y190D01*
X2370Y190D02*
X2447Y190D01*
X968Y189D02*
X1046Y189D01*
X1068Y189D02*
X1146Y189D01*
X1168Y189D02*
X1246Y189D01*
X1268Y189D02*
X1346Y189D01*
X1368Y189D02*
X1446Y189D01*
X1468Y189D02*
X1546Y189D01*
X1569Y189D02*
X1646Y189D01*
X1669Y189D02*
X1747Y189D01*
X1769Y189D02*
X1847Y189D01*
X1869Y189D02*
X1947Y189D01*
X1969Y189D02*
X2047Y189D01*
X2069Y189D02*
X2147Y189D01*
X2169Y189D02*
X2247Y189D01*
X2270Y189D02*
X2347Y189D01*
X2370Y189D02*
X2448Y189D01*
X967Y188D02*
X1046Y188D01*
X1068Y188D02*
X1146Y188D01*
X1168Y188D02*
X1246Y188D01*
X1268Y188D02*
X1346Y188D01*
X1368Y188D02*
X1447Y188D01*
X1468Y188D02*
X1547Y188D01*
X1568Y188D02*
X1647Y188D01*
X1668Y188D02*
X1747Y188D01*
X1769Y188D02*
X1847Y188D01*
X1869Y188D02*
X1947Y188D01*
X1969Y188D02*
X2047Y188D01*
X2069Y188D02*
X2147Y188D01*
X2169Y188D02*
X2248Y188D01*
X2269Y188D02*
X2348Y188D01*
X2369Y188D02*
X2448Y188D01*
X967Y187D02*
X1046Y187D01*
X1067Y187D02*
X1146Y187D01*
X1167Y187D02*
X1247Y187D01*
X1268Y187D02*
X1347Y187D01*
X1368Y187D02*
X1447Y187D01*
X1468Y187D02*
X1547Y187D01*
X1568Y187D02*
X1647Y187D01*
X1668Y187D02*
X1747Y187D01*
X1768Y187D02*
X1847Y187D01*
X1868Y187D02*
X1948Y187D01*
X1968Y187D02*
X2048Y187D01*
X2069Y187D02*
X2148Y187D01*
X2169Y187D02*
X2248Y187D01*
X2269Y187D02*
X2348Y187D01*
X2369Y187D02*
X2448Y187D01*
X967Y186D02*
X1047Y186D01*
X1067Y186D02*
X1147Y186D01*
X1167Y186D02*
X1247Y186D01*
X1267Y186D02*
X1347Y186D01*
X1367Y186D02*
X1447Y186D01*
X1468Y186D02*
X1547Y186D01*
X1568Y186D02*
X1647Y186D01*
X1668Y186D02*
X1748Y186D01*
X1768Y186D02*
X1848Y186D01*
X1868Y186D02*
X1948Y186D01*
X1968Y186D02*
X2048Y186D01*
X2068Y186D02*
X2148Y186D01*
X2168Y186D02*
X2248Y186D01*
X2269Y186D02*
X2348Y186D01*
X2369Y186D02*
X2448Y186D01*
X967Y185D02*
X1047Y185D01*
X1067Y185D02*
X1147Y185D01*
X1167Y185D02*
X1247Y185D01*
X1267Y185D02*
X1347Y185D01*
X1367Y185D02*
X1447Y185D01*
X1467Y185D02*
X1548Y185D01*
X1567Y185D02*
X1648Y185D01*
X1668Y185D02*
X1748Y185D01*
X1768Y185D02*
X1848Y185D01*
X1868Y185D02*
X1948Y185D01*
X1968Y185D02*
X2048Y185D01*
X2068Y185D02*
X2148Y185D01*
X2168Y185D02*
X2248Y185D01*
X2268Y185D02*
X2349Y185D01*
X2368Y185D02*
X2449Y185D01*
X966Y184D02*
X1047Y184D01*
X1067Y184D02*
X1147Y184D01*
X1167Y184D02*
X1247Y184D01*
X1267Y184D02*
X1348Y184D01*
X1367Y184D02*
X1448Y184D01*
X1467Y184D02*
X1548Y184D01*
X1567Y184D02*
X1648Y184D01*
X1667Y184D02*
X1748Y184D01*
X1767Y184D02*
X1848Y184D01*
X1868Y184D02*
X1948Y184D01*
X1968Y184D02*
X2048Y184D01*
X2068Y184D02*
X2149Y184D01*
X2168Y184D02*
X2249Y184D01*
X2268Y184D02*
X2349Y184D01*
X2368Y184D02*
X2449Y184D01*
X966Y183D02*
X1047Y183D01*
X1066Y183D02*
X1147Y183D01*
X1166Y183D02*
X1248Y183D01*
X1267Y183D02*
X1348Y183D01*
X1367Y183D02*
X1448Y183D01*
X1467Y183D02*
X1548Y183D01*
X1567Y183D02*
X1648Y183D01*
X1667Y183D02*
X1748Y183D01*
X1767Y183D02*
X1848Y183D01*
X1867Y183D02*
X1949Y183D01*
X1967Y183D02*
X2049Y183D01*
X2068Y183D02*
X2149Y183D01*
X2168Y183D02*
X2249Y183D01*
X2268Y183D02*
X2349Y183D01*
X2368Y183D02*
X2449Y183D01*
X966Y182D02*
X1048Y182D01*
X1066Y182D02*
X1148Y182D01*
X1166Y182D02*
X1248Y182D01*
X1266Y182D02*
X1348Y182D01*
X1366Y182D02*
X1448Y182D01*
X1467Y182D02*
X1548Y182D01*
X1567Y182D02*
X1648Y182D01*
X1667Y182D02*
X1748Y182D01*
X1767Y182D02*
X1849Y182D01*
X1867Y182D02*
X1949Y182D01*
X1967Y182D02*
X2049Y182D01*
X2067Y182D02*
X2149Y182D01*
X2168Y182D02*
X2249Y182D01*
X2268Y182D02*
X2349Y182D01*
X2368Y182D02*
X2449Y182D01*
X966Y181D02*
X1048Y181D01*
X1066Y181D02*
X1148Y181D01*
X1166Y181D02*
X1248Y181D01*
X1266Y181D02*
X1348Y181D01*
X1366Y181D02*
X1448Y181D01*
X1466Y181D02*
X1548Y181D01*
X1567Y181D02*
X1648Y181D01*
X1667Y181D02*
X1749Y181D01*
X1767Y181D02*
X1849Y181D01*
X1867Y181D02*
X1949Y181D01*
X1967Y181D02*
X2049Y181D01*
X2067Y181D02*
X2149Y181D01*
X2167Y181D02*
X2249Y181D01*
X2268Y181D02*
X2349Y181D01*
X2368Y181D02*
X2450Y181D01*
X966Y180D02*
X1048Y180D01*
X1066Y180D02*
X1148Y180D01*
X1166Y180D02*
X1248Y180D01*
X1266Y180D02*
X1348Y180D01*
X1366Y180D02*
X1448Y180D01*
X1466Y180D02*
X1549Y180D01*
X1566Y180D02*
X1649Y180D01*
X1667Y180D02*
X1749Y180D01*
X1767Y180D02*
X1849Y180D01*
X1867Y180D02*
X1949Y180D01*
X1967Y180D02*
X2049Y180D01*
X2067Y180D02*
X2149Y180D01*
X2167Y180D02*
X2249Y180D01*
X2267Y180D02*
X2350Y180D01*
X2367Y180D02*
X2450Y180D01*
X966Y179D02*
X1048Y179D01*
X1066Y179D02*
X1148Y179D01*
X1166Y179D02*
X1248Y179D01*
X1266Y179D02*
X1348Y179D01*
X1366Y179D02*
X1449Y179D01*
X1466Y179D02*
X1549Y179D01*
X1566Y179D02*
X1649Y179D01*
X1666Y179D02*
X1749Y179D01*
X1767Y179D02*
X1849Y179D01*
X1867Y179D02*
X1949Y179D01*
X1967Y179D02*
X2049Y179D01*
X2067Y179D02*
X2149Y179D01*
X2167Y179D02*
X2250Y179D01*
X2267Y179D02*
X2350Y179D01*
X2367Y179D02*
X2450Y179D01*
X965Y178D02*
X1048Y178D01*
X1066Y178D02*
X1148Y178D01*
X1166Y178D02*
X1248Y178D01*
X1266Y178D02*
X1348Y178D01*
X1366Y178D02*
X1449Y178D01*
X1466Y178D02*
X1549Y178D01*
X1566Y178D02*
X1649Y178D01*
X1666Y178D02*
X1749Y178D01*
X1766Y178D02*
X1849Y178D01*
X1867Y178D02*
X1949Y178D01*
X1967Y178D02*
X2049Y178D01*
X2067Y178D02*
X2150Y178D01*
X2167Y178D02*
X2250Y178D01*
X2267Y178D02*
X2350Y178D01*
X2367Y178D02*
X2450Y178D01*
X965Y177D02*
X1048Y177D01*
X1065Y177D02*
X1148Y177D01*
X1166Y177D02*
X1248Y177D01*
X1266Y177D02*
X1349Y177D01*
X1366Y177D02*
X1449Y177D01*
X1466Y177D02*
X1549Y177D01*
X1566Y177D02*
X1649Y177D01*
X1666Y177D02*
X1749Y177D01*
X1766Y177D02*
X1849Y177D01*
X1867Y177D02*
X1949Y177D01*
X1967Y177D02*
X2049Y177D01*
X2067Y177D02*
X2150Y177D01*
X2167Y177D02*
X2250Y177D01*
X2267Y177D02*
X2350Y177D01*
X2367Y177D02*
X2450Y177D01*
X965Y176D02*
X1048Y176D01*
X1065Y176D02*
X1148Y176D01*
X1166Y176D02*
X1248Y176D01*
X1266Y176D02*
X1349Y176D01*
X1366Y176D02*
X1449Y176D01*
X1466Y176D02*
X1549Y176D01*
X1566Y176D02*
X1649Y176D01*
X1666Y176D02*
X1749Y176D01*
X1766Y176D02*
X1849Y176D01*
X1866Y176D02*
X1949Y176D01*
X1967Y176D02*
X2050Y176D01*
X2067Y176D02*
X2150Y176D01*
X2167Y176D02*
X2250Y176D01*
X2267Y176D02*
X2350Y176D01*
X2367Y176D02*
X2450Y176D01*
X965Y175D02*
X1048Y175D01*
X1065Y175D02*
X1148Y175D01*
X1166Y175D02*
X1249Y175D01*
X1266Y175D02*
X1349Y175D01*
X1366Y175D02*
X1449Y175D01*
X1466Y175D02*
X1549Y175D01*
X1566Y175D02*
X1649Y175D01*
X1666Y175D02*
X1749Y175D01*
X1766Y175D02*
X1849Y175D01*
X1866Y175D02*
X1949Y175D01*
X1967Y175D02*
X2050Y175D01*
X2067Y175D02*
X2150Y175D01*
X2167Y175D02*
X2250Y175D01*
X2267Y175D02*
X2350Y175D01*
X2367Y175D02*
X2450Y175D01*
X965Y174D02*
X1048Y174D01*
X1065Y174D02*
X1148Y174D01*
X1166Y174D02*
X1249Y174D01*
X1266Y174D02*
X1349Y174D01*
X1366Y174D02*
X1449Y174D01*
X1466Y174D02*
X1549Y174D01*
X1566Y174D02*
X1649Y174D01*
X1666Y174D02*
X1749Y174D01*
X1766Y174D02*
X1849Y174D01*
X1866Y174D02*
X1949Y174D01*
X1967Y174D02*
X2050Y174D01*
X2067Y174D02*
X2150Y174D01*
X2167Y174D02*
X2250Y174D01*
X2267Y174D02*
X2350Y174D01*
X2367Y174D02*
X2450Y174D01*
X965Y173D02*
X1048Y173D01*
X1065Y173D02*
X1148Y173D01*
X1166Y173D02*
X1248Y173D01*
X1266Y173D02*
X1349Y173D01*
X1366Y173D02*
X1449Y173D01*
X1466Y173D02*
X1549Y173D01*
X1566Y173D02*
X1649Y173D01*
X1666Y173D02*
X1749Y173D01*
X1766Y173D02*
X1849Y173D01*
X1866Y173D02*
X1949Y173D01*
X1967Y173D02*
X2050Y173D01*
X2067Y173D02*
X2150Y173D01*
X2167Y173D02*
X2250Y173D01*
X2267Y173D02*
X2350Y173D01*
X2367Y173D02*
X2450Y173D01*
X965Y172D02*
X1048Y172D01*
X1065Y172D02*
X1148Y172D01*
X1166Y172D02*
X1248Y172D01*
X1266Y172D02*
X1349Y172D01*
X1366Y172D02*
X1449Y172D01*
X1466Y172D02*
X1549Y172D01*
X1566Y172D02*
X1649Y172D01*
X1666Y172D02*
X1749Y172D01*
X1766Y172D02*
X1849Y172D01*
X1867Y172D02*
X1949Y172D01*
X1967Y172D02*
X2049Y172D01*
X2067Y172D02*
X2150Y172D01*
X2167Y172D02*
X2250Y172D01*
X2267Y172D02*
X2350Y172D01*
X2367Y172D02*
X2450Y172D01*
X965Y171D02*
X1048Y171D01*
X1066Y171D02*
X1148Y171D01*
X1166Y171D02*
X1248Y171D01*
X1266Y171D02*
X1348Y171D01*
X1366Y171D02*
X1449Y171D01*
X1466Y171D02*
X1549Y171D01*
X1566Y171D02*
X1649Y171D01*
X1666Y171D02*
X1749Y171D01*
X1766Y171D02*
X1849Y171D01*
X1867Y171D02*
X1949Y171D01*
X1967Y171D02*
X2049Y171D01*
X2067Y171D02*
X2150Y171D01*
X2167Y171D02*
X2250Y171D01*
X2267Y171D02*
X2350Y171D01*
X2367Y171D02*
X2450Y171D01*
X966Y170D02*
X1048Y170D01*
X1066Y170D02*
X1148Y170D01*
X1166Y170D02*
X1248Y170D01*
X1266Y170D02*
X1348Y170D01*
X1366Y170D02*
X1449Y170D01*
X1466Y170D02*
X1549Y170D01*
X1566Y170D02*
X1649Y170D01*
X1666Y170D02*
X1749Y170D01*
X1767Y170D02*
X1849Y170D01*
X1867Y170D02*
X1949Y170D01*
X1967Y170D02*
X2049Y170D01*
X2067Y170D02*
X2149Y170D01*
X2167Y170D02*
X2250Y170D01*
X2267Y170D02*
X2350Y170D01*
X2367Y170D02*
X2450Y170D01*
X966Y169D02*
X1048Y169D01*
X1066Y169D02*
X1148Y169D01*
X1166Y169D02*
X1248Y169D01*
X1266Y169D02*
X1348Y169D01*
X1366Y169D02*
X1448Y169D01*
X1466Y169D02*
X1548Y169D01*
X1566Y169D02*
X1649Y169D01*
X1667Y169D02*
X1749Y169D01*
X1767Y169D02*
X1849Y169D01*
X1867Y169D02*
X1949Y169D01*
X1967Y169D02*
X2049Y169D01*
X2067Y169D02*
X2149Y169D01*
X2167Y169D02*
X2249Y169D01*
X2267Y169D02*
X2350Y169D01*
X2368Y169D02*
X2450Y169D01*
X966Y168D02*
X1048Y168D01*
X1066Y168D02*
X1148Y168D01*
X1166Y168D02*
X1248Y168D01*
X1266Y168D02*
X1348Y168D01*
X1366Y168D02*
X1448Y168D01*
X1466Y168D02*
X1548Y168D01*
X1567Y168D02*
X1648Y168D01*
X1667Y168D02*
X1749Y168D01*
X1767Y168D02*
X1849Y168D01*
X1867Y168D02*
X1949Y168D01*
X1967Y168D02*
X2049Y168D01*
X2067Y168D02*
X2149Y168D01*
X2167Y168D02*
X2249Y168D01*
X2268Y168D02*
X2349Y168D01*
X2368Y168D02*
X2450Y168D01*
X966Y167D02*
X1048Y167D01*
X1066Y167D02*
X1148Y167D01*
X1166Y167D02*
X1248Y167D01*
X1266Y167D02*
X1348Y167D01*
X1367Y167D02*
X1448Y167D01*
X1467Y167D02*
X1548Y167D01*
X1567Y167D02*
X1648Y167D01*
X1667Y167D02*
X1748Y167D01*
X1767Y167D02*
X1849Y167D01*
X1867Y167D02*
X1949Y167D01*
X1967Y167D02*
X2049Y167D01*
X2067Y167D02*
X2149Y167D01*
X2168Y167D02*
X2249Y167D01*
X2268Y167D02*
X2349Y167D01*
X2368Y167D02*
X2449Y167D01*
X966Y166D02*
X1047Y166D01*
X1066Y166D02*
X1147Y166D01*
X1166Y166D02*
X1248Y166D01*
X1267Y166D02*
X1348Y166D01*
X1367Y166D02*
X1448Y166D01*
X1467Y166D02*
X1548Y166D01*
X1567Y166D02*
X1648Y166D01*
X1667Y166D02*
X1748Y166D01*
X1767Y166D02*
X1848Y166D01*
X1867Y166D02*
X1949Y166D01*
X1967Y166D02*
X2049Y166D01*
X2068Y166D02*
X2149Y166D01*
X2168Y166D02*
X2249Y166D01*
X2268Y166D02*
X2349Y166D01*
X2368Y166D02*
X2449Y166D01*
X966Y165D02*
X1047Y165D01*
X1067Y165D02*
X1147Y165D01*
X1167Y165D02*
X1247Y165D01*
X1267Y165D02*
X1347Y165D01*
X1367Y165D02*
X1448Y165D01*
X1467Y165D02*
X1548Y165D01*
X1567Y165D02*
X1648Y165D01*
X1667Y165D02*
X1748Y165D01*
X1767Y165D02*
X1848Y165D01*
X1868Y165D02*
X1948Y165D01*
X1968Y165D02*
X2048Y165D01*
X2068Y165D02*
X2149Y165D01*
X2168Y165D02*
X2249Y165D01*
X2268Y165D02*
X2349Y165D01*
X2368Y165D02*
X2449Y165D01*
X967Y164D02*
X1047Y164D01*
X1067Y164D02*
X1147Y164D01*
X1167Y164D02*
X1247Y164D01*
X1267Y164D02*
X1347Y164D01*
X1367Y164D02*
X1447Y164D01*
X1467Y164D02*
X1548Y164D01*
X1567Y164D02*
X1648Y164D01*
X1668Y164D02*
X1748Y164D01*
X1768Y164D02*
X1848Y164D01*
X1868Y164D02*
X1948Y164D01*
X1968Y164D02*
X2048Y164D01*
X2068Y164D02*
X2148Y164D01*
X2168Y164D02*
X2248Y164D01*
X2268Y164D02*
X2349Y164D01*
X2369Y164D02*
X2449Y164D01*
X967Y163D02*
X1047Y163D01*
X1067Y163D02*
X1147Y163D01*
X1167Y163D02*
X1247Y163D01*
X1267Y163D02*
X1347Y163D01*
X1367Y163D02*
X1447Y163D01*
X1468Y163D02*
X1547Y163D01*
X1568Y163D02*
X1647Y163D01*
X1668Y163D02*
X1748Y163D01*
X1768Y163D02*
X1848Y163D01*
X1868Y163D02*
X1948Y163D01*
X1968Y163D02*
X2048Y163D01*
X2068Y163D02*
X2148Y163D01*
X2168Y163D02*
X2248Y163D01*
X2269Y163D02*
X2348Y163D01*
X2369Y163D02*
X2448Y163D01*
X967Y162D02*
X1046Y162D01*
X1067Y162D02*
X1146Y162D01*
X1167Y162D02*
X1247Y162D01*
X1268Y162D02*
X1347Y162D01*
X1368Y162D02*
X1447Y162D01*
X1468Y162D02*
X1547Y162D01*
X1568Y162D02*
X1647Y162D01*
X1668Y162D02*
X1747Y162D01*
X1768Y162D02*
X1847Y162D01*
X1868Y162D02*
X1948Y162D01*
X1968Y162D02*
X2048Y162D01*
X2069Y162D02*
X2148Y162D01*
X2169Y162D02*
X2248Y162D01*
X2269Y162D02*
X2348Y162D01*
X2369Y162D02*
X2448Y162D01*
X968Y161D02*
X1046Y161D01*
X1068Y161D02*
X1146Y161D01*
X1168Y161D02*
X1246Y161D01*
X1268Y161D02*
X1346Y161D01*
X1368Y161D02*
X1447Y161D01*
X1468Y161D02*
X1547Y161D01*
X1568Y161D02*
X1647Y161D01*
X1668Y161D02*
X1747Y161D01*
X1769Y161D02*
X1847Y161D01*
X1869Y161D02*
X1947Y161D01*
X1969Y161D02*
X2047Y161D01*
X2069Y161D02*
X2147Y161D01*
X2169Y161D02*
X2248Y161D01*
X2269Y161D02*
X2348Y161D01*
X2369Y161D02*
X2448Y161D01*
X968Y160D02*
X1046Y160D01*
X1068Y160D02*
X1146Y160D01*
X1168Y160D02*
X1246Y160D01*
X1268Y160D02*
X1346Y160D01*
X1368Y160D02*
X1446Y160D01*
X1469Y160D02*
X1546Y160D01*
X1569Y160D02*
X1646Y160D01*
X1669Y160D02*
X1747Y160D01*
X1769Y160D02*
X1847Y160D01*
X1869Y160D02*
X1947Y160D01*
X1969Y160D02*
X2047Y160D01*
X2069Y160D02*
X2147Y160D01*
X2169Y160D02*
X2247Y160D01*
X2270Y160D02*
X2347Y160D01*
X2370Y160D02*
X2447Y160D01*
X968Y159D02*
X1045Y159D01*
X1068Y159D02*
X1145Y159D01*
X1168Y159D02*
X1246Y159D01*
X1269Y159D02*
X1346Y159D01*
X1369Y159D02*
X1446Y159D01*
X1469Y159D02*
X1546Y159D01*
X1569Y159D02*
X1646Y159D01*
X1669Y159D02*
X1746Y159D01*
X1769Y159D02*
X1846Y159D01*
X1869Y159D02*
X1946Y159D01*
X1970Y159D02*
X2047Y159D01*
X2070Y159D02*
X2147Y159D01*
X2170Y159D02*
X2247Y159D01*
X2270Y159D02*
X2347Y159D01*
X2370Y159D02*
X2447Y159D01*
X969Y158D02*
X1045Y158D01*
X1069Y158D02*
X1145Y158D01*
X1169Y158D02*
X1245Y158D01*
X1269Y158D02*
X1345Y158D01*
X1369Y158D02*
X1445Y158D01*
X1469Y158D02*
X1546Y158D01*
X1569Y158D02*
X1646Y158D01*
X1670Y158D02*
X1746Y158D01*
X1770Y158D02*
X1846Y158D01*
X1870Y158D02*
X1946Y158D01*
X1970Y158D02*
X2046Y158D01*
X2070Y158D02*
X2146Y158D01*
X2170Y158D02*
X2246Y158D01*
X2270Y158D02*
X2347Y158D01*
X2370Y158D02*
X2447Y158D01*
X969Y157D02*
X1044Y157D01*
X1069Y157D02*
X1145Y157D01*
X1169Y157D02*
X1245Y157D01*
X1270Y157D02*
X1345Y157D01*
X1370Y157D02*
X1445Y157D01*
X1470Y157D02*
X1545Y157D01*
X1570Y157D02*
X1645Y157D01*
X1670Y157D02*
X1745Y157D01*
X1770Y157D02*
X1845Y157D01*
X1870Y157D02*
X1946Y157D01*
X1970Y157D02*
X2046Y157D01*
X2071Y157D02*
X2146Y157D01*
X2171Y157D02*
X2246Y157D01*
X2271Y157D02*
X2346Y157D01*
X2371Y157D02*
X2446Y157D01*
X970Y156D02*
X1044Y156D01*
X1070Y156D02*
X1144Y156D01*
X1170Y156D02*
X1244Y156D01*
X1270Y156D02*
X1344Y156D01*
X1370Y156D02*
X1444Y156D01*
X1470Y156D02*
X1545Y156D01*
X1570Y156D02*
X1645Y156D01*
X1671Y156D02*
X1745Y156D01*
X1771Y156D02*
X1845Y156D01*
X1871Y156D02*
X1945Y156D01*
X1971Y156D02*
X2045Y156D01*
X2071Y156D02*
X2145Y156D01*
X2171Y156D02*
X2245Y156D01*
X2271Y156D02*
X2346Y156D01*
X2371Y156D02*
X2446Y156D01*
X970Y155D02*
X1043Y155D01*
X1070Y155D02*
X1144Y155D01*
X1170Y155D02*
X1244Y155D01*
X1270Y155D02*
X1344Y155D01*
X1371Y155D02*
X1444Y155D01*
X1471Y155D02*
X1544Y155D01*
X1571Y155D02*
X1644Y155D01*
X1671Y155D02*
X1744Y155D01*
X1771Y155D02*
X1844Y155D01*
X1871Y155D02*
X1945Y155D01*
X1971Y155D02*
X2045Y155D01*
X2072Y155D02*
X2145Y155D01*
X2172Y155D02*
X2245Y155D01*
X2272Y155D02*
X2345Y155D01*
X2372Y155D02*
X2445Y155D01*
X971Y154D02*
X1043Y154D01*
X1071Y154D02*
X1143Y154D01*
X1171Y154D02*
X1243Y154D01*
X1271Y154D02*
X1343Y154D01*
X1371Y154D02*
X1443Y154D01*
X1471Y154D02*
X1544Y154D01*
X1571Y154D02*
X1644Y154D01*
X1672Y154D02*
X1744Y154D01*
X1772Y154D02*
X1844Y154D01*
X1872Y154D02*
X1944Y154D01*
X1972Y154D02*
X2044Y154D01*
X2072Y154D02*
X2144Y154D01*
X2172Y154D02*
X2244Y154D01*
X2272Y154D02*
X2345Y154D01*
X2372Y154D02*
X2445Y154D01*
X971Y153D02*
X1042Y153D01*
X1071Y153D02*
X1142Y153D01*
X1172Y153D02*
X1243Y153D01*
X1272Y153D02*
X1343Y153D01*
X1372Y153D02*
X1443Y153D01*
X1472Y153D02*
X1543Y153D01*
X1572Y153D02*
X1643Y153D01*
X1672Y153D02*
X1743Y153D01*
X1772Y153D02*
X1843Y153D01*
X1872Y153D02*
X1943Y153D01*
X1973Y153D02*
X2044Y153D01*
X2073Y153D02*
X2144Y153D01*
X2173Y153D02*
X2244Y153D01*
X2273Y153D02*
X2344Y153D01*
X2373Y153D02*
X2444Y153D01*
X972Y152D02*
X1042Y152D01*
X1072Y152D02*
X1142Y152D01*
X1172Y152D02*
X1242Y152D01*
X1272Y152D02*
X1342Y152D01*
X1372Y152D02*
X1442Y152D01*
X1473Y152D02*
X1542Y152D01*
X1573Y152D02*
X1642Y152D01*
X1673Y152D02*
X1743Y152D01*
X1773Y152D02*
X1843Y152D01*
X1873Y152D02*
X1943Y152D01*
X1973Y152D02*
X2043Y152D01*
X2073Y152D02*
X2143Y152D01*
X2173Y152D02*
X2243Y152D01*
X2274Y152D02*
X2343Y152D01*
X2374Y152D02*
X2443Y152D01*
X973Y151D02*
X1041Y151D01*
X1073Y151D02*
X1141Y151D01*
X1173Y151D02*
X1241Y151D01*
X1273Y151D02*
X1341Y151D01*
X1373Y151D02*
X1442Y151D01*
X1473Y151D02*
X1542Y151D01*
X1573Y151D02*
X1642Y151D01*
X1673Y151D02*
X1742Y151D01*
X1774Y151D02*
X1842Y151D01*
X1874Y151D02*
X1942Y151D01*
X1974Y151D02*
X2042Y151D01*
X2074Y151D02*
X2142Y151D01*
X2174Y151D02*
X2243Y151D01*
X2274Y151D02*
X2343Y151D01*
X2374Y151D02*
X2443Y151D01*
X973Y150D02*
X1040Y150D01*
X1073Y150D02*
X1140Y150D01*
X1174Y150D02*
X1241Y150D01*
X1274Y150D02*
X1341Y150D01*
X1374Y150D02*
X1441Y150D01*
X1474Y150D02*
X1541Y150D01*
X1574Y150D02*
X1641Y150D01*
X1674Y150D02*
X1741Y150D01*
X1774Y150D02*
X1841Y150D01*
X1874Y150D02*
X1941Y150D01*
X1975Y150D02*
X2042Y150D01*
X2075Y150D02*
X2142Y150D01*
X2175Y150D02*
X2242Y150D01*
X2275Y150D02*
X2342Y150D01*
X2375Y150D02*
X2442Y150D01*
X974Y149D02*
X1040Y149D01*
X1074Y149D02*
X1140Y149D01*
X1174Y149D02*
X1240Y149D01*
X1274Y149D02*
X1340Y149D01*
X1375Y149D02*
X1440Y149D01*
X1475Y149D02*
X1540Y149D01*
X1575Y149D02*
X1640Y149D01*
X1675Y149D02*
X1740Y149D01*
X1775Y149D02*
X1841Y149D01*
X1875Y149D02*
X1941Y149D01*
X1975Y149D02*
X2041Y149D01*
X2075Y149D02*
X2141Y149D01*
X2176Y149D02*
X2241Y149D01*
X2276Y149D02*
X2341Y149D01*
X2376Y149D02*
X2441Y149D01*
X975Y148D02*
X1039Y148D01*
X1075Y148D02*
X1139Y148D01*
X1175Y148D02*
X1239Y148D01*
X1275Y148D02*
X1339Y148D01*
X1375Y148D02*
X1439Y148D01*
X1475Y148D02*
X1539Y148D01*
X1576Y148D02*
X1640Y148D01*
X1676Y148D02*
X1740Y148D01*
X1776Y148D02*
X1840Y148D01*
X1876Y148D02*
X1940Y148D01*
X1976Y148D02*
X2040Y148D01*
X2076Y148D02*
X2140Y148D01*
X2176Y148D02*
X2240Y148D01*
X2276Y148D02*
X2340Y148D01*
X2377Y148D02*
X2441Y148D01*
X976Y147D02*
X1038Y147D01*
X1076Y147D02*
X1138Y147D01*
X1176Y147D02*
X1238Y147D01*
X1276Y147D02*
X1338Y147D01*
X1376Y147D02*
X1438Y147D01*
X1476Y147D02*
X1539Y147D01*
X1576Y147D02*
X1639Y147D01*
X1677Y147D02*
X1739Y147D01*
X1777Y147D02*
X1839Y147D01*
X1877Y147D02*
X1939Y147D01*
X1977Y147D02*
X2039Y147D01*
X2077Y147D02*
X2139Y147D01*
X2177Y147D02*
X2239Y147D01*
X2277Y147D02*
X2340Y147D01*
X2377Y147D02*
X2440Y147D01*
X976Y146D02*
X1037Y146D01*
X1077Y146D02*
X1137Y146D01*
X1177Y146D02*
X1237Y146D01*
X1277Y146D02*
X1337Y146D01*
X1377Y146D02*
X1438Y146D01*
X1477Y146D02*
X1538Y146D01*
X1577Y146D02*
X1638Y146D01*
X1677Y146D02*
X1738Y146D01*
X1778Y146D02*
X1838Y146D01*
X1878Y146D02*
X1938Y146D01*
X1978Y146D02*
X2038Y146D01*
X2078Y146D02*
X2138Y146D01*
X2178Y146D02*
X2239Y146D01*
X2278Y146D02*
X2339Y146D01*
X2378Y146D02*
X2439Y146D01*
X977Y145D02*
X1036Y145D01*
X1078Y145D02*
X1136Y145D01*
X1178Y145D02*
X1236Y145D01*
X1278Y145D02*
X1337Y145D01*
X1378Y145D02*
X1437Y145D01*
X1478Y145D02*
X1537Y145D01*
X1578Y145D02*
X1637Y145D01*
X1678Y145D02*
X1737Y145D01*
X1778Y145D02*
X1837Y145D01*
X1879Y145D02*
X1937Y145D01*
X1979Y145D02*
X2037Y145D01*
X2079Y145D02*
X2138Y145D01*
X2179Y145D02*
X2238Y145D01*
X2279Y145D02*
X2338Y145D01*
X2379Y145D02*
X2438Y145D01*
X978Y144D02*
X1035Y144D01*
X1079Y144D02*
X1135Y144D01*
X1179Y144D02*
X1235Y144D01*
X1279Y144D02*
X1335Y144D01*
X1379Y144D02*
X1436Y144D01*
X1479Y144D02*
X1536Y144D01*
X1579Y144D02*
X1636Y144D01*
X1679Y144D02*
X1736Y144D01*
X1779Y144D02*
X1836Y144D01*
X1880Y144D02*
X1936Y144D01*
X1980Y144D02*
X2036Y144D01*
X2080Y144D02*
X2137Y144D01*
X2180Y144D02*
X2237Y144D01*
X2280Y144D02*
X2337Y144D01*
X2380Y144D02*
X2437Y144D01*
X980Y143D02*
X1034Y143D01*
X1080Y143D02*
X1134Y143D01*
X1180Y143D02*
X1234Y143D01*
X1280Y143D02*
X1334Y143D01*
X1380Y143D02*
X1434Y143D01*
X1480Y143D02*
X1535Y143D01*
X1580Y143D02*
X1635Y143D01*
X1680Y143D02*
X1735Y143D01*
X1781Y143D02*
X1835Y143D01*
X1881Y143D02*
X1935Y143D01*
X1981Y143D02*
X2035Y143D01*
X2081Y143D02*
X2135Y143D01*
X2181Y143D02*
X2236Y143D01*
X2281Y143D02*
X2336Y143D01*
X2381Y143D02*
X2436Y143D01*
X981Y142D02*
X1033Y142D01*
X1081Y142D02*
X1133Y142D01*
X1181Y142D02*
X1233Y142D01*
X1281Y142D02*
X1333Y142D01*
X1381Y142D02*
X1433Y142D01*
X1481Y142D02*
X1533Y142D01*
X1582Y142D02*
X1634Y142D01*
X1682Y142D02*
X1734Y142D01*
X1782Y142D02*
X1834Y142D01*
X1882Y142D02*
X1934Y142D01*
X1982Y142D02*
X2034Y142D01*
X2082Y142D02*
X2134Y142D01*
X2182Y142D02*
X2234Y142D01*
X2282Y142D02*
X2334Y142D01*
X2383Y142D02*
X2435Y142D01*
X982Y141D02*
X1031Y141D01*
X1082Y141D02*
X1132Y141D01*
X1182Y141D02*
X1232Y141D01*
X1282Y141D02*
X1332Y141D01*
X1383Y141D02*
X1432Y141D01*
X1483Y141D02*
X1532Y141D01*
X1583Y141D02*
X1632Y141D01*
X1683Y141D02*
X1732Y141D01*
X1783Y141D02*
X1832Y141D01*
X1883Y141D02*
X1933Y141D01*
X1983Y141D02*
X2033Y141D01*
X2084Y141D02*
X2133Y141D01*
X2184Y141D02*
X2233Y141D01*
X2284Y141D02*
X2333Y141D01*
X2384Y141D02*
X2433Y141D01*
X983Y140D02*
X1030Y140D01*
X1084Y140D02*
X1130Y140D01*
X1184Y140D02*
X1230Y140D01*
X1284Y140D02*
X1330Y140D01*
X1384Y140D02*
X1431Y140D01*
X1484Y140D02*
X1531Y140D01*
X1584Y140D02*
X1631Y140D01*
X1684Y140D02*
X1731Y140D01*
X1785Y140D02*
X1831Y140D01*
X1885Y140D02*
X1931Y140D01*
X1985Y140D02*
X2031Y140D01*
X2085Y140D02*
X2132Y140D01*
X2185Y140D02*
X2232Y140D01*
X2285Y140D02*
X2332Y140D01*
X2385Y140D02*
X2432Y140D01*
X985Y139D02*
X1028Y139D01*
X1085Y139D02*
X1129Y139D01*
X1185Y139D02*
X1229Y139D01*
X1285Y139D02*
X1329Y139D01*
X1386Y139D02*
X1429Y139D01*
X1486Y139D02*
X1529Y139D01*
X1586Y139D02*
X1629Y139D01*
X1686Y139D02*
X1729Y139D01*
X1786Y139D02*
X1830Y139D01*
X1886Y139D02*
X1930Y139D01*
X1986Y139D02*
X2030Y139D01*
X2086Y139D02*
X2130Y139D01*
X2187Y139D02*
X2230Y139D01*
X2287Y139D02*
X2330Y139D01*
X2387Y139D02*
X2430Y139D01*
X987Y138D02*
X1027Y138D01*
X1087Y138D02*
X1127Y138D01*
X1187Y138D02*
X1227Y138D01*
X1287Y138D02*
X1327Y138D01*
X1387Y138D02*
X1427Y138D01*
X1487Y138D02*
X1528Y138D01*
X1587Y138D02*
X1628Y138D01*
X1688Y138D02*
X1728Y138D01*
X1788Y138D02*
X1828Y138D01*
X1888Y138D02*
X1928Y138D01*
X1988Y138D02*
X2028Y138D01*
X2088Y138D02*
X2128Y138D01*
X2188Y138D02*
X2228Y138D01*
X2288Y138D02*
X2329Y138D01*
X2388Y138D02*
X2429Y138D01*
X989Y137D02*
X1025Y137D01*
X1089Y137D02*
X1125Y137D01*
X1189Y137D02*
X1225Y137D01*
X1289Y137D02*
X1325Y137D01*
X1389Y137D02*
X1426Y137D01*
X1489Y137D02*
X1526Y137D01*
X1589Y137D02*
X1626Y137D01*
X1689Y137D02*
X1726Y137D01*
X1790Y137D02*
X1826Y137D01*
X1890Y137D02*
X1926Y137D01*
X1990Y137D02*
X2026Y137D01*
X2090Y137D02*
X2126Y137D01*
X2190Y137D02*
X2227Y137D01*
X2290Y137D02*
X2327Y137D01*
X2390Y137D02*
X2427Y137D01*
X991Y136D02*
X1023Y136D01*
X1091Y136D02*
X1123Y136D01*
X1191Y136D02*
X1223Y136D01*
X1291Y136D02*
X1323Y136D01*
X1391Y136D02*
X1423Y136D01*
X1491Y136D02*
X1524Y136D01*
X1591Y136D02*
X1624Y136D01*
X1691Y136D02*
X1724Y136D01*
X1792Y136D02*
X1824Y136D01*
X1892Y136D02*
X1924Y136D01*
X1992Y136D02*
X2024Y136D01*
X2092Y136D02*
X2124Y136D01*
X2192Y136D02*
X2225Y136D01*
X2292Y136D02*
X2325Y136D01*
X2392Y136D02*
X2425Y136D01*
X993Y135D02*
X1020Y135D01*
X1093Y135D02*
X1120Y135D01*
X1193Y135D02*
X1221Y135D01*
X1294Y135D02*
X1321Y135D01*
X1394Y135D02*
X1421Y135D01*
X1494Y135D02*
X1521Y135D01*
X1594Y135D02*
X1621Y135D01*
X1694Y135D02*
X1721Y135D01*
X1794Y135D02*
X1821Y135D01*
X1894Y135D02*
X1921Y135D01*
X1995Y135D02*
X2022Y135D01*
X2095Y135D02*
X2122Y135D01*
X2195Y135D02*
X2222Y135D01*
X2295Y135D02*
X2322Y135D01*
X2395Y135D02*
X2422Y135D01*
X997Y134D02*
X1017Y134D01*
X1097Y134D02*
X1117Y134D01*
X1197Y134D02*
X1217Y134D01*
X1297Y134D02*
X1317Y134D01*
X1397Y134D02*
X1417Y134D01*
X1497Y134D02*
X1518Y134D01*
X1597Y134D02*
X1618Y134D01*
X1698Y134D02*
X1718Y134D01*
X1798Y134D02*
X1818Y134D01*
X1898Y134D02*
X1918Y134D01*
X1998Y134D02*
X2018Y134D01*
X2098Y134D02*
X2118Y134D01*
X2198Y134D02*
X2218Y134D01*
X2298Y134D02*
X2319Y134D01*
X2398Y134D02*
X2419Y134D01*
X1002Y133D02*
X1012Y133D01*
X1102Y133D02*
X1112Y133D01*
X1202Y133D02*
X1212Y133D01*
X1302Y133D02*
X1312Y133D01*
X1402Y133D02*
X1412Y133D01*
X1502Y133D02*
X1513Y133D01*
X1602Y133D02*
X1613Y133D01*
X1703Y133D02*
X1713Y133D01*
X1803Y133D02*
X1813Y133D01*
X1903Y133D02*
X1913Y133D01*
X2003Y133D02*
X2013Y133D01*
X2103Y133D02*
X2113Y133D01*
X2203Y133D02*
X2213Y133D01*
X2303Y133D02*
X2314Y133D01*
X2403Y133D02*
X2414Y133D01*
D02*
G04 End of Mask1*
M02*