; NON-PLATED HOLES START AT T1
; THROUGH (PLATED) HOLES START AT T100
M48
INCH
T100C0.040000
T101C0.025000
T102C0.015748
T103C0.035050
%
T100
X032222Y001359
X025222Y001359
T101
X031010Y007359
X029436Y007359
X030222Y007359
X028648Y007359
T102
X031320Y002239
X024360Y000799
X027240Y001999
T103
X005555Y012374
X008559Y002359
X009561Y002359
X003552Y012374
X004554Y002359
X010562Y002359
X007558Y012374
X016571Y002359
X008559Y012374
X014568Y012374
X004554Y012374
X007558Y002359
X014568Y002359
X006556Y002359
X017572Y002359
X012565Y002359
X015570Y012374
X012565Y012374
X013567Y002359
X016571Y012374
X003552Y002359
X006556Y012374
X009561Y012374
X011564Y012374
X015570Y002359
X010562Y012374
X011564Y002359
X017572Y012374
X005555Y002359
X013567Y012374
T00
M30
