G04 MADE WITH FRITZING*
G04 WWW.FRITZING.ORG*
G04 DOUBLE SIDED*
G04 HOLES PLATED*
G04 CONTOUR ON CENTER OF CONTOUR VECTOR*
%ASAXBY*%
%FSLAX23Y23*%
%MOIN*%
%OFA0B0*%
%SFA1.0B1.0*%
%ADD10C,0.049370*%
%ADD11C,0.084000*%
%ADD12C,0.075000*%
%ADD13R,0.001000X0.001000*%
%LNMASK1*%
G90*
G70*
G54D10*
X2436Y80D03*
X2724Y200D03*
X3132Y224D03*
G54D11*
X3222Y136D03*
X2522Y136D03*
X3222Y136D03*
X2522Y136D03*
G54D12*
X3101Y736D03*
X3022Y736D03*
X2944Y736D03*
X2865Y736D03*
X3101Y736D03*
X3022Y736D03*
X2944Y736D03*
X2865Y736D03*
G54D13*
X353Y1280D02*
X356Y1280D01*
X454Y1280D02*
X456Y1280D01*
X554Y1280D02*
X556Y1280D01*
X654Y1280D02*
X656Y1280D01*
X754Y1280D02*
X756Y1280D01*
X854Y1280D02*
X857Y1280D01*
X954Y1280D02*
X957Y1280D01*
X1054Y1280D02*
X1057Y1280D01*
X1155Y1280D02*
X1157Y1280D01*
X1255Y1280D02*
X1257Y1280D01*
X1355Y1280D02*
X1357Y1280D01*
X1455Y1280D02*
X1457Y1280D01*
X1555Y1280D02*
X1557Y1280D01*
X1655Y1280D02*
X1658Y1280D01*
X1755Y1280D02*
X1758Y1280D01*
X346Y1279D02*
X363Y1279D01*
X446Y1279D02*
X464Y1279D01*
X546Y1279D02*
X564Y1279D01*
X646Y1279D02*
X664Y1279D01*
X747Y1279D02*
X764Y1279D01*
X847Y1279D02*
X864Y1279D01*
X947Y1279D02*
X964Y1279D01*
X1047Y1279D02*
X1064Y1279D01*
X1147Y1279D02*
X1164Y1279D01*
X1247Y1279D02*
X1265Y1279D01*
X1347Y1279D02*
X1365Y1279D01*
X1447Y1279D02*
X1465Y1279D01*
X1548Y1279D02*
X1565Y1279D01*
X1648Y1279D02*
X1665Y1279D01*
X1748Y1279D02*
X1765Y1279D01*
X342Y1278D02*
X367Y1278D01*
X442Y1278D02*
X467Y1278D01*
X542Y1278D02*
X567Y1278D01*
X643Y1278D02*
X668Y1278D01*
X743Y1278D02*
X768Y1278D01*
X843Y1278D02*
X868Y1278D01*
X943Y1278D02*
X968Y1278D01*
X1043Y1278D02*
X1068Y1278D01*
X1143Y1278D02*
X1168Y1278D01*
X1243Y1278D02*
X1268Y1278D01*
X1344Y1278D02*
X1368Y1278D01*
X1444Y1278D02*
X1469Y1278D01*
X1544Y1278D02*
X1569Y1278D01*
X1644Y1278D02*
X1669Y1278D01*
X1744Y1278D02*
X1769Y1278D01*
X339Y1277D02*
X370Y1277D01*
X440Y1277D02*
X470Y1277D01*
X540Y1277D02*
X570Y1277D01*
X640Y1277D02*
X670Y1277D01*
X740Y1277D02*
X770Y1277D01*
X840Y1277D02*
X871Y1277D01*
X940Y1277D02*
X971Y1277D01*
X1040Y1277D02*
X1071Y1277D01*
X1140Y1277D02*
X1171Y1277D01*
X1241Y1277D02*
X1271Y1277D01*
X1341Y1277D02*
X1371Y1277D01*
X1441Y1277D02*
X1471Y1277D01*
X1541Y1277D02*
X1572Y1277D01*
X1641Y1277D02*
X1672Y1277D01*
X1741Y1277D02*
X1772Y1277D01*
X337Y1276D02*
X372Y1276D01*
X437Y1276D02*
X472Y1276D01*
X538Y1276D02*
X572Y1276D01*
X638Y1276D02*
X673Y1276D01*
X738Y1276D02*
X773Y1276D01*
X838Y1276D02*
X873Y1276D01*
X938Y1276D02*
X973Y1276D01*
X1038Y1276D02*
X1073Y1276D01*
X1138Y1276D02*
X1173Y1276D01*
X1238Y1276D02*
X1273Y1276D01*
X1339Y1276D02*
X1373Y1276D01*
X1439Y1276D02*
X1474Y1276D01*
X1539Y1276D02*
X1574Y1276D01*
X1639Y1276D02*
X1674Y1276D01*
X1739Y1276D02*
X1774Y1276D01*
X335Y1275D02*
X374Y1275D01*
X435Y1275D02*
X474Y1275D01*
X536Y1275D02*
X574Y1275D01*
X636Y1275D02*
X675Y1275D01*
X736Y1275D02*
X775Y1275D01*
X836Y1275D02*
X875Y1275D01*
X936Y1275D02*
X975Y1275D01*
X1036Y1275D02*
X1075Y1275D01*
X1136Y1275D02*
X1175Y1275D01*
X1236Y1275D02*
X1275Y1275D01*
X1337Y1275D02*
X1375Y1275D01*
X1437Y1275D02*
X1476Y1275D01*
X1537Y1275D02*
X1576Y1275D01*
X1637Y1275D02*
X1676Y1275D01*
X1737Y1275D02*
X1776Y1275D01*
X334Y1274D02*
X376Y1274D01*
X434Y1274D02*
X476Y1274D01*
X534Y1274D02*
X576Y1274D01*
X634Y1274D02*
X676Y1274D01*
X734Y1274D02*
X776Y1274D01*
X834Y1274D02*
X876Y1274D01*
X934Y1274D02*
X977Y1274D01*
X1034Y1274D02*
X1077Y1274D01*
X1135Y1274D02*
X1177Y1274D01*
X1235Y1274D02*
X1277Y1274D01*
X1335Y1274D02*
X1377Y1274D01*
X1435Y1274D02*
X1477Y1274D01*
X1535Y1274D02*
X1577Y1274D01*
X1635Y1274D02*
X1678Y1274D01*
X1735Y1274D02*
X1778Y1274D01*
X332Y1273D02*
X377Y1273D01*
X432Y1273D02*
X478Y1273D01*
X532Y1273D02*
X578Y1273D01*
X632Y1273D02*
X678Y1273D01*
X732Y1273D02*
X778Y1273D01*
X833Y1273D02*
X878Y1273D01*
X933Y1273D02*
X978Y1273D01*
X1033Y1273D02*
X1078Y1273D01*
X1133Y1273D02*
X1178Y1273D01*
X1233Y1273D02*
X1279Y1273D01*
X1333Y1273D02*
X1379Y1273D01*
X1433Y1273D02*
X1479Y1273D01*
X1534Y1273D02*
X1579Y1273D01*
X1634Y1273D02*
X1679Y1273D01*
X1734Y1273D02*
X1779Y1273D01*
X331Y1272D02*
X379Y1272D01*
X431Y1272D02*
X479Y1272D01*
X531Y1272D02*
X579Y1272D01*
X631Y1272D02*
X679Y1272D01*
X731Y1272D02*
X779Y1272D01*
X831Y1272D02*
X880Y1272D01*
X931Y1272D02*
X980Y1272D01*
X1031Y1272D02*
X1080Y1272D01*
X1132Y1272D02*
X1180Y1272D01*
X1232Y1272D02*
X1280Y1272D01*
X1332Y1272D02*
X1380Y1272D01*
X1432Y1272D02*
X1480Y1272D01*
X1532Y1272D02*
X1580Y1272D01*
X1632Y1272D02*
X1681Y1272D01*
X1732Y1272D02*
X1781Y1272D01*
X329Y1271D02*
X380Y1271D01*
X429Y1271D02*
X480Y1271D01*
X529Y1271D02*
X580Y1271D01*
X630Y1271D02*
X681Y1271D01*
X730Y1271D02*
X781Y1271D01*
X830Y1271D02*
X881Y1271D01*
X930Y1271D02*
X981Y1271D01*
X1030Y1271D02*
X1081Y1271D01*
X1130Y1271D02*
X1181Y1271D01*
X1230Y1271D02*
X1281Y1271D01*
X1331Y1271D02*
X1382Y1271D01*
X1431Y1271D02*
X1482Y1271D01*
X1531Y1271D02*
X1582Y1271D01*
X1631Y1271D02*
X1682Y1271D01*
X1731Y1271D02*
X1782Y1271D01*
X328Y1270D02*
X381Y1270D01*
X428Y1270D02*
X482Y1270D01*
X528Y1270D02*
X582Y1270D01*
X628Y1270D02*
X682Y1270D01*
X728Y1270D02*
X782Y1270D01*
X829Y1270D02*
X882Y1270D01*
X929Y1270D02*
X982Y1270D01*
X1029Y1270D02*
X1082Y1270D01*
X1129Y1270D02*
X1182Y1270D01*
X1229Y1270D02*
X1283Y1270D01*
X1329Y1270D02*
X1383Y1270D01*
X1429Y1270D02*
X1483Y1270D01*
X1530Y1270D02*
X1583Y1270D01*
X1630Y1270D02*
X1683Y1270D01*
X1730Y1270D02*
X1783Y1270D01*
X327Y1269D02*
X383Y1269D01*
X427Y1269D02*
X483Y1269D01*
X527Y1269D02*
X583Y1269D01*
X627Y1269D02*
X683Y1269D01*
X727Y1269D02*
X783Y1269D01*
X827Y1269D02*
X883Y1269D01*
X928Y1269D02*
X983Y1269D01*
X1028Y1269D02*
X1083Y1269D01*
X1128Y1269D02*
X1184Y1269D01*
X1228Y1269D02*
X1284Y1269D01*
X1328Y1269D02*
X1384Y1269D01*
X1428Y1269D02*
X1484Y1269D01*
X1528Y1269D02*
X1584Y1269D01*
X1629Y1269D02*
X1684Y1269D01*
X1729Y1269D02*
X1784Y1269D01*
X326Y1268D02*
X384Y1268D01*
X426Y1268D02*
X484Y1268D01*
X526Y1268D02*
X584Y1268D01*
X626Y1268D02*
X684Y1268D01*
X726Y1268D02*
X784Y1268D01*
X826Y1268D02*
X884Y1268D01*
X927Y1268D02*
X984Y1268D01*
X1027Y1268D02*
X1085Y1268D01*
X1127Y1268D02*
X1185Y1268D01*
X1227Y1268D02*
X1285Y1268D01*
X1327Y1268D02*
X1385Y1268D01*
X1427Y1268D02*
X1485Y1268D01*
X1527Y1268D02*
X1585Y1268D01*
X1627Y1268D02*
X1685Y1268D01*
X1728Y1268D02*
X1786Y1268D01*
X325Y1267D02*
X385Y1267D01*
X425Y1267D02*
X485Y1267D01*
X525Y1267D02*
X585Y1267D01*
X625Y1267D02*
X685Y1267D01*
X725Y1267D02*
X785Y1267D01*
X825Y1267D02*
X885Y1267D01*
X926Y1267D02*
X985Y1267D01*
X1026Y1267D02*
X1086Y1267D01*
X1126Y1267D02*
X1186Y1267D01*
X1226Y1267D02*
X1286Y1267D01*
X1326Y1267D02*
X1386Y1267D01*
X1426Y1267D02*
X1486Y1267D01*
X1526Y1267D02*
X1586Y1267D01*
X1626Y1267D02*
X1686Y1267D01*
X1727Y1267D02*
X1786Y1267D01*
X324Y1266D02*
X386Y1266D01*
X424Y1266D02*
X486Y1266D01*
X524Y1266D02*
X586Y1266D01*
X624Y1266D02*
X686Y1266D01*
X724Y1266D02*
X786Y1266D01*
X825Y1266D02*
X886Y1266D01*
X925Y1266D02*
X986Y1266D01*
X1025Y1266D02*
X1086Y1266D01*
X1125Y1266D02*
X1187Y1266D01*
X1225Y1266D02*
X1287Y1266D01*
X1325Y1266D02*
X1387Y1266D01*
X1425Y1266D02*
X1487Y1266D01*
X1525Y1266D02*
X1587Y1266D01*
X1626Y1266D02*
X1687Y1266D01*
X1726Y1266D02*
X1787Y1266D01*
X323Y1265D02*
X386Y1265D01*
X423Y1265D02*
X487Y1265D01*
X523Y1265D02*
X587Y1265D01*
X623Y1265D02*
X687Y1265D01*
X724Y1265D02*
X787Y1265D01*
X824Y1265D02*
X887Y1265D01*
X924Y1265D02*
X987Y1265D01*
X1024Y1265D02*
X1087Y1265D01*
X1124Y1265D02*
X1187Y1265D01*
X1224Y1265D02*
X1288Y1265D01*
X1324Y1265D02*
X1388Y1265D01*
X1424Y1265D02*
X1488Y1265D01*
X1525Y1265D02*
X1588Y1265D01*
X1625Y1265D02*
X1688Y1265D01*
X1725Y1265D02*
X1788Y1265D01*
X322Y1264D02*
X387Y1264D01*
X422Y1264D02*
X487Y1264D01*
X522Y1264D02*
X587Y1264D01*
X623Y1264D02*
X688Y1264D01*
X723Y1264D02*
X788Y1264D01*
X823Y1264D02*
X888Y1264D01*
X923Y1264D02*
X988Y1264D01*
X1023Y1264D02*
X1088Y1264D01*
X1123Y1264D02*
X1188Y1264D01*
X1223Y1264D02*
X1288Y1264D01*
X1324Y1264D02*
X1388Y1264D01*
X1424Y1264D02*
X1489Y1264D01*
X1524Y1264D02*
X1589Y1264D01*
X1624Y1264D02*
X1689Y1264D01*
X1724Y1264D02*
X1789Y1264D01*
X321Y1263D02*
X388Y1263D01*
X422Y1263D02*
X488Y1263D01*
X522Y1263D02*
X588Y1263D01*
X622Y1263D02*
X688Y1263D01*
X722Y1263D02*
X788Y1263D01*
X822Y1263D02*
X889Y1263D01*
X922Y1263D02*
X989Y1263D01*
X1022Y1263D02*
X1089Y1263D01*
X1123Y1263D02*
X1189Y1263D01*
X1223Y1263D02*
X1289Y1263D01*
X1323Y1263D02*
X1389Y1263D01*
X1423Y1263D02*
X1489Y1263D01*
X1523Y1263D02*
X1589Y1263D01*
X1623Y1263D02*
X1690Y1263D01*
X1723Y1263D02*
X1790Y1263D01*
X321Y1262D02*
X389Y1262D01*
X421Y1262D02*
X489Y1262D01*
X521Y1262D02*
X589Y1262D01*
X621Y1262D02*
X689Y1262D01*
X721Y1262D02*
X789Y1262D01*
X821Y1262D02*
X889Y1262D01*
X922Y1262D02*
X989Y1262D01*
X1022Y1262D02*
X1090Y1262D01*
X1122Y1262D02*
X1190Y1262D01*
X1222Y1262D02*
X1290Y1262D01*
X1322Y1262D02*
X1390Y1262D01*
X1422Y1262D02*
X1490Y1262D01*
X1522Y1262D02*
X1590Y1262D01*
X1622Y1262D02*
X1690Y1262D01*
X1723Y1262D02*
X1790Y1262D01*
X320Y1261D02*
X389Y1261D01*
X420Y1261D02*
X489Y1261D01*
X520Y1261D02*
X590Y1261D01*
X620Y1261D02*
X690Y1261D01*
X721Y1261D02*
X790Y1261D01*
X821Y1261D02*
X890Y1261D01*
X921Y1261D02*
X990Y1261D01*
X1021Y1261D02*
X1090Y1261D01*
X1121Y1261D02*
X1190Y1261D01*
X1221Y1261D02*
X1291Y1261D01*
X1321Y1261D02*
X1391Y1261D01*
X1422Y1261D02*
X1491Y1261D01*
X1522Y1261D02*
X1591Y1261D01*
X1622Y1261D02*
X1691Y1261D01*
X1722Y1261D02*
X1791Y1261D01*
X319Y1260D02*
X390Y1260D01*
X420Y1260D02*
X490Y1260D01*
X520Y1260D02*
X590Y1260D01*
X620Y1260D02*
X690Y1260D01*
X720Y1260D02*
X790Y1260D01*
X820Y1260D02*
X891Y1260D01*
X920Y1260D02*
X991Y1260D01*
X1020Y1260D02*
X1091Y1260D01*
X1120Y1260D02*
X1191Y1260D01*
X1221Y1260D02*
X1291Y1260D01*
X1321Y1260D02*
X1391Y1260D01*
X1421Y1260D02*
X1491Y1260D01*
X1521Y1260D02*
X1592Y1260D01*
X1621Y1260D02*
X1692Y1260D01*
X1721Y1260D02*
X1792Y1260D01*
X319Y1259D02*
X391Y1259D01*
X419Y1259D02*
X491Y1259D01*
X519Y1259D02*
X591Y1259D01*
X619Y1259D02*
X691Y1259D01*
X719Y1259D02*
X791Y1259D01*
X819Y1259D02*
X891Y1259D01*
X920Y1259D02*
X991Y1259D01*
X1020Y1259D02*
X1091Y1259D01*
X1120Y1259D02*
X1192Y1259D01*
X1220Y1259D02*
X1292Y1259D01*
X1320Y1259D02*
X1392Y1259D01*
X1420Y1259D02*
X1492Y1259D01*
X1520Y1259D02*
X1592Y1259D01*
X1621Y1259D02*
X1692Y1259D01*
X1721Y1259D02*
X1792Y1259D01*
X318Y1258D02*
X391Y1258D01*
X418Y1258D02*
X491Y1258D01*
X519Y1258D02*
X591Y1258D01*
X619Y1258D02*
X692Y1258D01*
X719Y1258D02*
X792Y1258D01*
X819Y1258D02*
X892Y1258D01*
X919Y1258D02*
X992Y1258D01*
X1019Y1258D02*
X1092Y1258D01*
X1119Y1258D02*
X1192Y1258D01*
X1219Y1258D02*
X1292Y1258D01*
X1320Y1258D02*
X1392Y1258D01*
X1420Y1258D02*
X1493Y1258D01*
X1520Y1258D02*
X1593Y1258D01*
X1620Y1258D02*
X1693Y1258D01*
X1720Y1258D02*
X1793Y1258D01*
X318Y1257D02*
X392Y1257D01*
X418Y1257D02*
X492Y1257D01*
X518Y1257D02*
X592Y1257D01*
X618Y1257D02*
X692Y1257D01*
X718Y1257D02*
X792Y1257D01*
X818Y1257D02*
X892Y1257D01*
X919Y1257D02*
X992Y1257D01*
X1019Y1257D02*
X1093Y1257D01*
X1119Y1257D02*
X1193Y1257D01*
X1219Y1257D02*
X1293Y1257D01*
X1319Y1257D02*
X1393Y1257D01*
X1419Y1257D02*
X1493Y1257D01*
X1519Y1257D02*
X1593Y1257D01*
X1619Y1257D02*
X1693Y1257D01*
X1720Y1257D02*
X1794Y1257D01*
X317Y1256D02*
X392Y1256D01*
X417Y1256D02*
X492Y1256D01*
X518Y1256D02*
X592Y1256D01*
X618Y1256D02*
X693Y1256D01*
X718Y1256D02*
X793Y1256D01*
X818Y1256D02*
X893Y1256D01*
X918Y1256D02*
X993Y1256D01*
X1018Y1256D02*
X1093Y1256D01*
X1118Y1256D02*
X1193Y1256D01*
X1218Y1256D02*
X1293Y1256D01*
X1319Y1256D02*
X1393Y1256D01*
X1419Y1256D02*
X1494Y1256D01*
X1519Y1256D02*
X1594Y1256D01*
X1619Y1256D02*
X1694Y1256D01*
X1719Y1256D02*
X1794Y1256D01*
X317Y1255D02*
X393Y1255D01*
X417Y1255D02*
X493Y1255D01*
X517Y1255D02*
X593Y1255D01*
X617Y1255D02*
X693Y1255D01*
X717Y1255D02*
X793Y1255D01*
X817Y1255D02*
X893Y1255D01*
X918Y1255D02*
X993Y1255D01*
X1018Y1255D02*
X1094Y1255D01*
X1118Y1255D02*
X1194Y1255D01*
X1218Y1255D02*
X1294Y1255D01*
X1318Y1255D02*
X1394Y1255D01*
X1418Y1255D02*
X1494Y1255D01*
X1518Y1255D02*
X1594Y1255D01*
X1618Y1255D02*
X1694Y1255D01*
X1719Y1255D02*
X1794Y1255D01*
X316Y1254D02*
X393Y1254D01*
X416Y1254D02*
X493Y1254D01*
X517Y1254D02*
X593Y1254D01*
X617Y1254D02*
X693Y1254D01*
X717Y1254D02*
X794Y1254D01*
X817Y1254D02*
X894Y1254D01*
X917Y1254D02*
X994Y1254D01*
X1017Y1254D02*
X1094Y1254D01*
X1117Y1254D02*
X1194Y1254D01*
X1217Y1254D02*
X1294Y1254D01*
X1318Y1254D02*
X1394Y1254D01*
X1418Y1254D02*
X1495Y1254D01*
X1518Y1254D02*
X1595Y1254D01*
X1618Y1254D02*
X1695Y1254D01*
X1718Y1254D02*
X1795Y1254D01*
X316Y1253D02*
X393Y1253D01*
X416Y1253D02*
X494Y1253D01*
X516Y1253D02*
X594Y1253D01*
X616Y1253D02*
X694Y1253D01*
X716Y1253D02*
X794Y1253D01*
X817Y1253D02*
X894Y1253D01*
X917Y1253D02*
X994Y1253D01*
X1017Y1253D02*
X1094Y1253D01*
X1117Y1253D02*
X1194Y1253D01*
X1217Y1253D02*
X1295Y1253D01*
X1317Y1253D02*
X1395Y1253D01*
X1417Y1253D02*
X1495Y1253D01*
X1518Y1253D02*
X1595Y1253D01*
X1618Y1253D02*
X1695Y1253D01*
X1718Y1253D02*
X1795Y1253D01*
X316Y1252D02*
X394Y1252D01*
X416Y1252D02*
X494Y1252D01*
X516Y1252D02*
X594Y1252D01*
X616Y1252D02*
X694Y1252D01*
X716Y1252D02*
X794Y1252D01*
X816Y1252D02*
X894Y1252D01*
X916Y1252D02*
X995Y1252D01*
X1017Y1252D02*
X1095Y1252D01*
X1117Y1252D02*
X1195Y1252D01*
X1217Y1252D02*
X1295Y1252D01*
X1317Y1252D02*
X1395Y1252D01*
X1417Y1252D02*
X1495Y1252D01*
X1517Y1252D02*
X1595Y1252D01*
X1617Y1252D02*
X1696Y1252D01*
X1717Y1252D02*
X1796Y1252D01*
X315Y1251D02*
X394Y1251D01*
X415Y1251D02*
X494Y1251D01*
X516Y1251D02*
X594Y1251D01*
X616Y1251D02*
X695Y1251D01*
X716Y1251D02*
X795Y1251D01*
X816Y1251D02*
X895Y1251D01*
X916Y1251D02*
X995Y1251D01*
X1016Y1251D02*
X1095Y1251D01*
X1116Y1251D02*
X1195Y1251D01*
X1216Y1251D02*
X1295Y1251D01*
X1317Y1251D02*
X1395Y1251D01*
X1417Y1251D02*
X1496Y1251D01*
X1517Y1251D02*
X1596Y1251D01*
X1617Y1251D02*
X1696Y1251D01*
X1717Y1251D02*
X1796Y1251D01*
X315Y1250D02*
X394Y1250D01*
X415Y1250D02*
X495Y1250D01*
X515Y1250D02*
X595Y1250D01*
X615Y1250D02*
X695Y1250D01*
X715Y1250D02*
X795Y1250D01*
X816Y1250D02*
X895Y1250D01*
X916Y1250D02*
X995Y1250D01*
X1016Y1250D02*
X1095Y1250D01*
X1116Y1250D02*
X1195Y1250D01*
X1216Y1250D02*
X1296Y1250D01*
X1316Y1250D02*
X1396Y1250D01*
X1416Y1250D02*
X1496Y1250D01*
X1517Y1250D02*
X1596Y1250D01*
X1617Y1250D02*
X1696Y1250D01*
X1717Y1250D02*
X1796Y1250D01*
X315Y1249D02*
X395Y1249D01*
X415Y1249D02*
X495Y1249D01*
X515Y1249D02*
X595Y1249D01*
X615Y1249D02*
X695Y1249D01*
X715Y1249D02*
X795Y1249D01*
X815Y1249D02*
X895Y1249D01*
X915Y1249D02*
X995Y1249D01*
X1016Y1249D02*
X1096Y1249D01*
X1116Y1249D02*
X1196Y1249D01*
X1216Y1249D02*
X1296Y1249D01*
X1316Y1249D02*
X1396Y1249D01*
X1416Y1249D02*
X1496Y1249D01*
X1516Y1249D02*
X1596Y1249D01*
X1616Y1249D02*
X1696Y1249D01*
X1717Y1249D02*
X1797Y1249D01*
X314Y1248D02*
X395Y1248D01*
X415Y1248D02*
X495Y1248D01*
X515Y1248D02*
X595Y1248D01*
X615Y1248D02*
X695Y1248D01*
X715Y1248D02*
X795Y1248D01*
X815Y1248D02*
X896Y1248D01*
X915Y1248D02*
X996Y1248D01*
X1015Y1248D02*
X1096Y1248D01*
X1116Y1248D02*
X1196Y1248D01*
X1216Y1248D02*
X1296Y1248D01*
X1316Y1248D02*
X1396Y1248D01*
X1416Y1248D02*
X1496Y1248D01*
X1516Y1248D02*
X1597Y1248D01*
X1616Y1248D02*
X1697Y1248D01*
X1716Y1248D02*
X1797Y1248D01*
X314Y1247D02*
X395Y1247D01*
X414Y1247D02*
X495Y1247D01*
X514Y1247D02*
X595Y1247D01*
X615Y1247D02*
X696Y1247D01*
X715Y1247D02*
X796Y1247D01*
X815Y1247D02*
X896Y1247D01*
X915Y1247D02*
X996Y1247D01*
X1015Y1247D02*
X1096Y1247D01*
X1115Y1247D02*
X1196Y1247D01*
X1215Y1247D02*
X1296Y1247D01*
X1316Y1247D02*
X1397Y1247D01*
X1416Y1247D02*
X1497Y1247D01*
X1516Y1247D02*
X1597Y1247D01*
X1616Y1247D02*
X1697Y1247D01*
X1716Y1247D02*
X1797Y1247D01*
X314Y1246D02*
X395Y1246D01*
X414Y1246D02*
X496Y1246D01*
X514Y1246D02*
X596Y1246D01*
X614Y1246D02*
X696Y1246D01*
X715Y1246D02*
X796Y1246D01*
X815Y1246D02*
X896Y1246D01*
X915Y1246D02*
X996Y1246D01*
X1015Y1246D02*
X1096Y1246D01*
X1115Y1246D02*
X1196Y1246D01*
X1215Y1246D02*
X1297Y1246D01*
X1315Y1246D02*
X1397Y1246D01*
X1415Y1246D02*
X1497Y1246D01*
X1516Y1246D02*
X1597Y1246D01*
X1616Y1246D02*
X1697Y1246D01*
X1716Y1246D02*
X1797Y1246D01*
X314Y1245D02*
X396Y1245D01*
X414Y1245D02*
X496Y1245D01*
X514Y1245D02*
X596Y1245D01*
X614Y1245D02*
X696Y1245D01*
X714Y1245D02*
X796Y1245D01*
X815Y1245D02*
X896Y1245D01*
X915Y1245D02*
X996Y1245D01*
X1015Y1245D02*
X1096Y1245D01*
X1115Y1245D02*
X1197Y1245D01*
X1215Y1245D02*
X1297Y1245D01*
X1315Y1245D02*
X1397Y1245D01*
X1415Y1245D02*
X1497Y1245D01*
X1515Y1245D02*
X1597Y1245D01*
X1616Y1245D02*
X1697Y1245D01*
X1716Y1245D02*
X1797Y1245D01*
X314Y1244D02*
X396Y1244D01*
X414Y1244D02*
X496Y1244D01*
X514Y1244D02*
X596Y1244D01*
X614Y1244D02*
X696Y1244D01*
X714Y1244D02*
X796Y1244D01*
X814Y1244D02*
X896Y1244D01*
X914Y1244D02*
X997Y1244D01*
X1015Y1244D02*
X1097Y1244D01*
X1115Y1244D02*
X1197Y1244D01*
X1215Y1244D02*
X1297Y1244D01*
X1315Y1244D02*
X1397Y1244D01*
X1415Y1244D02*
X1497Y1244D01*
X1515Y1244D02*
X1597Y1244D01*
X1615Y1244D02*
X1697Y1244D01*
X1715Y1244D02*
X1798Y1244D01*
X314Y1243D02*
X396Y1243D01*
X414Y1243D02*
X496Y1243D01*
X514Y1243D02*
X596Y1243D01*
X614Y1243D02*
X696Y1243D01*
X714Y1243D02*
X796Y1243D01*
X814Y1243D02*
X897Y1243D01*
X914Y1243D02*
X997Y1243D01*
X1014Y1243D02*
X1097Y1243D01*
X1115Y1243D02*
X1197Y1243D01*
X1215Y1243D02*
X1297Y1243D01*
X1315Y1243D02*
X1397Y1243D01*
X1415Y1243D02*
X1497Y1243D01*
X1515Y1243D02*
X1597Y1243D01*
X1615Y1243D02*
X1698Y1243D01*
X1715Y1243D02*
X1798Y1243D01*
X313Y1242D02*
X396Y1242D01*
X414Y1242D02*
X496Y1242D01*
X514Y1242D02*
X596Y1242D01*
X614Y1242D02*
X696Y1242D01*
X714Y1242D02*
X797Y1242D01*
X814Y1242D02*
X897Y1242D01*
X914Y1242D02*
X997Y1242D01*
X1014Y1242D02*
X1097Y1242D01*
X1114Y1242D02*
X1197Y1242D01*
X1215Y1242D02*
X1297Y1242D01*
X1315Y1242D02*
X1397Y1242D01*
X1415Y1242D02*
X1497Y1242D01*
X1515Y1242D02*
X1598Y1242D01*
X1615Y1242D02*
X1698Y1242D01*
X1715Y1242D02*
X1798Y1242D01*
X313Y1241D02*
X396Y1241D01*
X413Y1241D02*
X496Y1241D01*
X514Y1241D02*
X596Y1241D01*
X614Y1241D02*
X696Y1241D01*
X714Y1241D02*
X797Y1241D01*
X814Y1241D02*
X897Y1241D01*
X914Y1241D02*
X997Y1241D01*
X1014Y1241D02*
X1097Y1241D01*
X1114Y1241D02*
X1197Y1241D01*
X1215Y1241D02*
X1297Y1241D01*
X1315Y1241D02*
X1397Y1241D01*
X1415Y1241D02*
X1498Y1241D01*
X1515Y1241D02*
X1598Y1241D01*
X1615Y1241D02*
X1698Y1241D01*
X1715Y1241D02*
X1798Y1241D01*
X313Y1240D02*
X396Y1240D01*
X413Y1240D02*
X496Y1240D01*
X514Y1240D02*
X596Y1240D01*
X614Y1240D02*
X697Y1240D01*
X714Y1240D02*
X797Y1240D01*
X814Y1240D02*
X897Y1240D01*
X914Y1240D02*
X997Y1240D01*
X1014Y1240D02*
X1097Y1240D01*
X1114Y1240D02*
X1197Y1240D01*
X1214Y1240D02*
X1297Y1240D01*
X1315Y1240D02*
X1397Y1240D01*
X1415Y1240D02*
X1498Y1240D01*
X1515Y1240D02*
X1598Y1240D01*
X1615Y1240D02*
X1698Y1240D01*
X1715Y1240D02*
X1798Y1240D01*
X313Y1239D02*
X396Y1239D01*
X413Y1239D02*
X496Y1239D01*
X513Y1239D02*
X596Y1239D01*
X614Y1239D02*
X697Y1239D01*
X714Y1239D02*
X797Y1239D01*
X814Y1239D02*
X897Y1239D01*
X914Y1239D02*
X997Y1239D01*
X1014Y1239D02*
X1097Y1239D01*
X1114Y1239D02*
X1197Y1239D01*
X1214Y1239D02*
X1297Y1239D01*
X1315Y1239D02*
X1398Y1239D01*
X1415Y1239D02*
X1498Y1239D01*
X1515Y1239D02*
X1598Y1239D01*
X1615Y1239D02*
X1698Y1239D01*
X1715Y1239D02*
X1798Y1239D01*
X313Y1238D02*
X396Y1238D01*
X413Y1238D02*
X496Y1238D01*
X513Y1238D02*
X597Y1238D01*
X614Y1238D02*
X697Y1238D01*
X714Y1238D02*
X797Y1238D01*
X814Y1238D02*
X897Y1238D01*
X914Y1238D02*
X997Y1238D01*
X1014Y1238D02*
X1097Y1238D01*
X1114Y1238D02*
X1197Y1238D01*
X1214Y1238D02*
X1297Y1238D01*
X1314Y1238D02*
X1398Y1238D01*
X1415Y1238D02*
X1498Y1238D01*
X1515Y1238D02*
X1598Y1238D01*
X1615Y1238D02*
X1698Y1238D01*
X1715Y1238D02*
X1798Y1238D01*
X313Y1237D02*
X396Y1237D01*
X413Y1237D02*
X496Y1237D01*
X513Y1237D02*
X596Y1237D01*
X614Y1237D02*
X697Y1237D01*
X714Y1237D02*
X797Y1237D01*
X814Y1237D02*
X897Y1237D01*
X914Y1237D02*
X997Y1237D01*
X1014Y1237D02*
X1097Y1237D01*
X1114Y1237D02*
X1197Y1237D01*
X1214Y1237D02*
X1297Y1237D01*
X1315Y1237D02*
X1397Y1237D01*
X1415Y1237D02*
X1498Y1237D01*
X1515Y1237D02*
X1598Y1237D01*
X1615Y1237D02*
X1698Y1237D01*
X1715Y1237D02*
X1798Y1237D01*
X313Y1236D02*
X396Y1236D01*
X413Y1236D02*
X496Y1236D01*
X514Y1236D02*
X596Y1236D01*
X614Y1236D02*
X697Y1236D01*
X714Y1236D02*
X797Y1236D01*
X814Y1236D02*
X897Y1236D01*
X914Y1236D02*
X997Y1236D01*
X1014Y1236D02*
X1097Y1236D01*
X1114Y1236D02*
X1197Y1236D01*
X1214Y1236D02*
X1297Y1236D01*
X1315Y1236D02*
X1397Y1236D01*
X1415Y1236D02*
X1498Y1236D01*
X1515Y1236D02*
X1598Y1236D01*
X1615Y1236D02*
X1698Y1236D01*
X1715Y1236D02*
X1798Y1236D01*
X313Y1235D02*
X396Y1235D01*
X413Y1235D02*
X496Y1235D01*
X514Y1235D02*
X596Y1235D01*
X614Y1235D02*
X696Y1235D01*
X714Y1235D02*
X797Y1235D01*
X814Y1235D02*
X897Y1235D01*
X914Y1235D02*
X997Y1235D01*
X1014Y1235D02*
X1097Y1235D01*
X1114Y1235D02*
X1197Y1235D01*
X1215Y1235D02*
X1297Y1235D01*
X1315Y1235D02*
X1397Y1235D01*
X1415Y1235D02*
X1498Y1235D01*
X1515Y1235D02*
X1598Y1235D01*
X1615Y1235D02*
X1698Y1235D01*
X1715Y1235D02*
X1798Y1235D01*
X313Y1234D02*
X396Y1234D01*
X414Y1234D02*
X496Y1234D01*
X514Y1234D02*
X596Y1234D01*
X614Y1234D02*
X696Y1234D01*
X714Y1234D02*
X797Y1234D01*
X814Y1234D02*
X897Y1234D01*
X914Y1234D02*
X997Y1234D01*
X1014Y1234D02*
X1097Y1234D01*
X1114Y1234D02*
X1197Y1234D01*
X1215Y1234D02*
X1297Y1234D01*
X1315Y1234D02*
X1397Y1234D01*
X1415Y1234D02*
X1497Y1234D01*
X1515Y1234D02*
X1598Y1234D01*
X1615Y1234D02*
X1698Y1234D01*
X1715Y1234D02*
X1798Y1234D01*
X314Y1233D02*
X396Y1233D01*
X414Y1233D02*
X496Y1233D01*
X514Y1233D02*
X596Y1233D01*
X614Y1233D02*
X696Y1233D01*
X714Y1233D02*
X796Y1233D01*
X814Y1233D02*
X897Y1233D01*
X914Y1233D02*
X997Y1233D01*
X1014Y1233D02*
X1097Y1233D01*
X1115Y1233D02*
X1197Y1233D01*
X1215Y1233D02*
X1297Y1233D01*
X1315Y1233D02*
X1397Y1233D01*
X1415Y1233D02*
X1497Y1233D01*
X1515Y1233D02*
X1597Y1233D01*
X1615Y1233D02*
X1698Y1233D01*
X1715Y1233D02*
X1798Y1233D01*
X314Y1232D02*
X396Y1232D01*
X414Y1232D02*
X496Y1232D01*
X514Y1232D02*
X596Y1232D01*
X614Y1232D02*
X696Y1232D01*
X714Y1232D02*
X796Y1232D01*
X814Y1232D02*
X896Y1232D01*
X914Y1232D02*
X996Y1232D01*
X1015Y1232D02*
X1097Y1232D01*
X1115Y1232D02*
X1197Y1232D01*
X1215Y1232D02*
X1297Y1232D01*
X1315Y1232D02*
X1397Y1232D01*
X1415Y1232D02*
X1497Y1232D01*
X1515Y1232D02*
X1597Y1232D01*
X1615Y1232D02*
X1697Y1232D01*
X1716Y1232D02*
X1798Y1232D01*
X314Y1231D02*
X396Y1231D01*
X414Y1231D02*
X496Y1231D01*
X514Y1231D02*
X596Y1231D01*
X614Y1231D02*
X696Y1231D01*
X714Y1231D02*
X796Y1231D01*
X815Y1231D02*
X896Y1231D01*
X915Y1231D02*
X996Y1231D01*
X1015Y1231D02*
X1096Y1231D01*
X1115Y1231D02*
X1197Y1231D01*
X1215Y1231D02*
X1297Y1231D01*
X1315Y1231D02*
X1397Y1231D01*
X1415Y1231D02*
X1497Y1231D01*
X1515Y1231D02*
X1597Y1231D01*
X1616Y1231D02*
X1697Y1231D01*
X1716Y1231D02*
X1797Y1231D01*
X314Y1230D02*
X395Y1230D01*
X414Y1230D02*
X496Y1230D01*
X514Y1230D02*
X596Y1230D01*
X614Y1230D02*
X696Y1230D01*
X715Y1230D02*
X796Y1230D01*
X815Y1230D02*
X896Y1230D01*
X915Y1230D02*
X996Y1230D01*
X1015Y1230D02*
X1096Y1230D01*
X1115Y1230D02*
X1196Y1230D01*
X1215Y1230D02*
X1297Y1230D01*
X1315Y1230D02*
X1397Y1230D01*
X1415Y1230D02*
X1497Y1230D01*
X1516Y1230D02*
X1597Y1230D01*
X1616Y1230D02*
X1697Y1230D01*
X1716Y1230D02*
X1797Y1230D01*
X314Y1229D02*
X395Y1229D01*
X414Y1229D02*
X495Y1229D01*
X515Y1229D02*
X595Y1229D01*
X615Y1229D02*
X696Y1229D01*
X715Y1229D02*
X796Y1229D01*
X815Y1229D02*
X896Y1229D01*
X915Y1229D02*
X996Y1229D01*
X1015Y1229D02*
X1096Y1229D01*
X1115Y1229D02*
X1196Y1229D01*
X1215Y1229D02*
X1296Y1229D01*
X1316Y1229D02*
X1396Y1229D01*
X1416Y1229D02*
X1497Y1229D01*
X1516Y1229D02*
X1597Y1229D01*
X1616Y1229D02*
X1697Y1229D01*
X1716Y1229D02*
X1797Y1229D01*
X314Y1228D02*
X395Y1228D01*
X415Y1228D02*
X495Y1228D01*
X515Y1228D02*
X595Y1228D01*
X615Y1228D02*
X695Y1228D01*
X715Y1228D02*
X795Y1228D01*
X815Y1228D02*
X896Y1228D01*
X915Y1228D02*
X996Y1228D01*
X1015Y1228D02*
X1096Y1228D01*
X1116Y1228D02*
X1196Y1228D01*
X1216Y1228D02*
X1296Y1228D01*
X1316Y1228D02*
X1396Y1228D01*
X1416Y1228D02*
X1496Y1228D01*
X1516Y1228D02*
X1596Y1228D01*
X1616Y1228D02*
X1697Y1228D01*
X1716Y1228D02*
X1797Y1228D01*
X315Y1227D02*
X395Y1227D01*
X415Y1227D02*
X495Y1227D01*
X515Y1227D02*
X595Y1227D01*
X615Y1227D02*
X695Y1227D01*
X715Y1227D02*
X795Y1227D01*
X815Y1227D02*
X895Y1227D01*
X916Y1227D02*
X995Y1227D01*
X1016Y1227D02*
X1096Y1227D01*
X1116Y1227D02*
X1196Y1227D01*
X1216Y1227D02*
X1296Y1227D01*
X1316Y1227D02*
X1396Y1227D01*
X1416Y1227D02*
X1496Y1227D01*
X1516Y1227D02*
X1596Y1227D01*
X1616Y1227D02*
X1696Y1227D01*
X1717Y1227D02*
X1796Y1227D01*
X315Y1226D02*
X394Y1226D01*
X415Y1226D02*
X495Y1226D01*
X515Y1226D02*
X595Y1226D01*
X615Y1226D02*
X695Y1226D01*
X716Y1226D02*
X795Y1226D01*
X816Y1226D02*
X895Y1226D01*
X916Y1226D02*
X995Y1226D01*
X1016Y1226D02*
X1095Y1226D01*
X1116Y1226D02*
X1195Y1226D01*
X1216Y1226D02*
X1296Y1226D01*
X1316Y1226D02*
X1396Y1226D01*
X1416Y1226D02*
X1496Y1226D01*
X1517Y1226D02*
X1596Y1226D01*
X1617Y1226D02*
X1696Y1226D01*
X1717Y1226D02*
X1796Y1226D01*
X315Y1225D02*
X394Y1225D01*
X415Y1225D02*
X494Y1225D01*
X516Y1225D02*
X594Y1225D01*
X616Y1225D02*
X695Y1225D01*
X716Y1225D02*
X795Y1225D01*
X816Y1225D02*
X895Y1225D01*
X916Y1225D02*
X995Y1225D01*
X1016Y1225D02*
X1095Y1225D01*
X1116Y1225D02*
X1195Y1225D01*
X1216Y1225D02*
X1295Y1225D01*
X1317Y1225D02*
X1395Y1225D01*
X1417Y1225D02*
X1496Y1225D01*
X1517Y1225D02*
X1596Y1225D01*
X1617Y1225D02*
X1696Y1225D01*
X1717Y1225D02*
X1796Y1225D01*
X316Y1224D02*
X394Y1224D01*
X416Y1224D02*
X494Y1224D01*
X516Y1224D02*
X594Y1224D01*
X616Y1224D02*
X694Y1224D01*
X716Y1224D02*
X794Y1224D01*
X816Y1224D02*
X894Y1224D01*
X916Y1224D02*
X995Y1224D01*
X1017Y1224D02*
X1095Y1224D01*
X1117Y1224D02*
X1195Y1224D01*
X1217Y1224D02*
X1295Y1224D01*
X1317Y1224D02*
X1395Y1224D01*
X1417Y1224D02*
X1495Y1224D01*
X1517Y1224D02*
X1595Y1224D01*
X1617Y1224D02*
X1695Y1224D01*
X1717Y1224D02*
X1796Y1224D01*
X316Y1223D02*
X393Y1223D01*
X416Y1223D02*
X494Y1223D01*
X516Y1223D02*
X594Y1223D01*
X616Y1223D02*
X694Y1223D01*
X717Y1223D02*
X794Y1223D01*
X817Y1223D02*
X894Y1223D01*
X917Y1223D02*
X994Y1223D01*
X1017Y1223D02*
X1094Y1223D01*
X1117Y1223D02*
X1194Y1223D01*
X1217Y1223D02*
X1295Y1223D01*
X1317Y1223D02*
X1395Y1223D01*
X1417Y1223D02*
X1495Y1223D01*
X1518Y1223D02*
X1595Y1223D01*
X1618Y1223D02*
X1695Y1223D01*
X1718Y1223D02*
X1795Y1223D01*
X316Y1222D02*
X393Y1222D01*
X417Y1222D02*
X493Y1222D01*
X517Y1222D02*
X593Y1222D01*
X617Y1222D02*
X693Y1222D01*
X717Y1222D02*
X794Y1222D01*
X817Y1222D02*
X894Y1222D01*
X917Y1222D02*
X994Y1222D01*
X1017Y1222D02*
X1094Y1222D01*
X1117Y1222D02*
X1194Y1222D01*
X1218Y1222D02*
X1294Y1222D01*
X1318Y1222D02*
X1394Y1222D01*
X1418Y1222D02*
X1494Y1222D01*
X1518Y1222D02*
X1595Y1222D01*
X1618Y1222D02*
X1695Y1222D01*
X1718Y1222D02*
X1795Y1222D01*
X317Y1221D02*
X393Y1221D01*
X417Y1221D02*
X493Y1221D01*
X517Y1221D02*
X593Y1221D01*
X617Y1221D02*
X693Y1221D01*
X717Y1221D02*
X793Y1221D01*
X817Y1221D02*
X893Y1221D01*
X918Y1221D02*
X993Y1221D01*
X1018Y1221D02*
X1094Y1221D01*
X1118Y1221D02*
X1194Y1221D01*
X1218Y1221D02*
X1294Y1221D01*
X1318Y1221D02*
X1394Y1221D01*
X1418Y1221D02*
X1494Y1221D01*
X1518Y1221D02*
X1594Y1221D01*
X1619Y1221D02*
X1694Y1221D01*
X1719Y1221D02*
X1794Y1221D01*
X317Y1220D02*
X392Y1220D01*
X417Y1220D02*
X492Y1220D01*
X518Y1220D02*
X592Y1220D01*
X618Y1220D02*
X692Y1220D01*
X718Y1220D02*
X793Y1220D01*
X818Y1220D02*
X893Y1220D01*
X918Y1220D02*
X993Y1220D01*
X1018Y1220D02*
X1093Y1220D01*
X1118Y1220D02*
X1193Y1220D01*
X1218Y1220D02*
X1293Y1220D01*
X1319Y1220D02*
X1393Y1220D01*
X1419Y1220D02*
X1494Y1220D01*
X1519Y1220D02*
X1594Y1220D01*
X1619Y1220D02*
X1694Y1220D01*
X1719Y1220D02*
X1794Y1220D01*
X318Y1219D02*
X392Y1219D01*
X418Y1219D02*
X492Y1219D01*
X518Y1219D02*
X592Y1219D01*
X618Y1219D02*
X692Y1219D01*
X718Y1219D02*
X792Y1219D01*
X818Y1219D02*
X892Y1219D01*
X919Y1219D02*
X992Y1219D01*
X1019Y1219D02*
X1093Y1219D01*
X1119Y1219D02*
X1193Y1219D01*
X1219Y1219D02*
X1293Y1219D01*
X1319Y1219D02*
X1393Y1219D01*
X1419Y1219D02*
X1493Y1219D01*
X1519Y1219D02*
X1593Y1219D01*
X1619Y1219D02*
X1693Y1219D01*
X1720Y1219D02*
X1793Y1219D01*
X318Y1218D02*
X391Y1218D01*
X418Y1218D02*
X491Y1218D01*
X519Y1218D02*
X591Y1218D01*
X619Y1218D02*
X691Y1218D01*
X719Y1218D02*
X792Y1218D01*
X819Y1218D02*
X892Y1218D01*
X919Y1218D02*
X992Y1218D01*
X1019Y1218D02*
X1092Y1218D01*
X1119Y1218D02*
X1192Y1218D01*
X1220Y1218D02*
X1292Y1218D01*
X1320Y1218D02*
X1392Y1218D01*
X1420Y1218D02*
X1493Y1218D01*
X1520Y1218D02*
X1593Y1218D01*
X1620Y1218D02*
X1693Y1218D01*
X1720Y1218D02*
X1793Y1218D01*
X319Y1217D02*
X390Y1217D01*
X419Y1217D02*
X491Y1217D01*
X519Y1217D02*
X591Y1217D01*
X619Y1217D02*
X691Y1217D01*
X719Y1217D02*
X791Y1217D01*
X820Y1217D02*
X891Y1217D01*
X920Y1217D02*
X991Y1217D01*
X1020Y1217D02*
X1091Y1217D01*
X1120Y1217D02*
X1192Y1217D01*
X1220Y1217D02*
X1292Y1217D01*
X1320Y1217D02*
X1392Y1217D01*
X1420Y1217D02*
X1492Y1217D01*
X1520Y1217D02*
X1592Y1217D01*
X1621Y1217D02*
X1692Y1217D01*
X1721Y1217D02*
X1792Y1217D01*
X320Y1216D02*
X390Y1216D01*
X420Y1216D02*
X490Y1216D01*
X520Y1216D02*
X590Y1216D01*
X620Y1216D02*
X690Y1216D01*
X720Y1216D02*
X790Y1216D01*
X820Y1216D02*
X891Y1216D01*
X920Y1216D02*
X991Y1216D01*
X1020Y1216D02*
X1091Y1216D01*
X1121Y1216D02*
X1191Y1216D01*
X1221Y1216D02*
X1291Y1216D01*
X1321Y1216D02*
X1391Y1216D01*
X1421Y1216D02*
X1491Y1216D01*
X1521Y1216D02*
X1591Y1216D01*
X1621Y1216D02*
X1692Y1216D01*
X1721Y1216D02*
X1792Y1216D01*
X320Y1215D02*
X389Y1215D01*
X420Y1215D02*
X489Y1215D01*
X520Y1215D02*
X590Y1215D01*
X621Y1215D02*
X690Y1215D01*
X721Y1215D02*
X790Y1215D01*
X821Y1215D02*
X890Y1215D01*
X921Y1215D02*
X990Y1215D01*
X1021Y1215D02*
X1090Y1215D01*
X1121Y1215D02*
X1190Y1215D01*
X1221Y1215D02*
X1290Y1215D01*
X1321Y1215D02*
X1391Y1215D01*
X1422Y1215D02*
X1491Y1215D01*
X1522Y1215D02*
X1591Y1215D01*
X1622Y1215D02*
X1691Y1215D01*
X1722Y1215D02*
X1791Y1215D01*
X321Y1214D02*
X389Y1214D01*
X421Y1214D02*
X489Y1214D01*
X521Y1214D02*
X589Y1214D01*
X621Y1214D02*
X689Y1214D01*
X721Y1214D02*
X789Y1214D01*
X822Y1214D02*
X889Y1214D01*
X922Y1214D02*
X989Y1214D01*
X1022Y1214D02*
X1089Y1214D01*
X1122Y1214D02*
X1190Y1214D01*
X1222Y1214D02*
X1290Y1214D01*
X1322Y1214D02*
X1390Y1214D01*
X1422Y1214D02*
X1490Y1214D01*
X1522Y1214D02*
X1590Y1214D01*
X1623Y1214D02*
X1690Y1214D01*
X1723Y1214D02*
X1790Y1214D01*
X322Y1213D02*
X388Y1213D01*
X422Y1213D02*
X488Y1213D01*
X522Y1213D02*
X588Y1213D01*
X622Y1213D02*
X688Y1213D01*
X722Y1213D02*
X788Y1213D01*
X822Y1213D02*
X888Y1213D01*
X922Y1213D02*
X989Y1213D01*
X1023Y1213D02*
X1089Y1213D01*
X1123Y1213D02*
X1189Y1213D01*
X1223Y1213D02*
X1289Y1213D01*
X1323Y1213D02*
X1389Y1213D01*
X1423Y1213D02*
X1489Y1213D01*
X1523Y1213D02*
X1589Y1213D01*
X1623Y1213D02*
X1690Y1213D01*
X1723Y1213D02*
X1790Y1213D01*
X322Y1212D02*
X387Y1212D01*
X422Y1212D02*
X487Y1212D01*
X523Y1212D02*
X587Y1212D01*
X623Y1212D02*
X687Y1212D01*
X723Y1212D02*
X788Y1212D01*
X823Y1212D02*
X888Y1212D01*
X923Y1212D02*
X988Y1212D01*
X1023Y1212D02*
X1088Y1212D01*
X1123Y1212D02*
X1188Y1212D01*
X1224Y1212D02*
X1288Y1212D01*
X1324Y1212D02*
X1388Y1212D01*
X1424Y1212D02*
X1489Y1212D01*
X1524Y1212D02*
X1589Y1212D01*
X1624Y1212D02*
X1689Y1212D01*
X1724Y1212D02*
X1789Y1212D01*
X323Y1211D02*
X386Y1211D01*
X423Y1211D02*
X486Y1211D01*
X523Y1211D02*
X587Y1211D01*
X624Y1211D02*
X687Y1211D01*
X724Y1211D02*
X787Y1211D01*
X824Y1211D02*
X887Y1211D01*
X924Y1211D02*
X987Y1211D01*
X1024Y1211D02*
X1087Y1211D01*
X1124Y1211D02*
X1187Y1211D01*
X1224Y1211D02*
X1287Y1211D01*
X1324Y1211D02*
X1388Y1211D01*
X1425Y1211D02*
X1488Y1211D01*
X1525Y1211D02*
X1588Y1211D01*
X1625Y1211D02*
X1688Y1211D01*
X1725Y1211D02*
X1788Y1211D01*
X324Y1210D02*
X385Y1210D01*
X424Y1210D02*
X486Y1210D01*
X524Y1210D02*
X586Y1210D01*
X624Y1210D02*
X686Y1210D01*
X725Y1210D02*
X786Y1210D01*
X825Y1210D02*
X886Y1210D01*
X925Y1210D02*
X986Y1210D01*
X1025Y1210D02*
X1086Y1210D01*
X1125Y1210D02*
X1186Y1210D01*
X1225Y1210D02*
X1287Y1210D01*
X1325Y1210D02*
X1387Y1210D01*
X1425Y1210D02*
X1487Y1210D01*
X1526Y1210D02*
X1587Y1210D01*
X1626Y1210D02*
X1687Y1210D01*
X1726Y1210D02*
X1787Y1210D01*
X325Y1209D02*
X385Y1209D01*
X425Y1209D02*
X485Y1209D01*
X525Y1209D02*
X585Y1209D01*
X625Y1209D02*
X685Y1209D01*
X725Y1209D02*
X785Y1209D01*
X826Y1209D02*
X885Y1209D01*
X926Y1209D02*
X985Y1209D01*
X1026Y1209D02*
X1085Y1209D01*
X1126Y1209D02*
X1186Y1209D01*
X1226Y1209D02*
X1286Y1209D01*
X1326Y1209D02*
X1386Y1209D01*
X1426Y1209D02*
X1486Y1209D01*
X1526Y1209D02*
X1586Y1209D01*
X1627Y1209D02*
X1686Y1209D01*
X1727Y1209D02*
X1786Y1209D01*
X326Y1208D02*
X384Y1208D01*
X426Y1208D02*
X484Y1208D01*
X526Y1208D02*
X584Y1208D01*
X626Y1208D02*
X684Y1208D01*
X726Y1208D02*
X784Y1208D01*
X827Y1208D02*
X884Y1208D01*
X927Y1208D02*
X984Y1208D01*
X1027Y1208D02*
X1084Y1208D01*
X1127Y1208D02*
X1185Y1208D01*
X1227Y1208D02*
X1285Y1208D01*
X1327Y1208D02*
X1385Y1208D01*
X1427Y1208D02*
X1485Y1208D01*
X1527Y1208D02*
X1585Y1208D01*
X1628Y1208D02*
X1685Y1208D01*
X1728Y1208D02*
X1785Y1208D01*
X327Y1207D02*
X382Y1207D01*
X427Y1207D02*
X483Y1207D01*
X527Y1207D02*
X583Y1207D01*
X627Y1207D02*
X683Y1207D01*
X728Y1207D02*
X783Y1207D01*
X828Y1207D02*
X883Y1207D01*
X928Y1207D02*
X983Y1207D01*
X1028Y1207D02*
X1083Y1207D01*
X1128Y1207D02*
X1183Y1207D01*
X1228Y1207D02*
X1284Y1207D01*
X1328Y1207D02*
X1384Y1207D01*
X1428Y1207D02*
X1484Y1207D01*
X1529Y1207D02*
X1584Y1207D01*
X1629Y1207D02*
X1684Y1207D01*
X1729Y1207D02*
X1784Y1207D01*
X328Y1206D02*
X381Y1206D01*
X428Y1206D02*
X481Y1206D01*
X528Y1206D02*
X582Y1206D01*
X629Y1206D02*
X682Y1206D01*
X729Y1206D02*
X782Y1206D01*
X829Y1206D02*
X882Y1206D01*
X929Y1206D02*
X982Y1206D01*
X1029Y1206D02*
X1082Y1206D01*
X1129Y1206D02*
X1182Y1206D01*
X1229Y1206D02*
X1282Y1206D01*
X1329Y1206D02*
X1383Y1206D01*
X1430Y1206D02*
X1483Y1206D01*
X1530Y1206D02*
X1583Y1206D01*
X1630Y1206D02*
X1683Y1206D01*
X1730Y1206D02*
X1783Y1206D01*
X329Y1205D02*
X380Y1205D01*
X430Y1205D02*
X480Y1205D01*
X530Y1205D02*
X580Y1205D01*
X630Y1205D02*
X680Y1205D01*
X730Y1205D02*
X781Y1205D01*
X830Y1205D02*
X881Y1205D01*
X930Y1205D02*
X981Y1205D01*
X1030Y1205D02*
X1081Y1205D01*
X1130Y1205D02*
X1181Y1205D01*
X1231Y1205D02*
X1281Y1205D01*
X1331Y1205D02*
X1381Y1205D01*
X1431Y1205D02*
X1481Y1205D01*
X1531Y1205D02*
X1582Y1205D01*
X1631Y1205D02*
X1682Y1205D01*
X1731Y1205D02*
X1782Y1205D01*
X331Y1204D02*
X379Y1204D01*
X431Y1204D02*
X479Y1204D01*
X531Y1204D02*
X579Y1204D01*
X631Y1204D02*
X679Y1204D01*
X731Y1204D02*
X779Y1204D01*
X831Y1204D02*
X879Y1204D01*
X932Y1204D02*
X979Y1204D01*
X1032Y1204D02*
X1080Y1204D01*
X1132Y1204D02*
X1180Y1204D01*
X1232Y1204D02*
X1280Y1204D01*
X1332Y1204D02*
X1380Y1204D01*
X1432Y1204D02*
X1480Y1204D01*
X1532Y1204D02*
X1580Y1204D01*
X1632Y1204D02*
X1680Y1204D01*
X1733Y1204D02*
X1780Y1204D01*
X332Y1203D02*
X377Y1203D01*
X432Y1203D02*
X477Y1203D01*
X532Y1203D02*
X577Y1203D01*
X633Y1203D02*
X678Y1203D01*
X733Y1203D02*
X778Y1203D01*
X833Y1203D02*
X878Y1203D01*
X933Y1203D02*
X978Y1203D01*
X1033Y1203D02*
X1078Y1203D01*
X1133Y1203D02*
X1178Y1203D01*
X1233Y1203D02*
X1278Y1203D01*
X1334Y1203D02*
X1379Y1203D01*
X1434Y1203D02*
X1479Y1203D01*
X1534Y1203D02*
X1579Y1203D01*
X1634Y1203D02*
X1679Y1203D01*
X1734Y1203D02*
X1779Y1203D01*
X334Y1202D02*
X376Y1202D01*
X434Y1202D02*
X476Y1202D01*
X534Y1202D02*
X576Y1202D01*
X634Y1202D02*
X676Y1202D01*
X734Y1202D02*
X776Y1202D01*
X834Y1202D02*
X876Y1202D01*
X935Y1202D02*
X976Y1202D01*
X1035Y1202D02*
X1077Y1202D01*
X1135Y1202D02*
X1177Y1202D01*
X1235Y1202D02*
X1277Y1202D01*
X1335Y1202D02*
X1377Y1202D01*
X1435Y1202D02*
X1477Y1202D01*
X1535Y1202D02*
X1577Y1202D01*
X1636Y1202D02*
X1677Y1202D01*
X1736Y1202D02*
X1777Y1202D01*
X336Y1201D02*
X374Y1201D01*
X436Y1201D02*
X474Y1201D01*
X536Y1201D02*
X574Y1201D01*
X636Y1201D02*
X674Y1201D01*
X736Y1201D02*
X774Y1201D01*
X836Y1201D02*
X875Y1201D01*
X936Y1201D02*
X975Y1201D01*
X1036Y1201D02*
X1075Y1201D01*
X1137Y1201D02*
X1175Y1201D01*
X1237Y1201D02*
X1275Y1201D01*
X1337Y1201D02*
X1375Y1201D01*
X1437Y1201D02*
X1475Y1201D01*
X1537Y1201D02*
X1575Y1201D01*
X1637Y1201D02*
X1676Y1201D01*
X1737Y1201D02*
X1776Y1201D01*
X338Y1200D02*
X372Y1200D01*
X438Y1200D02*
X472Y1200D01*
X538Y1200D02*
X572Y1200D01*
X638Y1200D02*
X672Y1200D01*
X738Y1200D02*
X772Y1200D01*
X838Y1200D02*
X873Y1200D01*
X938Y1200D02*
X973Y1200D01*
X1038Y1200D02*
X1073Y1200D01*
X1139Y1200D02*
X1173Y1200D01*
X1239Y1200D02*
X1273Y1200D01*
X1339Y1200D02*
X1373Y1200D01*
X1439Y1200D02*
X1473Y1200D01*
X1539Y1200D02*
X1573Y1200D01*
X1639Y1200D02*
X1674Y1200D01*
X1739Y1200D02*
X1774Y1200D01*
X340Y1199D02*
X370Y1199D01*
X440Y1199D02*
X470Y1199D01*
X540Y1199D02*
X570Y1199D01*
X640Y1199D02*
X670Y1199D01*
X740Y1199D02*
X770Y1199D01*
X841Y1199D02*
X870Y1199D01*
X941Y1199D02*
X970Y1199D01*
X1041Y1199D02*
X1070Y1199D01*
X1141Y1199D02*
X1171Y1199D01*
X1241Y1199D02*
X1271Y1199D01*
X1341Y1199D02*
X1371Y1199D01*
X1441Y1199D02*
X1471Y1199D01*
X1541Y1199D02*
X1571Y1199D01*
X1642Y1199D02*
X1671Y1199D01*
X1742Y1199D02*
X1771Y1199D01*
X343Y1198D02*
X367Y1198D01*
X443Y1198D02*
X467Y1198D01*
X543Y1198D02*
X567Y1198D01*
X643Y1198D02*
X667Y1198D01*
X743Y1198D02*
X767Y1198D01*
X843Y1198D02*
X867Y1198D01*
X944Y1198D02*
X967Y1198D01*
X1044Y1198D02*
X1068Y1198D01*
X1144Y1198D02*
X1168Y1198D01*
X1244Y1198D02*
X1268Y1198D01*
X1344Y1198D02*
X1368Y1198D01*
X1444Y1198D02*
X1468Y1198D01*
X1544Y1198D02*
X1568Y1198D01*
X1644Y1198D02*
X1668Y1198D01*
X1745Y1198D02*
X1769Y1198D01*
X347Y1197D02*
X363Y1197D01*
X447Y1197D02*
X463Y1197D01*
X547Y1197D02*
X563Y1197D01*
X647Y1197D02*
X663Y1197D01*
X747Y1197D02*
X763Y1197D01*
X847Y1197D02*
X863Y1197D01*
X948Y1197D02*
X963Y1197D01*
X1048Y1197D02*
X1064Y1197D01*
X1148Y1197D02*
X1164Y1197D01*
X1248Y1197D02*
X1264Y1197D01*
X1348Y1197D02*
X1364Y1197D01*
X1448Y1197D02*
X1464Y1197D01*
X1548Y1197D02*
X1564Y1197D01*
X1648Y1197D02*
X1664Y1197D01*
X1749Y1197D02*
X1765Y1197D01*
X350Y279D02*
X359Y279D01*
X451Y279D02*
X459Y279D01*
X551Y279D02*
X559Y279D01*
X651Y279D02*
X659Y279D01*
X751Y279D02*
X759Y279D01*
X851Y279D02*
X860Y279D01*
X951Y279D02*
X960Y279D01*
X1051Y279D02*
X1060Y279D01*
X1151Y279D02*
X1160Y279D01*
X1252Y279D02*
X1260Y279D01*
X1352Y279D02*
X1360Y279D01*
X1452Y279D02*
X1460Y279D01*
X1552Y279D02*
X1561Y279D01*
X1652Y279D02*
X1661Y279D01*
X1752Y279D02*
X1761Y279D01*
X345Y278D02*
X364Y278D01*
X445Y278D02*
X464Y278D01*
X545Y278D02*
X565Y278D01*
X645Y278D02*
X665Y278D01*
X746Y278D02*
X765Y278D01*
X846Y278D02*
X865Y278D01*
X946Y278D02*
X965Y278D01*
X1046Y278D02*
X1065Y278D01*
X1146Y278D02*
X1165Y278D01*
X1246Y278D02*
X1265Y278D01*
X1346Y278D02*
X1366Y278D01*
X1447Y278D02*
X1466Y278D01*
X1547Y278D02*
X1566Y278D01*
X1647Y278D02*
X1666Y278D01*
X1747Y278D02*
X1766Y278D01*
X342Y277D02*
X368Y277D01*
X442Y277D02*
X468Y277D01*
X542Y277D02*
X568Y277D01*
X642Y277D02*
X668Y277D01*
X742Y277D02*
X768Y277D01*
X842Y277D02*
X869Y277D01*
X942Y277D02*
X969Y277D01*
X1042Y277D02*
X1069Y277D01*
X1143Y277D02*
X1169Y277D01*
X1243Y277D02*
X1269Y277D01*
X1343Y277D02*
X1369Y277D01*
X1443Y277D02*
X1469Y277D01*
X1543Y277D02*
X1569Y277D01*
X1643Y277D02*
X1670Y277D01*
X1743Y277D02*
X1770Y277D01*
X339Y276D02*
X371Y276D01*
X439Y276D02*
X471Y276D01*
X539Y276D02*
X571Y276D01*
X639Y276D02*
X671Y276D01*
X739Y276D02*
X771Y276D01*
X839Y276D02*
X871Y276D01*
X940Y276D02*
X971Y276D01*
X1040Y276D02*
X1072Y276D01*
X1140Y276D02*
X1172Y276D01*
X1240Y276D02*
X1272Y276D01*
X1340Y276D02*
X1372Y276D01*
X1440Y276D02*
X1472Y276D01*
X1540Y276D02*
X1572Y276D01*
X1640Y276D02*
X1672Y276D01*
X1741Y276D02*
X1772Y276D01*
X337Y275D02*
X373Y275D01*
X437Y275D02*
X473Y275D01*
X537Y275D02*
X573Y275D01*
X637Y275D02*
X673Y275D01*
X737Y275D02*
X773Y275D01*
X837Y275D02*
X873Y275D01*
X938Y275D02*
X973Y275D01*
X1038Y275D02*
X1074Y275D01*
X1138Y275D02*
X1174Y275D01*
X1238Y275D02*
X1274Y275D01*
X1338Y275D02*
X1374Y275D01*
X1438Y275D02*
X1474Y275D01*
X1538Y275D02*
X1574Y275D01*
X1638Y275D02*
X1674Y275D01*
X1739Y275D02*
X1775Y275D01*
X335Y274D02*
X375Y274D01*
X435Y274D02*
X475Y274D01*
X535Y274D02*
X575Y274D01*
X635Y274D02*
X675Y274D01*
X735Y274D02*
X775Y274D01*
X835Y274D02*
X875Y274D01*
X936Y274D02*
X975Y274D01*
X1036Y274D02*
X1076Y274D01*
X1136Y274D02*
X1176Y274D01*
X1236Y274D02*
X1276Y274D01*
X1336Y274D02*
X1376Y274D01*
X1436Y274D02*
X1476Y274D01*
X1536Y274D02*
X1576Y274D01*
X1637Y274D02*
X1676Y274D01*
X1737Y274D02*
X1776Y274D01*
X333Y273D02*
X376Y273D01*
X433Y273D02*
X476Y273D01*
X533Y273D02*
X576Y273D01*
X634Y273D02*
X677Y273D01*
X734Y273D02*
X777Y273D01*
X834Y273D02*
X877Y273D01*
X934Y273D02*
X977Y273D01*
X1034Y273D02*
X1077Y273D01*
X1134Y273D02*
X1177Y273D01*
X1234Y273D02*
X1277Y273D01*
X1334Y273D02*
X1378Y273D01*
X1435Y273D02*
X1478Y273D01*
X1535Y273D02*
X1578Y273D01*
X1635Y273D02*
X1678Y273D01*
X1735Y273D02*
X1778Y273D01*
X332Y272D02*
X378Y272D01*
X432Y272D02*
X478Y272D01*
X532Y272D02*
X578Y272D01*
X632Y272D02*
X678Y272D01*
X732Y272D02*
X778Y272D01*
X832Y272D02*
X878Y272D01*
X932Y272D02*
X979Y272D01*
X1033Y272D02*
X1079Y272D01*
X1133Y272D02*
X1179Y272D01*
X1233Y272D02*
X1279Y272D01*
X1333Y272D02*
X1379Y272D01*
X1433Y272D02*
X1479Y272D01*
X1533Y272D02*
X1579Y272D01*
X1633Y272D02*
X1679Y272D01*
X1733Y272D02*
X1780Y272D01*
X330Y271D02*
X379Y271D01*
X430Y271D02*
X479Y271D01*
X531Y271D02*
X579Y271D01*
X631Y271D02*
X680Y271D01*
X731Y271D02*
X780Y271D01*
X831Y271D02*
X880Y271D01*
X931Y271D02*
X980Y271D01*
X1031Y271D02*
X1080Y271D01*
X1131Y271D02*
X1180Y271D01*
X1231Y271D02*
X1280Y271D01*
X1332Y271D02*
X1380Y271D01*
X1432Y271D02*
X1481Y271D01*
X1532Y271D02*
X1581Y271D01*
X1632Y271D02*
X1681Y271D01*
X1732Y271D02*
X1781Y271D01*
X329Y270D02*
X381Y270D01*
X429Y270D02*
X481Y270D01*
X529Y270D02*
X581Y270D01*
X629Y270D02*
X681Y270D01*
X729Y270D02*
X781Y270D01*
X830Y270D02*
X881Y270D01*
X930Y270D02*
X981Y270D01*
X1030Y270D02*
X1081Y270D01*
X1130Y270D02*
X1182Y270D01*
X1230Y270D02*
X1282Y270D01*
X1330Y270D02*
X1382Y270D01*
X1430Y270D02*
X1482Y270D01*
X1530Y270D02*
X1582Y270D01*
X1631Y270D02*
X1682Y270D01*
X1731Y270D02*
X1782Y270D01*
X328Y269D02*
X382Y269D01*
X428Y269D02*
X482Y269D01*
X528Y269D02*
X582Y269D01*
X628Y269D02*
X682Y269D01*
X728Y269D02*
X782Y269D01*
X828Y269D02*
X882Y269D01*
X928Y269D02*
X983Y269D01*
X1029Y269D02*
X1083Y269D01*
X1129Y269D02*
X1183Y269D01*
X1229Y269D02*
X1283Y269D01*
X1329Y269D02*
X1383Y269D01*
X1429Y269D02*
X1483Y269D01*
X1529Y269D02*
X1583Y269D01*
X1629Y269D02*
X1683Y269D01*
X1729Y269D02*
X1784Y269D01*
X327Y268D02*
X383Y268D01*
X427Y268D02*
X483Y268D01*
X527Y268D02*
X583Y268D01*
X627Y268D02*
X683Y268D01*
X727Y268D02*
X783Y268D01*
X827Y268D02*
X884Y268D01*
X927Y268D02*
X984Y268D01*
X1027Y268D02*
X1084Y268D01*
X1128Y268D02*
X1184Y268D01*
X1228Y268D02*
X1284Y268D01*
X1328Y268D02*
X1384Y268D01*
X1428Y268D02*
X1484Y268D01*
X1528Y268D02*
X1584Y268D01*
X1628Y268D02*
X1685Y268D01*
X1728Y268D02*
X1785Y268D01*
X325Y267D02*
X384Y267D01*
X426Y267D02*
X484Y267D01*
X526Y267D02*
X584Y267D01*
X626Y267D02*
X684Y267D01*
X726Y267D02*
X784Y267D01*
X826Y267D02*
X885Y267D01*
X926Y267D02*
X985Y267D01*
X1026Y267D02*
X1085Y267D01*
X1127Y267D02*
X1185Y267D01*
X1227Y267D02*
X1285Y267D01*
X1327Y267D02*
X1385Y267D01*
X1427Y267D02*
X1485Y267D01*
X1527Y267D02*
X1586Y267D01*
X1627Y267D02*
X1686Y267D01*
X1727Y267D02*
X1786Y267D01*
X325Y266D02*
X385Y266D01*
X425Y266D02*
X485Y266D01*
X525Y266D02*
X585Y266D01*
X625Y266D02*
X685Y266D01*
X725Y266D02*
X785Y266D01*
X825Y266D02*
X886Y266D01*
X925Y266D02*
X986Y266D01*
X1025Y266D02*
X1086Y266D01*
X1126Y266D02*
X1186Y266D01*
X1226Y266D02*
X1286Y266D01*
X1326Y266D02*
X1386Y266D01*
X1426Y266D02*
X1486Y266D01*
X1526Y266D02*
X1586Y266D01*
X1626Y266D02*
X1687Y266D01*
X1726Y266D02*
X1787Y266D01*
X324Y265D02*
X386Y265D01*
X424Y265D02*
X486Y265D01*
X524Y265D02*
X586Y265D01*
X624Y265D02*
X686Y265D01*
X724Y265D02*
X786Y265D01*
X824Y265D02*
X886Y265D01*
X924Y265D02*
X987Y265D01*
X1025Y265D02*
X1087Y265D01*
X1125Y265D02*
X1187Y265D01*
X1225Y265D02*
X1287Y265D01*
X1325Y265D02*
X1387Y265D01*
X1425Y265D02*
X1487Y265D01*
X1525Y265D02*
X1587Y265D01*
X1625Y265D02*
X1687Y265D01*
X1725Y265D02*
X1788Y265D01*
X323Y264D02*
X387Y264D01*
X423Y264D02*
X487Y264D01*
X523Y264D02*
X587Y264D01*
X623Y264D02*
X687Y264D01*
X723Y264D02*
X787Y264D01*
X823Y264D02*
X887Y264D01*
X924Y264D02*
X987Y264D01*
X1024Y264D02*
X1088Y264D01*
X1124Y264D02*
X1188Y264D01*
X1224Y264D02*
X1288Y264D01*
X1324Y264D02*
X1388Y264D01*
X1424Y264D02*
X1488Y264D01*
X1524Y264D02*
X1588Y264D01*
X1624Y264D02*
X1688Y264D01*
X1725Y264D02*
X1788Y264D01*
X322Y263D02*
X387Y263D01*
X422Y263D02*
X488Y263D01*
X522Y263D02*
X588Y263D01*
X622Y263D02*
X688Y263D01*
X723Y263D02*
X788Y263D01*
X823Y263D02*
X888Y263D01*
X923Y263D02*
X988Y263D01*
X1023Y263D02*
X1088Y263D01*
X1123Y263D02*
X1188Y263D01*
X1223Y263D02*
X1289Y263D01*
X1323Y263D02*
X1389Y263D01*
X1423Y263D02*
X1489Y263D01*
X1524Y263D02*
X1589Y263D01*
X1624Y263D02*
X1689Y263D01*
X1724Y263D02*
X1789Y263D01*
X321Y262D02*
X388Y262D01*
X421Y262D02*
X488Y262D01*
X522Y262D02*
X588Y262D01*
X622Y262D02*
X689Y262D01*
X722Y262D02*
X789Y262D01*
X822Y262D02*
X889Y262D01*
X922Y262D02*
X989Y262D01*
X1022Y262D02*
X1089Y262D01*
X1122Y262D02*
X1189Y262D01*
X1222Y262D02*
X1289Y262D01*
X1323Y262D02*
X1389Y262D01*
X1423Y262D02*
X1490Y262D01*
X1523Y262D02*
X1590Y262D01*
X1623Y262D02*
X1690Y262D01*
X1723Y262D02*
X1790Y262D01*
X321Y261D02*
X389Y261D01*
X421Y261D02*
X489Y261D01*
X521Y261D02*
X589Y261D01*
X621Y261D02*
X689Y261D01*
X721Y261D02*
X789Y261D01*
X821Y261D02*
X890Y261D01*
X921Y261D02*
X990Y261D01*
X1021Y261D02*
X1090Y261D01*
X1122Y261D02*
X1190Y261D01*
X1222Y261D02*
X1290Y261D01*
X1322Y261D02*
X1390Y261D01*
X1422Y261D02*
X1490Y261D01*
X1522Y261D02*
X1590Y261D01*
X1622Y261D02*
X1691Y261D01*
X1722Y261D02*
X1791Y261D01*
X320Y260D02*
X390Y260D01*
X420Y260D02*
X490Y260D01*
X520Y260D02*
X590Y260D01*
X620Y260D02*
X690Y260D01*
X720Y260D02*
X790Y260D01*
X821Y260D02*
X890Y260D01*
X921Y260D02*
X990Y260D01*
X1021Y260D02*
X1090Y260D01*
X1121Y260D02*
X1191Y260D01*
X1221Y260D02*
X1291Y260D01*
X1321Y260D02*
X1391Y260D01*
X1421Y260D02*
X1491Y260D01*
X1521Y260D02*
X1591Y260D01*
X1622Y260D02*
X1691Y260D01*
X1722Y260D02*
X1791Y260D01*
X319Y259D02*
X390Y259D01*
X419Y259D02*
X490Y259D01*
X520Y259D02*
X590Y259D01*
X620Y259D02*
X691Y259D01*
X720Y259D02*
X791Y259D01*
X820Y259D02*
X891Y259D01*
X920Y259D02*
X991Y259D01*
X1020Y259D02*
X1091Y259D01*
X1120Y259D02*
X1191Y259D01*
X1220Y259D02*
X1291Y259D01*
X1321Y259D02*
X1391Y259D01*
X1421Y259D02*
X1492Y259D01*
X1521Y259D02*
X1592Y259D01*
X1621Y259D02*
X1692Y259D01*
X1721Y259D02*
X1792Y259D01*
X319Y258D02*
X391Y258D01*
X419Y258D02*
X491Y258D01*
X519Y258D02*
X591Y258D01*
X619Y258D02*
X691Y258D01*
X719Y258D02*
X791Y258D01*
X819Y258D02*
X891Y258D01*
X919Y258D02*
X992Y258D01*
X1020Y258D02*
X1092Y258D01*
X1120Y258D02*
X1192Y258D01*
X1220Y258D02*
X1292Y258D01*
X1320Y258D02*
X1392Y258D01*
X1420Y258D02*
X1492Y258D01*
X1520Y258D02*
X1592Y258D01*
X1620Y258D02*
X1692Y258D01*
X1721Y258D02*
X1793Y258D01*
X318Y257D02*
X391Y257D01*
X418Y257D02*
X491Y257D01*
X518Y257D02*
X592Y257D01*
X619Y257D02*
X692Y257D01*
X719Y257D02*
X792Y257D01*
X819Y257D02*
X892Y257D01*
X919Y257D02*
X992Y257D01*
X1019Y257D02*
X1092Y257D01*
X1119Y257D02*
X1192Y257D01*
X1219Y257D02*
X1292Y257D01*
X1319Y257D02*
X1393Y257D01*
X1420Y257D02*
X1493Y257D01*
X1520Y257D02*
X1593Y257D01*
X1620Y257D02*
X1693Y257D01*
X1720Y257D02*
X1793Y257D01*
X318Y256D02*
X392Y256D01*
X418Y256D02*
X492Y256D01*
X518Y256D02*
X592Y256D01*
X618Y256D02*
X692Y256D01*
X718Y256D02*
X792Y256D01*
X818Y256D02*
X892Y256D01*
X918Y256D02*
X993Y256D01*
X1019Y256D02*
X1093Y256D01*
X1119Y256D02*
X1193Y256D01*
X1219Y256D02*
X1293Y256D01*
X1319Y256D02*
X1393Y256D01*
X1419Y256D02*
X1493Y256D01*
X1519Y256D02*
X1593Y256D01*
X1619Y256D02*
X1693Y256D01*
X1719Y256D02*
X1794Y256D01*
X317Y255D02*
X392Y255D01*
X417Y255D02*
X492Y255D01*
X517Y255D02*
X593Y255D01*
X618Y255D02*
X693Y255D01*
X718Y255D02*
X793Y255D01*
X818Y255D02*
X893Y255D01*
X918Y255D02*
X993Y255D01*
X1018Y255D02*
X1093Y255D01*
X1118Y255D02*
X1193Y255D01*
X1218Y255D02*
X1293Y255D01*
X1318Y255D02*
X1394Y255D01*
X1419Y255D02*
X1494Y255D01*
X1519Y255D02*
X1594Y255D01*
X1619Y255D02*
X1694Y255D01*
X1719Y255D02*
X1794Y255D01*
X317Y254D02*
X393Y254D01*
X417Y254D02*
X493Y254D01*
X517Y254D02*
X593Y254D01*
X617Y254D02*
X693Y254D01*
X717Y254D02*
X793Y254D01*
X817Y254D02*
X893Y254D01*
X917Y254D02*
X994Y254D01*
X1018Y254D02*
X1094Y254D01*
X1118Y254D02*
X1194Y254D01*
X1218Y254D02*
X1294Y254D01*
X1318Y254D02*
X1394Y254D01*
X1418Y254D02*
X1494Y254D01*
X1518Y254D02*
X1594Y254D01*
X1618Y254D02*
X1694Y254D01*
X1718Y254D02*
X1795Y254D01*
X316Y253D02*
X393Y253D01*
X416Y253D02*
X493Y253D01*
X516Y253D02*
X593Y253D01*
X617Y253D02*
X694Y253D01*
X717Y253D02*
X794Y253D01*
X817Y253D02*
X894Y253D01*
X917Y253D02*
X994Y253D01*
X1017Y253D02*
X1094Y253D01*
X1117Y253D02*
X1194Y253D01*
X1217Y253D02*
X1294Y253D01*
X1318Y253D02*
X1394Y253D01*
X1418Y253D02*
X1495Y253D01*
X1518Y253D02*
X1595Y253D01*
X1618Y253D02*
X1695Y253D01*
X1718Y253D02*
X1795Y253D01*
X316Y252D02*
X394Y252D01*
X416Y252D02*
X494Y252D01*
X516Y252D02*
X594Y252D01*
X616Y252D02*
X694Y252D01*
X716Y252D02*
X794Y252D01*
X817Y252D02*
X894Y252D01*
X917Y252D02*
X994Y252D01*
X1017Y252D02*
X1094Y252D01*
X1117Y252D02*
X1195Y252D01*
X1217Y252D02*
X1295Y252D01*
X1317Y252D02*
X1395Y252D01*
X1417Y252D02*
X1495Y252D01*
X1517Y252D02*
X1595Y252D01*
X1618Y252D02*
X1695Y252D01*
X1718Y252D02*
X1795Y252D01*
X316Y251D02*
X394Y251D01*
X416Y251D02*
X494Y251D01*
X516Y251D02*
X594Y251D01*
X616Y251D02*
X694Y251D01*
X716Y251D02*
X794Y251D01*
X816Y251D02*
X895Y251D01*
X916Y251D02*
X995Y251D01*
X1016Y251D02*
X1095Y251D01*
X1117Y251D02*
X1195Y251D01*
X1217Y251D02*
X1295Y251D01*
X1317Y251D02*
X1395Y251D01*
X1417Y251D02*
X1495Y251D01*
X1517Y251D02*
X1595Y251D01*
X1617Y251D02*
X1696Y251D01*
X1717Y251D02*
X1796Y251D01*
X315Y250D02*
X394Y250D01*
X415Y250D02*
X494Y250D01*
X515Y250D02*
X595Y250D01*
X616Y250D02*
X695Y250D01*
X716Y250D02*
X795Y250D01*
X816Y250D02*
X895Y250D01*
X916Y250D02*
X995Y250D01*
X1016Y250D02*
X1095Y250D01*
X1116Y250D02*
X1195Y250D01*
X1216Y250D02*
X1295Y250D01*
X1316Y250D02*
X1396Y250D01*
X1417Y250D02*
X1496Y250D01*
X1517Y250D02*
X1596Y250D01*
X1617Y250D02*
X1696Y250D01*
X1717Y250D02*
X1796Y250D01*
X315Y249D02*
X395Y249D01*
X415Y249D02*
X495Y249D01*
X515Y249D02*
X595Y249D01*
X615Y249D02*
X695Y249D01*
X715Y249D02*
X795Y249D01*
X816Y249D02*
X895Y249D01*
X916Y249D02*
X995Y249D01*
X1016Y249D02*
X1095Y249D01*
X1116Y249D02*
X1196Y249D01*
X1216Y249D02*
X1296Y249D01*
X1316Y249D02*
X1396Y249D01*
X1416Y249D02*
X1496Y249D01*
X1516Y249D02*
X1596Y249D01*
X1617Y249D02*
X1696Y249D01*
X1717Y249D02*
X1796Y249D01*
X315Y248D02*
X395Y248D01*
X415Y248D02*
X495Y248D01*
X515Y248D02*
X595Y248D01*
X615Y248D02*
X695Y248D01*
X715Y248D02*
X795Y248D01*
X815Y248D02*
X895Y248D01*
X915Y248D02*
X996Y248D01*
X1016Y248D02*
X1096Y248D01*
X1116Y248D02*
X1196Y248D01*
X1216Y248D02*
X1296Y248D01*
X1316Y248D02*
X1396Y248D01*
X1416Y248D02*
X1496Y248D01*
X1516Y248D02*
X1596Y248D01*
X1616Y248D02*
X1696Y248D01*
X1716Y248D02*
X1797Y248D01*
X314Y247D02*
X395Y247D01*
X415Y247D02*
X495Y247D01*
X515Y247D02*
X595Y247D01*
X615Y247D02*
X695Y247D01*
X715Y247D02*
X796Y247D01*
X815Y247D02*
X896Y247D01*
X915Y247D02*
X996Y247D01*
X1015Y247D02*
X1096Y247D01*
X1115Y247D02*
X1196Y247D01*
X1216Y247D02*
X1296Y247D01*
X1316Y247D02*
X1396Y247D01*
X1416Y247D02*
X1496Y247D01*
X1516Y247D02*
X1597Y247D01*
X1616Y247D02*
X1697Y247D01*
X1716Y247D02*
X1797Y247D01*
X314Y246D02*
X395Y246D01*
X414Y246D02*
X495Y246D01*
X514Y246D02*
X596Y246D01*
X615Y246D02*
X696Y246D01*
X715Y246D02*
X796Y246D01*
X815Y246D02*
X896Y246D01*
X915Y246D02*
X996Y246D01*
X1015Y246D02*
X1096Y246D01*
X1115Y246D02*
X1196Y246D01*
X1215Y246D02*
X1296Y246D01*
X1315Y246D02*
X1397Y246D01*
X1416Y246D02*
X1497Y246D01*
X1516Y246D02*
X1597Y246D01*
X1616Y246D02*
X1697Y246D01*
X1716Y246D02*
X1797Y246D01*
X314Y245D02*
X395Y245D01*
X414Y245D02*
X496Y245D01*
X514Y245D02*
X596Y245D01*
X614Y245D02*
X696Y245D01*
X714Y245D02*
X796Y245D01*
X815Y245D02*
X896Y245D01*
X915Y245D02*
X996Y245D01*
X1015Y245D02*
X1096Y245D01*
X1115Y245D02*
X1196Y245D01*
X1215Y245D02*
X1297Y245D01*
X1315Y245D02*
X1397Y245D01*
X1415Y245D02*
X1497Y245D01*
X1516Y245D02*
X1597Y245D01*
X1616Y245D02*
X1697Y245D01*
X1716Y245D02*
X1797Y245D01*
X314Y244D02*
X396Y244D01*
X414Y244D02*
X496Y244D01*
X514Y244D02*
X596Y244D01*
X614Y244D02*
X696Y244D01*
X714Y244D02*
X796Y244D01*
X814Y244D02*
X896Y244D01*
X915Y244D02*
X996Y244D01*
X1015Y244D02*
X1097Y244D01*
X1115Y244D02*
X1197Y244D01*
X1215Y244D02*
X1297Y244D01*
X1315Y244D02*
X1397Y244D01*
X1415Y244D02*
X1497Y244D01*
X1515Y244D02*
X1597Y244D01*
X1615Y244D02*
X1697Y244D01*
X1716Y244D02*
X1797Y244D01*
X314Y243D02*
X396Y243D01*
X414Y243D02*
X496Y243D01*
X514Y243D02*
X596Y243D01*
X614Y243D02*
X696Y243D01*
X714Y243D02*
X796Y243D01*
X814Y243D02*
X896Y243D01*
X914Y243D02*
X997Y243D01*
X1015Y243D02*
X1097Y243D01*
X1115Y243D02*
X1197Y243D01*
X1215Y243D02*
X1297Y243D01*
X1315Y243D02*
X1397Y243D01*
X1415Y243D02*
X1497Y243D01*
X1515Y243D02*
X1597Y243D01*
X1615Y243D02*
X1697Y243D01*
X1715Y243D02*
X1798Y243D01*
X313Y242D02*
X396Y242D01*
X414Y242D02*
X496Y242D01*
X514Y242D02*
X596Y242D01*
X614Y242D02*
X696Y242D01*
X714Y242D02*
X796Y242D01*
X814Y242D02*
X897Y242D01*
X914Y242D02*
X997Y242D01*
X1014Y242D02*
X1097Y242D01*
X1115Y242D02*
X1197Y242D01*
X1215Y242D02*
X1297Y242D01*
X1315Y242D02*
X1397Y242D01*
X1415Y242D02*
X1497Y242D01*
X1515Y242D02*
X1597Y242D01*
X1615Y242D02*
X1698Y242D01*
X1715Y242D02*
X1798Y242D01*
X313Y241D02*
X396Y241D01*
X414Y241D02*
X496Y241D01*
X514Y241D02*
X596Y241D01*
X614Y241D02*
X696Y241D01*
X714Y241D02*
X797Y241D01*
X814Y241D02*
X897Y241D01*
X914Y241D02*
X997Y241D01*
X1014Y241D02*
X1097Y241D01*
X1114Y241D02*
X1197Y241D01*
X1215Y241D02*
X1297Y241D01*
X1315Y241D02*
X1397Y241D01*
X1415Y241D02*
X1497Y241D01*
X1515Y241D02*
X1598Y241D01*
X1615Y241D02*
X1698Y241D01*
X1715Y241D02*
X1798Y241D01*
X313Y240D02*
X396Y240D01*
X413Y240D02*
X496Y240D01*
X514Y240D02*
X596Y240D01*
X614Y240D02*
X696Y240D01*
X714Y240D02*
X797Y240D01*
X814Y240D02*
X897Y240D01*
X914Y240D02*
X997Y240D01*
X1014Y240D02*
X1097Y240D01*
X1114Y240D02*
X1197Y240D01*
X1214Y240D02*
X1297Y240D01*
X1315Y240D02*
X1397Y240D01*
X1415Y240D02*
X1498Y240D01*
X1515Y240D02*
X1598Y240D01*
X1615Y240D02*
X1698Y240D01*
X1715Y240D02*
X1798Y240D01*
X313Y239D02*
X396Y239D01*
X413Y239D02*
X496Y239D01*
X514Y239D02*
X596Y239D01*
X614Y239D02*
X697Y239D01*
X714Y239D02*
X797Y239D01*
X814Y239D02*
X897Y239D01*
X914Y239D02*
X997Y239D01*
X1014Y239D02*
X1097Y239D01*
X1114Y239D02*
X1197Y239D01*
X1214Y239D02*
X1297Y239D01*
X1315Y239D02*
X1397Y239D01*
X1415Y239D02*
X1498Y239D01*
X1515Y239D02*
X1598Y239D01*
X1615Y239D02*
X1698Y239D01*
X1715Y239D02*
X1798Y239D01*
X313Y238D02*
X396Y238D01*
X413Y238D02*
X496Y238D01*
X513Y238D02*
X596Y238D01*
X614Y238D02*
X697Y238D01*
X714Y238D02*
X797Y238D01*
X814Y238D02*
X897Y238D01*
X914Y238D02*
X997Y238D01*
X1014Y238D02*
X1097Y238D01*
X1114Y238D02*
X1197Y238D01*
X1214Y238D02*
X1297Y238D01*
X1315Y238D02*
X1398Y238D01*
X1415Y238D02*
X1498Y238D01*
X1515Y238D02*
X1598Y238D01*
X1615Y238D02*
X1698Y238D01*
X1715Y238D02*
X1798Y238D01*
X313Y237D02*
X396Y237D01*
X413Y237D02*
X496Y237D01*
X513Y237D02*
X597Y237D01*
X614Y237D02*
X697Y237D01*
X714Y237D02*
X797Y237D01*
X814Y237D02*
X897Y237D01*
X914Y237D02*
X997Y237D01*
X1014Y237D02*
X1097Y237D01*
X1114Y237D02*
X1197Y237D01*
X1214Y237D02*
X1297Y237D01*
X1314Y237D02*
X1398Y237D01*
X1415Y237D02*
X1498Y237D01*
X1515Y237D02*
X1598Y237D01*
X1615Y237D02*
X1698Y237D01*
X1715Y237D02*
X1798Y237D01*
X313Y236D02*
X396Y236D01*
X413Y236D02*
X496Y236D01*
X513Y236D02*
X596Y236D01*
X614Y236D02*
X697Y236D01*
X714Y236D02*
X797Y236D01*
X814Y236D02*
X897Y236D01*
X914Y236D02*
X997Y236D01*
X1014Y236D02*
X1097Y236D01*
X1114Y236D02*
X1197Y236D01*
X1214Y236D02*
X1297Y236D01*
X1315Y236D02*
X1397Y236D01*
X1415Y236D02*
X1498Y236D01*
X1515Y236D02*
X1598Y236D01*
X1615Y236D02*
X1698Y236D01*
X1715Y236D02*
X1798Y236D01*
X313Y235D02*
X396Y235D01*
X413Y235D02*
X496Y235D01*
X514Y235D02*
X596Y235D01*
X614Y235D02*
X697Y235D01*
X714Y235D02*
X797Y235D01*
X814Y235D02*
X897Y235D01*
X914Y235D02*
X997Y235D01*
X1014Y235D02*
X1097Y235D01*
X1114Y235D02*
X1197Y235D01*
X1214Y235D02*
X1297Y235D01*
X1315Y235D02*
X1397Y235D01*
X1415Y235D02*
X1498Y235D01*
X1515Y235D02*
X1598Y235D01*
X1615Y235D02*
X1698Y235D01*
X1715Y235D02*
X1798Y235D01*
X313Y234D02*
X396Y234D01*
X413Y234D02*
X496Y234D01*
X514Y234D02*
X596Y234D01*
X614Y234D02*
X696Y234D01*
X714Y234D02*
X797Y234D01*
X814Y234D02*
X897Y234D01*
X914Y234D02*
X997Y234D01*
X1014Y234D02*
X1097Y234D01*
X1114Y234D02*
X1197Y234D01*
X1215Y234D02*
X1297Y234D01*
X1315Y234D02*
X1397Y234D01*
X1415Y234D02*
X1497Y234D01*
X1515Y234D02*
X1598Y234D01*
X1615Y234D02*
X1698Y234D01*
X1715Y234D02*
X1798Y234D01*
X313Y233D02*
X396Y233D01*
X414Y233D02*
X496Y233D01*
X514Y233D02*
X596Y233D01*
X614Y233D02*
X696Y233D01*
X714Y233D02*
X797Y233D01*
X814Y233D02*
X897Y233D01*
X914Y233D02*
X997Y233D01*
X1014Y233D02*
X1097Y233D01*
X1114Y233D02*
X1197Y233D01*
X1215Y233D02*
X1297Y233D01*
X1315Y233D02*
X1397Y233D01*
X1415Y233D02*
X1497Y233D01*
X1515Y233D02*
X1598Y233D01*
X1615Y233D02*
X1698Y233D01*
X1715Y233D02*
X1798Y233D01*
X314Y232D02*
X396Y232D01*
X414Y232D02*
X496Y232D01*
X514Y232D02*
X596Y232D01*
X614Y232D02*
X696Y232D01*
X714Y232D02*
X796Y232D01*
X814Y232D02*
X896Y232D01*
X914Y232D02*
X997Y232D01*
X1015Y232D02*
X1097Y232D01*
X1115Y232D02*
X1197Y232D01*
X1215Y232D02*
X1297Y232D01*
X1315Y232D02*
X1397Y232D01*
X1415Y232D02*
X1497Y232D01*
X1515Y232D02*
X1597Y232D01*
X1615Y232D02*
X1698Y232D01*
X1715Y232D02*
X1798Y232D01*
X314Y231D02*
X396Y231D01*
X414Y231D02*
X496Y231D01*
X514Y231D02*
X596Y231D01*
X614Y231D02*
X696Y231D01*
X714Y231D02*
X796Y231D01*
X814Y231D02*
X896Y231D01*
X915Y231D02*
X996Y231D01*
X1015Y231D02*
X1097Y231D01*
X1115Y231D02*
X1197Y231D01*
X1215Y231D02*
X1297Y231D01*
X1315Y231D02*
X1397Y231D01*
X1415Y231D02*
X1497Y231D01*
X1515Y231D02*
X1597Y231D01*
X1615Y231D02*
X1697Y231D01*
X1716Y231D02*
X1797Y231D01*
X314Y230D02*
X396Y230D01*
X414Y230D02*
X496Y230D01*
X514Y230D02*
X596Y230D01*
X614Y230D02*
X696Y230D01*
X714Y230D02*
X796Y230D01*
X815Y230D02*
X896Y230D01*
X915Y230D02*
X996Y230D01*
X1015Y230D02*
X1096Y230D01*
X1115Y230D02*
X1197Y230D01*
X1215Y230D02*
X1297Y230D01*
X1315Y230D02*
X1397Y230D01*
X1415Y230D02*
X1497Y230D01*
X1515Y230D02*
X1597Y230D01*
X1616Y230D02*
X1697Y230D01*
X1716Y230D02*
X1797Y230D01*
X314Y229D02*
X395Y229D01*
X414Y229D02*
X495Y229D01*
X514Y229D02*
X596Y229D01*
X614Y229D02*
X696Y229D01*
X715Y229D02*
X796Y229D01*
X815Y229D02*
X896Y229D01*
X915Y229D02*
X996Y229D01*
X1015Y229D02*
X1096Y229D01*
X1115Y229D02*
X1196Y229D01*
X1215Y229D02*
X1297Y229D01*
X1315Y229D02*
X1397Y229D01*
X1415Y229D02*
X1497Y229D01*
X1516Y229D02*
X1597Y229D01*
X1616Y229D02*
X1697Y229D01*
X1716Y229D02*
X1797Y229D01*
X314Y228D02*
X395Y228D01*
X414Y228D02*
X495Y228D01*
X515Y228D02*
X595Y228D01*
X615Y228D02*
X696Y228D01*
X715Y228D02*
X796Y228D01*
X815Y228D02*
X896Y228D01*
X915Y228D02*
X996Y228D01*
X1015Y228D02*
X1096Y228D01*
X1115Y228D02*
X1196Y228D01*
X1215Y228D02*
X1296Y228D01*
X1316Y228D02*
X1396Y228D01*
X1416Y228D02*
X1497Y228D01*
X1516Y228D02*
X1597Y228D01*
X1616Y228D02*
X1697Y228D01*
X1716Y228D02*
X1797Y228D01*
X315Y227D02*
X395Y227D01*
X415Y227D02*
X495Y227D01*
X515Y227D02*
X595Y227D01*
X615Y227D02*
X695Y227D01*
X715Y227D02*
X795Y227D01*
X815Y227D02*
X896Y227D01*
X915Y227D02*
X996Y227D01*
X1015Y227D02*
X1096Y227D01*
X1116Y227D02*
X1196Y227D01*
X1216Y227D02*
X1296Y227D01*
X1316Y227D02*
X1396Y227D01*
X1416Y227D02*
X1496Y227D01*
X1516Y227D02*
X1596Y227D01*
X1616Y227D02*
X1697Y227D01*
X1716Y227D02*
X1797Y227D01*
X315Y226D02*
X395Y226D01*
X415Y226D02*
X495Y226D01*
X515Y226D02*
X595Y226D01*
X615Y226D02*
X695Y226D01*
X715Y226D02*
X795Y226D01*
X815Y226D02*
X895Y226D01*
X916Y226D02*
X995Y226D01*
X1016Y226D02*
X1096Y226D01*
X1116Y226D02*
X1196Y226D01*
X1216Y226D02*
X1296Y226D01*
X1316Y226D02*
X1396Y226D01*
X1416Y226D02*
X1496Y226D01*
X1516Y226D02*
X1596Y226D01*
X1616Y226D02*
X1696Y226D01*
X1717Y226D02*
X1796Y226D01*
X315Y225D02*
X394Y225D01*
X415Y225D02*
X494Y225D01*
X515Y225D02*
X595Y225D01*
X615Y225D02*
X695Y225D01*
X716Y225D02*
X795Y225D01*
X816Y225D02*
X895Y225D01*
X916Y225D02*
X995Y225D01*
X1016Y225D02*
X1095Y225D01*
X1116Y225D02*
X1195Y225D01*
X1216Y225D02*
X1296Y225D01*
X1316Y225D02*
X1396Y225D01*
X1416Y225D02*
X1496Y225D01*
X1517Y225D02*
X1596Y225D01*
X1617Y225D02*
X1696Y225D01*
X1717Y225D02*
X1796Y225D01*
X315Y224D02*
X394Y224D01*
X416Y224D02*
X494Y224D01*
X516Y224D02*
X594Y224D01*
X616Y224D02*
X694Y224D01*
X716Y224D02*
X795Y224D01*
X816Y224D02*
X895Y224D01*
X916Y224D02*
X995Y224D01*
X1016Y224D02*
X1095Y224D01*
X1116Y224D02*
X1195Y224D01*
X1217Y224D02*
X1295Y224D01*
X1317Y224D02*
X1395Y224D01*
X1417Y224D02*
X1495Y224D01*
X1517Y224D02*
X1596Y224D01*
X1617Y224D02*
X1696Y224D01*
X1717Y224D02*
X1796Y224D01*
X316Y223D02*
X394Y223D01*
X416Y223D02*
X494Y223D01*
X516Y223D02*
X594Y223D01*
X616Y223D02*
X694Y223D01*
X716Y223D02*
X794Y223D01*
X816Y223D02*
X894Y223D01*
X917Y223D02*
X994Y223D01*
X1017Y223D02*
X1095Y223D01*
X1117Y223D02*
X1195Y223D01*
X1217Y223D02*
X1295Y223D01*
X1317Y223D02*
X1395Y223D01*
X1417Y223D02*
X1495Y223D01*
X1517Y223D02*
X1595Y223D01*
X1617Y223D02*
X1695Y223D01*
X1718Y223D02*
X1795Y223D01*
X316Y222D02*
X393Y222D01*
X416Y222D02*
X493Y222D01*
X516Y222D02*
X594Y222D01*
X616Y222D02*
X694Y222D01*
X717Y222D02*
X794Y222D01*
X817Y222D02*
X894Y222D01*
X917Y222D02*
X994Y222D01*
X1017Y222D02*
X1094Y222D01*
X1117Y222D02*
X1194Y222D01*
X1217Y222D02*
X1294Y222D01*
X1317Y222D02*
X1395Y222D01*
X1418Y222D02*
X1495Y222D01*
X1518Y222D02*
X1595Y222D01*
X1618Y222D02*
X1695Y222D01*
X1718Y222D02*
X1795Y222D01*
X316Y221D02*
X393Y221D01*
X417Y221D02*
X493Y221D01*
X517Y221D02*
X593Y221D01*
X617Y221D02*
X693Y221D01*
X717Y221D02*
X793Y221D01*
X817Y221D02*
X894Y221D01*
X917Y221D02*
X994Y221D01*
X1017Y221D02*
X1094Y221D01*
X1118Y221D02*
X1194Y221D01*
X1218Y221D02*
X1294Y221D01*
X1318Y221D02*
X1394Y221D01*
X1418Y221D02*
X1494Y221D01*
X1518Y221D02*
X1595Y221D01*
X1618Y221D02*
X1695Y221D01*
X1718Y221D02*
X1795Y221D01*
X317Y220D02*
X392Y220D01*
X417Y220D02*
X493Y220D01*
X517Y220D02*
X593Y220D01*
X617Y220D02*
X693Y220D01*
X717Y220D02*
X793Y220D01*
X818Y220D02*
X893Y220D01*
X918Y220D02*
X993Y220D01*
X1018Y220D02*
X1093Y220D01*
X1118Y220D02*
X1194Y220D01*
X1218Y220D02*
X1294Y220D01*
X1318Y220D02*
X1394Y220D01*
X1418Y220D02*
X1494Y220D01*
X1519Y220D02*
X1594Y220D01*
X1619Y220D02*
X1694Y220D01*
X1719Y220D02*
X1794Y220D01*
X317Y219D02*
X392Y219D01*
X418Y219D02*
X492Y219D01*
X518Y219D02*
X592Y219D01*
X618Y219D02*
X692Y219D01*
X718Y219D02*
X792Y219D01*
X818Y219D02*
X893Y219D01*
X918Y219D02*
X993Y219D01*
X1018Y219D02*
X1093Y219D01*
X1118Y219D02*
X1193Y219D01*
X1219Y219D02*
X1293Y219D01*
X1319Y219D02*
X1393Y219D01*
X1419Y219D02*
X1493Y219D01*
X1519Y219D02*
X1594Y219D01*
X1619Y219D02*
X1694Y219D01*
X1719Y219D02*
X1794Y219D01*
X318Y218D02*
X391Y218D01*
X418Y218D02*
X492Y218D01*
X518Y218D02*
X592Y218D01*
X618Y218D02*
X692Y218D01*
X718Y218D02*
X792Y218D01*
X819Y218D02*
X892Y218D01*
X919Y218D02*
X992Y218D01*
X1019Y218D02*
X1092Y218D01*
X1119Y218D02*
X1193Y218D01*
X1219Y218D02*
X1293Y218D01*
X1319Y218D02*
X1393Y218D01*
X1419Y218D02*
X1493Y218D01*
X1519Y218D02*
X1593Y218D01*
X1620Y218D02*
X1693Y218D01*
X1720Y218D02*
X1793Y218D01*
X318Y217D02*
X391Y217D01*
X419Y217D02*
X491Y217D01*
X519Y217D02*
X591Y217D01*
X619Y217D02*
X691Y217D01*
X719Y217D02*
X791Y217D01*
X819Y217D02*
X892Y217D01*
X919Y217D02*
X992Y217D01*
X1019Y217D02*
X1092Y217D01*
X1120Y217D02*
X1192Y217D01*
X1220Y217D02*
X1292Y217D01*
X1320Y217D02*
X1392Y217D01*
X1420Y217D02*
X1492Y217D01*
X1520Y217D02*
X1593Y217D01*
X1620Y217D02*
X1693Y217D01*
X1720Y217D02*
X1793Y217D01*
X319Y216D02*
X390Y216D01*
X419Y216D02*
X490Y216D01*
X519Y216D02*
X591Y216D01*
X619Y216D02*
X691Y216D01*
X720Y216D02*
X791Y216D01*
X820Y216D02*
X891Y216D01*
X920Y216D02*
X991Y216D01*
X1020Y216D02*
X1091Y216D01*
X1120Y216D02*
X1191Y216D01*
X1220Y216D02*
X1291Y216D01*
X1320Y216D02*
X1392Y216D01*
X1421Y216D02*
X1492Y216D01*
X1521Y216D02*
X1592Y216D01*
X1621Y216D02*
X1692Y216D01*
X1721Y216D02*
X1792Y216D01*
X320Y215D02*
X390Y215D01*
X420Y215D02*
X490Y215D01*
X520Y215D02*
X590Y215D01*
X620Y215D02*
X690Y215D01*
X720Y215D02*
X790Y215D01*
X820Y215D02*
X890Y215D01*
X920Y215D02*
X990Y215D01*
X1021Y215D02*
X1091Y215D01*
X1121Y215D02*
X1191Y215D01*
X1221Y215D02*
X1291Y215D01*
X1321Y215D02*
X1391Y215D01*
X1421Y215D02*
X1491Y215D01*
X1521Y215D02*
X1591Y215D01*
X1621Y215D02*
X1691Y215D01*
X1722Y215D02*
X1792Y215D01*
X320Y214D02*
X389Y214D01*
X420Y214D02*
X489Y214D01*
X521Y214D02*
X589Y214D01*
X621Y214D02*
X689Y214D01*
X721Y214D02*
X790Y214D01*
X821Y214D02*
X890Y214D01*
X921Y214D02*
X990Y214D01*
X1021Y214D02*
X1090Y214D01*
X1121Y214D02*
X1190Y214D01*
X1221Y214D02*
X1290Y214D01*
X1322Y214D02*
X1390Y214D01*
X1422Y214D02*
X1491Y214D01*
X1522Y214D02*
X1591Y214D01*
X1622Y214D02*
X1691Y214D01*
X1722Y214D02*
X1791Y214D01*
X321Y213D02*
X388Y213D01*
X421Y213D02*
X489Y213D01*
X521Y213D02*
X589Y213D01*
X621Y213D02*
X689Y213D01*
X722Y213D02*
X789Y213D01*
X822Y213D02*
X889Y213D01*
X922Y213D02*
X989Y213D01*
X1022Y213D02*
X1089Y213D01*
X1122Y213D02*
X1189Y213D01*
X1222Y213D02*
X1290Y213D01*
X1322Y213D02*
X1390Y213D01*
X1422Y213D02*
X1490Y213D01*
X1523Y213D02*
X1590Y213D01*
X1623Y213D02*
X1690Y213D01*
X1723Y213D02*
X1790Y213D01*
X322Y212D02*
X388Y212D01*
X422Y212D02*
X488Y212D01*
X522Y212D02*
X588Y212D01*
X622Y212D02*
X688Y212D01*
X722Y212D02*
X788Y212D01*
X822Y212D02*
X888Y212D01*
X923Y212D02*
X988Y212D01*
X1023Y212D02*
X1089Y212D01*
X1123Y212D02*
X1189Y212D01*
X1223Y212D02*
X1289Y212D01*
X1323Y212D02*
X1389Y212D01*
X1423Y212D02*
X1489Y212D01*
X1523Y212D02*
X1589Y212D01*
X1623Y212D02*
X1689Y212D01*
X1724Y212D02*
X1789Y212D01*
X323Y211D02*
X387Y211D01*
X423Y211D02*
X487Y211D01*
X523Y211D02*
X587Y211D01*
X623Y211D02*
X687Y211D01*
X723Y211D02*
X787Y211D01*
X823Y211D02*
X888Y211D01*
X923Y211D02*
X988Y211D01*
X1023Y211D02*
X1088Y211D01*
X1124Y211D02*
X1188Y211D01*
X1224Y211D02*
X1288Y211D01*
X1324Y211D02*
X1388Y211D01*
X1424Y211D02*
X1488Y211D01*
X1524Y211D02*
X1588Y211D01*
X1624Y211D02*
X1689Y211D01*
X1724Y211D02*
X1789Y211D01*
X323Y210D02*
X386Y210D01*
X423Y210D02*
X486Y210D01*
X524Y210D02*
X586Y210D01*
X624Y210D02*
X686Y210D01*
X724Y210D02*
X787Y210D01*
X824Y210D02*
X887Y210D01*
X924Y210D02*
X987Y210D01*
X1024Y210D02*
X1087Y210D01*
X1124Y210D02*
X1187Y210D01*
X1225Y210D02*
X1287Y210D01*
X1325Y210D02*
X1387Y210D01*
X1425Y210D02*
X1488Y210D01*
X1525Y210D02*
X1588Y210D01*
X1625Y210D02*
X1688Y210D01*
X1725Y210D02*
X1788Y210D01*
X324Y209D02*
X385Y209D01*
X424Y209D02*
X485Y209D01*
X524Y209D02*
X585Y209D01*
X625Y209D02*
X686Y209D01*
X725Y209D02*
X786Y209D01*
X825Y209D02*
X886Y209D01*
X925Y209D02*
X986Y209D01*
X1025Y209D02*
X1086Y209D01*
X1125Y209D02*
X1186Y209D01*
X1225Y209D02*
X1286Y209D01*
X1326Y209D02*
X1386Y209D01*
X1426Y209D02*
X1487Y209D01*
X1526Y209D02*
X1587Y209D01*
X1626Y209D02*
X1687Y209D01*
X1726Y209D02*
X1787Y209D01*
X325Y208D02*
X384Y208D01*
X425Y208D02*
X484Y208D01*
X525Y208D02*
X585Y208D01*
X626Y208D02*
X685Y208D01*
X726Y208D02*
X785Y208D01*
X826Y208D02*
X885Y208D01*
X926Y208D02*
X985Y208D01*
X1026Y208D02*
X1085Y208D01*
X1126Y208D02*
X1185Y208D01*
X1226Y208D02*
X1285Y208D01*
X1326Y208D02*
X1386Y208D01*
X1427Y208D02*
X1486Y208D01*
X1527Y208D02*
X1586Y208D01*
X1627Y208D02*
X1686Y208D01*
X1727Y208D02*
X1786Y208D01*
X326Y207D02*
X383Y207D01*
X426Y207D02*
X483Y207D01*
X526Y207D02*
X584Y207D01*
X627Y207D02*
X684Y207D01*
X727Y207D02*
X784Y207D01*
X827Y207D02*
X884Y207D01*
X927Y207D02*
X984Y207D01*
X1027Y207D02*
X1084Y207D01*
X1127Y207D02*
X1184Y207D01*
X1227Y207D02*
X1284Y207D01*
X1327Y207D02*
X1385Y207D01*
X1428Y207D02*
X1485Y207D01*
X1528Y207D02*
X1585Y207D01*
X1628Y207D02*
X1685Y207D01*
X1728Y207D02*
X1785Y207D01*
X327Y206D02*
X382Y206D01*
X427Y206D02*
X482Y206D01*
X528Y206D02*
X582Y206D01*
X628Y206D02*
X683Y206D01*
X728Y206D02*
X783Y206D01*
X828Y206D02*
X883Y206D01*
X928Y206D02*
X983Y206D01*
X1028Y206D02*
X1083Y206D01*
X1128Y206D02*
X1183Y206D01*
X1228Y206D02*
X1283Y206D01*
X1329Y206D02*
X1383Y206D01*
X1429Y206D02*
X1484Y206D01*
X1529Y206D02*
X1584Y206D01*
X1629Y206D02*
X1684Y206D01*
X1729Y206D02*
X1784Y206D01*
X328Y205D02*
X381Y205D01*
X429Y205D02*
X481Y205D01*
X529Y205D02*
X581Y205D01*
X629Y205D02*
X681Y205D01*
X729Y205D02*
X782Y205D01*
X829Y205D02*
X882Y205D01*
X929Y205D02*
X982Y205D01*
X1029Y205D02*
X1082Y205D01*
X1129Y205D02*
X1182Y205D01*
X1230Y205D02*
X1282Y205D01*
X1330Y205D02*
X1382Y205D01*
X1430Y205D02*
X1482Y205D01*
X1530Y205D02*
X1583Y205D01*
X1630Y205D02*
X1683Y205D01*
X1730Y205D02*
X1783Y205D01*
X330Y204D02*
X380Y204D01*
X430Y204D02*
X480Y204D01*
X530Y204D02*
X580Y204D01*
X630Y204D02*
X680Y204D01*
X730Y204D02*
X780Y204D01*
X830Y204D02*
X880Y204D01*
X931Y204D02*
X980Y204D01*
X1031Y204D02*
X1081Y204D01*
X1131Y204D02*
X1181Y204D01*
X1231Y204D02*
X1281Y204D01*
X1331Y204D02*
X1381Y204D01*
X1431Y204D02*
X1481Y204D01*
X1531Y204D02*
X1581Y204D01*
X1631Y204D02*
X1681Y204D01*
X1732Y204D02*
X1781Y204D01*
X331Y203D02*
X378Y203D01*
X431Y203D02*
X478Y203D01*
X531Y203D02*
X579Y203D01*
X632Y203D02*
X679Y203D01*
X732Y203D02*
X779Y203D01*
X832Y203D02*
X879Y203D01*
X932Y203D02*
X979Y203D01*
X1032Y203D02*
X1079Y203D01*
X1132Y203D02*
X1179Y203D01*
X1232Y203D02*
X1279Y203D01*
X1332Y203D02*
X1380Y203D01*
X1433Y203D02*
X1480Y203D01*
X1533Y203D02*
X1580Y203D01*
X1633Y203D02*
X1680Y203D01*
X1733Y203D02*
X1780Y203D01*
X333Y202D02*
X377Y202D01*
X433Y202D02*
X477Y202D01*
X533Y202D02*
X577Y202D01*
X633Y202D02*
X677Y202D01*
X733Y202D02*
X777Y202D01*
X833Y202D02*
X877Y202D01*
X933Y202D02*
X978Y202D01*
X1034Y202D02*
X1078Y202D01*
X1134Y202D02*
X1178Y202D01*
X1234Y202D02*
X1278Y202D01*
X1334Y202D02*
X1378Y202D01*
X1434Y202D02*
X1478Y202D01*
X1534Y202D02*
X1578Y202D01*
X1634Y202D02*
X1678Y202D01*
X1734Y202D02*
X1779Y202D01*
X334Y201D02*
X375Y201D01*
X434Y201D02*
X475Y201D01*
X535Y201D02*
X575Y201D01*
X635Y201D02*
X676Y201D01*
X735Y201D02*
X776Y201D01*
X835Y201D02*
X876Y201D01*
X935Y201D02*
X976Y201D01*
X1035Y201D02*
X1076Y201D01*
X1135Y201D02*
X1176Y201D01*
X1235Y201D02*
X1276Y201D01*
X1336Y201D02*
X1376Y201D01*
X1436Y201D02*
X1477Y201D01*
X1536Y201D02*
X1577Y201D01*
X1636Y201D02*
X1677Y201D01*
X1736Y201D02*
X1777Y201D01*
X336Y200D02*
X373Y200D01*
X436Y200D02*
X474Y200D01*
X536Y200D02*
X574Y200D01*
X636Y200D02*
X674Y200D01*
X737Y200D02*
X774Y200D01*
X837Y200D02*
X874Y200D01*
X937Y200D02*
X974Y200D01*
X1037Y200D02*
X1074Y200D01*
X1137Y200D02*
X1174Y200D01*
X1237Y200D02*
X1275Y200D01*
X1337Y200D02*
X1375Y200D01*
X1437Y200D02*
X1475Y200D01*
X1538Y200D02*
X1575Y200D01*
X1638Y200D02*
X1675Y200D01*
X1738Y200D02*
X1775Y200D01*
X338Y199D02*
X371Y199D01*
X438Y199D02*
X472Y199D01*
X538Y199D02*
X572Y199D01*
X638Y199D02*
X672Y199D01*
X739Y199D02*
X772Y199D01*
X839Y199D02*
X872Y199D01*
X939Y199D02*
X972Y199D01*
X1039Y199D02*
X1072Y199D01*
X1139Y199D02*
X1172Y199D01*
X1239Y199D02*
X1273Y199D01*
X1339Y199D02*
X1373Y199D01*
X1439Y199D02*
X1473Y199D01*
X1540Y199D02*
X1573Y199D01*
X1640Y199D02*
X1673Y199D01*
X1740Y199D02*
X1773Y199D01*
X341Y198D02*
X369Y198D01*
X441Y198D02*
X469Y198D01*
X541Y198D02*
X569Y198D01*
X641Y198D02*
X669Y198D01*
X741Y198D02*
X769Y198D01*
X841Y198D02*
X870Y198D01*
X941Y198D02*
X970Y198D01*
X1041Y198D02*
X1070Y198D01*
X1142Y198D02*
X1170Y198D01*
X1242Y198D02*
X1270Y198D01*
X1342Y198D02*
X1370Y198D01*
X1442Y198D02*
X1470Y198D01*
X1542Y198D02*
X1570Y198D01*
X1642Y198D02*
X1671Y198D01*
X1742Y198D02*
X1771Y198D01*
X344Y197D02*
X366Y197D01*
X444Y197D02*
X466Y197D01*
X544Y197D02*
X566Y197D01*
X644Y197D02*
X666Y197D01*
X744Y197D02*
X766Y197D01*
X844Y197D02*
X866Y197D01*
X944Y197D02*
X967Y197D01*
X1045Y197D02*
X1067Y197D01*
X1145Y197D02*
X1167Y197D01*
X1245Y197D02*
X1267Y197D01*
X1345Y197D02*
X1367Y197D01*
X1445Y197D02*
X1467Y197D01*
X1545Y197D02*
X1567Y197D01*
X1645Y197D02*
X1667Y197D01*
X1746Y197D02*
X1768Y197D01*
X348Y196D02*
X361Y196D01*
X448Y196D02*
X461Y196D01*
X548Y196D02*
X561Y196D01*
X649Y196D02*
X662Y196D01*
X749Y196D02*
X762Y196D01*
X849Y196D02*
X862Y196D01*
X949Y196D02*
X962Y196D01*
X1049Y196D02*
X1062Y196D01*
X1149Y196D02*
X1162Y196D01*
X1249Y196D02*
X1262Y196D01*
X1350Y196D02*
X1363Y196D01*
X1450Y196D02*
X1463Y196D01*
X1550Y196D02*
X1563Y196D01*
X1650Y196D02*
X1663Y196D01*
X1750Y196D02*
X1763Y196D01*
D02*
G04 End of Mask1*
M02*