G04 MADE WITH FRITZING*
G04 WWW.FRITZING.ORG*
G04 DOUBLE SIDED*
G04 HOLES PLATED*
G04 CONTOUR ON CENTER OF CONTOUR VECTOR*
%ASAXBY*%
%FSLAX23Y23*%
%MOIN*%
%OFA0B0*%
%SFA1.0B1.0*%
%ADD10C,0.005000*%
%ADD11R,0.001000X0.001000*%
%LNSILK1*%
G90*
G70*
G54D10*
X3168Y201D02*
X3168Y136D01*
D02*
X3168Y136D02*
X3168Y71D01*
D02*
X3168Y71D02*
X2577Y71D01*
D02*
X2577Y71D02*
X2577Y136D01*
D02*
X2577Y136D02*
X2577Y201D01*
D02*
X3168Y136D02*
X3176Y136D01*
D02*
X2577Y136D02*
X2568Y136D01*
G54D11*
X0Y1436D02*
X3339Y1436D01*
X0Y1435D02*
X3339Y1435D01*
X0Y1434D02*
X3339Y1434D01*
X0Y1433D02*
X3339Y1433D01*
X0Y1432D02*
X3339Y1432D01*
X0Y1431D02*
X3339Y1431D01*
X0Y1430D02*
X3339Y1430D01*
X0Y1429D02*
X3339Y1429D01*
X0Y1428D02*
X7Y1428D01*
X3332Y1428D02*
X3339Y1428D01*
X0Y1427D02*
X7Y1427D01*
X3332Y1427D02*
X3339Y1427D01*
X0Y1426D02*
X7Y1426D01*
X3332Y1426D02*
X3339Y1426D01*
X0Y1425D02*
X7Y1425D01*
X3332Y1425D02*
X3339Y1425D01*
X0Y1424D02*
X7Y1424D01*
X3332Y1424D02*
X3339Y1424D01*
X0Y1423D02*
X7Y1423D01*
X3332Y1423D02*
X3339Y1423D01*
X0Y1422D02*
X7Y1422D01*
X3332Y1422D02*
X3339Y1422D01*
X0Y1421D02*
X7Y1421D01*
X3332Y1421D02*
X3339Y1421D01*
X0Y1420D02*
X7Y1420D01*
X3332Y1420D02*
X3339Y1420D01*
X0Y1419D02*
X7Y1419D01*
X3332Y1419D02*
X3339Y1419D01*
X0Y1418D02*
X7Y1418D01*
X3332Y1418D02*
X3339Y1418D01*
X0Y1417D02*
X7Y1417D01*
X3332Y1417D02*
X3339Y1417D01*
X0Y1416D02*
X7Y1416D01*
X3332Y1416D02*
X3339Y1416D01*
X0Y1415D02*
X7Y1415D01*
X3332Y1415D02*
X3339Y1415D01*
X0Y1414D02*
X7Y1414D01*
X3332Y1414D02*
X3339Y1414D01*
X0Y1413D02*
X7Y1413D01*
X3332Y1413D02*
X3339Y1413D01*
X0Y1412D02*
X7Y1412D01*
X3332Y1412D02*
X3339Y1412D01*
X0Y1411D02*
X7Y1411D01*
X3332Y1411D02*
X3339Y1411D01*
X0Y1410D02*
X7Y1410D01*
X3332Y1410D02*
X3339Y1410D01*
X0Y1409D02*
X7Y1409D01*
X3332Y1409D02*
X3339Y1409D01*
X0Y1408D02*
X7Y1408D01*
X3332Y1408D02*
X3339Y1408D01*
X0Y1407D02*
X7Y1407D01*
X3332Y1407D02*
X3339Y1407D01*
X0Y1406D02*
X7Y1406D01*
X3332Y1406D02*
X3339Y1406D01*
X0Y1405D02*
X7Y1405D01*
X3332Y1405D02*
X3339Y1405D01*
X0Y1404D02*
X7Y1404D01*
X3332Y1404D02*
X3339Y1404D01*
X0Y1403D02*
X7Y1403D01*
X3332Y1403D02*
X3339Y1403D01*
X0Y1402D02*
X7Y1402D01*
X3332Y1402D02*
X3339Y1402D01*
X0Y1401D02*
X7Y1401D01*
X3332Y1401D02*
X3339Y1401D01*
X0Y1400D02*
X7Y1400D01*
X3332Y1400D02*
X3339Y1400D01*
X0Y1399D02*
X7Y1399D01*
X3332Y1399D02*
X3339Y1399D01*
X0Y1398D02*
X7Y1398D01*
X3332Y1398D02*
X3339Y1398D01*
X0Y1397D02*
X7Y1397D01*
X3332Y1397D02*
X3339Y1397D01*
X0Y1396D02*
X7Y1396D01*
X3332Y1396D02*
X3339Y1396D01*
X0Y1395D02*
X7Y1395D01*
X3332Y1395D02*
X3339Y1395D01*
X0Y1394D02*
X7Y1394D01*
X3332Y1394D02*
X3339Y1394D01*
X0Y1393D02*
X7Y1393D01*
X3332Y1393D02*
X3339Y1393D01*
X0Y1392D02*
X7Y1392D01*
X3332Y1392D02*
X3339Y1392D01*
X0Y1391D02*
X7Y1391D01*
X3332Y1391D02*
X3339Y1391D01*
X0Y1390D02*
X7Y1390D01*
X3332Y1390D02*
X3339Y1390D01*
X0Y1389D02*
X7Y1389D01*
X3332Y1389D02*
X3339Y1389D01*
X0Y1388D02*
X7Y1388D01*
X3332Y1388D02*
X3339Y1388D01*
X0Y1387D02*
X7Y1387D01*
X3332Y1387D02*
X3339Y1387D01*
X0Y1386D02*
X7Y1386D01*
X3332Y1386D02*
X3339Y1386D01*
X0Y1385D02*
X7Y1385D01*
X3332Y1385D02*
X3339Y1385D01*
X0Y1384D02*
X7Y1384D01*
X3332Y1384D02*
X3339Y1384D01*
X0Y1383D02*
X7Y1383D01*
X3332Y1383D02*
X3339Y1383D01*
X0Y1382D02*
X7Y1382D01*
X3332Y1382D02*
X3339Y1382D01*
X0Y1381D02*
X7Y1381D01*
X3332Y1381D02*
X3339Y1381D01*
X0Y1380D02*
X7Y1380D01*
X3332Y1380D02*
X3339Y1380D01*
X0Y1379D02*
X7Y1379D01*
X3332Y1379D02*
X3339Y1379D01*
X0Y1378D02*
X7Y1378D01*
X3332Y1378D02*
X3339Y1378D01*
X0Y1377D02*
X7Y1377D01*
X3332Y1377D02*
X3339Y1377D01*
X0Y1376D02*
X7Y1376D01*
X3332Y1376D02*
X3339Y1376D01*
X0Y1375D02*
X7Y1375D01*
X3332Y1375D02*
X3339Y1375D01*
X0Y1374D02*
X7Y1374D01*
X3332Y1374D02*
X3339Y1374D01*
X0Y1373D02*
X7Y1373D01*
X3332Y1373D02*
X3339Y1373D01*
X0Y1372D02*
X7Y1372D01*
X3332Y1372D02*
X3339Y1372D01*
X0Y1371D02*
X7Y1371D01*
X3332Y1371D02*
X3339Y1371D01*
X0Y1370D02*
X7Y1370D01*
X3332Y1370D02*
X3339Y1370D01*
X0Y1369D02*
X7Y1369D01*
X3332Y1369D02*
X3339Y1369D01*
X0Y1368D02*
X7Y1368D01*
X3332Y1368D02*
X3339Y1368D01*
X0Y1367D02*
X7Y1367D01*
X3332Y1367D02*
X3339Y1367D01*
X0Y1366D02*
X7Y1366D01*
X3332Y1366D02*
X3339Y1366D01*
X0Y1365D02*
X7Y1365D01*
X3332Y1365D02*
X3339Y1365D01*
X0Y1364D02*
X7Y1364D01*
X3332Y1364D02*
X3339Y1364D01*
X0Y1363D02*
X7Y1363D01*
X3332Y1363D02*
X3339Y1363D01*
X0Y1362D02*
X7Y1362D01*
X3332Y1362D02*
X3339Y1362D01*
X0Y1361D02*
X7Y1361D01*
X3332Y1361D02*
X3339Y1361D01*
X0Y1360D02*
X7Y1360D01*
X3332Y1360D02*
X3339Y1360D01*
X0Y1359D02*
X7Y1359D01*
X3332Y1359D02*
X3339Y1359D01*
X0Y1358D02*
X7Y1358D01*
X3332Y1358D02*
X3339Y1358D01*
X0Y1357D02*
X7Y1357D01*
X3332Y1357D02*
X3339Y1357D01*
X0Y1356D02*
X7Y1356D01*
X3332Y1356D02*
X3339Y1356D01*
X0Y1355D02*
X7Y1355D01*
X3332Y1355D02*
X3339Y1355D01*
X0Y1354D02*
X7Y1354D01*
X3332Y1354D02*
X3339Y1354D01*
X0Y1353D02*
X7Y1353D01*
X3332Y1353D02*
X3339Y1353D01*
X0Y1352D02*
X7Y1352D01*
X3332Y1352D02*
X3339Y1352D01*
X0Y1351D02*
X7Y1351D01*
X3332Y1351D02*
X3339Y1351D01*
X0Y1350D02*
X7Y1350D01*
X3332Y1350D02*
X3339Y1350D01*
X0Y1349D02*
X7Y1349D01*
X3332Y1349D02*
X3339Y1349D01*
X0Y1348D02*
X7Y1348D01*
X3332Y1348D02*
X3339Y1348D01*
X0Y1347D02*
X7Y1347D01*
X3332Y1347D02*
X3339Y1347D01*
X0Y1346D02*
X7Y1346D01*
X3332Y1346D02*
X3339Y1346D01*
X0Y1345D02*
X7Y1345D01*
X3332Y1345D02*
X3339Y1345D01*
X0Y1344D02*
X7Y1344D01*
X3332Y1344D02*
X3339Y1344D01*
X0Y1343D02*
X7Y1343D01*
X3332Y1343D02*
X3339Y1343D01*
X0Y1342D02*
X7Y1342D01*
X3332Y1342D02*
X3339Y1342D01*
X0Y1341D02*
X7Y1341D01*
X3332Y1341D02*
X3339Y1341D01*
X0Y1340D02*
X7Y1340D01*
X3332Y1340D02*
X3339Y1340D01*
X0Y1339D02*
X7Y1339D01*
X3332Y1339D02*
X3339Y1339D01*
X0Y1338D02*
X7Y1338D01*
X3332Y1338D02*
X3339Y1338D01*
X0Y1337D02*
X7Y1337D01*
X3332Y1337D02*
X3339Y1337D01*
X0Y1336D02*
X7Y1336D01*
X3332Y1336D02*
X3339Y1336D01*
X0Y1335D02*
X7Y1335D01*
X3332Y1335D02*
X3339Y1335D01*
X0Y1334D02*
X7Y1334D01*
X3332Y1334D02*
X3339Y1334D01*
X0Y1333D02*
X7Y1333D01*
X3332Y1333D02*
X3339Y1333D01*
X0Y1332D02*
X7Y1332D01*
X3332Y1332D02*
X3339Y1332D01*
X0Y1331D02*
X7Y1331D01*
X3332Y1331D02*
X3339Y1331D01*
X0Y1330D02*
X7Y1330D01*
X3332Y1330D02*
X3339Y1330D01*
X0Y1329D02*
X7Y1329D01*
X3332Y1329D02*
X3339Y1329D01*
X0Y1328D02*
X7Y1328D01*
X3332Y1328D02*
X3339Y1328D01*
X0Y1327D02*
X7Y1327D01*
X3332Y1327D02*
X3339Y1327D01*
X0Y1326D02*
X7Y1326D01*
X3332Y1326D02*
X3339Y1326D01*
X0Y1325D02*
X7Y1325D01*
X3332Y1325D02*
X3339Y1325D01*
X0Y1324D02*
X7Y1324D01*
X3332Y1324D02*
X3339Y1324D01*
X0Y1323D02*
X7Y1323D01*
X3332Y1323D02*
X3339Y1323D01*
X0Y1322D02*
X7Y1322D01*
X3332Y1322D02*
X3339Y1322D01*
X0Y1321D02*
X7Y1321D01*
X3332Y1321D02*
X3339Y1321D01*
X0Y1320D02*
X7Y1320D01*
X3332Y1320D02*
X3339Y1320D01*
X0Y1319D02*
X7Y1319D01*
X3332Y1319D02*
X3339Y1319D01*
X0Y1318D02*
X7Y1318D01*
X3332Y1318D02*
X3339Y1318D01*
X0Y1317D02*
X7Y1317D01*
X3332Y1317D02*
X3339Y1317D01*
X0Y1316D02*
X7Y1316D01*
X3332Y1316D02*
X3339Y1316D01*
X0Y1315D02*
X7Y1315D01*
X3332Y1315D02*
X3339Y1315D01*
X0Y1314D02*
X7Y1314D01*
X3332Y1314D02*
X3339Y1314D01*
X0Y1313D02*
X7Y1313D01*
X3332Y1313D02*
X3339Y1313D01*
X0Y1312D02*
X7Y1312D01*
X3332Y1312D02*
X3339Y1312D01*
X0Y1311D02*
X7Y1311D01*
X3332Y1311D02*
X3339Y1311D01*
X0Y1310D02*
X7Y1310D01*
X3332Y1310D02*
X3339Y1310D01*
X0Y1309D02*
X7Y1309D01*
X3332Y1309D02*
X3339Y1309D01*
X0Y1308D02*
X7Y1308D01*
X3332Y1308D02*
X3339Y1308D01*
X0Y1307D02*
X7Y1307D01*
X3332Y1307D02*
X3339Y1307D01*
X0Y1306D02*
X7Y1306D01*
X3332Y1306D02*
X3339Y1306D01*
X0Y1305D02*
X7Y1305D01*
X3332Y1305D02*
X3339Y1305D01*
X0Y1304D02*
X7Y1304D01*
X3332Y1304D02*
X3339Y1304D01*
X0Y1303D02*
X7Y1303D01*
X3332Y1303D02*
X3339Y1303D01*
X0Y1302D02*
X7Y1302D01*
X3332Y1302D02*
X3339Y1302D01*
X0Y1301D02*
X7Y1301D01*
X3332Y1301D02*
X3339Y1301D01*
X0Y1300D02*
X7Y1300D01*
X3332Y1300D02*
X3339Y1300D01*
X0Y1299D02*
X7Y1299D01*
X3332Y1299D02*
X3339Y1299D01*
X0Y1298D02*
X7Y1298D01*
X3332Y1298D02*
X3339Y1298D01*
X0Y1297D02*
X7Y1297D01*
X3332Y1297D02*
X3339Y1297D01*
X0Y1296D02*
X7Y1296D01*
X3332Y1296D02*
X3339Y1296D01*
X0Y1295D02*
X7Y1295D01*
X3332Y1295D02*
X3339Y1295D01*
X0Y1294D02*
X7Y1294D01*
X3332Y1294D02*
X3339Y1294D01*
X0Y1293D02*
X7Y1293D01*
X3332Y1293D02*
X3339Y1293D01*
X0Y1292D02*
X7Y1292D01*
X3332Y1292D02*
X3339Y1292D01*
X0Y1291D02*
X7Y1291D01*
X3332Y1291D02*
X3339Y1291D01*
X0Y1290D02*
X7Y1290D01*
X3332Y1290D02*
X3339Y1290D01*
X0Y1289D02*
X7Y1289D01*
X3332Y1289D02*
X3339Y1289D01*
X0Y1288D02*
X7Y1288D01*
X3332Y1288D02*
X3339Y1288D01*
X0Y1287D02*
X7Y1287D01*
X3332Y1287D02*
X3339Y1287D01*
X0Y1286D02*
X7Y1286D01*
X3332Y1286D02*
X3339Y1286D01*
X0Y1285D02*
X7Y1285D01*
X3332Y1285D02*
X3339Y1285D01*
X0Y1284D02*
X7Y1284D01*
X3332Y1284D02*
X3339Y1284D01*
X0Y1283D02*
X7Y1283D01*
X3332Y1283D02*
X3339Y1283D01*
X0Y1282D02*
X7Y1282D01*
X3332Y1282D02*
X3339Y1282D01*
X0Y1281D02*
X7Y1281D01*
X3332Y1281D02*
X3339Y1281D01*
X0Y1280D02*
X7Y1280D01*
X3332Y1280D02*
X3339Y1280D01*
X0Y1279D02*
X7Y1279D01*
X3332Y1279D02*
X3339Y1279D01*
X0Y1278D02*
X7Y1278D01*
X3332Y1278D02*
X3339Y1278D01*
X0Y1277D02*
X7Y1277D01*
X3332Y1277D02*
X3339Y1277D01*
X0Y1276D02*
X7Y1276D01*
X3332Y1276D02*
X3339Y1276D01*
X0Y1275D02*
X7Y1275D01*
X3332Y1275D02*
X3339Y1275D01*
X0Y1274D02*
X7Y1274D01*
X3332Y1274D02*
X3339Y1274D01*
X0Y1273D02*
X7Y1273D01*
X3332Y1273D02*
X3339Y1273D01*
X0Y1272D02*
X7Y1272D01*
X3332Y1272D02*
X3339Y1272D01*
X0Y1271D02*
X7Y1271D01*
X3332Y1271D02*
X3339Y1271D01*
X0Y1270D02*
X7Y1270D01*
X3332Y1270D02*
X3339Y1270D01*
X0Y1269D02*
X7Y1269D01*
X3332Y1269D02*
X3339Y1269D01*
X0Y1268D02*
X7Y1268D01*
X3332Y1268D02*
X3339Y1268D01*
X0Y1267D02*
X7Y1267D01*
X3332Y1267D02*
X3339Y1267D01*
X0Y1266D02*
X7Y1266D01*
X3332Y1266D02*
X3339Y1266D01*
X0Y1265D02*
X7Y1265D01*
X3332Y1265D02*
X3339Y1265D01*
X0Y1264D02*
X7Y1264D01*
X3332Y1264D02*
X3339Y1264D01*
X0Y1263D02*
X7Y1263D01*
X3332Y1263D02*
X3339Y1263D01*
X0Y1262D02*
X7Y1262D01*
X3332Y1262D02*
X3339Y1262D01*
X0Y1261D02*
X7Y1261D01*
X3332Y1261D02*
X3339Y1261D01*
X0Y1260D02*
X7Y1260D01*
X3332Y1260D02*
X3339Y1260D01*
X0Y1259D02*
X7Y1259D01*
X3332Y1259D02*
X3339Y1259D01*
X0Y1258D02*
X7Y1258D01*
X3332Y1258D02*
X3339Y1258D01*
X0Y1257D02*
X7Y1257D01*
X3332Y1257D02*
X3339Y1257D01*
X0Y1256D02*
X7Y1256D01*
X3332Y1256D02*
X3339Y1256D01*
X0Y1255D02*
X7Y1255D01*
X3332Y1255D02*
X3339Y1255D01*
X0Y1254D02*
X7Y1254D01*
X3332Y1254D02*
X3339Y1254D01*
X0Y1253D02*
X7Y1253D01*
X3332Y1253D02*
X3339Y1253D01*
X0Y1252D02*
X7Y1252D01*
X3332Y1252D02*
X3339Y1252D01*
X0Y1251D02*
X7Y1251D01*
X3332Y1251D02*
X3339Y1251D01*
X0Y1250D02*
X7Y1250D01*
X3332Y1250D02*
X3339Y1250D01*
X0Y1249D02*
X7Y1249D01*
X3332Y1249D02*
X3339Y1249D01*
X0Y1248D02*
X7Y1248D01*
X3332Y1248D02*
X3339Y1248D01*
X0Y1247D02*
X7Y1247D01*
X3332Y1247D02*
X3339Y1247D01*
X0Y1246D02*
X7Y1246D01*
X3332Y1246D02*
X3339Y1246D01*
X0Y1245D02*
X7Y1245D01*
X3332Y1245D02*
X3339Y1245D01*
X0Y1244D02*
X7Y1244D01*
X3332Y1244D02*
X3339Y1244D01*
X0Y1243D02*
X7Y1243D01*
X3332Y1243D02*
X3339Y1243D01*
X0Y1242D02*
X7Y1242D01*
X3332Y1242D02*
X3339Y1242D01*
X0Y1241D02*
X7Y1241D01*
X3332Y1241D02*
X3339Y1241D01*
X0Y1240D02*
X7Y1240D01*
X3332Y1240D02*
X3339Y1240D01*
X0Y1239D02*
X7Y1239D01*
X3332Y1239D02*
X3339Y1239D01*
X0Y1238D02*
X7Y1238D01*
X3332Y1238D02*
X3339Y1238D01*
X0Y1237D02*
X7Y1237D01*
X3332Y1237D02*
X3339Y1237D01*
X0Y1236D02*
X7Y1236D01*
X3332Y1236D02*
X3339Y1236D01*
X0Y1235D02*
X7Y1235D01*
X3332Y1235D02*
X3339Y1235D01*
X0Y1234D02*
X7Y1234D01*
X3332Y1234D02*
X3339Y1234D01*
X0Y1233D02*
X7Y1233D01*
X3332Y1233D02*
X3339Y1233D01*
X0Y1232D02*
X7Y1232D01*
X3332Y1232D02*
X3339Y1232D01*
X0Y1231D02*
X7Y1231D01*
X3332Y1231D02*
X3339Y1231D01*
X0Y1230D02*
X7Y1230D01*
X3332Y1230D02*
X3339Y1230D01*
X0Y1229D02*
X7Y1229D01*
X3332Y1229D02*
X3339Y1229D01*
X0Y1228D02*
X7Y1228D01*
X3332Y1228D02*
X3339Y1228D01*
X0Y1227D02*
X7Y1227D01*
X3332Y1227D02*
X3339Y1227D01*
X0Y1226D02*
X7Y1226D01*
X3332Y1226D02*
X3339Y1226D01*
X0Y1225D02*
X7Y1225D01*
X3332Y1225D02*
X3339Y1225D01*
X0Y1224D02*
X7Y1224D01*
X3332Y1224D02*
X3339Y1224D01*
X0Y1223D02*
X7Y1223D01*
X3332Y1223D02*
X3339Y1223D01*
X0Y1222D02*
X7Y1222D01*
X3332Y1222D02*
X3339Y1222D01*
X0Y1221D02*
X7Y1221D01*
X3332Y1221D02*
X3339Y1221D01*
X0Y1220D02*
X7Y1220D01*
X3332Y1220D02*
X3339Y1220D01*
X0Y1219D02*
X7Y1219D01*
X3332Y1219D02*
X3339Y1219D01*
X0Y1218D02*
X7Y1218D01*
X3332Y1218D02*
X3339Y1218D01*
X0Y1217D02*
X7Y1217D01*
X3332Y1217D02*
X3339Y1217D01*
X0Y1216D02*
X7Y1216D01*
X3332Y1216D02*
X3339Y1216D01*
X0Y1215D02*
X7Y1215D01*
X3332Y1215D02*
X3339Y1215D01*
X0Y1214D02*
X7Y1214D01*
X3332Y1214D02*
X3339Y1214D01*
X0Y1213D02*
X7Y1213D01*
X3332Y1213D02*
X3339Y1213D01*
X0Y1212D02*
X7Y1212D01*
X3332Y1212D02*
X3339Y1212D01*
X0Y1211D02*
X7Y1211D01*
X3332Y1211D02*
X3339Y1211D01*
X0Y1210D02*
X7Y1210D01*
X3332Y1210D02*
X3339Y1210D01*
X0Y1209D02*
X7Y1209D01*
X3332Y1209D02*
X3339Y1209D01*
X0Y1208D02*
X7Y1208D01*
X3332Y1208D02*
X3339Y1208D01*
X0Y1207D02*
X7Y1207D01*
X3332Y1207D02*
X3339Y1207D01*
X0Y1206D02*
X7Y1206D01*
X3332Y1206D02*
X3339Y1206D01*
X0Y1205D02*
X7Y1205D01*
X3332Y1205D02*
X3339Y1205D01*
X0Y1204D02*
X7Y1204D01*
X3332Y1204D02*
X3339Y1204D01*
X0Y1203D02*
X7Y1203D01*
X3332Y1203D02*
X3339Y1203D01*
X0Y1202D02*
X7Y1202D01*
X3332Y1202D02*
X3339Y1202D01*
X0Y1201D02*
X7Y1201D01*
X3332Y1201D02*
X3339Y1201D01*
X0Y1200D02*
X7Y1200D01*
X3332Y1200D02*
X3339Y1200D01*
X0Y1199D02*
X7Y1199D01*
X3332Y1199D02*
X3339Y1199D01*
X0Y1198D02*
X7Y1198D01*
X3332Y1198D02*
X3339Y1198D01*
X0Y1197D02*
X7Y1197D01*
X3332Y1197D02*
X3339Y1197D01*
X0Y1196D02*
X7Y1196D01*
X3332Y1196D02*
X3339Y1196D01*
X0Y1195D02*
X7Y1195D01*
X3332Y1195D02*
X3339Y1195D01*
X0Y1194D02*
X7Y1194D01*
X3332Y1194D02*
X3339Y1194D01*
X0Y1193D02*
X7Y1193D01*
X3332Y1193D02*
X3339Y1193D01*
X0Y1192D02*
X7Y1192D01*
X3332Y1192D02*
X3339Y1192D01*
X0Y1191D02*
X7Y1191D01*
X3332Y1191D02*
X3339Y1191D01*
X0Y1190D02*
X7Y1190D01*
X3332Y1190D02*
X3339Y1190D01*
X0Y1189D02*
X7Y1189D01*
X3332Y1189D02*
X3339Y1189D01*
X0Y1188D02*
X7Y1188D01*
X3332Y1188D02*
X3339Y1188D01*
X0Y1187D02*
X7Y1187D01*
X3332Y1187D02*
X3339Y1187D01*
X0Y1186D02*
X7Y1186D01*
X3332Y1186D02*
X3339Y1186D01*
X0Y1185D02*
X7Y1185D01*
X3332Y1185D02*
X3339Y1185D01*
X0Y1184D02*
X7Y1184D01*
X3332Y1184D02*
X3339Y1184D01*
X0Y1183D02*
X7Y1183D01*
X3332Y1183D02*
X3339Y1183D01*
X0Y1182D02*
X7Y1182D01*
X3332Y1182D02*
X3339Y1182D01*
X0Y1181D02*
X7Y1181D01*
X3332Y1181D02*
X3339Y1181D01*
X0Y1180D02*
X7Y1180D01*
X3332Y1180D02*
X3339Y1180D01*
X0Y1179D02*
X7Y1179D01*
X3332Y1179D02*
X3339Y1179D01*
X0Y1178D02*
X7Y1178D01*
X3332Y1178D02*
X3339Y1178D01*
X0Y1177D02*
X7Y1177D01*
X3332Y1177D02*
X3339Y1177D01*
X0Y1176D02*
X7Y1176D01*
X3332Y1176D02*
X3339Y1176D01*
X0Y1175D02*
X7Y1175D01*
X3332Y1175D02*
X3339Y1175D01*
X0Y1174D02*
X7Y1174D01*
X3332Y1174D02*
X3339Y1174D01*
X0Y1173D02*
X7Y1173D01*
X3332Y1173D02*
X3339Y1173D01*
X0Y1172D02*
X7Y1172D01*
X3332Y1172D02*
X3339Y1172D01*
X0Y1171D02*
X7Y1171D01*
X3332Y1171D02*
X3339Y1171D01*
X0Y1170D02*
X7Y1170D01*
X3332Y1170D02*
X3339Y1170D01*
X0Y1169D02*
X7Y1169D01*
X3332Y1169D02*
X3339Y1169D01*
X0Y1168D02*
X7Y1168D01*
X3332Y1168D02*
X3339Y1168D01*
X0Y1167D02*
X7Y1167D01*
X3332Y1167D02*
X3339Y1167D01*
X0Y1166D02*
X7Y1166D01*
X3332Y1166D02*
X3339Y1166D01*
X0Y1165D02*
X7Y1165D01*
X3332Y1165D02*
X3339Y1165D01*
X0Y1164D02*
X7Y1164D01*
X3332Y1164D02*
X3339Y1164D01*
X0Y1163D02*
X7Y1163D01*
X3332Y1163D02*
X3339Y1163D01*
X0Y1162D02*
X7Y1162D01*
X3332Y1162D02*
X3339Y1162D01*
X0Y1161D02*
X7Y1161D01*
X3332Y1161D02*
X3339Y1161D01*
X0Y1160D02*
X7Y1160D01*
X3332Y1160D02*
X3339Y1160D01*
X0Y1159D02*
X7Y1159D01*
X3332Y1159D02*
X3339Y1159D01*
X0Y1158D02*
X7Y1158D01*
X3332Y1158D02*
X3339Y1158D01*
X0Y1157D02*
X7Y1157D01*
X3332Y1157D02*
X3339Y1157D01*
X0Y1156D02*
X7Y1156D01*
X3332Y1156D02*
X3339Y1156D01*
X0Y1155D02*
X7Y1155D01*
X3332Y1155D02*
X3339Y1155D01*
X0Y1154D02*
X7Y1154D01*
X3332Y1154D02*
X3339Y1154D01*
X0Y1153D02*
X7Y1153D01*
X3332Y1153D02*
X3339Y1153D01*
X0Y1152D02*
X7Y1152D01*
X3332Y1152D02*
X3339Y1152D01*
X0Y1151D02*
X7Y1151D01*
X3332Y1151D02*
X3339Y1151D01*
X0Y1150D02*
X7Y1150D01*
X3332Y1150D02*
X3339Y1150D01*
X0Y1149D02*
X7Y1149D01*
X3332Y1149D02*
X3339Y1149D01*
X0Y1148D02*
X7Y1148D01*
X3332Y1148D02*
X3339Y1148D01*
X0Y1147D02*
X7Y1147D01*
X3332Y1147D02*
X3339Y1147D01*
X0Y1146D02*
X7Y1146D01*
X3332Y1146D02*
X3339Y1146D01*
X0Y1145D02*
X7Y1145D01*
X3332Y1145D02*
X3339Y1145D01*
X0Y1144D02*
X7Y1144D01*
X3332Y1144D02*
X3339Y1144D01*
X0Y1143D02*
X7Y1143D01*
X3332Y1143D02*
X3339Y1143D01*
X0Y1142D02*
X7Y1142D01*
X3332Y1142D02*
X3339Y1142D01*
X0Y1141D02*
X7Y1141D01*
X3332Y1141D02*
X3339Y1141D01*
X0Y1140D02*
X7Y1140D01*
X3332Y1140D02*
X3339Y1140D01*
X0Y1139D02*
X7Y1139D01*
X3332Y1139D02*
X3339Y1139D01*
X0Y1138D02*
X7Y1138D01*
X3332Y1138D02*
X3339Y1138D01*
X0Y1137D02*
X7Y1137D01*
X3332Y1137D02*
X3339Y1137D01*
X0Y1136D02*
X7Y1136D01*
X3332Y1136D02*
X3339Y1136D01*
X0Y1135D02*
X7Y1135D01*
X3332Y1135D02*
X3339Y1135D01*
X0Y1134D02*
X7Y1134D01*
X3332Y1134D02*
X3339Y1134D01*
X0Y1133D02*
X7Y1133D01*
X3332Y1133D02*
X3339Y1133D01*
X0Y1132D02*
X7Y1132D01*
X3332Y1132D02*
X3339Y1132D01*
X0Y1131D02*
X7Y1131D01*
X3332Y1131D02*
X3339Y1131D01*
X0Y1130D02*
X7Y1130D01*
X3332Y1130D02*
X3339Y1130D01*
X0Y1129D02*
X7Y1129D01*
X3332Y1129D02*
X3339Y1129D01*
X0Y1128D02*
X7Y1128D01*
X3332Y1128D02*
X3339Y1128D01*
X0Y1127D02*
X7Y1127D01*
X3332Y1127D02*
X3339Y1127D01*
X0Y1126D02*
X7Y1126D01*
X3332Y1126D02*
X3339Y1126D01*
X0Y1125D02*
X7Y1125D01*
X3332Y1125D02*
X3339Y1125D01*
X0Y1124D02*
X7Y1124D01*
X3332Y1124D02*
X3339Y1124D01*
X0Y1123D02*
X7Y1123D01*
X3332Y1123D02*
X3339Y1123D01*
X0Y1122D02*
X7Y1122D01*
X3332Y1122D02*
X3339Y1122D01*
X0Y1121D02*
X7Y1121D01*
X3332Y1121D02*
X3339Y1121D01*
X0Y1120D02*
X7Y1120D01*
X3332Y1120D02*
X3339Y1120D01*
X0Y1119D02*
X7Y1119D01*
X3332Y1119D02*
X3339Y1119D01*
X0Y1118D02*
X7Y1118D01*
X3332Y1118D02*
X3339Y1118D01*
X0Y1117D02*
X7Y1117D01*
X3332Y1117D02*
X3339Y1117D01*
X0Y1116D02*
X7Y1116D01*
X3332Y1116D02*
X3339Y1116D01*
X0Y1115D02*
X7Y1115D01*
X3332Y1115D02*
X3339Y1115D01*
X0Y1114D02*
X7Y1114D01*
X3332Y1114D02*
X3339Y1114D01*
X0Y1113D02*
X7Y1113D01*
X3332Y1113D02*
X3339Y1113D01*
X0Y1112D02*
X7Y1112D01*
X3332Y1112D02*
X3339Y1112D01*
X0Y1111D02*
X7Y1111D01*
X3332Y1111D02*
X3339Y1111D01*
X0Y1110D02*
X7Y1110D01*
X3332Y1110D02*
X3339Y1110D01*
X0Y1109D02*
X7Y1109D01*
X3332Y1109D02*
X3339Y1109D01*
X0Y1108D02*
X7Y1108D01*
X3332Y1108D02*
X3339Y1108D01*
X0Y1107D02*
X7Y1107D01*
X3332Y1107D02*
X3339Y1107D01*
X0Y1106D02*
X7Y1106D01*
X3332Y1106D02*
X3339Y1106D01*
X0Y1105D02*
X7Y1105D01*
X3332Y1105D02*
X3339Y1105D01*
X0Y1104D02*
X7Y1104D01*
X3332Y1104D02*
X3339Y1104D01*
X0Y1103D02*
X7Y1103D01*
X3332Y1103D02*
X3339Y1103D01*
X0Y1102D02*
X7Y1102D01*
X3332Y1102D02*
X3339Y1102D01*
X0Y1101D02*
X7Y1101D01*
X3332Y1101D02*
X3339Y1101D01*
X0Y1100D02*
X7Y1100D01*
X3332Y1100D02*
X3339Y1100D01*
X0Y1099D02*
X7Y1099D01*
X3332Y1099D02*
X3339Y1099D01*
X0Y1098D02*
X7Y1098D01*
X3332Y1098D02*
X3339Y1098D01*
X0Y1097D02*
X7Y1097D01*
X3332Y1097D02*
X3339Y1097D01*
X0Y1096D02*
X7Y1096D01*
X3332Y1096D02*
X3339Y1096D01*
X0Y1095D02*
X7Y1095D01*
X3332Y1095D02*
X3339Y1095D01*
X0Y1094D02*
X7Y1094D01*
X3332Y1094D02*
X3339Y1094D01*
X0Y1093D02*
X7Y1093D01*
X3332Y1093D02*
X3339Y1093D01*
X0Y1092D02*
X7Y1092D01*
X3332Y1092D02*
X3339Y1092D01*
X0Y1091D02*
X7Y1091D01*
X3332Y1091D02*
X3339Y1091D01*
X0Y1090D02*
X7Y1090D01*
X3332Y1090D02*
X3339Y1090D01*
X0Y1089D02*
X7Y1089D01*
X3332Y1089D02*
X3339Y1089D01*
X0Y1088D02*
X7Y1088D01*
X3332Y1088D02*
X3339Y1088D01*
X0Y1087D02*
X7Y1087D01*
X3332Y1087D02*
X3339Y1087D01*
X0Y1086D02*
X7Y1086D01*
X3332Y1086D02*
X3339Y1086D01*
X0Y1085D02*
X7Y1085D01*
X3332Y1085D02*
X3339Y1085D01*
X0Y1084D02*
X7Y1084D01*
X3332Y1084D02*
X3339Y1084D01*
X0Y1083D02*
X7Y1083D01*
X3332Y1083D02*
X3339Y1083D01*
X0Y1082D02*
X7Y1082D01*
X3332Y1082D02*
X3339Y1082D01*
X0Y1081D02*
X7Y1081D01*
X3332Y1081D02*
X3339Y1081D01*
X0Y1080D02*
X7Y1080D01*
X3332Y1080D02*
X3339Y1080D01*
X0Y1079D02*
X7Y1079D01*
X3332Y1079D02*
X3339Y1079D01*
X0Y1078D02*
X7Y1078D01*
X3332Y1078D02*
X3339Y1078D01*
X0Y1077D02*
X7Y1077D01*
X3332Y1077D02*
X3339Y1077D01*
X0Y1076D02*
X7Y1076D01*
X3332Y1076D02*
X3339Y1076D01*
X0Y1075D02*
X7Y1075D01*
X3332Y1075D02*
X3339Y1075D01*
X0Y1074D02*
X7Y1074D01*
X3332Y1074D02*
X3339Y1074D01*
X0Y1073D02*
X7Y1073D01*
X3332Y1073D02*
X3339Y1073D01*
X0Y1072D02*
X7Y1072D01*
X3332Y1072D02*
X3339Y1072D01*
X0Y1071D02*
X7Y1071D01*
X3332Y1071D02*
X3339Y1071D01*
X0Y1070D02*
X7Y1070D01*
X3332Y1070D02*
X3339Y1070D01*
X0Y1069D02*
X7Y1069D01*
X3332Y1069D02*
X3339Y1069D01*
X0Y1068D02*
X7Y1068D01*
X3332Y1068D02*
X3339Y1068D01*
X0Y1067D02*
X7Y1067D01*
X3332Y1067D02*
X3339Y1067D01*
X0Y1066D02*
X7Y1066D01*
X3332Y1066D02*
X3339Y1066D01*
X0Y1065D02*
X7Y1065D01*
X3332Y1065D02*
X3339Y1065D01*
X0Y1064D02*
X7Y1064D01*
X3332Y1064D02*
X3339Y1064D01*
X0Y1063D02*
X7Y1063D01*
X3332Y1063D02*
X3339Y1063D01*
X0Y1062D02*
X7Y1062D01*
X3332Y1062D02*
X3339Y1062D01*
X0Y1061D02*
X7Y1061D01*
X3332Y1061D02*
X3339Y1061D01*
X0Y1060D02*
X7Y1060D01*
X3332Y1060D02*
X3339Y1060D01*
X0Y1059D02*
X7Y1059D01*
X3332Y1059D02*
X3339Y1059D01*
X0Y1058D02*
X7Y1058D01*
X3332Y1058D02*
X3339Y1058D01*
X0Y1057D02*
X7Y1057D01*
X3332Y1057D02*
X3339Y1057D01*
X0Y1056D02*
X7Y1056D01*
X3332Y1056D02*
X3339Y1056D01*
X0Y1055D02*
X7Y1055D01*
X3332Y1055D02*
X3339Y1055D01*
X0Y1054D02*
X7Y1054D01*
X3332Y1054D02*
X3339Y1054D01*
X0Y1053D02*
X7Y1053D01*
X3332Y1053D02*
X3339Y1053D01*
X0Y1052D02*
X7Y1052D01*
X3332Y1052D02*
X3339Y1052D01*
X0Y1051D02*
X7Y1051D01*
X3332Y1051D02*
X3339Y1051D01*
X0Y1050D02*
X7Y1050D01*
X3332Y1050D02*
X3339Y1050D01*
X0Y1049D02*
X7Y1049D01*
X3332Y1049D02*
X3339Y1049D01*
X0Y1048D02*
X7Y1048D01*
X3332Y1048D02*
X3339Y1048D01*
X0Y1047D02*
X7Y1047D01*
X3332Y1047D02*
X3339Y1047D01*
X0Y1046D02*
X7Y1046D01*
X3332Y1046D02*
X3339Y1046D01*
X0Y1045D02*
X7Y1045D01*
X3332Y1045D02*
X3339Y1045D01*
X0Y1044D02*
X7Y1044D01*
X3332Y1044D02*
X3339Y1044D01*
X0Y1043D02*
X7Y1043D01*
X3332Y1043D02*
X3339Y1043D01*
X0Y1042D02*
X7Y1042D01*
X3332Y1042D02*
X3339Y1042D01*
X0Y1041D02*
X7Y1041D01*
X3332Y1041D02*
X3339Y1041D01*
X0Y1040D02*
X7Y1040D01*
X3332Y1040D02*
X3339Y1040D01*
X0Y1039D02*
X7Y1039D01*
X3332Y1039D02*
X3339Y1039D01*
X0Y1038D02*
X7Y1038D01*
X3332Y1038D02*
X3339Y1038D01*
X0Y1037D02*
X7Y1037D01*
X3332Y1037D02*
X3339Y1037D01*
X0Y1036D02*
X7Y1036D01*
X3332Y1036D02*
X3339Y1036D01*
X0Y1035D02*
X7Y1035D01*
X3332Y1035D02*
X3339Y1035D01*
X0Y1034D02*
X7Y1034D01*
X3332Y1034D02*
X3339Y1034D01*
X0Y1033D02*
X7Y1033D01*
X3332Y1033D02*
X3339Y1033D01*
X0Y1032D02*
X7Y1032D01*
X3332Y1032D02*
X3339Y1032D01*
X0Y1031D02*
X7Y1031D01*
X3332Y1031D02*
X3339Y1031D01*
X0Y1030D02*
X7Y1030D01*
X3332Y1030D02*
X3339Y1030D01*
X0Y1029D02*
X7Y1029D01*
X3332Y1029D02*
X3339Y1029D01*
X0Y1028D02*
X7Y1028D01*
X3332Y1028D02*
X3339Y1028D01*
X0Y1027D02*
X7Y1027D01*
X3332Y1027D02*
X3339Y1027D01*
X0Y1026D02*
X7Y1026D01*
X3332Y1026D02*
X3339Y1026D01*
X0Y1025D02*
X7Y1025D01*
X3332Y1025D02*
X3339Y1025D01*
X0Y1024D02*
X7Y1024D01*
X3332Y1024D02*
X3339Y1024D01*
X0Y1023D02*
X7Y1023D01*
X3332Y1023D02*
X3339Y1023D01*
X0Y1022D02*
X7Y1022D01*
X3332Y1022D02*
X3339Y1022D01*
X0Y1021D02*
X7Y1021D01*
X3332Y1021D02*
X3339Y1021D01*
X0Y1020D02*
X7Y1020D01*
X3332Y1020D02*
X3339Y1020D01*
X0Y1019D02*
X7Y1019D01*
X3332Y1019D02*
X3339Y1019D01*
X0Y1018D02*
X7Y1018D01*
X3332Y1018D02*
X3339Y1018D01*
X0Y1017D02*
X7Y1017D01*
X3332Y1017D02*
X3339Y1017D01*
X0Y1016D02*
X7Y1016D01*
X3332Y1016D02*
X3339Y1016D01*
X0Y1015D02*
X7Y1015D01*
X3332Y1015D02*
X3339Y1015D01*
X0Y1014D02*
X7Y1014D01*
X3332Y1014D02*
X3339Y1014D01*
X0Y1013D02*
X7Y1013D01*
X3332Y1013D02*
X3339Y1013D01*
X0Y1012D02*
X7Y1012D01*
X3332Y1012D02*
X3339Y1012D01*
X0Y1011D02*
X7Y1011D01*
X3332Y1011D02*
X3339Y1011D01*
X0Y1010D02*
X7Y1010D01*
X3332Y1010D02*
X3339Y1010D01*
X0Y1009D02*
X7Y1009D01*
X3332Y1009D02*
X3339Y1009D01*
X0Y1008D02*
X7Y1008D01*
X3332Y1008D02*
X3339Y1008D01*
X0Y1007D02*
X7Y1007D01*
X3332Y1007D02*
X3339Y1007D01*
X0Y1006D02*
X7Y1006D01*
X3332Y1006D02*
X3339Y1006D01*
X0Y1005D02*
X7Y1005D01*
X3332Y1005D02*
X3339Y1005D01*
X0Y1004D02*
X7Y1004D01*
X3332Y1004D02*
X3339Y1004D01*
X0Y1003D02*
X7Y1003D01*
X3332Y1003D02*
X3339Y1003D01*
X0Y1002D02*
X7Y1002D01*
X3332Y1002D02*
X3339Y1002D01*
X0Y1001D02*
X7Y1001D01*
X3332Y1001D02*
X3339Y1001D01*
X0Y1000D02*
X7Y1000D01*
X3332Y1000D02*
X3339Y1000D01*
X0Y999D02*
X7Y999D01*
X3332Y999D02*
X3339Y999D01*
X0Y998D02*
X7Y998D01*
X3332Y998D02*
X3339Y998D01*
X0Y997D02*
X7Y997D01*
X3332Y997D02*
X3339Y997D01*
X0Y996D02*
X7Y996D01*
X3332Y996D02*
X3339Y996D01*
X0Y995D02*
X7Y995D01*
X3332Y995D02*
X3339Y995D01*
X0Y994D02*
X7Y994D01*
X3332Y994D02*
X3339Y994D01*
X0Y993D02*
X7Y993D01*
X3332Y993D02*
X3339Y993D01*
X0Y992D02*
X7Y992D01*
X3332Y992D02*
X3339Y992D01*
X0Y991D02*
X7Y991D01*
X3332Y991D02*
X3339Y991D01*
X0Y990D02*
X7Y990D01*
X3332Y990D02*
X3339Y990D01*
X0Y989D02*
X7Y989D01*
X3332Y989D02*
X3339Y989D01*
X0Y988D02*
X7Y988D01*
X3332Y988D02*
X3339Y988D01*
X0Y987D02*
X7Y987D01*
X3332Y987D02*
X3339Y987D01*
X0Y986D02*
X7Y986D01*
X3332Y986D02*
X3339Y986D01*
X0Y985D02*
X7Y985D01*
X3332Y985D02*
X3339Y985D01*
X0Y984D02*
X7Y984D01*
X3332Y984D02*
X3339Y984D01*
X0Y983D02*
X7Y983D01*
X3332Y983D02*
X3339Y983D01*
X0Y982D02*
X7Y982D01*
X3332Y982D02*
X3339Y982D01*
X0Y981D02*
X7Y981D01*
X3332Y981D02*
X3339Y981D01*
X0Y980D02*
X7Y980D01*
X3332Y980D02*
X3339Y980D01*
X0Y979D02*
X7Y979D01*
X3332Y979D02*
X3339Y979D01*
X0Y978D02*
X7Y978D01*
X3332Y978D02*
X3339Y978D01*
X0Y977D02*
X7Y977D01*
X3332Y977D02*
X3339Y977D01*
X0Y976D02*
X7Y976D01*
X3332Y976D02*
X3339Y976D01*
X0Y975D02*
X7Y975D01*
X3332Y975D02*
X3339Y975D01*
X0Y974D02*
X7Y974D01*
X3332Y974D02*
X3339Y974D01*
X0Y973D02*
X7Y973D01*
X3332Y973D02*
X3339Y973D01*
X0Y972D02*
X7Y972D01*
X3332Y972D02*
X3339Y972D01*
X0Y971D02*
X7Y971D01*
X3332Y971D02*
X3339Y971D01*
X0Y970D02*
X7Y970D01*
X3332Y970D02*
X3339Y970D01*
X0Y969D02*
X7Y969D01*
X3332Y969D02*
X3339Y969D01*
X0Y968D02*
X7Y968D01*
X3332Y968D02*
X3339Y968D01*
X0Y967D02*
X7Y967D01*
X3332Y967D02*
X3339Y967D01*
X0Y966D02*
X7Y966D01*
X3332Y966D02*
X3339Y966D01*
X0Y965D02*
X7Y965D01*
X3332Y965D02*
X3339Y965D01*
X0Y964D02*
X7Y964D01*
X3332Y964D02*
X3339Y964D01*
X0Y963D02*
X7Y963D01*
X3332Y963D02*
X3339Y963D01*
X0Y962D02*
X7Y962D01*
X3332Y962D02*
X3339Y962D01*
X0Y961D02*
X7Y961D01*
X3332Y961D02*
X3339Y961D01*
X0Y960D02*
X7Y960D01*
X3332Y960D02*
X3339Y960D01*
X0Y959D02*
X7Y959D01*
X3332Y959D02*
X3339Y959D01*
X0Y958D02*
X7Y958D01*
X3332Y958D02*
X3339Y958D01*
X0Y957D02*
X7Y957D01*
X3332Y957D02*
X3339Y957D01*
X0Y956D02*
X7Y956D01*
X3332Y956D02*
X3339Y956D01*
X0Y955D02*
X7Y955D01*
X3332Y955D02*
X3339Y955D01*
X0Y954D02*
X7Y954D01*
X3332Y954D02*
X3339Y954D01*
X0Y953D02*
X7Y953D01*
X3332Y953D02*
X3339Y953D01*
X0Y952D02*
X7Y952D01*
X3332Y952D02*
X3339Y952D01*
X0Y951D02*
X7Y951D01*
X3332Y951D02*
X3339Y951D01*
X0Y950D02*
X7Y950D01*
X3332Y950D02*
X3339Y950D01*
X0Y949D02*
X7Y949D01*
X3332Y949D02*
X3339Y949D01*
X0Y948D02*
X7Y948D01*
X3332Y948D02*
X3339Y948D01*
X0Y947D02*
X7Y947D01*
X3332Y947D02*
X3339Y947D01*
X0Y946D02*
X7Y946D01*
X3332Y946D02*
X3339Y946D01*
X0Y945D02*
X7Y945D01*
X3332Y945D02*
X3339Y945D01*
X0Y944D02*
X7Y944D01*
X3332Y944D02*
X3339Y944D01*
X0Y943D02*
X7Y943D01*
X3332Y943D02*
X3339Y943D01*
X0Y942D02*
X7Y942D01*
X3332Y942D02*
X3339Y942D01*
X0Y941D02*
X7Y941D01*
X3332Y941D02*
X3339Y941D01*
X0Y940D02*
X7Y940D01*
X3332Y940D02*
X3339Y940D01*
X0Y939D02*
X7Y939D01*
X3332Y939D02*
X3339Y939D01*
X0Y938D02*
X7Y938D01*
X3332Y938D02*
X3339Y938D01*
X0Y937D02*
X7Y937D01*
X3332Y937D02*
X3339Y937D01*
X0Y936D02*
X7Y936D01*
X3332Y936D02*
X3339Y936D01*
X0Y935D02*
X7Y935D01*
X3332Y935D02*
X3339Y935D01*
X0Y934D02*
X7Y934D01*
X3332Y934D02*
X3339Y934D01*
X0Y933D02*
X7Y933D01*
X3332Y933D02*
X3339Y933D01*
X0Y932D02*
X7Y932D01*
X3332Y932D02*
X3339Y932D01*
X0Y931D02*
X7Y931D01*
X3332Y931D02*
X3339Y931D01*
X0Y930D02*
X7Y930D01*
X3332Y930D02*
X3339Y930D01*
X0Y929D02*
X7Y929D01*
X3332Y929D02*
X3339Y929D01*
X0Y928D02*
X7Y928D01*
X3332Y928D02*
X3339Y928D01*
X0Y927D02*
X7Y927D01*
X3332Y927D02*
X3339Y927D01*
X0Y926D02*
X7Y926D01*
X3332Y926D02*
X3339Y926D01*
X0Y925D02*
X7Y925D01*
X3332Y925D02*
X3339Y925D01*
X0Y924D02*
X7Y924D01*
X3332Y924D02*
X3339Y924D01*
X0Y923D02*
X7Y923D01*
X3332Y923D02*
X3339Y923D01*
X0Y922D02*
X7Y922D01*
X3332Y922D02*
X3339Y922D01*
X0Y921D02*
X7Y921D01*
X3332Y921D02*
X3339Y921D01*
X0Y920D02*
X7Y920D01*
X3332Y920D02*
X3339Y920D01*
X0Y919D02*
X7Y919D01*
X3332Y919D02*
X3339Y919D01*
X0Y918D02*
X7Y918D01*
X3332Y918D02*
X3339Y918D01*
X0Y917D02*
X7Y917D01*
X3332Y917D02*
X3339Y917D01*
X0Y916D02*
X7Y916D01*
X3332Y916D02*
X3339Y916D01*
X0Y915D02*
X7Y915D01*
X3332Y915D02*
X3339Y915D01*
X0Y914D02*
X7Y914D01*
X3332Y914D02*
X3339Y914D01*
X0Y913D02*
X7Y913D01*
X3332Y913D02*
X3339Y913D01*
X0Y912D02*
X7Y912D01*
X3332Y912D02*
X3339Y912D01*
X0Y911D02*
X7Y911D01*
X3332Y911D02*
X3339Y911D01*
X0Y910D02*
X7Y910D01*
X3332Y910D02*
X3339Y910D01*
X0Y909D02*
X7Y909D01*
X3332Y909D02*
X3339Y909D01*
X0Y908D02*
X7Y908D01*
X3332Y908D02*
X3339Y908D01*
X0Y907D02*
X7Y907D01*
X3332Y907D02*
X3339Y907D01*
X0Y906D02*
X7Y906D01*
X3332Y906D02*
X3339Y906D01*
X0Y905D02*
X7Y905D01*
X3332Y905D02*
X3339Y905D01*
X0Y904D02*
X7Y904D01*
X3332Y904D02*
X3339Y904D01*
X0Y903D02*
X7Y903D01*
X3332Y903D02*
X3339Y903D01*
X0Y902D02*
X7Y902D01*
X3332Y902D02*
X3339Y902D01*
X0Y901D02*
X7Y901D01*
X3332Y901D02*
X3339Y901D01*
X0Y900D02*
X7Y900D01*
X3332Y900D02*
X3339Y900D01*
X0Y899D02*
X7Y899D01*
X3332Y899D02*
X3339Y899D01*
X0Y898D02*
X7Y898D01*
X3332Y898D02*
X3339Y898D01*
X0Y897D02*
X7Y897D01*
X3332Y897D02*
X3339Y897D01*
X0Y896D02*
X7Y896D01*
X3332Y896D02*
X3339Y896D01*
X0Y895D02*
X7Y895D01*
X3332Y895D02*
X3339Y895D01*
X0Y894D02*
X7Y894D01*
X3332Y894D02*
X3339Y894D01*
X0Y893D02*
X7Y893D01*
X3332Y893D02*
X3339Y893D01*
X0Y892D02*
X7Y892D01*
X3332Y892D02*
X3339Y892D01*
X0Y891D02*
X7Y891D01*
X3332Y891D02*
X3339Y891D01*
X0Y890D02*
X7Y890D01*
X3332Y890D02*
X3339Y890D01*
X0Y889D02*
X7Y889D01*
X3332Y889D02*
X3339Y889D01*
X0Y888D02*
X7Y888D01*
X3332Y888D02*
X3339Y888D01*
X0Y887D02*
X7Y887D01*
X3332Y887D02*
X3339Y887D01*
X0Y886D02*
X7Y886D01*
X3332Y886D02*
X3339Y886D01*
X0Y885D02*
X7Y885D01*
X3332Y885D02*
X3339Y885D01*
X0Y884D02*
X7Y884D01*
X3332Y884D02*
X3339Y884D01*
X0Y883D02*
X7Y883D01*
X3332Y883D02*
X3339Y883D01*
X0Y882D02*
X7Y882D01*
X3332Y882D02*
X3339Y882D01*
X0Y881D02*
X7Y881D01*
X3332Y881D02*
X3339Y881D01*
X0Y880D02*
X7Y880D01*
X3332Y880D02*
X3339Y880D01*
X0Y879D02*
X7Y879D01*
X3332Y879D02*
X3339Y879D01*
X0Y878D02*
X7Y878D01*
X3332Y878D02*
X3339Y878D01*
X0Y877D02*
X7Y877D01*
X3332Y877D02*
X3339Y877D01*
X0Y876D02*
X7Y876D01*
X3332Y876D02*
X3339Y876D01*
X0Y875D02*
X7Y875D01*
X3332Y875D02*
X3339Y875D01*
X0Y874D02*
X7Y874D01*
X3332Y874D02*
X3339Y874D01*
X0Y873D02*
X7Y873D01*
X3332Y873D02*
X3339Y873D01*
X0Y872D02*
X7Y872D01*
X3332Y872D02*
X3339Y872D01*
X0Y871D02*
X7Y871D01*
X3332Y871D02*
X3339Y871D01*
X0Y870D02*
X7Y870D01*
X3332Y870D02*
X3339Y870D01*
X0Y869D02*
X7Y869D01*
X3332Y869D02*
X3339Y869D01*
X0Y868D02*
X7Y868D01*
X3332Y868D02*
X3339Y868D01*
X0Y867D02*
X7Y867D01*
X3332Y867D02*
X3339Y867D01*
X0Y866D02*
X7Y866D01*
X3332Y866D02*
X3339Y866D01*
X0Y865D02*
X7Y865D01*
X3332Y865D02*
X3339Y865D01*
X0Y864D02*
X7Y864D01*
X3332Y864D02*
X3339Y864D01*
X0Y863D02*
X7Y863D01*
X3332Y863D02*
X3339Y863D01*
X0Y862D02*
X7Y862D01*
X3332Y862D02*
X3339Y862D01*
X0Y861D02*
X7Y861D01*
X3332Y861D02*
X3339Y861D01*
X0Y860D02*
X7Y860D01*
X3332Y860D02*
X3339Y860D01*
X0Y859D02*
X7Y859D01*
X3332Y859D02*
X3339Y859D01*
X0Y858D02*
X7Y858D01*
X3332Y858D02*
X3339Y858D01*
X0Y857D02*
X7Y857D01*
X3332Y857D02*
X3339Y857D01*
X0Y856D02*
X7Y856D01*
X3332Y856D02*
X3339Y856D01*
X0Y855D02*
X7Y855D01*
X3332Y855D02*
X3339Y855D01*
X0Y854D02*
X7Y854D01*
X3332Y854D02*
X3339Y854D01*
X0Y853D02*
X7Y853D01*
X3332Y853D02*
X3339Y853D01*
X0Y852D02*
X7Y852D01*
X3332Y852D02*
X3339Y852D01*
X0Y851D02*
X7Y851D01*
X3332Y851D02*
X3339Y851D01*
X0Y850D02*
X7Y850D01*
X3332Y850D02*
X3339Y850D01*
X0Y849D02*
X7Y849D01*
X3332Y849D02*
X3339Y849D01*
X0Y848D02*
X7Y848D01*
X3332Y848D02*
X3339Y848D01*
X0Y847D02*
X7Y847D01*
X3332Y847D02*
X3339Y847D01*
X0Y846D02*
X7Y846D01*
X3332Y846D02*
X3339Y846D01*
X0Y845D02*
X7Y845D01*
X3332Y845D02*
X3339Y845D01*
X0Y844D02*
X7Y844D01*
X3332Y844D02*
X3339Y844D01*
X0Y843D02*
X7Y843D01*
X3332Y843D02*
X3339Y843D01*
X0Y842D02*
X7Y842D01*
X3332Y842D02*
X3339Y842D01*
X0Y841D02*
X7Y841D01*
X3332Y841D02*
X3339Y841D01*
X0Y840D02*
X7Y840D01*
X3332Y840D02*
X3339Y840D01*
X0Y839D02*
X7Y839D01*
X3332Y839D02*
X3339Y839D01*
X0Y838D02*
X7Y838D01*
X3332Y838D02*
X3339Y838D01*
X0Y837D02*
X7Y837D01*
X3332Y837D02*
X3339Y837D01*
X0Y836D02*
X7Y836D01*
X3332Y836D02*
X3339Y836D01*
X0Y835D02*
X7Y835D01*
X3332Y835D02*
X3339Y835D01*
X0Y834D02*
X7Y834D01*
X3332Y834D02*
X3339Y834D01*
X0Y833D02*
X7Y833D01*
X3332Y833D02*
X3339Y833D01*
X0Y832D02*
X7Y832D01*
X3332Y832D02*
X3339Y832D01*
X0Y831D02*
X7Y831D01*
X3332Y831D02*
X3339Y831D01*
X0Y830D02*
X7Y830D01*
X3332Y830D02*
X3339Y830D01*
X0Y829D02*
X7Y829D01*
X3332Y829D02*
X3339Y829D01*
X0Y828D02*
X7Y828D01*
X3332Y828D02*
X3339Y828D01*
X0Y827D02*
X7Y827D01*
X3332Y827D02*
X3339Y827D01*
X0Y826D02*
X7Y826D01*
X3332Y826D02*
X3339Y826D01*
X0Y825D02*
X7Y825D01*
X3332Y825D02*
X3339Y825D01*
X0Y824D02*
X7Y824D01*
X3332Y824D02*
X3339Y824D01*
X0Y823D02*
X7Y823D01*
X3332Y823D02*
X3339Y823D01*
X0Y822D02*
X7Y822D01*
X3332Y822D02*
X3339Y822D01*
X0Y821D02*
X7Y821D01*
X3332Y821D02*
X3339Y821D01*
X0Y820D02*
X7Y820D01*
X3332Y820D02*
X3339Y820D01*
X0Y819D02*
X7Y819D01*
X3332Y819D02*
X3339Y819D01*
X0Y818D02*
X7Y818D01*
X3332Y818D02*
X3339Y818D01*
X0Y817D02*
X7Y817D01*
X3332Y817D02*
X3339Y817D01*
X0Y816D02*
X7Y816D01*
X3332Y816D02*
X3339Y816D01*
X0Y815D02*
X7Y815D01*
X3332Y815D02*
X3339Y815D01*
X0Y814D02*
X7Y814D01*
X3332Y814D02*
X3339Y814D01*
X0Y813D02*
X7Y813D01*
X3332Y813D02*
X3339Y813D01*
X0Y812D02*
X7Y812D01*
X3332Y812D02*
X3339Y812D01*
X0Y811D02*
X7Y811D01*
X3332Y811D02*
X3339Y811D01*
X0Y810D02*
X7Y810D01*
X3332Y810D02*
X3339Y810D01*
X0Y809D02*
X7Y809D01*
X3332Y809D02*
X3339Y809D01*
X0Y808D02*
X7Y808D01*
X3332Y808D02*
X3339Y808D01*
X0Y807D02*
X7Y807D01*
X3332Y807D02*
X3339Y807D01*
X0Y806D02*
X7Y806D01*
X3332Y806D02*
X3339Y806D01*
X0Y805D02*
X7Y805D01*
X3332Y805D02*
X3339Y805D01*
X0Y804D02*
X7Y804D01*
X3332Y804D02*
X3339Y804D01*
X0Y803D02*
X7Y803D01*
X3332Y803D02*
X3339Y803D01*
X0Y802D02*
X7Y802D01*
X3332Y802D02*
X3339Y802D01*
X0Y801D02*
X7Y801D01*
X3332Y801D02*
X3339Y801D01*
X0Y800D02*
X7Y800D01*
X3332Y800D02*
X3339Y800D01*
X0Y799D02*
X7Y799D01*
X3332Y799D02*
X3339Y799D01*
X0Y798D02*
X7Y798D01*
X3332Y798D02*
X3339Y798D01*
X0Y797D02*
X7Y797D01*
X3332Y797D02*
X3339Y797D01*
X0Y796D02*
X7Y796D01*
X3332Y796D02*
X3339Y796D01*
X0Y795D02*
X7Y795D01*
X3332Y795D02*
X3339Y795D01*
X0Y794D02*
X7Y794D01*
X3332Y794D02*
X3339Y794D01*
X0Y793D02*
X7Y793D01*
X3332Y793D02*
X3339Y793D01*
X0Y792D02*
X7Y792D01*
X3332Y792D02*
X3339Y792D01*
X0Y791D02*
X7Y791D01*
X3332Y791D02*
X3339Y791D01*
X0Y790D02*
X7Y790D01*
X3332Y790D02*
X3339Y790D01*
X0Y789D02*
X7Y789D01*
X3332Y789D02*
X3339Y789D01*
X0Y788D02*
X7Y788D01*
X3332Y788D02*
X3339Y788D01*
X0Y787D02*
X7Y787D01*
X3332Y787D02*
X3339Y787D01*
X0Y786D02*
X7Y786D01*
X3332Y786D02*
X3339Y786D01*
X0Y785D02*
X7Y785D01*
X3332Y785D02*
X3339Y785D01*
X0Y784D02*
X7Y784D01*
X3332Y784D02*
X3339Y784D01*
X0Y783D02*
X7Y783D01*
X3332Y783D02*
X3339Y783D01*
X0Y782D02*
X7Y782D01*
X3332Y782D02*
X3339Y782D01*
X0Y781D02*
X7Y781D01*
X3332Y781D02*
X3339Y781D01*
X0Y780D02*
X7Y780D01*
X3332Y780D02*
X3339Y780D01*
X0Y779D02*
X7Y779D01*
X3332Y779D02*
X3339Y779D01*
X0Y778D02*
X7Y778D01*
X3332Y778D02*
X3339Y778D01*
X0Y777D02*
X7Y777D01*
X3332Y777D02*
X3339Y777D01*
X0Y776D02*
X7Y776D01*
X3332Y776D02*
X3339Y776D01*
X0Y775D02*
X7Y775D01*
X3332Y775D02*
X3339Y775D01*
X0Y774D02*
X7Y774D01*
X3332Y774D02*
X3339Y774D01*
X0Y773D02*
X7Y773D01*
X3332Y773D02*
X3339Y773D01*
X0Y772D02*
X7Y772D01*
X3332Y772D02*
X3339Y772D01*
X0Y771D02*
X7Y771D01*
X3332Y771D02*
X3339Y771D01*
X0Y770D02*
X7Y770D01*
X3332Y770D02*
X3339Y770D01*
X0Y769D02*
X7Y769D01*
X3332Y769D02*
X3339Y769D01*
X0Y768D02*
X7Y768D01*
X3332Y768D02*
X3339Y768D01*
X0Y767D02*
X7Y767D01*
X3332Y767D02*
X3339Y767D01*
X0Y766D02*
X7Y766D01*
X3332Y766D02*
X3339Y766D01*
X0Y765D02*
X7Y765D01*
X3332Y765D02*
X3339Y765D01*
X0Y764D02*
X7Y764D01*
X3332Y764D02*
X3339Y764D01*
X0Y763D02*
X7Y763D01*
X3332Y763D02*
X3339Y763D01*
X0Y762D02*
X7Y762D01*
X3332Y762D02*
X3339Y762D01*
X0Y761D02*
X7Y761D01*
X3332Y761D02*
X3339Y761D01*
X0Y760D02*
X7Y760D01*
X3332Y760D02*
X3339Y760D01*
X0Y759D02*
X7Y759D01*
X3332Y759D02*
X3339Y759D01*
X0Y758D02*
X7Y758D01*
X3332Y758D02*
X3339Y758D01*
X0Y757D02*
X7Y757D01*
X3332Y757D02*
X3339Y757D01*
X0Y756D02*
X7Y756D01*
X3332Y756D02*
X3339Y756D01*
X0Y755D02*
X7Y755D01*
X3332Y755D02*
X3339Y755D01*
X0Y754D02*
X7Y754D01*
X3332Y754D02*
X3339Y754D01*
X0Y753D02*
X7Y753D01*
X3332Y753D02*
X3339Y753D01*
X0Y752D02*
X7Y752D01*
X3332Y752D02*
X3339Y752D01*
X0Y751D02*
X7Y751D01*
X3332Y751D02*
X3339Y751D01*
X0Y750D02*
X7Y750D01*
X3332Y750D02*
X3339Y750D01*
X0Y749D02*
X7Y749D01*
X3332Y749D02*
X3339Y749D01*
X0Y748D02*
X7Y748D01*
X3332Y748D02*
X3339Y748D01*
X0Y747D02*
X7Y747D01*
X3332Y747D02*
X3339Y747D01*
X0Y746D02*
X7Y746D01*
X3332Y746D02*
X3339Y746D01*
X0Y745D02*
X7Y745D01*
X3332Y745D02*
X3339Y745D01*
X0Y744D02*
X7Y744D01*
X3332Y744D02*
X3339Y744D01*
X0Y743D02*
X7Y743D01*
X3332Y743D02*
X3339Y743D01*
X0Y742D02*
X7Y742D01*
X3332Y742D02*
X3339Y742D01*
X0Y741D02*
X7Y741D01*
X3332Y741D02*
X3339Y741D01*
X0Y740D02*
X7Y740D01*
X3332Y740D02*
X3339Y740D01*
X0Y739D02*
X7Y739D01*
X3332Y739D02*
X3339Y739D01*
X0Y738D02*
X7Y738D01*
X3332Y738D02*
X3339Y738D01*
X0Y737D02*
X7Y737D01*
X3332Y737D02*
X3339Y737D01*
X0Y736D02*
X7Y736D01*
X3332Y736D02*
X3339Y736D01*
X0Y735D02*
X7Y735D01*
X3332Y735D02*
X3339Y735D01*
X0Y734D02*
X7Y734D01*
X3332Y734D02*
X3339Y734D01*
X0Y733D02*
X7Y733D01*
X3332Y733D02*
X3339Y733D01*
X0Y732D02*
X7Y732D01*
X3332Y732D02*
X3339Y732D01*
X0Y731D02*
X7Y731D01*
X3332Y731D02*
X3339Y731D01*
X0Y730D02*
X7Y730D01*
X3332Y730D02*
X3339Y730D01*
X0Y729D02*
X7Y729D01*
X3332Y729D02*
X3339Y729D01*
X0Y728D02*
X7Y728D01*
X3332Y728D02*
X3339Y728D01*
X0Y727D02*
X7Y727D01*
X3332Y727D02*
X3339Y727D01*
X0Y726D02*
X7Y726D01*
X3332Y726D02*
X3339Y726D01*
X0Y725D02*
X7Y725D01*
X3332Y725D02*
X3339Y725D01*
X0Y724D02*
X7Y724D01*
X3332Y724D02*
X3339Y724D01*
X0Y723D02*
X7Y723D01*
X3332Y723D02*
X3339Y723D01*
X0Y722D02*
X7Y722D01*
X3332Y722D02*
X3339Y722D01*
X0Y721D02*
X7Y721D01*
X3332Y721D02*
X3339Y721D01*
X0Y720D02*
X7Y720D01*
X3332Y720D02*
X3339Y720D01*
X0Y719D02*
X7Y719D01*
X3332Y719D02*
X3339Y719D01*
X0Y718D02*
X7Y718D01*
X3332Y718D02*
X3339Y718D01*
X0Y717D02*
X7Y717D01*
X3332Y717D02*
X3339Y717D01*
X0Y716D02*
X7Y716D01*
X3332Y716D02*
X3339Y716D01*
X0Y715D02*
X7Y715D01*
X3332Y715D02*
X3339Y715D01*
X0Y714D02*
X7Y714D01*
X3332Y714D02*
X3339Y714D01*
X0Y713D02*
X7Y713D01*
X3332Y713D02*
X3339Y713D01*
X0Y712D02*
X7Y712D01*
X3332Y712D02*
X3339Y712D01*
X0Y711D02*
X7Y711D01*
X3332Y711D02*
X3339Y711D01*
X0Y710D02*
X7Y710D01*
X3332Y710D02*
X3339Y710D01*
X0Y709D02*
X7Y709D01*
X3332Y709D02*
X3339Y709D01*
X0Y708D02*
X7Y708D01*
X3332Y708D02*
X3339Y708D01*
X0Y707D02*
X7Y707D01*
X3332Y707D02*
X3339Y707D01*
X0Y706D02*
X7Y706D01*
X3332Y706D02*
X3339Y706D01*
X0Y705D02*
X7Y705D01*
X3332Y705D02*
X3339Y705D01*
X0Y704D02*
X7Y704D01*
X3332Y704D02*
X3339Y704D01*
X0Y703D02*
X7Y703D01*
X3332Y703D02*
X3339Y703D01*
X0Y702D02*
X7Y702D01*
X3332Y702D02*
X3339Y702D01*
X0Y701D02*
X7Y701D01*
X3332Y701D02*
X3339Y701D01*
X0Y700D02*
X7Y700D01*
X3332Y700D02*
X3339Y700D01*
X0Y699D02*
X7Y699D01*
X3332Y699D02*
X3339Y699D01*
X0Y698D02*
X7Y698D01*
X3332Y698D02*
X3339Y698D01*
X0Y697D02*
X7Y697D01*
X3332Y697D02*
X3339Y697D01*
X0Y696D02*
X7Y696D01*
X3332Y696D02*
X3339Y696D01*
X0Y695D02*
X7Y695D01*
X3332Y695D02*
X3339Y695D01*
X0Y694D02*
X7Y694D01*
X3332Y694D02*
X3339Y694D01*
X0Y693D02*
X7Y693D01*
X3332Y693D02*
X3339Y693D01*
X0Y692D02*
X7Y692D01*
X3332Y692D02*
X3339Y692D01*
X0Y691D02*
X7Y691D01*
X3332Y691D02*
X3339Y691D01*
X0Y690D02*
X7Y690D01*
X3332Y690D02*
X3339Y690D01*
X0Y689D02*
X7Y689D01*
X3332Y689D02*
X3339Y689D01*
X0Y688D02*
X7Y688D01*
X3332Y688D02*
X3339Y688D01*
X0Y687D02*
X7Y687D01*
X3332Y687D02*
X3339Y687D01*
X0Y686D02*
X7Y686D01*
X3332Y686D02*
X3339Y686D01*
X0Y685D02*
X7Y685D01*
X3332Y685D02*
X3339Y685D01*
X0Y684D02*
X7Y684D01*
X3332Y684D02*
X3339Y684D01*
X0Y683D02*
X7Y683D01*
X3332Y683D02*
X3339Y683D01*
X0Y682D02*
X7Y682D01*
X3332Y682D02*
X3339Y682D01*
X0Y681D02*
X7Y681D01*
X3332Y681D02*
X3339Y681D01*
X0Y680D02*
X7Y680D01*
X3332Y680D02*
X3339Y680D01*
X0Y679D02*
X7Y679D01*
X3332Y679D02*
X3339Y679D01*
X0Y678D02*
X7Y678D01*
X3332Y678D02*
X3339Y678D01*
X0Y677D02*
X7Y677D01*
X3332Y677D02*
X3339Y677D01*
X0Y676D02*
X7Y676D01*
X3332Y676D02*
X3339Y676D01*
X0Y675D02*
X7Y675D01*
X3332Y675D02*
X3339Y675D01*
X0Y674D02*
X7Y674D01*
X3332Y674D02*
X3339Y674D01*
X0Y673D02*
X7Y673D01*
X3332Y673D02*
X3339Y673D01*
X0Y672D02*
X7Y672D01*
X3332Y672D02*
X3339Y672D01*
X0Y671D02*
X7Y671D01*
X3332Y671D02*
X3339Y671D01*
X0Y670D02*
X7Y670D01*
X3332Y670D02*
X3339Y670D01*
X0Y669D02*
X7Y669D01*
X3332Y669D02*
X3339Y669D01*
X0Y668D02*
X7Y668D01*
X3332Y668D02*
X3339Y668D01*
X0Y667D02*
X7Y667D01*
X3332Y667D02*
X3339Y667D01*
X0Y666D02*
X7Y666D01*
X3332Y666D02*
X3339Y666D01*
X0Y665D02*
X7Y665D01*
X3332Y665D02*
X3339Y665D01*
X0Y664D02*
X7Y664D01*
X3332Y664D02*
X3339Y664D01*
X0Y663D02*
X7Y663D01*
X3332Y663D02*
X3339Y663D01*
X0Y662D02*
X7Y662D01*
X3332Y662D02*
X3339Y662D01*
X0Y661D02*
X7Y661D01*
X3332Y661D02*
X3339Y661D01*
X0Y660D02*
X7Y660D01*
X3332Y660D02*
X3339Y660D01*
X0Y659D02*
X7Y659D01*
X3332Y659D02*
X3339Y659D01*
X0Y658D02*
X7Y658D01*
X3332Y658D02*
X3339Y658D01*
X0Y657D02*
X7Y657D01*
X3332Y657D02*
X3339Y657D01*
X0Y656D02*
X7Y656D01*
X3332Y656D02*
X3339Y656D01*
X0Y655D02*
X7Y655D01*
X3332Y655D02*
X3339Y655D01*
X0Y654D02*
X7Y654D01*
X3332Y654D02*
X3339Y654D01*
X0Y653D02*
X7Y653D01*
X3332Y653D02*
X3339Y653D01*
X0Y652D02*
X7Y652D01*
X3332Y652D02*
X3339Y652D01*
X0Y651D02*
X7Y651D01*
X3332Y651D02*
X3339Y651D01*
X0Y650D02*
X7Y650D01*
X3332Y650D02*
X3339Y650D01*
X0Y649D02*
X7Y649D01*
X3332Y649D02*
X3339Y649D01*
X0Y648D02*
X7Y648D01*
X3332Y648D02*
X3339Y648D01*
X0Y647D02*
X7Y647D01*
X3332Y647D02*
X3339Y647D01*
X0Y646D02*
X7Y646D01*
X3332Y646D02*
X3339Y646D01*
X0Y645D02*
X7Y645D01*
X3332Y645D02*
X3339Y645D01*
X0Y644D02*
X7Y644D01*
X3332Y644D02*
X3339Y644D01*
X0Y643D02*
X7Y643D01*
X3332Y643D02*
X3339Y643D01*
X0Y642D02*
X7Y642D01*
X3332Y642D02*
X3339Y642D01*
X0Y641D02*
X7Y641D01*
X3332Y641D02*
X3339Y641D01*
X0Y640D02*
X7Y640D01*
X3332Y640D02*
X3339Y640D01*
X0Y639D02*
X7Y639D01*
X3332Y639D02*
X3339Y639D01*
X0Y638D02*
X7Y638D01*
X3332Y638D02*
X3339Y638D01*
X0Y637D02*
X7Y637D01*
X3332Y637D02*
X3339Y637D01*
X0Y636D02*
X7Y636D01*
X3332Y636D02*
X3339Y636D01*
X0Y635D02*
X7Y635D01*
X3332Y635D02*
X3339Y635D01*
X0Y634D02*
X7Y634D01*
X3332Y634D02*
X3339Y634D01*
X0Y633D02*
X7Y633D01*
X3332Y633D02*
X3339Y633D01*
X0Y632D02*
X7Y632D01*
X3332Y632D02*
X3339Y632D01*
X0Y631D02*
X7Y631D01*
X3332Y631D02*
X3339Y631D01*
X0Y630D02*
X7Y630D01*
X3332Y630D02*
X3339Y630D01*
X0Y629D02*
X7Y629D01*
X3332Y629D02*
X3339Y629D01*
X0Y628D02*
X7Y628D01*
X3332Y628D02*
X3339Y628D01*
X0Y627D02*
X7Y627D01*
X3332Y627D02*
X3339Y627D01*
X0Y626D02*
X7Y626D01*
X3332Y626D02*
X3339Y626D01*
X0Y625D02*
X7Y625D01*
X3332Y625D02*
X3339Y625D01*
X0Y624D02*
X7Y624D01*
X3332Y624D02*
X3339Y624D01*
X0Y623D02*
X7Y623D01*
X3332Y623D02*
X3339Y623D01*
X0Y622D02*
X7Y622D01*
X3332Y622D02*
X3339Y622D01*
X0Y621D02*
X7Y621D01*
X3332Y621D02*
X3339Y621D01*
X0Y620D02*
X7Y620D01*
X3332Y620D02*
X3339Y620D01*
X0Y619D02*
X7Y619D01*
X3332Y619D02*
X3339Y619D01*
X0Y618D02*
X7Y618D01*
X3332Y618D02*
X3339Y618D01*
X0Y617D02*
X7Y617D01*
X3332Y617D02*
X3339Y617D01*
X0Y616D02*
X7Y616D01*
X3263Y616D02*
X3315Y616D01*
X3332Y616D02*
X3339Y616D01*
X0Y615D02*
X7Y615D01*
X3262Y615D02*
X3315Y615D01*
X3332Y615D02*
X3339Y615D01*
X0Y614D02*
X7Y614D01*
X3262Y614D02*
X3315Y614D01*
X3332Y614D02*
X3339Y614D01*
X0Y613D02*
X7Y613D01*
X3262Y613D02*
X3315Y613D01*
X3332Y613D02*
X3339Y613D01*
X0Y612D02*
X7Y612D01*
X3262Y612D02*
X3315Y612D01*
X3332Y612D02*
X3339Y612D01*
X0Y611D02*
X7Y611D01*
X3263Y611D02*
X3315Y611D01*
X3332Y611D02*
X3339Y611D01*
X0Y610D02*
X7Y610D01*
X3264Y610D02*
X3315Y610D01*
X3332Y610D02*
X3339Y610D01*
X0Y609D02*
X7Y609D01*
X3291Y609D02*
X3297Y609D01*
X3309Y609D02*
X3315Y609D01*
X3332Y609D02*
X3339Y609D01*
X0Y608D02*
X7Y608D01*
X3291Y608D02*
X3297Y608D01*
X3309Y608D02*
X3315Y608D01*
X3332Y608D02*
X3339Y608D01*
X0Y607D02*
X7Y607D01*
X3291Y607D02*
X3297Y607D01*
X3309Y607D02*
X3315Y607D01*
X3332Y607D02*
X3339Y607D01*
X0Y606D02*
X7Y606D01*
X3291Y606D02*
X3297Y606D01*
X3309Y606D02*
X3315Y606D01*
X3332Y606D02*
X3339Y606D01*
X0Y605D02*
X7Y605D01*
X3291Y605D02*
X3297Y605D01*
X3309Y605D02*
X3315Y605D01*
X3332Y605D02*
X3339Y605D01*
X0Y604D02*
X7Y604D01*
X3290Y604D02*
X3297Y604D01*
X3309Y604D02*
X3315Y604D01*
X3332Y604D02*
X3339Y604D01*
X0Y603D02*
X7Y603D01*
X3288Y603D02*
X3297Y603D01*
X3309Y603D02*
X3315Y603D01*
X3332Y603D02*
X3339Y603D01*
X0Y602D02*
X7Y602D01*
X3286Y602D02*
X3297Y602D01*
X3309Y602D02*
X3315Y602D01*
X3332Y602D02*
X3339Y602D01*
X0Y601D02*
X7Y601D01*
X3284Y601D02*
X3297Y601D01*
X3309Y601D02*
X3315Y601D01*
X3332Y601D02*
X3339Y601D01*
X0Y600D02*
X7Y600D01*
X3283Y600D02*
X3297Y600D01*
X3309Y600D02*
X3315Y600D01*
X3332Y600D02*
X3339Y600D01*
X0Y599D02*
X7Y599D01*
X3281Y599D02*
X3297Y599D01*
X3309Y599D02*
X3315Y599D01*
X3332Y599D02*
X3339Y599D01*
X0Y598D02*
X7Y598D01*
X3279Y598D02*
X3297Y598D01*
X3309Y598D02*
X3315Y598D01*
X3332Y598D02*
X3339Y598D01*
X0Y597D02*
X7Y597D01*
X3278Y597D02*
X3297Y597D01*
X3309Y597D02*
X3315Y597D01*
X3332Y597D02*
X3339Y597D01*
X0Y596D02*
X7Y596D01*
X3276Y596D02*
X3289Y596D01*
X3291Y596D02*
X3297Y596D01*
X3309Y596D02*
X3315Y596D01*
X3332Y596D02*
X3339Y596D01*
X0Y595D02*
X7Y595D01*
X3274Y595D02*
X3287Y595D01*
X3291Y595D02*
X3297Y595D01*
X3309Y595D02*
X3315Y595D01*
X3332Y595D02*
X3339Y595D01*
X0Y594D02*
X7Y594D01*
X3273Y594D02*
X3286Y594D01*
X3291Y594D02*
X3297Y594D01*
X3309Y594D02*
X3315Y594D01*
X3332Y594D02*
X3339Y594D01*
X0Y593D02*
X7Y593D01*
X3271Y593D02*
X3284Y593D01*
X3291Y593D02*
X3297Y593D01*
X3309Y593D02*
X3315Y593D01*
X3332Y593D02*
X3339Y593D01*
X0Y592D02*
X7Y592D01*
X3269Y592D02*
X3282Y592D01*
X3291Y592D02*
X3298Y592D01*
X3309Y592D02*
X3315Y592D01*
X3332Y592D02*
X3339Y592D01*
X0Y591D02*
X7Y591D01*
X3267Y591D02*
X3280Y591D01*
X3292Y591D02*
X3298Y591D01*
X3308Y591D02*
X3315Y591D01*
X3332Y591D02*
X3339Y591D01*
X0Y590D02*
X7Y590D01*
X3266Y590D02*
X3279Y590D01*
X3292Y590D02*
X3299Y590D01*
X3308Y590D02*
X3315Y590D01*
X3332Y590D02*
X3339Y590D01*
X0Y589D02*
X7Y589D01*
X3264Y589D02*
X3277Y589D01*
X3292Y589D02*
X3314Y589D01*
X3332Y589D02*
X3339Y589D01*
X0Y588D02*
X7Y588D01*
X3263Y588D02*
X3275Y588D01*
X3293Y588D02*
X3314Y588D01*
X3332Y588D02*
X3339Y588D01*
X0Y587D02*
X7Y587D01*
X3262Y587D02*
X3274Y587D01*
X3293Y587D02*
X3313Y587D01*
X3332Y587D02*
X3339Y587D01*
X0Y586D02*
X7Y586D01*
X3262Y586D02*
X3272Y586D01*
X3294Y586D02*
X3313Y586D01*
X3332Y586D02*
X3339Y586D01*
X0Y585D02*
X7Y585D01*
X3262Y585D02*
X3270Y585D01*
X3295Y585D02*
X3312Y585D01*
X3332Y585D02*
X3339Y585D01*
X0Y584D02*
X7Y584D01*
X3262Y584D02*
X3268Y584D01*
X3296Y584D02*
X3310Y584D01*
X3332Y584D02*
X3339Y584D01*
X0Y583D02*
X7Y583D01*
X3263Y583D02*
X3267Y583D01*
X3298Y583D02*
X3308Y583D01*
X3332Y583D02*
X3339Y583D01*
X0Y582D02*
X7Y582D01*
X3332Y582D02*
X3339Y582D01*
X0Y581D02*
X7Y581D01*
X3332Y581D02*
X3339Y581D01*
X0Y580D02*
X7Y580D01*
X3332Y580D02*
X3339Y580D01*
X0Y579D02*
X7Y579D01*
X3332Y579D02*
X3339Y579D01*
X0Y578D02*
X7Y578D01*
X3332Y578D02*
X3339Y578D01*
X0Y577D02*
X7Y577D01*
X3332Y577D02*
X3339Y577D01*
X0Y576D02*
X7Y576D01*
X3332Y576D02*
X3339Y576D01*
X0Y575D02*
X7Y575D01*
X3332Y575D02*
X3339Y575D01*
X0Y574D02*
X7Y574D01*
X3332Y574D02*
X3339Y574D01*
X0Y573D02*
X7Y573D01*
X3332Y573D02*
X3339Y573D01*
X0Y572D02*
X7Y572D01*
X3332Y572D02*
X3339Y572D01*
X0Y571D02*
X7Y571D01*
X3332Y571D02*
X3339Y571D01*
X0Y570D02*
X7Y570D01*
X3332Y570D02*
X3339Y570D01*
X0Y569D02*
X7Y569D01*
X3332Y569D02*
X3339Y569D01*
X0Y568D02*
X7Y568D01*
X3332Y568D02*
X3339Y568D01*
X0Y567D02*
X7Y567D01*
X3332Y567D02*
X3339Y567D01*
X0Y566D02*
X7Y566D01*
X3271Y566D02*
X3291Y566D01*
X3332Y566D02*
X3339Y566D01*
X0Y565D02*
X7Y565D01*
X3269Y565D02*
X3293Y565D01*
X3332Y565D02*
X3339Y565D01*
X0Y564D02*
X7Y564D01*
X3268Y564D02*
X3295Y564D01*
X3332Y564D02*
X3339Y564D01*
X0Y563D02*
X7Y563D01*
X3267Y563D02*
X3296Y563D01*
X3332Y563D02*
X3339Y563D01*
X0Y562D02*
X7Y562D01*
X3266Y562D02*
X3297Y562D01*
X3332Y562D02*
X3339Y562D01*
X0Y561D02*
X7Y561D01*
X3265Y561D02*
X3297Y561D01*
X3332Y561D02*
X3339Y561D01*
X0Y560D02*
X7Y560D01*
X3264Y560D02*
X3298Y560D01*
X3332Y560D02*
X3339Y560D01*
X0Y559D02*
X7Y559D01*
X3263Y559D02*
X3272Y559D01*
X3277Y559D02*
X3283Y559D01*
X3291Y559D02*
X3299Y559D01*
X3332Y559D02*
X3339Y559D01*
X0Y558D02*
X7Y558D01*
X3263Y558D02*
X3270Y558D01*
X3277Y558D02*
X3283Y558D01*
X3292Y558D02*
X3299Y558D01*
X3332Y558D02*
X3339Y558D01*
X0Y557D02*
X7Y557D01*
X3262Y557D02*
X3270Y557D01*
X3277Y557D02*
X3283Y557D01*
X3293Y557D02*
X3300Y557D01*
X3332Y557D02*
X3339Y557D01*
X0Y556D02*
X7Y556D01*
X3262Y556D02*
X3269Y556D01*
X3277Y556D02*
X3283Y556D01*
X3294Y556D02*
X3300Y556D01*
X3332Y556D02*
X3339Y556D01*
X0Y555D02*
X7Y555D01*
X3262Y555D02*
X3268Y555D01*
X3277Y555D02*
X3283Y555D01*
X3294Y555D02*
X3300Y555D01*
X3332Y555D02*
X3339Y555D01*
X0Y554D02*
X7Y554D01*
X3262Y554D02*
X3268Y554D01*
X3277Y554D02*
X3283Y554D01*
X3294Y554D02*
X3300Y554D01*
X3332Y554D02*
X3339Y554D01*
X0Y553D02*
X7Y553D01*
X3262Y553D02*
X3268Y553D01*
X3277Y553D02*
X3283Y553D01*
X3294Y553D02*
X3300Y553D01*
X3332Y553D02*
X3339Y553D01*
X0Y552D02*
X7Y552D01*
X3262Y552D02*
X3268Y552D01*
X3277Y552D02*
X3283Y552D01*
X3294Y552D02*
X3300Y552D01*
X3332Y552D02*
X3339Y552D01*
X0Y551D02*
X7Y551D01*
X3262Y551D02*
X3268Y551D01*
X3277Y551D02*
X3283Y551D01*
X3294Y551D02*
X3300Y551D01*
X3332Y551D02*
X3339Y551D01*
X0Y550D02*
X7Y550D01*
X3262Y550D02*
X3268Y550D01*
X3277Y550D02*
X3283Y550D01*
X3294Y550D02*
X3300Y550D01*
X3332Y550D02*
X3339Y550D01*
X0Y549D02*
X7Y549D01*
X3262Y549D02*
X3268Y549D01*
X3277Y549D02*
X3283Y549D01*
X3294Y549D02*
X3300Y549D01*
X3332Y549D02*
X3339Y549D01*
X0Y548D02*
X7Y548D01*
X3262Y548D02*
X3268Y548D01*
X3277Y548D02*
X3283Y548D01*
X3294Y548D02*
X3300Y548D01*
X3332Y548D02*
X3339Y548D01*
X0Y547D02*
X7Y547D01*
X3262Y547D02*
X3268Y547D01*
X3277Y547D02*
X3283Y547D01*
X3294Y547D02*
X3300Y547D01*
X3332Y547D02*
X3339Y547D01*
X0Y546D02*
X7Y546D01*
X3262Y546D02*
X3268Y546D01*
X3277Y546D02*
X3283Y546D01*
X3294Y546D02*
X3300Y546D01*
X3332Y546D02*
X3339Y546D01*
X0Y545D02*
X7Y545D01*
X3262Y545D02*
X3268Y545D01*
X3277Y545D02*
X3283Y545D01*
X3294Y545D02*
X3300Y545D01*
X3332Y545D02*
X3339Y545D01*
X0Y544D02*
X7Y544D01*
X3262Y544D02*
X3268Y544D01*
X3277Y544D02*
X3283Y544D01*
X3294Y544D02*
X3300Y544D01*
X3332Y544D02*
X3339Y544D01*
X0Y543D02*
X7Y543D01*
X3262Y543D02*
X3268Y543D01*
X3277Y543D02*
X3283Y543D01*
X3294Y543D02*
X3300Y543D01*
X3332Y543D02*
X3339Y543D01*
X0Y542D02*
X7Y542D01*
X3262Y542D02*
X3268Y542D01*
X3277Y542D02*
X3283Y542D01*
X3293Y542D02*
X3300Y542D01*
X3332Y542D02*
X3339Y542D01*
X0Y541D02*
X7Y541D01*
X3262Y541D02*
X3268Y541D01*
X3277Y541D02*
X3283Y541D01*
X3292Y541D02*
X3300Y541D01*
X3332Y541D02*
X3339Y541D01*
X0Y540D02*
X7Y540D01*
X3262Y540D02*
X3268Y540D01*
X3277Y540D02*
X3283Y540D01*
X3291Y540D02*
X3299Y540D01*
X3332Y540D02*
X3339Y540D01*
X0Y539D02*
X7Y539D01*
X3262Y539D02*
X3268Y539D01*
X3277Y539D02*
X3298Y539D01*
X3332Y539D02*
X3339Y539D01*
X0Y538D02*
X7Y538D01*
X3262Y538D02*
X3268Y538D01*
X3277Y538D02*
X3298Y538D01*
X3332Y538D02*
X3339Y538D01*
X0Y537D02*
X7Y537D01*
X3262Y537D02*
X3268Y537D01*
X3277Y537D02*
X3297Y537D01*
X3332Y537D02*
X3339Y537D01*
X0Y536D02*
X7Y536D01*
X3262Y536D02*
X3268Y536D01*
X3277Y536D02*
X3296Y536D01*
X3332Y536D02*
X3339Y536D01*
X0Y535D02*
X7Y535D01*
X3262Y535D02*
X3268Y535D01*
X3277Y535D02*
X3295Y535D01*
X3332Y535D02*
X3339Y535D01*
X0Y534D02*
X7Y534D01*
X3262Y534D02*
X3268Y534D01*
X3277Y534D02*
X3294Y534D01*
X3332Y534D02*
X3339Y534D01*
X0Y533D02*
X7Y533D01*
X3263Y533D02*
X3267Y533D01*
X3278Y533D02*
X3292Y533D01*
X3332Y533D02*
X3339Y533D01*
X0Y532D02*
X7Y532D01*
X3332Y532D02*
X3339Y532D01*
X0Y531D02*
X7Y531D01*
X3332Y531D02*
X3339Y531D01*
X0Y530D02*
X7Y530D01*
X3332Y530D02*
X3339Y530D01*
X0Y529D02*
X7Y529D01*
X3332Y529D02*
X3339Y529D01*
X0Y528D02*
X7Y528D01*
X3332Y528D02*
X3339Y528D01*
X0Y527D02*
X7Y527D01*
X3332Y527D02*
X3339Y527D01*
X0Y526D02*
X7Y526D01*
X3332Y526D02*
X3339Y526D01*
X0Y525D02*
X7Y525D01*
X3332Y525D02*
X3339Y525D01*
X0Y524D02*
X7Y524D01*
X3332Y524D02*
X3339Y524D01*
X0Y523D02*
X7Y523D01*
X3332Y523D02*
X3339Y523D01*
X0Y522D02*
X7Y522D01*
X3332Y522D02*
X3339Y522D01*
X0Y521D02*
X7Y521D01*
X3332Y521D02*
X3339Y521D01*
X0Y520D02*
X7Y520D01*
X3332Y520D02*
X3339Y520D01*
X0Y519D02*
X7Y519D01*
X3332Y519D02*
X3339Y519D01*
X0Y518D02*
X7Y518D01*
X3332Y518D02*
X3339Y518D01*
X0Y517D02*
X7Y517D01*
X3332Y517D02*
X3339Y517D01*
X0Y516D02*
X7Y516D01*
X3271Y516D02*
X3291Y516D01*
X3332Y516D02*
X3339Y516D01*
X0Y515D02*
X7Y515D01*
X3269Y515D02*
X3293Y515D01*
X3332Y515D02*
X3339Y515D01*
X0Y514D02*
X7Y514D01*
X3268Y514D02*
X3294Y514D01*
X3332Y514D02*
X3339Y514D01*
X0Y513D02*
X7Y513D01*
X3267Y513D02*
X3296Y513D01*
X3332Y513D02*
X3339Y513D01*
X0Y512D02*
X7Y512D01*
X3266Y512D02*
X3296Y512D01*
X3332Y512D02*
X3339Y512D01*
X0Y511D02*
X7Y511D01*
X3265Y511D02*
X3297Y511D01*
X3332Y511D02*
X3339Y511D01*
X0Y510D02*
X7Y510D01*
X3264Y510D02*
X3298Y510D01*
X3332Y510D02*
X3339Y510D01*
X0Y509D02*
X7Y509D01*
X3263Y509D02*
X3272Y509D01*
X3277Y509D02*
X3283Y509D01*
X3290Y509D02*
X3299Y509D01*
X3332Y509D02*
X3339Y509D01*
X0Y508D02*
X7Y508D01*
X3263Y508D02*
X3271Y508D01*
X3277Y508D02*
X3283Y508D01*
X3292Y508D02*
X3299Y508D01*
X3332Y508D02*
X3339Y508D01*
X0Y507D02*
X7Y507D01*
X3263Y507D02*
X3270Y507D01*
X3277Y507D02*
X3283Y507D01*
X3293Y507D02*
X3300Y507D01*
X3332Y507D02*
X3339Y507D01*
X0Y506D02*
X7Y506D01*
X3262Y506D02*
X3269Y506D01*
X3277Y506D02*
X3283Y506D01*
X3293Y506D02*
X3300Y506D01*
X3332Y506D02*
X3339Y506D01*
X0Y505D02*
X7Y505D01*
X3262Y505D02*
X3268Y505D01*
X3277Y505D02*
X3283Y505D01*
X3294Y505D02*
X3300Y505D01*
X3332Y505D02*
X3339Y505D01*
X0Y504D02*
X7Y504D01*
X3262Y504D02*
X3268Y504D01*
X3277Y504D02*
X3283Y504D01*
X3294Y504D02*
X3300Y504D01*
X3332Y504D02*
X3339Y504D01*
X0Y503D02*
X7Y503D01*
X3262Y503D02*
X3268Y503D01*
X3277Y503D02*
X3283Y503D01*
X3294Y503D02*
X3300Y503D01*
X3332Y503D02*
X3339Y503D01*
X0Y502D02*
X7Y502D01*
X3262Y502D02*
X3268Y502D01*
X3277Y502D02*
X3283Y502D01*
X3294Y502D02*
X3300Y502D01*
X3332Y502D02*
X3339Y502D01*
X0Y501D02*
X7Y501D01*
X3262Y501D02*
X3268Y501D01*
X3277Y501D02*
X3283Y501D01*
X3294Y501D02*
X3300Y501D01*
X3332Y501D02*
X3339Y501D01*
X0Y500D02*
X7Y500D01*
X3262Y500D02*
X3268Y500D01*
X3277Y500D02*
X3283Y500D01*
X3294Y500D02*
X3300Y500D01*
X3332Y500D02*
X3339Y500D01*
X0Y499D02*
X7Y499D01*
X3262Y499D02*
X3268Y499D01*
X3277Y499D02*
X3283Y499D01*
X3294Y499D02*
X3300Y499D01*
X3332Y499D02*
X3339Y499D01*
X0Y498D02*
X7Y498D01*
X3262Y498D02*
X3268Y498D01*
X3277Y498D02*
X3283Y498D01*
X3294Y498D02*
X3300Y498D01*
X3332Y498D02*
X3339Y498D01*
X0Y497D02*
X7Y497D01*
X3262Y497D02*
X3268Y497D01*
X3277Y497D02*
X3283Y497D01*
X3294Y497D02*
X3300Y497D01*
X3332Y497D02*
X3339Y497D01*
X0Y496D02*
X7Y496D01*
X3262Y496D02*
X3268Y496D01*
X3277Y496D02*
X3283Y496D01*
X3294Y496D02*
X3300Y496D01*
X3332Y496D02*
X3339Y496D01*
X0Y495D02*
X7Y495D01*
X3262Y495D02*
X3268Y495D01*
X3277Y495D02*
X3283Y495D01*
X3294Y495D02*
X3300Y495D01*
X3332Y495D02*
X3339Y495D01*
X0Y494D02*
X7Y494D01*
X3262Y494D02*
X3268Y494D01*
X3277Y494D02*
X3283Y494D01*
X3294Y494D02*
X3300Y494D01*
X3332Y494D02*
X3339Y494D01*
X0Y493D02*
X7Y493D01*
X3262Y493D02*
X3268Y493D01*
X3277Y493D02*
X3283Y493D01*
X3294Y493D02*
X3300Y493D01*
X3332Y493D02*
X3339Y493D01*
X0Y492D02*
X7Y492D01*
X3262Y492D02*
X3268Y492D01*
X3277Y492D02*
X3283Y492D01*
X3293Y492D02*
X3300Y492D01*
X3332Y492D02*
X3339Y492D01*
X0Y491D02*
X7Y491D01*
X3262Y491D02*
X3268Y491D01*
X3277Y491D02*
X3283Y491D01*
X3292Y491D02*
X3300Y491D01*
X3332Y491D02*
X3339Y491D01*
X0Y490D02*
X7Y490D01*
X3262Y490D02*
X3268Y490D01*
X3277Y490D02*
X3283Y490D01*
X3291Y490D02*
X3299Y490D01*
X3332Y490D02*
X3339Y490D01*
X0Y489D02*
X7Y489D01*
X3262Y489D02*
X3268Y489D01*
X3277Y489D02*
X3283Y489D01*
X3289Y489D02*
X3299Y489D01*
X3332Y489D02*
X3339Y489D01*
X0Y488D02*
X7Y488D01*
X3262Y488D02*
X3268Y488D01*
X3277Y488D02*
X3298Y488D01*
X3332Y488D02*
X3339Y488D01*
X0Y487D02*
X7Y487D01*
X3262Y487D02*
X3268Y487D01*
X3277Y487D02*
X3297Y487D01*
X3332Y487D02*
X3339Y487D01*
X0Y486D02*
X7Y486D01*
X3262Y486D02*
X3268Y486D01*
X3277Y486D02*
X3296Y486D01*
X3332Y486D02*
X3339Y486D01*
X0Y485D02*
X7Y485D01*
X3262Y485D02*
X3268Y485D01*
X3277Y485D02*
X3295Y485D01*
X3332Y485D02*
X3339Y485D01*
X0Y484D02*
X7Y484D01*
X3262Y484D02*
X3268Y484D01*
X3277Y484D02*
X3294Y484D01*
X3332Y484D02*
X3339Y484D01*
X0Y483D02*
X7Y483D01*
X3263Y483D02*
X3267Y483D01*
X3278Y483D02*
X3292Y483D01*
X3332Y483D02*
X3339Y483D01*
X0Y482D02*
X7Y482D01*
X3265Y482D02*
X3265Y482D01*
X3280Y482D02*
X3289Y482D01*
X3332Y482D02*
X3339Y482D01*
X0Y481D02*
X7Y481D01*
X3332Y481D02*
X3339Y481D01*
X0Y480D02*
X7Y480D01*
X3332Y480D02*
X3339Y480D01*
X0Y479D02*
X7Y479D01*
X3332Y479D02*
X3339Y479D01*
X0Y478D02*
X7Y478D01*
X3332Y478D02*
X3339Y478D01*
X0Y477D02*
X7Y477D01*
X3332Y477D02*
X3339Y477D01*
X0Y476D02*
X7Y476D01*
X3332Y476D02*
X3339Y476D01*
X0Y475D02*
X7Y475D01*
X3332Y475D02*
X3339Y475D01*
X0Y474D02*
X7Y474D01*
X3332Y474D02*
X3339Y474D01*
X0Y473D02*
X7Y473D01*
X3332Y473D02*
X3339Y473D01*
X0Y472D02*
X7Y472D01*
X3332Y472D02*
X3339Y472D01*
X0Y471D02*
X7Y471D01*
X3332Y471D02*
X3339Y471D01*
X0Y470D02*
X7Y470D01*
X3332Y470D02*
X3339Y470D01*
X0Y469D02*
X7Y469D01*
X3332Y469D02*
X3339Y469D01*
X0Y468D02*
X7Y468D01*
X3332Y468D02*
X3339Y468D01*
X0Y467D02*
X7Y467D01*
X3332Y467D02*
X3339Y467D01*
X0Y466D02*
X7Y466D01*
X3272Y466D02*
X3290Y466D01*
X3332Y466D02*
X3339Y466D01*
X0Y465D02*
X7Y465D01*
X3269Y465D02*
X3293Y465D01*
X3332Y465D02*
X3339Y465D01*
X0Y464D02*
X7Y464D01*
X3268Y464D02*
X3294Y464D01*
X3332Y464D02*
X3339Y464D01*
X0Y463D02*
X7Y463D01*
X3267Y463D02*
X3295Y463D01*
X3332Y463D02*
X3339Y463D01*
X0Y462D02*
X7Y462D01*
X3266Y462D02*
X3296Y462D01*
X3332Y462D02*
X3339Y462D01*
X0Y461D02*
X7Y461D01*
X3265Y461D02*
X3297Y461D01*
X3332Y461D02*
X3339Y461D01*
X0Y460D02*
X7Y460D01*
X3264Y460D02*
X3298Y460D01*
X3332Y460D02*
X3339Y460D01*
X0Y459D02*
X7Y459D01*
X3264Y459D02*
X3272Y459D01*
X3290Y459D02*
X3299Y459D01*
X3332Y459D02*
X3339Y459D01*
X0Y458D02*
X7Y458D01*
X3263Y458D02*
X3271Y458D01*
X3291Y458D02*
X3299Y458D01*
X3332Y458D02*
X3339Y458D01*
X0Y457D02*
X7Y457D01*
X3263Y457D02*
X3270Y457D01*
X3292Y457D02*
X3300Y457D01*
X3332Y457D02*
X3339Y457D01*
X0Y456D02*
X7Y456D01*
X3262Y456D02*
X3269Y456D01*
X3293Y456D02*
X3300Y456D01*
X3332Y456D02*
X3339Y456D01*
X0Y455D02*
X7Y455D01*
X3262Y455D02*
X3268Y455D01*
X3294Y455D02*
X3300Y455D01*
X3332Y455D02*
X3339Y455D01*
X0Y454D02*
X7Y454D01*
X3262Y454D02*
X3268Y454D01*
X3294Y454D02*
X3300Y454D01*
X3332Y454D02*
X3339Y454D01*
X0Y453D02*
X7Y453D01*
X3262Y453D02*
X3268Y453D01*
X3294Y453D02*
X3300Y453D01*
X3332Y453D02*
X3339Y453D01*
X0Y452D02*
X7Y452D01*
X3262Y452D02*
X3268Y452D01*
X3294Y452D02*
X3300Y452D01*
X3332Y452D02*
X3339Y452D01*
X0Y451D02*
X7Y451D01*
X3262Y451D02*
X3268Y451D01*
X3294Y451D02*
X3300Y451D01*
X3332Y451D02*
X3339Y451D01*
X0Y450D02*
X7Y450D01*
X3262Y450D02*
X3268Y450D01*
X3294Y450D02*
X3300Y450D01*
X3332Y450D02*
X3339Y450D01*
X0Y449D02*
X7Y449D01*
X3262Y449D02*
X3268Y449D01*
X3294Y449D02*
X3300Y449D01*
X3332Y449D02*
X3339Y449D01*
X0Y448D02*
X7Y448D01*
X3262Y448D02*
X3268Y448D01*
X3294Y448D02*
X3300Y448D01*
X3332Y448D02*
X3339Y448D01*
X0Y447D02*
X7Y447D01*
X3262Y447D02*
X3268Y447D01*
X3294Y447D02*
X3300Y447D01*
X3332Y447D02*
X3339Y447D01*
X0Y446D02*
X7Y446D01*
X3262Y446D02*
X3269Y446D01*
X3294Y446D02*
X3300Y446D01*
X3332Y446D02*
X3339Y446D01*
X0Y445D02*
X7Y445D01*
X3262Y445D02*
X3270Y445D01*
X3293Y445D02*
X3300Y445D01*
X3332Y445D02*
X3339Y445D01*
X0Y444D02*
X7Y444D01*
X3263Y444D02*
X3270Y444D01*
X3292Y444D02*
X3300Y444D01*
X3332Y444D02*
X3339Y444D01*
X0Y443D02*
X7Y443D01*
X3263Y443D02*
X3271Y443D01*
X3291Y443D02*
X3299Y443D01*
X3332Y443D02*
X3339Y443D01*
X0Y442D02*
X7Y442D01*
X3264Y442D02*
X3272Y442D01*
X3290Y442D02*
X3298Y442D01*
X3332Y442D02*
X3339Y442D01*
X0Y441D02*
X7Y441D01*
X3265Y441D02*
X3273Y441D01*
X3289Y441D02*
X3298Y441D01*
X3332Y441D02*
X3339Y441D01*
X0Y440D02*
X7Y440D01*
X3265Y440D02*
X3274Y440D01*
X3288Y440D02*
X3297Y440D01*
X3332Y440D02*
X3339Y440D01*
X0Y439D02*
X7Y439D01*
X3266Y439D02*
X3275Y439D01*
X3287Y439D02*
X3296Y439D01*
X3332Y439D02*
X3339Y439D01*
X0Y438D02*
X7Y438D01*
X3263Y438D02*
X3314Y438D01*
X3332Y438D02*
X3339Y438D01*
X0Y437D02*
X7Y437D01*
X3262Y437D02*
X3315Y437D01*
X3332Y437D02*
X3339Y437D01*
X0Y436D02*
X7Y436D01*
X3262Y436D02*
X3315Y436D01*
X3332Y436D02*
X3339Y436D01*
X0Y435D02*
X7Y435D01*
X3262Y435D02*
X3315Y435D01*
X3332Y435D02*
X3339Y435D01*
X0Y434D02*
X7Y434D01*
X3262Y434D02*
X3315Y434D01*
X3332Y434D02*
X3339Y434D01*
X0Y433D02*
X7Y433D01*
X3263Y433D02*
X3314Y433D01*
X3332Y433D02*
X3339Y433D01*
X0Y432D02*
X7Y432D01*
X3264Y432D02*
X3313Y432D01*
X3332Y432D02*
X3339Y432D01*
X0Y431D02*
X7Y431D01*
X3332Y431D02*
X3339Y431D01*
X0Y430D02*
X7Y430D01*
X3332Y430D02*
X3339Y430D01*
X0Y429D02*
X7Y429D01*
X3332Y429D02*
X3339Y429D01*
X0Y428D02*
X7Y428D01*
X3332Y428D02*
X3339Y428D01*
X0Y427D02*
X7Y427D01*
X3332Y427D02*
X3339Y427D01*
X0Y426D02*
X7Y426D01*
X3332Y426D02*
X3339Y426D01*
X0Y425D02*
X7Y425D01*
X3332Y425D02*
X3339Y425D01*
X0Y424D02*
X7Y424D01*
X3332Y424D02*
X3339Y424D01*
X0Y423D02*
X7Y423D01*
X3332Y423D02*
X3339Y423D01*
X0Y422D02*
X7Y422D01*
X3332Y422D02*
X3339Y422D01*
X0Y421D02*
X7Y421D01*
X3332Y421D02*
X3339Y421D01*
X0Y420D02*
X7Y420D01*
X3332Y420D02*
X3339Y420D01*
X0Y419D02*
X7Y419D01*
X3332Y419D02*
X3339Y419D01*
X0Y418D02*
X7Y418D01*
X3332Y418D02*
X3339Y418D01*
X0Y417D02*
X7Y417D01*
X3332Y417D02*
X3339Y417D01*
X0Y416D02*
X7Y416D01*
X3332Y416D02*
X3339Y416D01*
X0Y415D02*
X7Y415D01*
X3332Y415D02*
X3339Y415D01*
X0Y414D02*
X7Y414D01*
X3332Y414D02*
X3339Y414D01*
X0Y413D02*
X7Y413D01*
X3332Y413D02*
X3339Y413D01*
X0Y412D02*
X7Y412D01*
X3332Y412D02*
X3339Y412D01*
X0Y411D02*
X7Y411D01*
X3332Y411D02*
X3339Y411D01*
X0Y410D02*
X7Y410D01*
X3332Y410D02*
X3339Y410D01*
X0Y409D02*
X7Y409D01*
X3332Y409D02*
X3339Y409D01*
X0Y408D02*
X7Y408D01*
X3332Y408D02*
X3339Y408D01*
X0Y407D02*
X7Y407D01*
X3332Y407D02*
X3339Y407D01*
X0Y406D02*
X7Y406D01*
X3332Y406D02*
X3339Y406D01*
X0Y405D02*
X7Y405D01*
X3332Y405D02*
X3339Y405D01*
X0Y404D02*
X7Y404D01*
X3332Y404D02*
X3339Y404D01*
X0Y403D02*
X7Y403D01*
X3332Y403D02*
X3339Y403D01*
X0Y402D02*
X7Y402D01*
X3332Y402D02*
X3339Y402D01*
X0Y401D02*
X7Y401D01*
X3332Y401D02*
X3339Y401D01*
X0Y400D02*
X7Y400D01*
X3332Y400D02*
X3339Y400D01*
X0Y399D02*
X7Y399D01*
X3332Y399D02*
X3339Y399D01*
X0Y398D02*
X7Y398D01*
X3332Y398D02*
X3339Y398D01*
X0Y397D02*
X7Y397D01*
X3332Y397D02*
X3339Y397D01*
X0Y396D02*
X7Y396D01*
X3332Y396D02*
X3339Y396D01*
X0Y395D02*
X7Y395D01*
X3332Y395D02*
X3339Y395D01*
X0Y394D02*
X7Y394D01*
X3332Y394D02*
X3339Y394D01*
X0Y393D02*
X7Y393D01*
X3332Y393D02*
X3339Y393D01*
X0Y392D02*
X7Y392D01*
X3332Y392D02*
X3339Y392D01*
X0Y391D02*
X7Y391D01*
X3332Y391D02*
X3339Y391D01*
X0Y390D02*
X7Y390D01*
X3332Y390D02*
X3339Y390D01*
X0Y389D02*
X7Y389D01*
X3332Y389D02*
X3339Y389D01*
X0Y388D02*
X7Y388D01*
X3332Y388D02*
X3339Y388D01*
X0Y387D02*
X7Y387D01*
X3332Y387D02*
X3339Y387D01*
X0Y386D02*
X7Y386D01*
X3332Y386D02*
X3339Y386D01*
X0Y385D02*
X7Y385D01*
X3332Y385D02*
X3339Y385D01*
X0Y384D02*
X7Y384D01*
X3332Y384D02*
X3339Y384D01*
X0Y383D02*
X7Y383D01*
X3332Y383D02*
X3339Y383D01*
X0Y382D02*
X7Y382D01*
X3332Y382D02*
X3339Y382D01*
X0Y381D02*
X7Y381D01*
X3332Y381D02*
X3339Y381D01*
X0Y380D02*
X7Y380D01*
X3332Y380D02*
X3339Y380D01*
X0Y379D02*
X7Y379D01*
X3332Y379D02*
X3339Y379D01*
X0Y378D02*
X7Y378D01*
X3332Y378D02*
X3339Y378D01*
X0Y377D02*
X7Y377D01*
X3332Y377D02*
X3339Y377D01*
X0Y376D02*
X7Y376D01*
X3332Y376D02*
X3339Y376D01*
X0Y375D02*
X7Y375D01*
X3332Y375D02*
X3339Y375D01*
X0Y374D02*
X7Y374D01*
X3332Y374D02*
X3339Y374D01*
X0Y373D02*
X7Y373D01*
X3332Y373D02*
X3339Y373D01*
X0Y372D02*
X7Y372D01*
X3332Y372D02*
X3339Y372D01*
X0Y371D02*
X7Y371D01*
X3332Y371D02*
X3339Y371D01*
X0Y370D02*
X7Y370D01*
X3332Y370D02*
X3339Y370D01*
X0Y369D02*
X7Y369D01*
X3332Y369D02*
X3339Y369D01*
X0Y368D02*
X7Y368D01*
X3332Y368D02*
X3339Y368D01*
X0Y367D02*
X7Y367D01*
X3332Y367D02*
X3339Y367D01*
X0Y366D02*
X7Y366D01*
X3332Y366D02*
X3339Y366D01*
X0Y365D02*
X7Y365D01*
X3267Y365D02*
X3273Y365D01*
X3305Y365D02*
X3311Y365D01*
X3332Y365D02*
X3339Y365D01*
X0Y364D02*
X7Y364D01*
X3266Y364D02*
X3273Y364D01*
X3303Y364D02*
X3312Y364D01*
X3332Y364D02*
X3339Y364D01*
X0Y363D02*
X7Y363D01*
X3265Y363D02*
X3274Y363D01*
X3302Y363D02*
X3313Y363D01*
X3332Y363D02*
X3339Y363D01*
X0Y362D02*
X7Y362D01*
X3264Y362D02*
X3274Y362D01*
X3300Y362D02*
X3314Y362D01*
X3332Y362D02*
X3339Y362D01*
X0Y361D02*
X7Y361D01*
X3263Y361D02*
X3273Y361D01*
X3299Y361D02*
X3315Y361D01*
X3332Y361D02*
X3339Y361D01*
X0Y360D02*
X7Y360D01*
X3263Y360D02*
X3273Y360D01*
X3298Y360D02*
X3315Y360D01*
X3332Y360D02*
X3339Y360D01*
X0Y359D02*
X7Y359D01*
X3262Y359D02*
X3271Y359D01*
X3296Y359D02*
X3315Y359D01*
X3332Y359D02*
X3339Y359D01*
X0Y358D02*
X7Y358D01*
X3262Y358D02*
X3269Y358D01*
X3295Y358D02*
X3306Y358D01*
X3309Y358D02*
X3315Y358D01*
X3332Y358D02*
X3339Y358D01*
X0Y357D02*
X7Y357D01*
X3262Y357D02*
X3268Y357D01*
X3294Y357D02*
X3304Y357D01*
X3309Y357D02*
X3315Y357D01*
X3332Y357D02*
X3339Y357D01*
X0Y356D02*
X7Y356D01*
X3262Y356D02*
X3268Y356D01*
X3293Y356D02*
X3303Y356D01*
X3309Y356D02*
X3315Y356D01*
X3332Y356D02*
X3339Y356D01*
X0Y355D02*
X7Y355D01*
X3262Y355D02*
X3268Y355D01*
X3291Y355D02*
X3302Y355D01*
X3309Y355D02*
X3315Y355D01*
X3332Y355D02*
X3339Y355D01*
X0Y354D02*
X7Y354D01*
X3262Y354D02*
X3268Y354D01*
X3290Y354D02*
X3301Y354D01*
X3309Y354D02*
X3315Y354D01*
X3332Y354D02*
X3339Y354D01*
X0Y353D02*
X7Y353D01*
X3262Y353D02*
X3268Y353D01*
X3289Y353D02*
X3299Y353D01*
X3309Y353D02*
X3315Y353D01*
X3332Y353D02*
X3339Y353D01*
X0Y352D02*
X7Y352D01*
X3262Y352D02*
X3268Y352D01*
X3287Y352D02*
X3298Y352D01*
X3309Y352D02*
X3315Y352D01*
X3332Y352D02*
X3339Y352D01*
X0Y351D02*
X7Y351D01*
X3262Y351D02*
X3268Y351D01*
X3286Y351D02*
X3297Y351D01*
X3309Y351D02*
X3315Y351D01*
X3332Y351D02*
X3339Y351D01*
X0Y350D02*
X7Y350D01*
X3262Y350D02*
X3268Y350D01*
X3285Y350D02*
X3295Y350D01*
X3309Y350D02*
X3315Y350D01*
X3332Y350D02*
X3339Y350D01*
X0Y349D02*
X7Y349D01*
X3262Y349D02*
X3268Y349D01*
X3284Y349D02*
X3294Y349D01*
X3309Y349D02*
X3315Y349D01*
X3332Y349D02*
X3339Y349D01*
X0Y348D02*
X7Y348D01*
X3262Y348D02*
X3268Y348D01*
X3282Y348D02*
X3293Y348D01*
X3309Y348D02*
X3315Y348D01*
X3332Y348D02*
X3339Y348D01*
X0Y347D02*
X7Y347D01*
X3262Y347D02*
X3268Y347D01*
X3281Y347D02*
X3292Y347D01*
X3309Y347D02*
X3315Y347D01*
X3332Y347D02*
X3339Y347D01*
X0Y346D02*
X7Y346D01*
X3262Y346D02*
X3268Y346D01*
X3280Y346D02*
X3290Y346D01*
X3309Y346D02*
X3315Y346D01*
X3332Y346D02*
X3339Y346D01*
X0Y345D02*
X7Y345D01*
X3262Y345D02*
X3268Y345D01*
X3278Y345D02*
X3289Y345D01*
X3309Y345D02*
X3315Y345D01*
X3332Y345D02*
X3339Y345D01*
X0Y344D02*
X7Y344D01*
X3262Y344D02*
X3268Y344D01*
X3277Y344D02*
X3288Y344D01*
X3309Y344D02*
X3315Y344D01*
X3332Y344D02*
X3339Y344D01*
X0Y343D02*
X7Y343D01*
X3262Y343D02*
X3268Y343D01*
X3276Y343D02*
X3286Y343D01*
X3309Y343D02*
X3315Y343D01*
X3332Y343D02*
X3339Y343D01*
X0Y342D02*
X7Y342D01*
X3262Y342D02*
X3268Y342D01*
X3275Y342D02*
X3285Y342D01*
X3309Y342D02*
X3315Y342D01*
X3332Y342D02*
X3339Y342D01*
X0Y341D02*
X7Y341D01*
X3262Y341D02*
X3268Y341D01*
X3273Y341D02*
X3284Y341D01*
X3309Y341D02*
X3315Y341D01*
X3332Y341D02*
X3339Y341D01*
X0Y340D02*
X7Y340D01*
X3262Y340D02*
X3268Y340D01*
X3272Y340D02*
X3282Y340D01*
X3309Y340D02*
X3315Y340D01*
X3332Y340D02*
X3339Y340D01*
X0Y339D02*
X7Y339D01*
X3262Y339D02*
X3268Y339D01*
X3271Y339D02*
X3281Y339D01*
X3308Y339D02*
X3315Y339D01*
X3332Y339D02*
X3339Y339D01*
X0Y338D02*
X7Y338D01*
X3262Y338D02*
X3280Y338D01*
X3305Y338D02*
X3315Y338D01*
X3332Y338D02*
X3339Y338D01*
X0Y337D02*
X7Y337D01*
X3262Y337D02*
X3279Y337D01*
X3304Y337D02*
X3314Y337D01*
X3332Y337D02*
X3339Y337D01*
X0Y336D02*
X7Y336D01*
X3263Y336D02*
X3277Y336D01*
X3303Y336D02*
X3314Y336D01*
X3332Y336D02*
X3339Y336D01*
X0Y335D02*
X7Y335D01*
X3263Y335D02*
X3276Y335D01*
X3303Y335D02*
X3313Y335D01*
X3332Y335D02*
X3339Y335D01*
X0Y334D02*
X7Y334D01*
X3264Y334D02*
X3275Y334D01*
X3303Y334D02*
X3312Y334D01*
X3332Y334D02*
X3339Y334D01*
X0Y333D02*
X7Y333D01*
X3265Y333D02*
X3273Y333D01*
X3304Y333D02*
X3311Y333D01*
X3332Y333D02*
X3339Y333D01*
X0Y332D02*
X7Y332D01*
X3267Y332D02*
X3272Y332D01*
X3305Y332D02*
X3309Y332D01*
X3332Y332D02*
X3339Y332D01*
X0Y331D02*
X7Y331D01*
X3332Y331D02*
X3339Y331D01*
X0Y330D02*
X7Y330D01*
X3332Y330D02*
X3339Y330D01*
X0Y329D02*
X7Y329D01*
X3332Y329D02*
X3339Y329D01*
X0Y328D02*
X7Y328D01*
X3332Y328D02*
X3339Y328D01*
X0Y327D02*
X7Y327D01*
X3332Y327D02*
X3339Y327D01*
X0Y326D02*
X7Y326D01*
X3332Y326D02*
X3339Y326D01*
X0Y325D02*
X7Y325D01*
X3332Y325D02*
X3339Y325D01*
X0Y324D02*
X7Y324D01*
X3332Y324D02*
X3339Y324D01*
X0Y323D02*
X7Y323D01*
X3332Y323D02*
X3339Y323D01*
X0Y322D02*
X7Y322D01*
X3332Y322D02*
X3339Y322D01*
X0Y321D02*
X7Y321D01*
X3332Y321D02*
X3339Y321D01*
X0Y320D02*
X7Y320D01*
X3332Y320D02*
X3339Y320D01*
X0Y319D02*
X7Y319D01*
X3332Y319D02*
X3339Y319D01*
X0Y318D02*
X7Y318D01*
X3332Y318D02*
X3339Y318D01*
X0Y317D02*
X7Y317D01*
X3332Y317D02*
X3339Y317D01*
X0Y316D02*
X7Y316D01*
X3282Y316D02*
X3299Y316D01*
X3332Y316D02*
X3339Y316D01*
X0Y315D02*
X7Y315D01*
X3274Y315D02*
X3300Y315D01*
X3332Y315D02*
X3339Y315D01*
X0Y314D02*
X7Y314D01*
X3271Y314D02*
X3300Y314D01*
X3332Y314D02*
X3339Y314D01*
X0Y313D02*
X7Y313D01*
X3267Y313D02*
X3300Y313D01*
X3332Y313D02*
X3339Y313D01*
X0Y312D02*
X7Y312D01*
X3264Y312D02*
X3300Y312D01*
X3332Y312D02*
X3339Y312D01*
X0Y311D02*
X7Y311D01*
X3263Y311D02*
X3300Y311D01*
X3332Y311D02*
X3339Y311D01*
X0Y310D02*
X7Y310D01*
X3262Y310D02*
X3298Y310D01*
X3332Y310D02*
X3339Y310D01*
X0Y309D02*
X7Y309D01*
X3262Y309D02*
X3281Y309D01*
X3332Y309D02*
X3339Y309D01*
X0Y308D02*
X7Y308D01*
X3262Y308D02*
X3274Y308D01*
X3332Y308D02*
X3339Y308D01*
X0Y307D02*
X7Y307D01*
X3262Y307D02*
X3271Y307D01*
X3332Y307D02*
X3339Y307D01*
X0Y306D02*
X7Y306D01*
X3262Y306D02*
X3270Y306D01*
X3332Y306D02*
X3339Y306D01*
X0Y305D02*
X7Y305D01*
X3262Y305D02*
X3272Y305D01*
X3332Y305D02*
X3339Y305D01*
X0Y304D02*
X7Y304D01*
X3262Y304D02*
X3274Y304D01*
X3332Y304D02*
X3339Y304D01*
X0Y303D02*
X7Y303D01*
X3263Y303D02*
X3276Y303D01*
X3332Y303D02*
X3339Y303D01*
X0Y302D02*
X7Y302D01*
X3264Y302D02*
X3285Y302D01*
X3332Y302D02*
X3339Y302D01*
X0Y301D02*
X7Y301D01*
X3266Y301D02*
X3287Y301D01*
X3332Y301D02*
X3339Y301D01*
X0Y300D02*
X7Y300D01*
X3268Y300D02*
X3288Y300D01*
X3332Y300D02*
X3339Y300D01*
X0Y299D02*
X7Y299D01*
X3269Y299D02*
X3288Y299D01*
X3332Y299D02*
X3339Y299D01*
X0Y298D02*
X7Y298D01*
X3269Y298D02*
X3288Y298D01*
X3332Y298D02*
X3339Y298D01*
X0Y297D02*
X7Y297D01*
X3268Y297D02*
X3288Y297D01*
X3332Y297D02*
X3339Y297D01*
X0Y296D02*
X7Y296D01*
X3266Y296D02*
X3287Y296D01*
X3332Y296D02*
X3339Y296D01*
X0Y295D02*
X7Y295D01*
X3264Y295D02*
X3277Y295D01*
X3332Y295D02*
X3339Y295D01*
X0Y294D02*
X7Y294D01*
X3263Y294D02*
X3275Y294D01*
X3332Y294D02*
X3339Y294D01*
X0Y293D02*
X7Y293D01*
X3262Y293D02*
X3274Y293D01*
X3332Y293D02*
X3339Y293D01*
X0Y292D02*
X7Y292D01*
X3262Y292D02*
X3272Y292D01*
X3332Y292D02*
X3339Y292D01*
X0Y291D02*
X7Y291D01*
X3262Y291D02*
X3270Y291D01*
X3332Y291D02*
X3339Y291D01*
X0Y290D02*
X7Y290D01*
X3262Y290D02*
X3271Y290D01*
X3332Y290D02*
X3339Y290D01*
X0Y289D02*
X7Y289D01*
X3262Y289D02*
X3274Y289D01*
X3332Y289D02*
X3339Y289D01*
X0Y288D02*
X7Y288D01*
X3262Y288D02*
X3283Y288D01*
X3332Y288D02*
X3339Y288D01*
X0Y287D02*
X7Y287D01*
X3262Y287D02*
X3299Y287D01*
X3332Y287D02*
X3339Y287D01*
X0Y286D02*
X7Y286D01*
X3263Y286D02*
X3300Y286D01*
X3332Y286D02*
X3339Y286D01*
X0Y285D02*
X7Y285D01*
X3264Y285D02*
X3300Y285D01*
X3332Y285D02*
X3339Y285D01*
X0Y284D02*
X7Y284D01*
X3267Y284D02*
X3300Y284D01*
X3332Y284D02*
X3339Y284D01*
X0Y283D02*
X7Y283D01*
X3271Y283D02*
X3300Y283D01*
X3332Y283D02*
X3339Y283D01*
X0Y282D02*
X7Y282D01*
X3274Y282D02*
X3300Y282D01*
X3332Y282D02*
X3339Y282D01*
X0Y281D02*
X7Y281D01*
X3284Y281D02*
X3298Y281D01*
X3332Y281D02*
X3339Y281D01*
X0Y280D02*
X7Y280D01*
X3332Y280D02*
X3339Y280D01*
X0Y279D02*
X7Y279D01*
X3332Y279D02*
X3339Y279D01*
X0Y278D02*
X7Y278D01*
X3332Y278D02*
X3339Y278D01*
X0Y277D02*
X7Y277D01*
X3332Y277D02*
X3339Y277D01*
X0Y276D02*
X7Y276D01*
X3332Y276D02*
X3339Y276D01*
X0Y275D02*
X7Y275D01*
X3332Y275D02*
X3339Y275D01*
X0Y274D02*
X7Y274D01*
X3332Y274D02*
X3339Y274D01*
X0Y273D02*
X7Y273D01*
X3332Y273D02*
X3339Y273D01*
X0Y272D02*
X7Y272D01*
X3332Y272D02*
X3339Y272D01*
X0Y271D02*
X7Y271D01*
X3332Y271D02*
X3339Y271D01*
X0Y270D02*
X7Y270D01*
X3332Y270D02*
X3339Y270D01*
X0Y269D02*
X7Y269D01*
X3332Y269D02*
X3339Y269D01*
X0Y268D02*
X7Y268D01*
X3332Y268D02*
X3339Y268D01*
X0Y267D02*
X7Y267D01*
X3332Y267D02*
X3339Y267D01*
X0Y266D02*
X7Y266D01*
X3332Y266D02*
X3339Y266D01*
X0Y265D02*
X7Y265D01*
X3332Y265D02*
X3339Y265D01*
X0Y264D02*
X7Y264D01*
X3332Y264D02*
X3339Y264D01*
X0Y263D02*
X7Y263D01*
X3332Y263D02*
X3339Y263D01*
X0Y262D02*
X7Y262D01*
X3264Y262D02*
X3265Y262D01*
X3297Y262D02*
X3298Y262D01*
X3332Y262D02*
X3339Y262D01*
X0Y261D02*
X7Y261D01*
X3263Y261D02*
X3267Y261D01*
X3295Y261D02*
X3299Y261D01*
X3332Y261D02*
X3339Y261D01*
X0Y260D02*
X7Y260D01*
X3262Y260D02*
X3268Y260D01*
X3295Y260D02*
X3300Y260D01*
X3332Y260D02*
X3339Y260D01*
X0Y259D02*
X7Y259D01*
X3262Y259D02*
X3268Y259D01*
X3294Y259D02*
X3300Y259D01*
X3332Y259D02*
X3339Y259D01*
X0Y258D02*
X7Y258D01*
X3262Y258D02*
X3268Y258D01*
X3294Y258D02*
X3300Y258D01*
X3332Y258D02*
X3339Y258D01*
X0Y257D02*
X7Y257D01*
X3262Y257D02*
X3268Y257D01*
X3294Y257D02*
X3300Y257D01*
X3332Y257D02*
X3339Y257D01*
X0Y256D02*
X7Y256D01*
X3262Y256D02*
X3268Y256D01*
X3294Y256D02*
X3300Y256D01*
X3332Y256D02*
X3339Y256D01*
X0Y255D02*
X7Y255D01*
X3262Y255D02*
X3268Y255D01*
X3294Y255D02*
X3300Y255D01*
X3311Y255D02*
X3316Y255D01*
X3332Y255D02*
X3339Y255D01*
X0Y254D02*
X7Y254D01*
X3262Y254D02*
X3268Y254D01*
X3294Y254D02*
X3300Y254D01*
X3310Y254D02*
X3317Y254D01*
X3332Y254D02*
X3339Y254D01*
X0Y253D02*
X7Y253D01*
X3262Y253D02*
X3268Y253D01*
X3294Y253D02*
X3300Y253D01*
X3309Y253D02*
X3318Y253D01*
X3332Y253D02*
X3339Y253D01*
X0Y252D02*
X7Y252D01*
X3262Y252D02*
X3268Y252D01*
X3294Y252D02*
X3300Y252D01*
X3309Y252D02*
X3318Y252D01*
X3332Y252D02*
X3339Y252D01*
X0Y251D02*
X7Y251D01*
X3262Y251D02*
X3300Y251D01*
X3309Y251D02*
X3318Y251D01*
X3332Y251D02*
X3339Y251D01*
X0Y250D02*
X7Y250D01*
X3262Y250D02*
X3300Y250D01*
X3309Y250D02*
X3318Y250D01*
X3332Y250D02*
X3339Y250D01*
X0Y249D02*
X7Y249D01*
X3262Y249D02*
X3300Y249D01*
X3309Y249D02*
X3318Y249D01*
X3332Y249D02*
X3339Y249D01*
X0Y248D02*
X7Y248D01*
X3262Y248D02*
X3300Y248D01*
X3309Y248D02*
X3318Y248D01*
X3332Y248D02*
X3339Y248D01*
X0Y247D02*
X7Y247D01*
X3262Y247D02*
X3300Y247D01*
X3309Y247D02*
X3318Y247D01*
X3332Y247D02*
X3339Y247D01*
X0Y246D02*
X7Y246D01*
X3262Y246D02*
X3299Y246D01*
X3310Y246D02*
X3317Y246D01*
X3332Y246D02*
X3339Y246D01*
X0Y245D02*
X7Y245D01*
X3262Y245D02*
X3298Y245D01*
X3312Y245D02*
X3315Y245D01*
X3332Y245D02*
X3339Y245D01*
X0Y244D02*
X7Y244D01*
X3262Y244D02*
X3268Y244D01*
X3332Y244D02*
X3339Y244D01*
X0Y243D02*
X7Y243D01*
X3262Y243D02*
X3268Y243D01*
X3332Y243D02*
X3339Y243D01*
X0Y242D02*
X7Y242D01*
X3262Y242D02*
X3268Y242D01*
X3332Y242D02*
X3339Y242D01*
X0Y241D02*
X7Y241D01*
X3262Y241D02*
X3268Y241D01*
X3332Y241D02*
X3339Y241D01*
X0Y240D02*
X7Y240D01*
X3262Y240D02*
X3268Y240D01*
X3332Y240D02*
X3339Y240D01*
X0Y239D02*
X7Y239D01*
X3262Y239D02*
X3268Y239D01*
X3332Y239D02*
X3339Y239D01*
X0Y238D02*
X7Y238D01*
X3262Y238D02*
X3268Y238D01*
X3332Y238D02*
X3339Y238D01*
X0Y237D02*
X7Y237D01*
X3262Y237D02*
X3268Y237D01*
X3332Y237D02*
X3339Y237D01*
X0Y236D02*
X7Y236D01*
X3263Y236D02*
X3267Y236D01*
X3332Y236D02*
X3339Y236D01*
X0Y235D02*
X7Y235D01*
X3264Y235D02*
X3266Y235D01*
X3332Y235D02*
X3339Y235D01*
X0Y234D02*
X7Y234D01*
X3332Y234D02*
X3339Y234D01*
X0Y233D02*
X7Y233D01*
X3332Y233D02*
X3339Y233D01*
X0Y232D02*
X7Y232D01*
X3332Y232D02*
X3339Y232D01*
X0Y231D02*
X7Y231D01*
X3332Y231D02*
X3339Y231D01*
X0Y230D02*
X7Y230D01*
X3332Y230D02*
X3339Y230D01*
X0Y229D02*
X7Y229D01*
X3332Y229D02*
X3339Y229D01*
X0Y228D02*
X7Y228D01*
X3332Y228D02*
X3339Y228D01*
X0Y227D02*
X7Y227D01*
X3332Y227D02*
X3339Y227D01*
X0Y226D02*
X7Y226D01*
X3332Y226D02*
X3339Y226D01*
X0Y225D02*
X7Y225D01*
X3332Y225D02*
X3339Y225D01*
X0Y224D02*
X7Y224D01*
X3332Y224D02*
X3339Y224D01*
X0Y223D02*
X7Y223D01*
X3332Y223D02*
X3339Y223D01*
X0Y222D02*
X7Y222D01*
X3332Y222D02*
X3339Y222D01*
X0Y221D02*
X7Y221D01*
X3332Y221D02*
X3339Y221D01*
X0Y220D02*
X7Y220D01*
X3332Y220D02*
X3339Y220D01*
X0Y219D02*
X7Y219D01*
X3332Y219D02*
X3339Y219D01*
X0Y218D02*
X7Y218D01*
X3332Y218D02*
X3339Y218D01*
X0Y217D02*
X7Y217D01*
X3332Y217D02*
X3339Y217D01*
X0Y216D02*
X7Y216D01*
X3332Y216D02*
X3339Y216D01*
X0Y215D02*
X7Y215D01*
X3296Y215D02*
X3298Y215D01*
X3332Y215D02*
X3339Y215D01*
X0Y214D02*
X7Y214D01*
X3295Y214D02*
X3300Y214D01*
X3332Y214D02*
X3339Y214D01*
X0Y213D02*
X7Y213D01*
X3295Y213D02*
X3300Y213D01*
X3332Y213D02*
X3339Y213D01*
X0Y212D02*
X7Y212D01*
X3294Y212D02*
X3300Y212D01*
X3332Y212D02*
X3339Y212D01*
X0Y211D02*
X7Y211D01*
X3294Y211D02*
X3300Y211D01*
X3332Y211D02*
X3339Y211D01*
X0Y210D02*
X7Y210D01*
X3294Y210D02*
X3300Y210D01*
X3332Y210D02*
X3339Y210D01*
X0Y209D02*
X7Y209D01*
X3294Y209D02*
X3300Y209D01*
X3332Y209D02*
X3339Y209D01*
X0Y208D02*
X7Y208D01*
X3269Y208D02*
X3310Y208D01*
X3332Y208D02*
X3339Y208D01*
X0Y207D02*
X7Y207D01*
X3267Y207D02*
X3312Y207D01*
X3332Y207D02*
X3339Y207D01*
X0Y206D02*
X7Y206D01*
X3266Y206D02*
X3312Y206D01*
X3332Y206D02*
X3339Y206D01*
X0Y205D02*
X7Y205D01*
X3265Y205D02*
X3312Y205D01*
X3332Y205D02*
X3339Y205D01*
X0Y204D02*
X7Y204D01*
X2575Y204D02*
X2698Y204D01*
X2748Y204D02*
X3119Y204D01*
X3143Y204D02*
X3168Y204D01*
X3264Y204D02*
X3312Y204D01*
X3332Y204D02*
X3339Y204D01*
X0Y203D02*
X7Y203D01*
X2574Y203D02*
X2698Y203D01*
X2748Y203D02*
X3121Y203D01*
X3141Y203D02*
X3168Y203D01*
X3263Y203D02*
X3311Y203D01*
X3332Y203D02*
X3339Y203D01*
X0Y202D02*
X7Y202D01*
X2574Y202D02*
X2698Y202D01*
X2748Y202D02*
X3123Y202D01*
X3139Y202D02*
X3168Y202D01*
X3263Y202D02*
X3310Y202D01*
X3332Y202D02*
X3339Y202D01*
X0Y201D02*
X7Y201D01*
X2575Y201D02*
X2698Y201D01*
X2748Y201D02*
X3127Y201D01*
X3135Y201D02*
X3168Y201D01*
X3262Y201D02*
X3270Y201D01*
X3294Y201D02*
X3300Y201D01*
X3332Y201D02*
X3339Y201D01*
X0Y200D02*
X7Y200D01*
X2576Y200D02*
X2698Y200D01*
X2748Y200D02*
X3167Y200D01*
X3262Y200D02*
X3269Y200D01*
X3294Y200D02*
X3300Y200D01*
X3332Y200D02*
X3339Y200D01*
X0Y199D02*
X7Y199D01*
X3262Y199D02*
X3268Y199D01*
X3294Y199D02*
X3300Y199D01*
X3332Y199D02*
X3339Y199D01*
X0Y198D02*
X7Y198D01*
X3262Y198D02*
X3268Y198D01*
X3294Y198D02*
X3300Y198D01*
X3332Y198D02*
X3339Y198D01*
X0Y197D02*
X7Y197D01*
X3262Y197D02*
X3268Y197D01*
X3294Y197D02*
X3300Y197D01*
X3332Y197D02*
X3339Y197D01*
X0Y196D02*
X7Y196D01*
X3262Y196D02*
X3268Y196D01*
X3294Y196D02*
X3300Y196D01*
X3332Y196D02*
X3339Y196D01*
X0Y195D02*
X7Y195D01*
X3262Y195D02*
X3268Y195D01*
X3294Y195D02*
X3300Y195D01*
X3332Y195D02*
X3339Y195D01*
X0Y194D02*
X7Y194D01*
X3262Y194D02*
X3268Y194D01*
X3294Y194D02*
X3300Y194D01*
X3332Y194D02*
X3339Y194D01*
X0Y193D02*
X7Y193D01*
X3262Y193D02*
X3268Y193D01*
X3294Y193D02*
X3300Y193D01*
X3332Y193D02*
X3339Y193D01*
X0Y192D02*
X7Y192D01*
X3262Y192D02*
X3268Y192D01*
X3294Y192D02*
X3300Y192D01*
X3332Y192D02*
X3339Y192D01*
X0Y191D02*
X7Y191D01*
X3262Y191D02*
X3268Y191D01*
X3294Y191D02*
X3300Y191D01*
X3332Y191D02*
X3339Y191D01*
X0Y190D02*
X7Y190D01*
X3262Y190D02*
X3268Y190D01*
X3294Y190D02*
X3300Y190D01*
X3332Y190D02*
X3339Y190D01*
X0Y189D02*
X7Y189D01*
X3262Y189D02*
X3269Y189D01*
X3294Y189D02*
X3300Y189D01*
X3332Y189D02*
X3339Y189D01*
X0Y188D02*
X7Y188D01*
X3262Y188D02*
X3271Y188D01*
X3294Y188D02*
X3300Y188D01*
X3332Y188D02*
X3339Y188D01*
X0Y187D02*
X7Y187D01*
X3263Y187D02*
X3272Y187D01*
X3295Y187D02*
X3300Y187D01*
X3332Y187D02*
X3339Y187D01*
X0Y186D02*
X7Y186D01*
X3263Y186D02*
X3273Y186D01*
X3295Y186D02*
X3300Y186D01*
X3332Y186D02*
X3339Y186D01*
X0Y185D02*
X7Y185D01*
X3264Y185D02*
X3274Y185D01*
X3296Y185D02*
X3299Y185D01*
X3332Y185D02*
X3339Y185D01*
X0Y184D02*
X7Y184D01*
X3265Y184D02*
X3274Y184D01*
X3332Y184D02*
X3339Y184D01*
X0Y183D02*
X7Y183D01*
X3266Y183D02*
X3274Y183D01*
X3332Y183D02*
X3339Y183D01*
X0Y182D02*
X7Y182D01*
X3268Y182D02*
X3273Y182D01*
X3332Y182D02*
X3339Y182D01*
X0Y181D02*
X7Y181D01*
X3270Y181D02*
X3271Y181D01*
X3332Y181D02*
X3339Y181D01*
X0Y180D02*
X7Y180D01*
X3332Y180D02*
X3339Y180D01*
X0Y179D02*
X7Y179D01*
X3332Y179D02*
X3339Y179D01*
X0Y178D02*
X7Y178D01*
X3332Y178D02*
X3339Y178D01*
X0Y177D02*
X7Y177D01*
X3332Y177D02*
X3339Y177D01*
X0Y176D02*
X7Y176D01*
X3332Y176D02*
X3339Y176D01*
X0Y175D02*
X7Y175D01*
X3332Y175D02*
X3339Y175D01*
X0Y174D02*
X7Y174D01*
X3332Y174D02*
X3339Y174D01*
X0Y173D02*
X7Y173D01*
X3332Y173D02*
X3339Y173D01*
X0Y172D02*
X7Y172D01*
X3332Y172D02*
X3339Y172D01*
X0Y171D02*
X7Y171D01*
X3332Y171D02*
X3339Y171D01*
X0Y170D02*
X7Y170D01*
X3332Y170D02*
X3339Y170D01*
X0Y169D02*
X7Y169D01*
X3332Y169D02*
X3339Y169D01*
X0Y168D02*
X7Y168D01*
X3332Y168D02*
X3339Y168D01*
X0Y167D02*
X7Y167D01*
X3332Y167D02*
X3339Y167D01*
X0Y166D02*
X7Y166D01*
X3332Y166D02*
X3339Y166D01*
X0Y165D02*
X7Y165D01*
X3275Y165D02*
X3287Y165D01*
X3332Y165D02*
X3339Y165D01*
X0Y164D02*
X7Y164D01*
X3273Y164D02*
X3290Y164D01*
X3332Y164D02*
X3339Y164D01*
X0Y163D02*
X7Y163D01*
X3271Y163D02*
X3291Y163D01*
X3332Y163D02*
X3339Y163D01*
X0Y162D02*
X7Y162D01*
X3270Y162D02*
X3292Y162D01*
X3332Y162D02*
X3339Y162D01*
X0Y161D02*
X7Y161D01*
X3269Y161D02*
X3293Y161D01*
X3332Y161D02*
X3339Y161D01*
X0Y160D02*
X7Y160D01*
X3268Y160D02*
X3294Y160D01*
X3332Y160D02*
X3339Y160D01*
X0Y159D02*
X7Y159D01*
X3267Y159D02*
X3295Y159D01*
X3332Y159D02*
X3339Y159D01*
X0Y158D02*
X7Y158D01*
X3266Y158D02*
X3275Y158D01*
X3287Y158D02*
X3296Y158D01*
X3332Y158D02*
X3339Y158D01*
X0Y157D02*
X7Y157D01*
X3266Y157D02*
X3274Y157D01*
X3288Y157D02*
X3297Y157D01*
X3332Y157D02*
X3339Y157D01*
X0Y156D02*
X7Y156D01*
X3265Y156D02*
X3273Y156D01*
X3289Y156D02*
X3298Y156D01*
X3332Y156D02*
X3339Y156D01*
X0Y155D02*
X7Y155D01*
X3264Y155D02*
X3272Y155D01*
X3290Y155D02*
X3298Y155D01*
X3332Y155D02*
X3339Y155D01*
X0Y154D02*
X7Y154D01*
X3263Y154D02*
X3271Y154D01*
X3291Y154D02*
X3299Y154D01*
X3332Y154D02*
X3339Y154D01*
X0Y153D02*
X7Y153D01*
X3263Y153D02*
X3270Y153D01*
X3292Y153D02*
X3299Y153D01*
X3332Y153D02*
X3339Y153D01*
X0Y152D02*
X7Y152D01*
X3262Y152D02*
X3270Y152D01*
X3293Y152D02*
X3300Y152D01*
X3332Y152D02*
X3339Y152D01*
X0Y151D02*
X7Y151D01*
X3262Y151D02*
X3269Y151D01*
X3294Y151D02*
X3300Y151D01*
X3332Y151D02*
X3339Y151D01*
X0Y150D02*
X7Y150D01*
X3262Y150D02*
X3268Y150D01*
X3294Y150D02*
X3300Y150D01*
X3332Y150D02*
X3339Y150D01*
X0Y149D02*
X7Y149D01*
X3262Y149D02*
X3268Y149D01*
X3294Y149D02*
X3300Y149D01*
X3332Y149D02*
X3339Y149D01*
X0Y148D02*
X7Y148D01*
X3262Y148D02*
X3268Y148D01*
X3294Y148D02*
X3300Y148D01*
X3332Y148D02*
X3339Y148D01*
X0Y147D02*
X7Y147D01*
X3263Y147D02*
X3268Y147D01*
X3294Y147D02*
X3300Y147D01*
X3332Y147D02*
X3339Y147D01*
X0Y146D02*
X7Y146D01*
X3263Y146D02*
X3268Y146D01*
X3294Y146D02*
X3300Y146D01*
X3332Y146D02*
X3339Y146D01*
X0Y145D02*
X7Y145D01*
X3263Y145D02*
X3268Y145D01*
X3294Y145D02*
X3300Y145D01*
X3332Y145D02*
X3339Y145D01*
X0Y144D02*
X7Y144D01*
X3263Y144D02*
X3268Y144D01*
X3294Y144D02*
X3300Y144D01*
X3332Y144D02*
X3339Y144D01*
X0Y143D02*
X7Y143D01*
X3263Y143D02*
X3268Y143D01*
X3294Y143D02*
X3300Y143D01*
X3332Y143D02*
X3339Y143D01*
X0Y142D02*
X7Y142D01*
X3263Y142D02*
X3268Y142D01*
X3294Y142D02*
X3300Y142D01*
X3332Y142D02*
X3339Y142D01*
X0Y141D02*
X7Y141D01*
X3264Y141D02*
X3268Y141D01*
X3294Y141D02*
X3300Y141D01*
X3332Y141D02*
X3339Y141D01*
X0Y140D02*
X7Y140D01*
X3264Y140D02*
X3268Y140D01*
X3294Y140D02*
X3300Y140D01*
X3332Y140D02*
X3339Y140D01*
X0Y139D02*
X7Y139D01*
X3264Y139D02*
X3268Y139D01*
X3294Y139D02*
X3300Y139D01*
X3332Y139D02*
X3339Y139D01*
X0Y138D02*
X7Y138D01*
X3264Y138D02*
X3268Y138D01*
X3294Y138D02*
X3300Y138D01*
X3332Y138D02*
X3339Y138D01*
X0Y137D02*
X7Y137D01*
X3264Y137D02*
X3268Y137D01*
X3294Y137D02*
X3300Y137D01*
X3332Y137D02*
X3339Y137D01*
X0Y136D02*
X7Y136D01*
X3264Y136D02*
X3268Y136D01*
X3294Y136D02*
X3300Y136D01*
X3332Y136D02*
X3339Y136D01*
X0Y135D02*
X7Y135D01*
X3264Y135D02*
X3268Y135D01*
X3294Y135D02*
X3300Y135D01*
X3332Y135D02*
X3339Y135D01*
X0Y134D02*
X7Y134D01*
X3264Y134D02*
X3268Y134D01*
X3294Y134D02*
X3300Y134D01*
X3332Y134D02*
X3339Y134D01*
X0Y133D02*
X7Y133D01*
X3263Y133D02*
X3268Y133D01*
X3295Y133D02*
X3300Y133D01*
X3332Y133D02*
X3339Y133D01*
X0Y132D02*
X7Y132D01*
X3263Y132D02*
X3267Y132D01*
X3295Y132D02*
X3299Y132D01*
X3332Y132D02*
X3339Y132D01*
X0Y131D02*
X7Y131D01*
X3264Y131D02*
X3266Y131D01*
X3297Y131D02*
X3298Y131D01*
X3332Y131D02*
X3339Y131D01*
X0Y130D02*
X7Y130D01*
X3332Y130D02*
X3339Y130D01*
X0Y129D02*
X7Y129D01*
X3332Y129D02*
X3339Y129D01*
X0Y128D02*
X7Y128D01*
X3332Y128D02*
X3339Y128D01*
X0Y127D02*
X7Y127D01*
X3332Y127D02*
X3339Y127D01*
X0Y126D02*
X7Y126D01*
X3332Y126D02*
X3339Y126D01*
X0Y125D02*
X7Y125D01*
X3332Y125D02*
X3339Y125D01*
X0Y124D02*
X7Y124D01*
X3332Y124D02*
X3339Y124D01*
X0Y123D02*
X7Y123D01*
X3332Y123D02*
X3339Y123D01*
X0Y122D02*
X7Y122D01*
X3332Y122D02*
X3339Y122D01*
X0Y121D02*
X7Y121D01*
X3332Y121D02*
X3339Y121D01*
X0Y120D02*
X7Y120D01*
X3332Y120D02*
X3339Y120D01*
X0Y119D02*
X7Y119D01*
X3332Y119D02*
X3339Y119D01*
X0Y118D02*
X7Y118D01*
X3332Y118D02*
X3339Y118D01*
X0Y117D02*
X7Y117D01*
X3332Y117D02*
X3339Y117D01*
X0Y116D02*
X7Y116D01*
X3332Y116D02*
X3339Y116D01*
X0Y115D02*
X7Y115D01*
X3265Y115D02*
X3312Y115D01*
X3332Y115D02*
X3339Y115D01*
X0Y114D02*
X7Y114D01*
X3263Y114D02*
X3314Y114D01*
X3332Y114D02*
X3339Y114D01*
X0Y113D02*
X7Y113D01*
X3262Y113D02*
X3315Y113D01*
X3332Y113D02*
X3339Y113D01*
X0Y112D02*
X7Y112D01*
X3262Y112D02*
X3315Y112D01*
X3332Y112D02*
X3339Y112D01*
X0Y111D02*
X7Y111D01*
X3262Y111D02*
X3315Y111D01*
X3332Y111D02*
X3339Y111D01*
X0Y110D02*
X7Y110D01*
X3262Y110D02*
X3315Y110D01*
X3332Y110D02*
X3339Y110D01*
X0Y109D02*
X7Y109D01*
X3263Y109D02*
X3314Y109D01*
X3332Y109D02*
X3339Y109D01*
X0Y108D02*
X7Y108D01*
X3287Y108D02*
X3295Y108D01*
X3332Y108D02*
X3339Y108D01*
X0Y107D02*
X7Y107D01*
X3288Y107D02*
X3295Y107D01*
X3332Y107D02*
X3339Y107D01*
X0Y106D02*
X7Y106D01*
X3288Y106D02*
X3296Y106D01*
X3332Y106D02*
X3339Y106D01*
X0Y105D02*
X7Y105D01*
X3289Y105D02*
X3296Y105D01*
X3332Y105D02*
X3339Y105D01*
X0Y104D02*
X7Y104D01*
X3290Y104D02*
X3297Y104D01*
X3332Y104D02*
X3339Y104D01*
X0Y103D02*
X7Y103D01*
X3290Y103D02*
X3298Y103D01*
X3332Y103D02*
X3339Y103D01*
X0Y102D02*
X7Y102D01*
X3291Y102D02*
X3298Y102D01*
X3332Y102D02*
X3339Y102D01*
X0Y101D02*
X7Y101D01*
X3292Y101D02*
X3299Y101D01*
X3332Y101D02*
X3339Y101D01*
X0Y100D02*
X7Y100D01*
X3292Y100D02*
X3299Y100D01*
X3332Y100D02*
X3339Y100D01*
X0Y99D02*
X7Y99D01*
X3293Y99D02*
X3300Y99D01*
X3332Y99D02*
X3339Y99D01*
X0Y98D02*
X7Y98D01*
X3294Y98D02*
X3300Y98D01*
X3332Y98D02*
X3339Y98D01*
X0Y97D02*
X7Y97D01*
X3294Y97D02*
X3300Y97D01*
X3332Y97D02*
X3339Y97D01*
X0Y96D02*
X7Y96D01*
X3294Y96D02*
X3300Y96D01*
X3332Y96D02*
X3339Y96D01*
X0Y95D02*
X7Y95D01*
X3294Y95D02*
X3300Y95D01*
X3332Y95D02*
X3339Y95D01*
X0Y94D02*
X7Y94D01*
X3294Y94D02*
X3300Y94D01*
X3332Y94D02*
X3339Y94D01*
X0Y93D02*
X7Y93D01*
X3294Y93D02*
X3300Y93D01*
X3332Y93D02*
X3339Y93D01*
X0Y92D02*
X7Y92D01*
X3294Y92D02*
X3300Y92D01*
X3332Y92D02*
X3339Y92D01*
X0Y91D02*
X7Y91D01*
X3294Y91D02*
X3300Y91D01*
X3332Y91D02*
X3339Y91D01*
X0Y90D02*
X7Y90D01*
X3294Y90D02*
X3300Y90D01*
X3332Y90D02*
X3339Y90D01*
X0Y89D02*
X7Y89D01*
X3293Y89D02*
X3300Y89D01*
X3332Y89D02*
X3339Y89D01*
X0Y88D02*
X7Y88D01*
X3278Y88D02*
X3300Y88D01*
X3332Y88D02*
X3339Y88D01*
X0Y87D02*
X7Y87D01*
X3264Y87D02*
X3299Y87D01*
X3332Y87D02*
X3339Y87D01*
X0Y86D02*
X7Y86D01*
X3263Y86D02*
X3299Y86D01*
X3332Y86D02*
X3339Y86D01*
X0Y85D02*
X7Y85D01*
X3262Y85D02*
X3298Y85D01*
X3332Y85D02*
X3339Y85D01*
X0Y84D02*
X7Y84D01*
X3262Y84D02*
X3297Y84D01*
X3332Y84D02*
X3339Y84D01*
X0Y83D02*
X7Y83D01*
X3262Y83D02*
X3295Y83D01*
X3332Y83D02*
X3339Y83D01*
X0Y82D02*
X7Y82D01*
X3263Y82D02*
X3293Y82D01*
X3332Y82D02*
X3339Y82D01*
X0Y81D02*
X7Y81D01*
X3264Y81D02*
X3277Y81D01*
X3332Y81D02*
X3339Y81D01*
X0Y80D02*
X7Y80D01*
X3332Y80D02*
X3339Y80D01*
X0Y79D02*
X7Y79D01*
X3332Y79D02*
X3339Y79D01*
X0Y78D02*
X7Y78D01*
X3332Y78D02*
X3339Y78D01*
X0Y77D02*
X7Y77D01*
X3332Y77D02*
X3339Y77D01*
X0Y76D02*
X7Y76D01*
X3332Y76D02*
X3339Y76D01*
X0Y75D02*
X7Y75D01*
X3332Y75D02*
X3339Y75D01*
X0Y74D02*
X7Y74D01*
X3332Y74D02*
X3339Y74D01*
X0Y73D02*
X7Y73D01*
X3332Y73D02*
X3339Y73D01*
X0Y72D02*
X7Y72D01*
X3332Y72D02*
X3339Y72D01*
X0Y71D02*
X7Y71D01*
X3332Y71D02*
X3339Y71D01*
X0Y70D02*
X7Y70D01*
X3332Y70D02*
X3339Y70D01*
X0Y69D02*
X7Y69D01*
X3332Y69D02*
X3339Y69D01*
X0Y68D02*
X7Y68D01*
X3332Y68D02*
X3339Y68D01*
X0Y67D02*
X7Y67D01*
X3332Y67D02*
X3339Y67D01*
X0Y66D02*
X7Y66D01*
X3332Y66D02*
X3339Y66D01*
X0Y65D02*
X7Y65D01*
X3332Y65D02*
X3339Y65D01*
X0Y64D02*
X7Y64D01*
X3332Y64D02*
X3339Y64D01*
X0Y63D02*
X7Y63D01*
X3332Y63D02*
X3339Y63D01*
X0Y62D02*
X7Y62D01*
X3332Y62D02*
X3339Y62D01*
X0Y61D02*
X7Y61D01*
X3332Y61D02*
X3339Y61D01*
X0Y60D02*
X7Y60D01*
X3332Y60D02*
X3339Y60D01*
X0Y59D02*
X7Y59D01*
X3332Y59D02*
X3339Y59D01*
X0Y58D02*
X7Y58D01*
X3332Y58D02*
X3339Y58D01*
X0Y57D02*
X7Y57D01*
X3332Y57D02*
X3339Y57D01*
X0Y56D02*
X7Y56D01*
X3332Y56D02*
X3339Y56D01*
X0Y55D02*
X7Y55D01*
X3332Y55D02*
X3339Y55D01*
X0Y54D02*
X7Y54D01*
X3332Y54D02*
X3339Y54D01*
X0Y53D02*
X7Y53D01*
X3332Y53D02*
X3339Y53D01*
X0Y52D02*
X7Y52D01*
X3332Y52D02*
X3339Y52D01*
X0Y51D02*
X7Y51D01*
X3332Y51D02*
X3339Y51D01*
X0Y50D02*
X7Y50D01*
X3332Y50D02*
X3339Y50D01*
X0Y49D02*
X7Y49D01*
X3332Y49D02*
X3339Y49D01*
X0Y48D02*
X7Y48D01*
X3332Y48D02*
X3339Y48D01*
X0Y47D02*
X7Y47D01*
X3332Y47D02*
X3339Y47D01*
X0Y46D02*
X7Y46D01*
X3332Y46D02*
X3339Y46D01*
X0Y45D02*
X7Y45D01*
X3332Y45D02*
X3339Y45D01*
X0Y44D02*
X7Y44D01*
X3332Y44D02*
X3339Y44D01*
X0Y43D02*
X7Y43D01*
X3332Y43D02*
X3339Y43D01*
X0Y42D02*
X7Y42D01*
X3332Y42D02*
X3339Y42D01*
X0Y41D02*
X7Y41D01*
X3332Y41D02*
X3339Y41D01*
X0Y40D02*
X7Y40D01*
X3332Y40D02*
X3339Y40D01*
X0Y39D02*
X7Y39D01*
X3332Y39D02*
X3339Y39D01*
X0Y38D02*
X7Y38D01*
X3332Y38D02*
X3339Y38D01*
X0Y37D02*
X7Y37D01*
X3332Y37D02*
X3339Y37D01*
X0Y36D02*
X7Y36D01*
X3332Y36D02*
X3339Y36D01*
X0Y35D02*
X7Y35D01*
X3332Y35D02*
X3339Y35D01*
X0Y34D02*
X7Y34D01*
X3332Y34D02*
X3339Y34D01*
X0Y33D02*
X7Y33D01*
X3332Y33D02*
X3339Y33D01*
X0Y32D02*
X7Y32D01*
X3332Y32D02*
X3339Y32D01*
X0Y31D02*
X7Y31D01*
X3332Y31D02*
X3339Y31D01*
X0Y30D02*
X7Y30D01*
X3332Y30D02*
X3339Y30D01*
X0Y29D02*
X7Y29D01*
X3332Y29D02*
X3339Y29D01*
X0Y28D02*
X7Y28D01*
X3332Y28D02*
X3339Y28D01*
X0Y27D02*
X7Y27D01*
X3332Y27D02*
X3339Y27D01*
X0Y26D02*
X7Y26D01*
X3332Y26D02*
X3339Y26D01*
X0Y25D02*
X7Y25D01*
X3332Y25D02*
X3339Y25D01*
X0Y24D02*
X7Y24D01*
X3332Y24D02*
X3339Y24D01*
X0Y23D02*
X7Y23D01*
X3332Y23D02*
X3339Y23D01*
X0Y22D02*
X7Y22D01*
X3332Y22D02*
X3339Y22D01*
X0Y21D02*
X7Y21D01*
X3332Y21D02*
X3339Y21D01*
X0Y20D02*
X7Y20D01*
X3332Y20D02*
X3339Y20D01*
X0Y19D02*
X7Y19D01*
X3332Y19D02*
X3339Y19D01*
X0Y18D02*
X7Y18D01*
X3332Y18D02*
X3339Y18D01*
X0Y17D02*
X7Y17D01*
X3332Y17D02*
X3339Y17D01*
X0Y16D02*
X7Y16D01*
X3332Y16D02*
X3339Y16D01*
X0Y15D02*
X7Y15D01*
X3332Y15D02*
X3339Y15D01*
X0Y14D02*
X7Y14D01*
X3332Y14D02*
X3339Y14D01*
X0Y13D02*
X7Y13D01*
X3332Y13D02*
X3339Y13D01*
X0Y12D02*
X7Y12D01*
X3332Y12D02*
X3339Y12D01*
X0Y11D02*
X7Y11D01*
X3332Y11D02*
X3339Y11D01*
X0Y10D02*
X7Y10D01*
X3332Y10D02*
X3339Y10D01*
X0Y9D02*
X3339Y9D01*
X0Y8D02*
X3339Y8D01*
X0Y7D02*
X3339Y7D01*
X0Y6D02*
X3339Y6D01*
X0Y5D02*
X3339Y5D01*
X0Y4D02*
X3339Y4D01*
X0Y3D02*
X3339Y3D01*
X0Y2D02*
X3339Y2D01*
D02*
G04 End of Silk1*
M02*